<svg xmlns="http://www.w3.org/2000/svg" version="1.1" width="1704" height="938" viewBox="-87.90609105343344 -834.0175054307849 2187.1307760716463 1203.9487488000025" preserveAspectRatio="none"><defs id="bmaDefs"><marker id="Activator" refX="3" refY="3" markerWidth="4" markerHeight="6" orient="auto" viewBox="0 0 4 6"><polyline points="1,1 3,3 1,5" fill="none" stroke="#aaa" stroke-width="1px" stroke-linecap="round" stroke-linejoin="round"/></marker><marker id="Inhibitor" refX="-0.5" refY="0" markerWidth="6" markerHeight="6" orient="auto" viewBox="-2 -4 4 8"><polyline points="0,1.5 0,-1.5" fill="none" stroke="#aaa" stroke-width="1px" stroke-linecap="round"/></marker><marker id="ActivatorSelected" refX="3" refY="3" markerWidth="4" markerHeight="6" orient="auto" viewBox="0 0 4 6"><polyline points="1,1 3,3 1,5" fill="none" stroke="#999999" stroke-width="1px" stroke-linecap="round" stroke-linejoin="round"/></marker><marker id="InhibitorSelected" refX="-0.5" refY="0" markerWidth="6" markerHeight="6" orient="auto" viewBox="-2 -4 4 8"><polyline points="0,1.5 0,-1.5" fill="none" stroke="#999999" stroke-width="1px" stroke-linecap="round"/></marker><marker id="ActivatorHighlighted" refX="3" refY="3" markerWidth="4" markerHeight="6" orient="auto" viewBox="0 0 4 6"><polyline points="1,1 3,3 1,5" fill="none" stroke="#33cc00" stroke-width="1px" stroke-linecap="round" stroke-linejoin="round"/></marker><marker id="InhibitorHighlighted" refX="-0.5" refY="0" markerWidth="6" markerHeight="6" orient="auto" viewBox="-2 -4 4 8"><polyline points="0,1.5 0,-1.5" fill="none" stroke="#33cc00" stroke-width="1px" stroke-linecap="round"/></marker></defs><g transform="translate(875, -420)"><rect x="-374.75" y="-419.72" width="749.5" height="839.44" stroke="none" fill="none"/><path d="M 640.36 249.05 c 113.22 0 205.33 106.84 205.33 238.16 S 753.58 725.37 640.36 725.37 S 435 618.53 435 487.21 s 92.11 -238.16 205.32 -238.16 m 0 -22.73 c -126 0 -228.06 116.8 -228.06 260.89 S 514.41 748.1 640.36 748.1 S 868.43 631.3 868.43 487.21 S 766.32 226.32 640.36 226.32 Z" stroke="#d0e9f0" stroke-width="2" fill="#d0e9f0" fill-rule="evenodd" transform="scale(1.56) translate(-640, -487)"/><ellipse cx="0" cy="0" rx="344" ry="396.5" stroke="none" fill="white"/></g><g transform="translate(1625, -420)"><rect x="-374.75" y="-419.72" width="749.5" height="839.44" stroke="none" fill="none"/><path d="M 640.36 249.05 c 113.22 0 205.33 106.84 205.33 238.16 S 753.58 725.37 640.36 725.37 S 435 618.53 435 487.21 s 92.11 -238.16 205.32 -238.16 m 0 -22.73 c -126 0 -228.06 116.8 -228.06 260.89 S 514.41 748.1 640.36 748.1 S 868.43 631.3 868.43 487.21 S 766.32 226.32 640.36 226.32 Z" stroke="#d0e9f0" stroke-width="2" fill="#d0e9f0" fill-rule="evenodd" transform="scale(1.56) translate(-640, -487)"/><ellipse cx="0" cy="0" rx="344" ry="396.5" stroke="none" fill="white"/></g><g transform="translate(1125, 140)"><rect x="-124.75" y="-139.72" width="249.5" height="279.44" stroke="none" fill="none"/><path d="M 640.36 249.05 c 113.22 0 205.33 106.84 205.33 238.16 S 753.58 725.37 640.36 725.37 S 435 618.53 435 487.21 s 92.11 -238.16 205.32 -238.16 m 0 -22.73 c -126 0 -228.06 116.8 -228.06 260.89 S 514.41 748.1 640.36 748.1 S 868.43 631.3 868.43 487.21 S 766.32 226.32 640.36 226.32 Z" stroke="#d0e9f0" stroke-width="2" fill="#d0e9f0" fill-rule="evenodd" transform="scale(0.52) translate(-640, -487)"/><ellipse cx="0" cy="0" rx="106" ry="123.5" stroke="none" fill="white"/></g><g transform="translate(837.1891883638809, -742.5946973973508)"><path d="M54.88 71.29 a 4.58 4.58 0 0 1 -3.28 -1.36 a 4.65 4.65 0 0 1 0 -6.57 l 11.11 -11 A 1.65 1.65 0 0 0 60.38 50 L 49.3 61.06 a 4.65 4.65 0 0 1 -7.93 -3.28 a 4.66 4.66 0 0 1 1.36 -3.29 l 11.12 -11 a 1.65 1.65 0 0 0 -1.17 -2.8 a 1.67 1.67 0 0 0 -1.17 0.48 L 40.44 52.2 a 4.65 4.65 0 0 1 -6.57 -6.57 L 45 34.59 a 1.63 1.63 0 0 0 0.48 -1.16 A 1.67 1.67 0 0 0 45 32.26 a 1.65 1.65 0 0 0 -1.17 -0.48 a 1.63 1.63 0 0 0 -1.16 0.48 L 29.28 45.63 a 1.5 1.5 0 1 1 -2.12 -2.12 L 40.53 30.14 a 4.65 4.65 0 0 1 7.93 3.29 a 4.58 4.58 0 0 1 -1.36 3.28 L 36 47.75 a 1.65 1.65 0 0 0 0 2.33 a 1.65 1.65 0 0 0 2.33 0 L 49.39 39 A 4.65 4.65 0 0 1 56 39 a 4.65 4.65 0 0 1 0 6.57 l -11.11 11 a 1.64 1.64 0 0 0 0 2.32 a 1.66 1.66 0 0 0 1.17 0.47 a 1.64 1.64 0 0 0 1.16 -0.47 L 58.26 47.87 a 4.65 4.65 0 0 1 6.57 0 a 4.65 4.65 0 0 1 0 6.57 l -11.12 11 a 1.65 1.65 0 0 0 2.34 2.33 l 13.29 -13.3 a 1.51 1.51 0 0 1 2.13 0 a 1.5 1.5 0 0 1 0 2.12 l -13.3 13.3 A 4.62 4.62 0 0 1 54.88 71.29 Z" fill="#f6c" transform="scale(0.6) translate(-50 -50)"/><path d="M 43.81 29.28 a 4.15 4.15 0 0 1 2.94 7.08 l -11.12 11 A 2.14 2.14 0 0 0 35 48.91 a 2.14 2.14 0 0 0 3.66 1.52 L 49.75 39.36 a 4.14 4.14 0 0 1 5.86 5.86 L 44.49 56.27 a 2.13 2.13 0 0 0 -0.62 1.51 a 2.16 2.16 0 0 0 3.67 1.52 L 58.61 48.22 a 4.15 4.15 0 0 1 5.87 5.86 l -11.12 11 a 2.15 2.15 0 0 0 0 3 a 2.17 2.17 0 0 0 3 0 l 13.3 -13.3 a 1 1 0 1 1 1.41 1.42 L 57.81 69.57 a 4.13 4.13 0 0 1 -5.86 0 a 4.14 4.14 0 0 1 0 -5.86 l 11.12 -11 a 2.15 2.15 0 0 0 -3 -3 L 49 60.71 a 4.15 4.15 0 0 1 -5.87 -5.86 L 54.2 43.8 a 2.15 2.15 0 0 0 -3 -3 L 40.09 51.85 A 4.15 4.15 0 0 1 34.22 46 l 11.12 -11 a 2.15 2.15 0 0 0 -1.53 -3.66 a 2.09 2.09 0 0 0 -1.51 0.63 L 28.93 45.28 a 1 1 0 0 1 -1.42 0 a 1 1 0 0 1 0 -1.42 L 40.88 30.5 a 4.1 4.1 0 0 1 2.93 -1.22 m 0 -1 a 5.18 5.18 0 0 0 -3.64 1.51 L 26.81 43.16 a 2 2 0 0 0 1.41 3.41 A 2 2 0 0 0 29.64 46 L 43 32.62 a 1.14 1.14 0 0 1 0.81 -0.34 A 1.16 1.16 0 0 1 45 33.43 a 1.14 1.14 0 0 1 -0.33 0.8 L 33.52 45.28 a 5.14 5.14 0 1 0 7.27 7.27 L 51.87 41.48 a 1.13 1.13 0 0 1 0.81 -0.33 a 1.14 1.14 0 0 1 0.81 2 l -11.11 11 a 5.15 5.15 0 1 0 7.28 7.28 L 60.73 50.34 a 1.17 1.17 0 0 1 0.81 -0.32 A 1.14 1.14 0 0 1 62.36 52 L 51.24 63 a 5.15 5.15 0 0 0 3.64 8.79 a 5.11 5.11 0 0 0 3.64 -1.51 L 71.82 57 a 2 2 0 0 0 0 -2.83 a 2 2 0 0 0 -2.83 0 l -13.3 13.3 a 1.12 1.12 0 0 1 -0.81 0.33 a 1.15 1.15 0 0 1 -0.81 -0.33 a 1.13 1.13 0 0 1 0 -1.61 L 65.18 54.79 a 5.14 5.14 0 0 0 0 -7.27 a 5.14 5.14 0 0 0 -7.28 0 L 46.83 58.59 a 1.12 1.12 0 0 1 -0.81 0.32 a 1.11 1.11 0 0 1 -0.81 -0.32 a 1.15 1.15 0 0 1 0 -1.62 l 11.12 -11 A 5.15 5.15 0 0 0 49 38.65 L 38 49.73 a 1.15 1.15 0 0 1 -2 -0.82 a 1.14 1.14 0 0 1 0.33 -0.8 l 11.11 -11 a 5.14 5.14 0 0 0 0 -7.28 a 5.14 5.14 0 0 0 -3.64 -1.51 Z" fill="#f6c" transform="scale(0.6) translate(-50 -50)"/></g><g transform="translate(1719.7426634970159, -744.1349303382464)"><path d="M54.88 71.29 a 4.58 4.58 0 0 1 -3.28 -1.36 a 4.65 4.65 0 0 1 0 -6.57 l 11.11 -11 A 1.65 1.65 0 0 0 60.38 50 L 49.3 61.06 a 4.65 4.65 0 0 1 -7.93 -3.28 a 4.66 4.66 0 0 1 1.36 -3.29 l 11.12 -11 a 1.65 1.65 0 0 0 -1.17 -2.8 a 1.67 1.67 0 0 0 -1.17 0.48 L 40.44 52.2 a 4.65 4.65 0 0 1 -6.57 -6.57 L 45 34.59 a 1.63 1.63 0 0 0 0.48 -1.16 A 1.67 1.67 0 0 0 45 32.26 a 1.65 1.65 0 0 0 -1.17 -0.48 a 1.63 1.63 0 0 0 -1.16 0.48 L 29.28 45.63 a 1.5 1.5 0 1 1 -2.12 -2.12 L 40.53 30.14 a 4.65 4.65 0 0 1 7.93 3.29 a 4.58 4.58 0 0 1 -1.36 3.28 L 36 47.75 a 1.65 1.65 0 0 0 0 2.33 a 1.65 1.65 0 0 0 2.33 0 L 49.39 39 A 4.65 4.65 0 0 1 56 39 a 4.65 4.65 0 0 1 0 6.57 l -11.11 11 a 1.64 1.64 0 0 0 0 2.32 a 1.66 1.66 0 0 0 1.17 0.47 a 1.64 1.64 0 0 0 1.16 -0.47 L 58.26 47.87 a 4.65 4.65 0 0 1 6.57 0 a 4.65 4.65 0 0 1 0 6.57 l -11.12 11 a 1.65 1.65 0 0 0 2.34 2.33 l 13.29 -13.3 a 1.51 1.51 0 0 1 2.13 0 a 1.5 1.5 0 0 1 0 2.12 l -13.3 13.3 A 4.62 4.62 0 0 1 54.88 71.29 Z" fill="#f6c" transform="scale(0.6) translate(-50 -50)"/><path d="M 43.81 29.28 a 4.15 4.15 0 0 1 2.94 7.08 l -11.12 11 A 2.14 2.14 0 0 0 35 48.91 a 2.14 2.14 0 0 0 3.66 1.52 L 49.75 39.36 a 4.14 4.14 0 0 1 5.86 5.86 L 44.49 56.27 a 2.13 2.13 0 0 0 -0.62 1.51 a 2.16 2.16 0 0 0 3.67 1.52 L 58.61 48.22 a 4.15 4.15 0 0 1 5.87 5.86 l -11.12 11 a 2.15 2.15 0 0 0 0 3 a 2.17 2.17 0 0 0 3 0 l 13.3 -13.3 a 1 1 0 1 1 1.41 1.42 L 57.81 69.57 a 4.13 4.13 0 0 1 -5.86 0 a 4.14 4.14 0 0 1 0 -5.86 l 11.12 -11 a 2.15 2.15 0 0 0 -3 -3 L 49 60.71 a 4.15 4.15 0 0 1 -5.87 -5.86 L 54.2 43.8 a 2.15 2.15 0 0 0 -3 -3 L 40.09 51.85 A 4.15 4.15 0 0 1 34.22 46 l 11.12 -11 a 2.15 2.15 0 0 0 -1.53 -3.66 a 2.09 2.09 0 0 0 -1.51 0.63 L 28.93 45.28 a 1 1 0 0 1 -1.42 0 a 1 1 0 0 1 0 -1.42 L 40.88 30.5 a 4.1 4.1 0 0 1 2.93 -1.22 m 0 -1 a 5.18 5.18 0 0 0 -3.64 1.51 L 26.81 43.16 a 2 2 0 0 0 1.41 3.41 A 2 2 0 0 0 29.64 46 L 43 32.62 a 1.14 1.14 0 0 1 0.81 -0.34 A 1.16 1.16 0 0 1 45 33.43 a 1.14 1.14 0 0 1 -0.33 0.8 L 33.52 45.28 a 5.14 5.14 0 1 0 7.27 7.27 L 51.87 41.48 a 1.13 1.13 0 0 1 0.81 -0.33 a 1.14 1.14 0 0 1 0.81 2 l -11.11 11 a 5.15 5.15 0 1 0 7.28 7.28 L 60.73 50.34 a 1.17 1.17 0 0 1 0.81 -0.32 A 1.14 1.14 0 0 1 62.36 52 L 51.24 63 a 5.15 5.15 0 0 0 3.64 8.79 a 5.11 5.11 0 0 0 3.64 -1.51 L 71.82 57 a 2 2 0 0 0 0 -2.83 a 2 2 0 0 0 -2.83 0 l -13.3 13.3 a 1.12 1.12 0 0 1 -0.81 0.33 a 1.15 1.15 0 0 1 -0.81 -0.33 a 1.13 1.13 0 0 1 0 -1.61 L 65.18 54.79 a 5.14 5.14 0 0 0 0 -7.27 a 5.14 5.14 0 0 0 -7.28 0 L 46.83 58.59 a 1.12 1.12 0 0 1 -0.81 0.32 a 1.11 1.11 0 0 1 -0.81 -0.32 a 1.15 1.15 0 0 1 0 -1.62 l 11.12 -11 A 5.15 5.15 0 0 0 49 38.65 L 38 49.73 a 1.15 1.15 0 0 1 -2 -0.82 a 1.14 1.14 0 0 1 0.33 -0.8 l 11.11 -11 a 5.14 5.14 0 0 0 0 -7.28 a 5.14 5.14 0 0 0 -3.64 -1.51 Z" fill="#f6c" transform="scale(0.6) translate(-50 -50)"/></g><g transform="translate(1068.7137468214485, -614.8289485903819)"><path d="M54.88 71.29 a 4.58 4.58 0 0 1 -3.28 -1.36 a 4.65 4.65 0 0 1 0 -6.57 l 11.11 -11 A 1.65 1.65 0 0 0 60.38 50 L 49.3 61.06 a 4.65 4.65 0 0 1 -7.93 -3.28 a 4.66 4.66 0 0 1 1.36 -3.29 l 11.12 -11 a 1.65 1.65 0 0 0 -1.17 -2.8 a 1.67 1.67 0 0 0 -1.17 0.48 L 40.44 52.2 a 4.65 4.65 0 0 1 -6.57 -6.57 L 45 34.59 a 1.63 1.63 0 0 0 0.48 -1.16 A 1.67 1.67 0 0 0 45 32.26 a 1.65 1.65 0 0 0 -1.17 -0.48 a 1.63 1.63 0 0 0 -1.16 0.48 L 29.28 45.63 a 1.5 1.5 0 1 1 -2.12 -2.12 L 40.53 30.14 a 4.65 4.65 0 0 1 7.93 3.29 a 4.58 4.58 0 0 1 -1.36 3.28 L 36 47.75 a 1.65 1.65 0 0 0 0 2.33 a 1.65 1.65 0 0 0 2.33 0 L 49.39 39 A 4.65 4.65 0 0 1 56 39 a 4.65 4.65 0 0 1 0 6.57 l -11.11 11 a 1.64 1.64 0 0 0 0 2.32 a 1.66 1.66 0 0 0 1.17 0.47 a 1.64 1.64 0 0 0 1.16 -0.47 L 58.26 47.87 a 4.65 4.65 0 0 1 6.57 0 a 4.65 4.65 0 0 1 0 6.57 l -11.12 11 a 1.65 1.65 0 0 0 2.34 2.33 l 13.29 -13.3 a 1.51 1.51 0 0 1 2.13 0 a 1.5 1.5 0 0 1 0 2.12 l -13.3 13.3 A 4.62 4.62 0 0 1 54.88 71.29 Z" fill="#f6c" transform="scale(0.6) translate(-50 -50)"/><path d="M 43.81 29.28 a 4.15 4.15 0 0 1 2.94 7.08 l -11.12 11 A 2.14 2.14 0 0 0 35 48.91 a 2.14 2.14 0 0 0 3.66 1.52 L 49.75 39.36 a 4.14 4.14 0 0 1 5.86 5.86 L 44.49 56.27 a 2.13 2.13 0 0 0 -0.62 1.51 a 2.16 2.16 0 0 0 3.67 1.52 L 58.61 48.22 a 4.15 4.15 0 0 1 5.87 5.86 l -11.12 11 a 2.15 2.15 0 0 0 0 3 a 2.17 2.17 0 0 0 3 0 l 13.3 -13.3 a 1 1 0 1 1 1.41 1.42 L 57.81 69.57 a 4.13 4.13 0 0 1 -5.86 0 a 4.14 4.14 0 0 1 0 -5.86 l 11.12 -11 a 2.15 2.15 0 0 0 -3 -3 L 49 60.71 a 4.15 4.15 0 0 1 -5.87 -5.86 L 54.2 43.8 a 2.15 2.15 0 0 0 -3 -3 L 40.09 51.85 A 4.15 4.15 0 0 1 34.22 46 l 11.12 -11 a 2.15 2.15 0 0 0 -1.53 -3.66 a 2.09 2.09 0 0 0 -1.51 0.63 L 28.93 45.28 a 1 1 0 0 1 -1.42 0 a 1 1 0 0 1 0 -1.42 L 40.88 30.5 a 4.1 4.1 0 0 1 2.93 -1.22 m 0 -1 a 5.18 5.18 0 0 0 -3.64 1.51 L 26.81 43.16 a 2 2 0 0 0 1.41 3.41 A 2 2 0 0 0 29.64 46 L 43 32.62 a 1.14 1.14 0 0 1 0.81 -0.34 A 1.16 1.16 0 0 1 45 33.43 a 1.14 1.14 0 0 1 -0.33 0.8 L 33.52 45.28 a 5.14 5.14 0 1 0 7.27 7.27 L 51.87 41.48 a 1.13 1.13 0 0 1 0.81 -0.33 a 1.14 1.14 0 0 1 0.81 2 l -11.11 11 a 5.15 5.15 0 1 0 7.28 7.28 L 60.73 50.34 a 1.17 1.17 0 0 1 0.81 -0.32 A 1.14 1.14 0 0 1 62.36 52 L 51.24 63 a 5.15 5.15 0 0 0 3.64 8.79 a 5.11 5.11 0 0 0 3.64 -1.51 L 71.82 57 a 2 2 0 0 0 0 -2.83 a 2 2 0 0 0 -2.83 0 l -13.3 13.3 a 1.12 1.12 0 0 1 -0.81 0.33 a 1.15 1.15 0 0 1 -0.81 -0.33 a 1.13 1.13 0 0 1 0 -1.61 L 65.18 54.79 a 5.14 5.14 0 0 0 0 -7.27 a 5.14 5.14 0 0 0 -7.28 0 L 46.83 58.59 a 1.12 1.12 0 0 1 -0.81 0.32 a 1.11 1.11 0 0 1 -0.81 -0.32 a 1.15 1.15 0 0 1 0 -1.62 l 11.12 -11 A 5.15 5.15 0 0 0 49 38.65 L 38 49.73 a 1.15 1.15 0 0 1 -2 -0.82 a 1.14 1.14 0 0 1 0.33 -0.8 l 11.11 -11 a 5.14 5.14 0 0 0 0 -7.28 a 5.14 5.14 0 0 0 -3.64 -1.51 Z" fill="#f6c" transform="scale(0.6) translate(-50 -50)"/></g><g transform="translate(1413.3076153394047, -616.5879552743664)"><path d="M54.88 71.29 a 4.58 4.58 0 0 1 -3.28 -1.36 a 4.65 4.65 0 0 1 0 -6.57 l 11.11 -11 A 1.65 1.65 0 0 0 60.38 50 L 49.3 61.06 a 4.65 4.65 0 0 1 -7.93 -3.28 a 4.66 4.66 0 0 1 1.36 -3.29 l 11.12 -11 a 1.65 1.65 0 0 0 -1.17 -2.8 a 1.67 1.67 0 0 0 -1.17 0.48 L 40.44 52.2 a 4.65 4.65 0 0 1 -6.57 -6.57 L 45 34.59 a 1.63 1.63 0 0 0 0.48 -1.16 A 1.67 1.67 0 0 0 45 32.26 a 1.65 1.65 0 0 0 -1.17 -0.48 a 1.63 1.63 0 0 0 -1.16 0.48 L 29.28 45.63 a 1.5 1.5 0 1 1 -2.12 -2.12 L 40.53 30.14 a 4.65 4.65 0 0 1 7.93 3.29 a 4.58 4.58 0 0 1 -1.36 3.28 L 36 47.75 a 1.65 1.65 0 0 0 0 2.33 a 1.65 1.65 0 0 0 2.33 0 L 49.39 39 A 4.65 4.65 0 0 1 56 39 a 4.65 4.65 0 0 1 0 6.57 l -11.11 11 a 1.64 1.64 0 0 0 0 2.32 a 1.66 1.66 0 0 0 1.17 0.47 a 1.64 1.64 0 0 0 1.16 -0.47 L 58.26 47.87 a 4.65 4.65 0 0 1 6.57 0 a 4.65 4.65 0 0 1 0 6.57 l -11.12 11 a 1.65 1.65 0 0 0 2.34 2.33 l 13.29 -13.3 a 1.51 1.51 0 0 1 2.13 0 a 1.5 1.5 0 0 1 0 2.12 l -13.3 13.3 A 4.62 4.62 0 0 1 54.88 71.29 Z" fill="#f6c" transform="scale(0.6) translate(-50 -50)"/><path d="M 43.81 29.28 a 4.15 4.15 0 0 1 2.94 7.08 l -11.12 11 A 2.14 2.14 0 0 0 35 48.91 a 2.14 2.14 0 0 0 3.66 1.52 L 49.75 39.36 a 4.14 4.14 0 0 1 5.86 5.86 L 44.49 56.27 a 2.13 2.13 0 0 0 -0.62 1.51 a 2.16 2.16 0 0 0 3.67 1.52 L 58.61 48.22 a 4.15 4.15 0 0 1 5.87 5.86 l -11.12 11 a 2.15 2.15 0 0 0 0 3 a 2.17 2.17 0 0 0 3 0 l 13.3 -13.3 a 1 1 0 1 1 1.41 1.42 L 57.81 69.57 a 4.13 4.13 0 0 1 -5.86 0 a 4.14 4.14 0 0 1 0 -5.86 l 11.12 -11 a 2.15 2.15 0 0 0 -3 -3 L 49 60.71 a 4.15 4.15 0 0 1 -5.87 -5.86 L 54.2 43.8 a 2.15 2.15 0 0 0 -3 -3 L 40.09 51.85 A 4.15 4.15 0 0 1 34.22 46 l 11.12 -11 a 2.15 2.15 0 0 0 -1.53 -3.66 a 2.09 2.09 0 0 0 -1.51 0.63 L 28.93 45.28 a 1 1 0 0 1 -1.42 0 a 1 1 0 0 1 0 -1.42 L 40.88 30.5 a 4.1 4.1 0 0 1 2.93 -1.22 m 0 -1 a 5.18 5.18 0 0 0 -3.64 1.51 L 26.81 43.16 a 2 2 0 0 0 1.41 3.41 A 2 2 0 0 0 29.64 46 L 43 32.62 a 1.14 1.14 0 0 1 0.81 -0.34 A 1.16 1.16 0 0 1 45 33.43 a 1.14 1.14 0 0 1 -0.33 0.8 L 33.52 45.28 a 5.14 5.14 0 1 0 7.27 7.27 L 51.87 41.48 a 1.13 1.13 0 0 1 0.81 -0.33 a 1.14 1.14 0 0 1 0.81 2 l -11.11 11 a 5.15 5.15 0 1 0 7.28 7.28 L 60.73 50.34 a 1.17 1.17 0 0 1 0.81 -0.32 A 1.14 1.14 0 0 1 62.36 52 L 51.24 63 a 5.15 5.15 0 0 0 3.64 8.79 a 5.11 5.11 0 0 0 3.64 -1.51 L 71.82 57 a 2 2 0 0 0 0 -2.83 a 2 2 0 0 0 -2.83 0 l -13.3 13.3 a 1.12 1.12 0 0 1 -0.81 0.33 a 1.15 1.15 0 0 1 -0.81 -0.33 a 1.13 1.13 0 0 1 0 -1.61 L 65.18 54.79 a 5.14 5.14 0 0 0 0 -7.27 a 5.14 5.14 0 0 0 -7.28 0 L 46.83 58.59 a 1.12 1.12 0 0 1 -0.81 0.32 a 1.11 1.11 0 0 1 -0.81 -0.32 a 1.15 1.15 0 0 1 0 -1.62 l 11.12 -11 A 5.15 5.15 0 0 0 49 38.65 L 38 49.73 a 1.15 1.15 0 0 1 -2 -0.82 a 1.14 1.14 0 0 1 0.33 -0.8 l 11.11 -11 a 5.14 5.14 0 0 0 0 -7.28 a 5.14 5.14 0 0 0 -3.64 -1.51 Z" fill="#f6c" transform="scale(0.6) translate(-50 -50)"/></g><g transform="translate(1074.4563683423894, -552.4115827370529)"><path d="M54.88 71.29 a 4.58 4.58 0 0 1 -3.28 -1.36 a 4.65 4.65 0 0 1 0 -6.57 l 11.11 -11 A 1.65 1.65 0 0 0 60.38 50 L 49.3 61.06 a 4.65 4.65 0 0 1 -7.93 -3.28 a 4.66 4.66 0 0 1 1.36 -3.29 l 11.12 -11 a 1.65 1.65 0 0 0 -1.17 -2.8 a 1.67 1.67 0 0 0 -1.17 0.48 L 40.44 52.2 a 4.65 4.65 0 0 1 -6.57 -6.57 L 45 34.59 a 1.63 1.63 0 0 0 0.48 -1.16 A 1.67 1.67 0 0 0 45 32.26 a 1.65 1.65 0 0 0 -1.17 -0.48 a 1.63 1.63 0 0 0 -1.16 0.48 L 29.28 45.63 a 1.5 1.5 0 1 1 -2.12 -2.12 L 40.53 30.14 a 4.65 4.65 0 0 1 7.93 3.29 a 4.58 4.58 0 0 1 -1.36 3.28 L 36 47.75 a 1.65 1.65 0 0 0 0 2.33 a 1.65 1.65 0 0 0 2.33 0 L 49.39 39 A 4.65 4.65 0 0 1 56 39 a 4.65 4.65 0 0 1 0 6.57 l -11.11 11 a 1.64 1.64 0 0 0 0 2.32 a 1.66 1.66 0 0 0 1.17 0.47 a 1.64 1.64 0 0 0 1.16 -0.47 L 58.26 47.87 a 4.65 4.65 0 0 1 6.57 0 a 4.65 4.65 0 0 1 0 6.57 l -11.12 11 a 1.65 1.65 0 0 0 2.34 2.33 l 13.29 -13.3 a 1.51 1.51 0 0 1 2.13 0 a 1.5 1.5 0 0 1 0 2.12 l -13.3 13.3 A 4.62 4.62 0 0 1 54.88 71.29 Z" fill="#ff9900" transform="scale(0.6) translate(-50 -50)"/><path d="M 43.81 29.28 a 4.15 4.15 0 0 1 2.94 7.08 l -11.12 11 A 2.14 2.14 0 0 0 35 48.91 a 2.14 2.14 0 0 0 3.66 1.52 L 49.75 39.36 a 4.14 4.14 0 0 1 5.86 5.86 L 44.49 56.27 a 2.13 2.13 0 0 0 -0.62 1.51 a 2.16 2.16 0 0 0 3.67 1.52 L 58.61 48.22 a 4.15 4.15 0 0 1 5.87 5.86 l -11.12 11 a 2.15 2.15 0 0 0 0 3 a 2.17 2.17 0 0 0 3 0 l 13.3 -13.3 a 1 1 0 1 1 1.41 1.42 L 57.81 69.57 a 4.13 4.13 0 0 1 -5.86 0 a 4.14 4.14 0 0 1 0 -5.86 l 11.12 -11 a 2.15 2.15 0 0 0 -3 -3 L 49 60.71 a 4.15 4.15 0 0 1 -5.87 -5.86 L 54.2 43.8 a 2.15 2.15 0 0 0 -3 -3 L 40.09 51.85 A 4.15 4.15 0 0 1 34.22 46 l 11.12 -11 a 2.15 2.15 0 0 0 -1.53 -3.66 a 2.09 2.09 0 0 0 -1.51 0.63 L 28.93 45.28 a 1 1 0 0 1 -1.42 0 a 1 1 0 0 1 0 -1.42 L 40.88 30.5 a 4.1 4.1 0 0 1 2.93 -1.22 m 0 -1 a 5.18 5.18 0 0 0 -3.64 1.51 L 26.81 43.16 a 2 2 0 0 0 1.41 3.41 A 2 2 0 0 0 29.64 46 L 43 32.62 a 1.14 1.14 0 0 1 0.81 -0.34 A 1.16 1.16 0 0 1 45 33.43 a 1.14 1.14 0 0 1 -0.33 0.8 L 33.52 45.28 a 5.14 5.14 0 1 0 7.27 7.27 L 51.87 41.48 a 1.13 1.13 0 0 1 0.81 -0.33 a 1.14 1.14 0 0 1 0.81 2 l -11.11 11 a 5.15 5.15 0 1 0 7.28 7.28 L 60.73 50.34 a 1.17 1.17 0 0 1 0.81 -0.32 A 1.14 1.14 0 0 1 62.36 52 L 51.24 63 a 5.15 5.15 0 0 0 3.64 8.79 a 5.11 5.11 0 0 0 3.64 -1.51 L 71.82 57 a 2 2 0 0 0 0 -2.83 a 2 2 0 0 0 -2.83 0 l -13.3 13.3 a 1.12 1.12 0 0 1 -0.81 0.33 a 1.15 1.15 0 0 1 -0.81 -0.33 a 1.13 1.13 0 0 1 0 -1.61 L 65.18 54.79 a 5.14 5.14 0 0 0 0 -7.27 a 5.14 5.14 0 0 0 -7.28 0 L 46.83 58.59 a 1.12 1.12 0 0 1 -0.81 0.32 a 1.11 1.11 0 0 1 -0.81 -0.32 a 1.15 1.15 0 0 1 0 -1.62 l 11.12 -11 A 5.15 5.15 0 0 0 49 38.65 L 38 49.73 a 1.15 1.15 0 0 1 -2 -0.82 a 1.14 1.14 0 0 1 0.33 -0.8 l 11.11 -11 a 5.14 5.14 0 0 0 0 -7.28 a 5.14 5.14 0 0 0 -3.64 -1.51 Z" fill="#ff9900" transform="scale(0.6) translate(-50 -50)"/></g><g transform="translate(1414.591142790151, -553.6951101877991)"><path d="M54.88 71.29 a 4.58 4.58 0 0 1 -3.28 -1.36 a 4.65 4.65 0 0 1 0 -6.57 l 11.11 -11 A 1.65 1.65 0 0 0 60.38 50 L 49.3 61.06 a 4.65 4.65 0 0 1 -7.93 -3.28 a 4.66 4.66 0 0 1 1.36 -3.29 l 11.12 -11 a 1.65 1.65 0 0 0 -1.17 -2.8 a 1.67 1.67 0 0 0 -1.17 0.48 L 40.44 52.2 a 4.65 4.65 0 0 1 -6.57 -6.57 L 45 34.59 a 1.63 1.63 0 0 0 0.48 -1.16 A 1.67 1.67 0 0 0 45 32.26 a 1.65 1.65 0 0 0 -1.17 -0.48 a 1.63 1.63 0 0 0 -1.16 0.48 L 29.28 45.63 a 1.5 1.5 0 1 1 -2.12 -2.12 L 40.53 30.14 a 4.65 4.65 0 0 1 7.93 3.29 a 4.58 4.58 0 0 1 -1.36 3.28 L 36 47.75 a 1.65 1.65 0 0 0 0 2.33 a 1.65 1.65 0 0 0 2.33 0 L 49.39 39 A 4.65 4.65 0 0 1 56 39 a 4.65 4.65 0 0 1 0 6.57 l -11.11 11 a 1.64 1.64 0 0 0 0 2.32 a 1.66 1.66 0 0 0 1.17 0.47 a 1.64 1.64 0 0 0 1.16 -0.47 L 58.26 47.87 a 4.65 4.65 0 0 1 6.57 0 a 4.65 4.65 0 0 1 0 6.57 l -11.12 11 a 1.65 1.65 0 0 0 2.34 2.33 l 13.29 -13.3 a 1.51 1.51 0 0 1 2.13 0 a 1.5 1.5 0 0 1 0 2.12 l -13.3 13.3 A 4.62 4.62 0 0 1 54.88 71.29 Z" fill="#ff9900" transform="scale(0.6) translate(-50 -50)"/><path d="M 43.81 29.28 a 4.15 4.15 0 0 1 2.94 7.08 l -11.12 11 A 2.14 2.14 0 0 0 35 48.91 a 2.14 2.14 0 0 0 3.66 1.52 L 49.75 39.36 a 4.14 4.14 0 0 1 5.86 5.86 L 44.49 56.27 a 2.13 2.13 0 0 0 -0.62 1.51 a 2.16 2.16 0 0 0 3.67 1.52 L 58.61 48.22 a 4.15 4.15 0 0 1 5.87 5.86 l -11.12 11 a 2.15 2.15 0 0 0 0 3 a 2.17 2.17 0 0 0 3 0 l 13.3 -13.3 a 1 1 0 1 1 1.41 1.42 L 57.81 69.57 a 4.13 4.13 0 0 1 -5.86 0 a 4.14 4.14 0 0 1 0 -5.86 l 11.12 -11 a 2.15 2.15 0 0 0 -3 -3 L 49 60.71 a 4.15 4.15 0 0 1 -5.87 -5.86 L 54.2 43.8 a 2.15 2.15 0 0 0 -3 -3 L 40.09 51.85 A 4.15 4.15 0 0 1 34.22 46 l 11.12 -11 a 2.15 2.15 0 0 0 -1.53 -3.66 a 2.09 2.09 0 0 0 -1.51 0.63 L 28.93 45.28 a 1 1 0 0 1 -1.42 0 a 1 1 0 0 1 0 -1.42 L 40.88 30.5 a 4.1 4.1 0 0 1 2.93 -1.22 m 0 -1 a 5.18 5.18 0 0 0 -3.64 1.51 L 26.81 43.16 a 2 2 0 0 0 1.41 3.41 A 2 2 0 0 0 29.64 46 L 43 32.62 a 1.14 1.14 0 0 1 0.81 -0.34 A 1.16 1.16 0 0 1 45 33.43 a 1.14 1.14 0 0 1 -0.33 0.8 L 33.52 45.28 a 5.14 5.14 0 1 0 7.27 7.27 L 51.87 41.48 a 1.13 1.13 0 0 1 0.81 -0.33 a 1.14 1.14 0 0 1 0.81 2 l -11.11 11 a 5.15 5.15 0 1 0 7.28 7.28 L 60.73 50.34 a 1.17 1.17 0 0 1 0.81 -0.32 A 1.14 1.14 0 0 1 62.36 52 L 51.24 63 a 5.15 5.15 0 0 0 3.64 8.79 a 5.11 5.11 0 0 0 3.64 -1.51 L 71.82 57 a 2 2 0 0 0 0 -2.83 a 2 2 0 0 0 -2.83 0 l -13.3 13.3 a 1.12 1.12 0 0 1 -0.81 0.33 a 1.15 1.15 0 0 1 -0.81 -0.33 a 1.13 1.13 0 0 1 0 -1.61 L 65.18 54.79 a 5.14 5.14 0 0 0 0 -7.27 a 5.14 5.14 0 0 0 -7.28 0 L 46.83 58.59 a 1.12 1.12 0 0 1 -0.81 0.32 a 1.11 1.11 0 0 1 -0.81 -0.32 a 1.15 1.15 0 0 1 0 -1.62 l 11.12 -11 A 5.15 5.15 0 0 0 49 38.65 L 38 49.73 a 1.15 1.15 0 0 1 -2 -0.82 a 1.14 1.14 0 0 1 0.33 -0.8 l 11.11 -11 a 5.14 5.14 0 0 0 0 -7.28 a 5.14 5.14 0 0 0 -3.64 -1.51 Z" fill="#ff9900" transform="scale(0.6) translate(-50 -50)"/></g><g transform="translate(621.3711782289557, -459.9976062833213)"><path d="M54.88 71.29 a 4.58 4.58 0 0 1 -3.28 -1.36 a 4.65 4.65 0 0 1 0 -6.57 l 11.11 -11 A 1.65 1.65 0 0 0 60.38 50 L 49.3 61.06 a 4.65 4.65 0 0 1 -7.93 -3.28 a 4.66 4.66 0 0 1 1.36 -3.29 l 11.12 -11 a 1.65 1.65 0 0 0 -1.17 -2.8 a 1.67 1.67 0 0 0 -1.17 0.48 L 40.44 52.2 a 4.65 4.65 0 0 1 -6.57 -6.57 L 45 34.59 a 1.63 1.63 0 0 0 0.48 -1.16 A 1.67 1.67 0 0 0 45 32.26 a 1.65 1.65 0 0 0 -1.17 -0.48 a 1.63 1.63 0 0 0 -1.16 0.48 L 29.28 45.63 a 1.5 1.5 0 1 1 -2.12 -2.12 L 40.53 30.14 a 4.65 4.65 0 0 1 7.93 3.29 a 4.58 4.58 0 0 1 -1.36 3.28 L 36 47.75 a 1.65 1.65 0 0 0 0 2.33 a 1.65 1.65 0 0 0 2.33 0 L 49.39 39 A 4.65 4.65 0 0 1 56 39 a 4.65 4.65 0 0 1 0 6.57 l -11.11 11 a 1.64 1.64 0 0 0 0 2.32 a 1.66 1.66 0 0 0 1.17 0.47 a 1.64 1.64 0 0 0 1.16 -0.47 L 58.26 47.87 a 4.65 4.65 0 0 1 6.57 0 a 4.65 4.65 0 0 1 0 6.57 l -11.12 11 a 1.65 1.65 0 0 0 2.34 2.33 l 13.29 -13.3 a 1.51 1.51 0 0 1 2.13 0 a 1.5 1.5 0 0 1 0 2.12 l -13.3 13.3 A 4.62 4.62 0 0 1 54.88 71.29 Z" fill="#f6c" transform="scale(0.6) translate(-50 -50)"/><path d="M 43.81 29.28 a 4.15 4.15 0 0 1 2.94 7.08 l -11.12 11 A 2.14 2.14 0 0 0 35 48.91 a 2.14 2.14 0 0 0 3.66 1.52 L 49.75 39.36 a 4.14 4.14 0 0 1 5.86 5.86 L 44.49 56.27 a 2.13 2.13 0 0 0 -0.62 1.51 a 2.16 2.16 0 0 0 3.67 1.52 L 58.61 48.22 a 4.15 4.15 0 0 1 5.87 5.86 l -11.12 11 a 2.15 2.15 0 0 0 0 3 a 2.17 2.17 0 0 0 3 0 l 13.3 -13.3 a 1 1 0 1 1 1.41 1.42 L 57.81 69.57 a 4.13 4.13 0 0 1 -5.86 0 a 4.14 4.14 0 0 1 0 -5.86 l 11.12 -11 a 2.15 2.15 0 0 0 -3 -3 L 49 60.71 a 4.15 4.15 0 0 1 -5.87 -5.86 L 54.2 43.8 a 2.15 2.15 0 0 0 -3 -3 L 40.09 51.85 A 4.15 4.15 0 0 1 34.22 46 l 11.12 -11 a 2.15 2.15 0 0 0 -1.53 -3.66 a 2.09 2.09 0 0 0 -1.51 0.63 L 28.93 45.28 a 1 1 0 0 1 -1.42 0 a 1 1 0 0 1 0 -1.42 L 40.88 30.5 a 4.1 4.1 0 0 1 2.93 -1.22 m 0 -1 a 5.18 5.18 0 0 0 -3.64 1.51 L 26.81 43.16 a 2 2 0 0 0 1.41 3.41 A 2 2 0 0 0 29.64 46 L 43 32.62 a 1.14 1.14 0 0 1 0.81 -0.34 A 1.16 1.16 0 0 1 45 33.43 a 1.14 1.14 0 0 1 -0.33 0.8 L 33.52 45.28 a 5.14 5.14 0 1 0 7.27 7.27 L 51.87 41.48 a 1.13 1.13 0 0 1 0.81 -0.33 a 1.14 1.14 0 0 1 0.81 2 l -11.11 11 a 5.15 5.15 0 1 0 7.28 7.28 L 60.73 50.34 a 1.17 1.17 0 0 1 0.81 -0.32 A 1.14 1.14 0 0 1 62.36 52 L 51.24 63 a 5.15 5.15 0 0 0 3.64 8.79 a 5.11 5.11 0 0 0 3.64 -1.51 L 71.82 57 a 2 2 0 0 0 0 -2.83 a 2 2 0 0 0 -2.83 0 l -13.3 13.3 a 1.12 1.12 0 0 1 -0.81 0.33 a 1.15 1.15 0 0 1 -0.81 -0.33 a 1.13 1.13 0 0 1 0 -1.61 L 65.18 54.79 a 5.14 5.14 0 0 0 0 -7.27 a 5.14 5.14 0 0 0 -7.28 0 L 46.83 58.59 a 1.12 1.12 0 0 1 -0.81 0.32 a 1.11 1.11 0 0 1 -0.81 -0.32 a 1.15 1.15 0 0 1 0 -1.62 l 11.12 -11 A 5.15 5.15 0 0 0 49 38.65 L 38 49.73 a 1.15 1.15 0 0 1 -2 -0.82 a 1.14 1.14 0 0 1 0.33 -0.8 l 11.11 -11 a 5.14 5.14 0 0 0 0 -7.28 a 5.14 5.14 0 0 0 -3.64 -1.51 Z" fill="#f6c" transform="scale(0.6) translate(-50 -50)"/></g><g transform="translate(1916.450376031943, -462.5646611848139)"><path d="M54.88 71.29 a 4.58 4.58 0 0 1 -3.28 -1.36 a 4.65 4.65 0 0 1 0 -6.57 l 11.11 -11 A 1.65 1.65 0 0 0 60.38 50 L 49.3 61.06 a 4.65 4.65 0 0 1 -7.93 -3.28 a 4.66 4.66 0 0 1 1.36 -3.29 l 11.12 -11 a 1.65 1.65 0 0 0 -1.17 -2.8 a 1.67 1.67 0 0 0 -1.17 0.48 L 40.44 52.2 a 4.65 4.65 0 0 1 -6.57 -6.57 L 45 34.59 a 1.63 1.63 0 0 0 0.48 -1.16 A 1.67 1.67 0 0 0 45 32.26 a 1.65 1.65 0 0 0 -1.17 -0.48 a 1.63 1.63 0 0 0 -1.16 0.48 L 29.28 45.63 a 1.5 1.5 0 1 1 -2.12 -2.12 L 40.53 30.14 a 4.65 4.65 0 0 1 7.93 3.29 a 4.58 4.58 0 0 1 -1.36 3.28 L 36 47.75 a 1.65 1.65 0 0 0 0 2.33 a 1.65 1.65 0 0 0 2.33 0 L 49.39 39 A 4.65 4.65 0 0 1 56 39 a 4.65 4.65 0 0 1 0 6.57 l -11.11 11 a 1.64 1.64 0 0 0 0 2.32 a 1.66 1.66 0 0 0 1.17 0.47 a 1.64 1.64 0 0 0 1.16 -0.47 L 58.26 47.87 a 4.65 4.65 0 0 1 6.57 0 a 4.65 4.65 0 0 1 0 6.57 l -11.12 11 a 1.65 1.65 0 0 0 2.34 2.33 l 13.29 -13.3 a 1.51 1.51 0 0 1 2.13 0 a 1.5 1.5 0 0 1 0 2.12 l -13.3 13.3 A 4.62 4.62 0 0 1 54.88 71.29 Z" fill="#f6c" transform="scale(0.6) translate(-50 -50)"/><path d="M 43.81 29.28 a 4.15 4.15 0 0 1 2.94 7.08 l -11.12 11 A 2.14 2.14 0 0 0 35 48.91 a 2.14 2.14 0 0 0 3.66 1.52 L 49.75 39.36 a 4.14 4.14 0 0 1 5.86 5.86 L 44.49 56.27 a 2.13 2.13 0 0 0 -0.62 1.51 a 2.16 2.16 0 0 0 3.67 1.52 L 58.61 48.22 a 4.15 4.15 0 0 1 5.87 5.86 l -11.12 11 a 2.15 2.15 0 0 0 0 3 a 2.17 2.17 0 0 0 3 0 l 13.3 -13.3 a 1 1 0 1 1 1.41 1.42 L 57.81 69.57 a 4.13 4.13 0 0 1 -5.86 0 a 4.14 4.14 0 0 1 0 -5.86 l 11.12 -11 a 2.15 2.15 0 0 0 -3 -3 L 49 60.71 a 4.15 4.15 0 0 1 -5.87 -5.86 L 54.2 43.8 a 2.15 2.15 0 0 0 -3 -3 L 40.09 51.85 A 4.15 4.15 0 0 1 34.22 46 l 11.12 -11 a 2.15 2.15 0 0 0 -1.53 -3.66 a 2.09 2.09 0 0 0 -1.51 0.63 L 28.93 45.28 a 1 1 0 0 1 -1.42 0 a 1 1 0 0 1 0 -1.42 L 40.88 30.5 a 4.1 4.1 0 0 1 2.93 -1.22 m 0 -1 a 5.18 5.18 0 0 0 -3.64 1.51 L 26.81 43.16 a 2 2 0 0 0 1.41 3.41 A 2 2 0 0 0 29.64 46 L 43 32.62 a 1.14 1.14 0 0 1 0.81 -0.34 A 1.16 1.16 0 0 1 45 33.43 a 1.14 1.14 0 0 1 -0.33 0.8 L 33.52 45.28 a 5.14 5.14 0 1 0 7.27 7.27 L 51.87 41.48 a 1.13 1.13 0 0 1 0.81 -0.33 a 1.14 1.14 0 0 1 0.81 2 l -11.11 11 a 5.15 5.15 0 1 0 7.28 7.28 L 60.73 50.34 a 1.17 1.17 0 0 1 0.81 -0.32 A 1.14 1.14 0 0 1 62.36 52 L 51.24 63 a 5.15 5.15 0 0 0 3.64 8.79 a 5.11 5.11 0 0 0 3.64 -1.51 L 71.82 57 a 2 2 0 0 0 0 -2.83 a 2 2 0 0 0 -2.83 0 l -13.3 13.3 a 1.12 1.12 0 0 1 -0.81 0.33 a 1.15 1.15 0 0 1 -0.81 -0.33 a 1.13 1.13 0 0 1 0 -1.61 L 65.18 54.79 a 5.14 5.14 0 0 0 0 -7.27 a 5.14 5.14 0 0 0 -7.28 0 L 46.83 58.59 a 1.12 1.12 0 0 1 -0.81 0.32 a 1.11 1.11 0 0 1 -0.81 -0.32 a 1.15 1.15 0 0 1 0 -1.62 l 11.12 -11 A 5.15 5.15 0 0 0 49 38.65 L 38 49.73 a 1.15 1.15 0 0 1 -2 -0.82 a 1.14 1.14 0 0 1 0.33 -0.8 l 11.11 -11 a 5.14 5.14 0 0 0 0 -7.28 a 5.14 5.14 0 0 0 -3.64 -1.51 Z" fill="#f6c" transform="scale(0.6) translate(-50 -50)"/></g><g transform="translate(621.3711782289557, -381.7024317877988)"><path d="M54.88 71.29 a 4.58 4.58 0 0 1 -3.28 -1.36 a 4.65 4.65 0 0 1 0 -6.57 l 11.11 -11 A 1.65 1.65 0 0 0 60.38 50 L 49.3 61.06 a 4.65 4.65 0 0 1 -7.93 -3.28 a 4.66 4.66 0 0 1 1.36 -3.29 l 11.12 -11 a 1.65 1.65 0 0 0 -1.17 -2.8 a 1.67 1.67 0 0 0 -1.17 0.48 L 40.44 52.2 a 4.65 4.65 0 0 1 -6.57 -6.57 L 45 34.59 a 1.63 1.63 0 0 0 0.48 -1.16 A 1.67 1.67 0 0 0 45 32.26 a 1.65 1.65 0 0 0 -1.17 -0.48 a 1.63 1.63 0 0 0 -1.16 0.48 L 29.28 45.63 a 1.5 1.5 0 1 1 -2.12 -2.12 L 40.53 30.14 a 4.65 4.65 0 0 1 7.93 3.29 a 4.58 4.58 0 0 1 -1.36 3.28 L 36 47.75 a 1.65 1.65 0 0 0 0 2.33 a 1.65 1.65 0 0 0 2.33 0 L 49.39 39 A 4.65 4.65 0 0 1 56 39 a 4.65 4.65 0 0 1 0 6.57 l -11.11 11 a 1.64 1.64 0 0 0 0 2.32 a 1.66 1.66 0 0 0 1.17 0.47 a 1.64 1.64 0 0 0 1.16 -0.47 L 58.26 47.87 a 4.65 4.65 0 0 1 6.57 0 a 4.65 4.65 0 0 1 0 6.57 l -11.12 11 a 1.65 1.65 0 0 0 2.34 2.33 l 13.29 -13.3 a 1.51 1.51 0 0 1 2.13 0 a 1.5 1.5 0 0 1 0 2.12 l -13.3 13.3 A 4.62 4.62 0 0 1 54.88 71.29 Z" fill="#ff9900" transform="scale(0.6) translate(-50 -50)"/><path d="M 43.81 29.28 a 4.15 4.15 0 0 1 2.94 7.08 l -11.12 11 A 2.14 2.14 0 0 0 35 48.91 a 2.14 2.14 0 0 0 3.66 1.52 L 49.75 39.36 a 4.14 4.14 0 0 1 5.86 5.86 L 44.49 56.27 a 2.13 2.13 0 0 0 -0.62 1.51 a 2.16 2.16 0 0 0 3.67 1.52 L 58.61 48.22 a 4.15 4.15 0 0 1 5.87 5.86 l -11.12 11 a 2.15 2.15 0 0 0 0 3 a 2.17 2.17 0 0 0 3 0 l 13.3 -13.3 a 1 1 0 1 1 1.41 1.42 L 57.81 69.57 a 4.13 4.13 0 0 1 -5.86 0 a 4.14 4.14 0 0 1 0 -5.86 l 11.12 -11 a 2.15 2.15 0 0 0 -3 -3 L 49 60.71 a 4.15 4.15 0 0 1 -5.87 -5.86 L 54.2 43.8 a 2.15 2.15 0 0 0 -3 -3 L 40.09 51.85 A 4.15 4.15 0 0 1 34.22 46 l 11.12 -11 a 2.15 2.15 0 0 0 -1.53 -3.66 a 2.09 2.09 0 0 0 -1.51 0.63 L 28.93 45.28 a 1 1 0 0 1 -1.42 0 a 1 1 0 0 1 0 -1.42 L 40.88 30.5 a 4.1 4.1 0 0 1 2.93 -1.22 m 0 -1 a 5.18 5.18 0 0 0 -3.64 1.51 L 26.81 43.16 a 2 2 0 0 0 1.41 3.41 A 2 2 0 0 0 29.64 46 L 43 32.62 a 1.14 1.14 0 0 1 0.81 -0.34 A 1.16 1.16 0 0 1 45 33.43 a 1.14 1.14 0 0 1 -0.33 0.8 L 33.52 45.28 a 5.14 5.14 0 1 0 7.27 7.27 L 51.87 41.48 a 1.13 1.13 0 0 1 0.81 -0.33 a 1.14 1.14 0 0 1 0.81 2 l -11.11 11 a 5.15 5.15 0 1 0 7.28 7.28 L 60.73 50.34 a 1.17 1.17 0 0 1 0.81 -0.32 A 1.14 1.14 0 0 1 62.36 52 L 51.24 63 a 5.15 5.15 0 0 0 3.64 8.79 a 5.11 5.11 0 0 0 3.64 -1.51 L 71.82 57 a 2 2 0 0 0 0 -2.83 a 2 2 0 0 0 -2.83 0 l -13.3 13.3 a 1.12 1.12 0 0 1 -0.81 0.33 a 1.15 1.15 0 0 1 -0.81 -0.33 a 1.13 1.13 0 0 1 0 -1.61 L 65.18 54.79 a 5.14 5.14 0 0 0 0 -7.27 a 5.14 5.14 0 0 0 -7.28 0 L 46.83 58.59 a 1.12 1.12 0 0 1 -0.81 0.32 a 1.11 1.11 0 0 1 -0.81 -0.32 a 1.15 1.15 0 0 1 0 -1.62 l 11.12 -11 A 5.15 5.15 0 0 0 49 38.65 L 38 49.73 a 1.15 1.15 0 0 1 -2 -0.82 a 1.14 1.14 0 0 1 0.33 -0.8 l 11.11 -11 a 5.14 5.14 0 0 0 0 -7.28 a 5.14 5.14 0 0 0 -3.64 -1.51 Z" fill="#ff9900" transform="scale(0.6) translate(-50 -50)"/></g><g transform="translate(1911.316266228958, -397.10476119675405)"><path d="M54.88 71.29 a 4.58 4.58 0 0 1 -3.28 -1.36 a 4.65 4.65 0 0 1 0 -6.57 l 11.11 -11 A 1.65 1.65 0 0 0 60.38 50 L 49.3 61.06 a 4.65 4.65 0 0 1 -7.93 -3.28 a 4.66 4.66 0 0 1 1.36 -3.29 l 11.12 -11 a 1.65 1.65 0 0 0 -1.17 -2.8 a 1.67 1.67 0 0 0 -1.17 0.48 L 40.44 52.2 a 4.65 4.65 0 0 1 -6.57 -6.57 L 45 34.59 a 1.63 1.63 0 0 0 0.48 -1.16 A 1.67 1.67 0 0 0 45 32.26 a 1.65 1.65 0 0 0 -1.17 -0.48 a 1.63 1.63 0 0 0 -1.16 0.48 L 29.28 45.63 a 1.5 1.5 0 1 1 -2.12 -2.12 L 40.53 30.14 a 4.65 4.65 0 0 1 7.93 3.29 a 4.58 4.58 0 0 1 -1.36 3.28 L 36 47.75 a 1.65 1.65 0 0 0 0 2.33 a 1.65 1.65 0 0 0 2.33 0 L 49.39 39 A 4.65 4.65 0 0 1 56 39 a 4.65 4.65 0 0 1 0 6.57 l -11.11 11 a 1.64 1.64 0 0 0 0 2.32 a 1.66 1.66 0 0 0 1.17 0.47 a 1.64 1.64 0 0 0 1.16 -0.47 L 58.26 47.87 a 4.65 4.65 0 0 1 6.57 0 a 4.65 4.65 0 0 1 0 6.57 l -11.12 11 a 1.65 1.65 0 0 0 2.34 2.33 l 13.29 -13.3 a 1.51 1.51 0 0 1 2.13 0 a 1.5 1.5 0 0 1 0 2.12 l -13.3 13.3 A 4.62 4.62 0 0 1 54.88 71.29 Z" fill="#ff9900" transform="scale(0.6) translate(-50 -50)"/><path d="M 43.81 29.28 a 4.15 4.15 0 0 1 2.94 7.08 l -11.12 11 A 2.14 2.14 0 0 0 35 48.91 a 2.14 2.14 0 0 0 3.66 1.52 L 49.75 39.36 a 4.14 4.14 0 0 1 5.86 5.86 L 44.49 56.27 a 2.13 2.13 0 0 0 -0.62 1.51 a 2.16 2.16 0 0 0 3.67 1.52 L 58.61 48.22 a 4.15 4.15 0 0 1 5.87 5.86 l -11.12 11 a 2.15 2.15 0 0 0 0 3 a 2.17 2.17 0 0 0 3 0 l 13.3 -13.3 a 1 1 0 1 1 1.41 1.42 L 57.81 69.57 a 4.13 4.13 0 0 1 -5.86 0 a 4.14 4.14 0 0 1 0 -5.86 l 11.12 -11 a 2.15 2.15 0 0 0 -3 -3 L 49 60.71 a 4.15 4.15 0 0 1 -5.87 -5.86 L 54.2 43.8 a 2.15 2.15 0 0 0 -3 -3 L 40.09 51.85 A 4.15 4.15 0 0 1 34.22 46 l 11.12 -11 a 2.15 2.15 0 0 0 -1.53 -3.66 a 2.09 2.09 0 0 0 -1.51 0.63 L 28.93 45.28 a 1 1 0 0 1 -1.42 0 a 1 1 0 0 1 0 -1.42 L 40.88 30.5 a 4.1 4.1 0 0 1 2.93 -1.22 m 0 -1 a 5.18 5.18 0 0 0 -3.64 1.51 L 26.81 43.16 a 2 2 0 0 0 1.41 3.41 A 2 2 0 0 0 29.64 46 L 43 32.62 a 1.14 1.14 0 0 1 0.81 -0.34 A 1.16 1.16 0 0 1 45 33.43 a 1.14 1.14 0 0 1 -0.33 0.8 L 33.52 45.28 a 5.14 5.14 0 1 0 7.27 7.27 L 51.87 41.48 a 1.13 1.13 0 0 1 0.81 -0.33 a 1.14 1.14 0 0 1 0.81 2 l -11.11 11 a 5.15 5.15 0 1 0 7.28 7.28 L 60.73 50.34 a 1.17 1.17 0 0 1 0.81 -0.32 A 1.14 1.14 0 0 1 62.36 52 L 51.24 63 a 5.15 5.15 0 0 0 3.64 8.79 a 5.11 5.11 0 0 0 3.64 -1.51 L 71.82 57 a 2 2 0 0 0 0 -2.83 a 2 2 0 0 0 -2.83 0 l -13.3 13.3 a 1.12 1.12 0 0 1 -0.81 0.33 a 1.15 1.15 0 0 1 -0.81 -0.33 a 1.13 1.13 0 0 1 0 -1.61 L 65.18 54.79 a 5.14 5.14 0 0 0 0 -7.27 a 5.14 5.14 0 0 0 -7.28 0 L 46.83 58.59 a 1.12 1.12 0 0 1 -0.81 0.32 a 1.11 1.11 0 0 1 -0.81 -0.32 a 1.15 1.15 0 0 1 0 -1.62 l 11.12 -11 A 5.15 5.15 0 0 0 49 38.65 L 38 49.73 a 1.15 1.15 0 0 1 -2 -0.82 a 1.14 1.14 0 0 1 0.33 -0.8 l 11.11 -11 a 5.14 5.14 0 0 0 0 -7.28 a 5.14 5.14 0 0 0 -3.64 -1.51 Z" fill="#ff9900" transform="scale(0.6) translate(-50 -50)"/></g><g transform="translate(1102.6939722588074, -325.2272239549628)"><path d="M54.88 71.29 a 4.58 4.58 0 0 1 -3.28 -1.36 a 4.65 4.65 0 0 1 0 -6.57 l 11.11 -11 A 1.65 1.65 0 0 0 60.38 50 L 49.3 61.06 a 4.65 4.65 0 0 1 -7.93 -3.28 a 4.66 4.66 0 0 1 1.36 -3.29 l 11.12 -11 a 1.65 1.65 0 0 0 -1.17 -2.8 a 1.67 1.67 0 0 0 -1.17 0.48 L 40.44 52.2 a 4.65 4.65 0 0 1 -6.57 -6.57 L 45 34.59 a 1.63 1.63 0 0 0 0.48 -1.16 A 1.67 1.67 0 0 0 45 32.26 a 1.65 1.65 0 0 0 -1.17 -0.48 a 1.63 1.63 0 0 0 -1.16 0.48 L 29.28 45.63 a 1.5 1.5 0 1 1 -2.12 -2.12 L 40.53 30.14 a 4.65 4.65 0 0 1 7.93 3.29 a 4.58 4.58 0 0 1 -1.36 3.28 L 36 47.75 a 1.65 1.65 0 0 0 0 2.33 a 1.65 1.65 0 0 0 2.33 0 L 49.39 39 A 4.65 4.65 0 0 1 56 39 a 4.65 4.65 0 0 1 0 6.57 l -11.11 11 a 1.64 1.64 0 0 0 0 2.32 a 1.66 1.66 0 0 0 1.17 0.47 a 1.64 1.64 0 0 0 1.16 -0.47 L 58.26 47.87 a 4.65 4.65 0 0 1 6.57 0 a 4.65 4.65 0 0 1 0 6.57 l -11.12 11 a 1.65 1.65 0 0 0 2.34 2.33 l 13.29 -13.3 a 1.51 1.51 0 0 1 2.13 0 a 1.5 1.5 0 0 1 0 2.12 l -13.3 13.3 A 4.62 4.62 0 0 1 54.88 71.29 Z" fill="#f6c" transform="scale(0.6) translate(-50 -50)"/><path d="M 43.81 29.28 a 4.15 4.15 0 0 1 2.94 7.08 l -11.12 11 A 2.14 2.14 0 0 0 35 48.91 a 2.14 2.14 0 0 0 3.66 1.52 L 49.75 39.36 a 4.14 4.14 0 0 1 5.86 5.86 L 44.49 56.27 a 2.13 2.13 0 0 0 -0.62 1.51 a 2.16 2.16 0 0 0 3.67 1.52 L 58.61 48.22 a 4.15 4.15 0 0 1 5.87 5.86 l -11.12 11 a 2.15 2.15 0 0 0 0 3 a 2.17 2.17 0 0 0 3 0 l 13.3 -13.3 a 1 1 0 1 1 1.41 1.42 L 57.81 69.57 a 4.13 4.13 0 0 1 -5.86 0 a 4.14 4.14 0 0 1 0 -5.86 l 11.12 -11 a 2.15 2.15 0 0 0 -3 -3 L 49 60.71 a 4.15 4.15 0 0 1 -5.87 -5.86 L 54.2 43.8 a 2.15 2.15 0 0 0 -3 -3 L 40.09 51.85 A 4.15 4.15 0 0 1 34.22 46 l 11.12 -11 a 2.15 2.15 0 0 0 -1.53 -3.66 a 2.09 2.09 0 0 0 -1.51 0.63 L 28.93 45.28 a 1 1 0 0 1 -1.42 0 a 1 1 0 0 1 0 -1.42 L 40.88 30.5 a 4.1 4.1 0 0 1 2.93 -1.22 m 0 -1 a 5.18 5.18 0 0 0 -3.64 1.51 L 26.81 43.16 a 2 2 0 0 0 1.41 3.41 A 2 2 0 0 0 29.64 46 L 43 32.62 a 1.14 1.14 0 0 1 0.81 -0.34 A 1.16 1.16 0 0 1 45 33.43 a 1.14 1.14 0 0 1 -0.33 0.8 L 33.52 45.28 a 5.14 5.14 0 1 0 7.27 7.27 L 51.87 41.48 a 1.13 1.13 0 0 1 0.81 -0.33 a 1.14 1.14 0 0 1 0.81 2 l -11.11 11 a 5.15 5.15 0 1 0 7.28 7.28 L 60.73 50.34 a 1.17 1.17 0 0 1 0.81 -0.32 A 1.14 1.14 0 0 1 62.36 52 L 51.24 63 a 5.15 5.15 0 0 0 3.64 8.79 a 5.11 5.11 0 0 0 3.64 -1.51 L 71.82 57 a 2 2 0 0 0 0 -2.83 a 2 2 0 0 0 -2.83 0 l -13.3 13.3 a 1.12 1.12 0 0 1 -0.81 0.33 a 1.15 1.15 0 0 1 -0.81 -0.33 a 1.13 1.13 0 0 1 0 -1.61 L 65.18 54.79 a 5.14 5.14 0 0 0 0 -7.27 a 5.14 5.14 0 0 0 -7.28 0 L 46.83 58.59 a 1.12 1.12 0 0 1 -0.81 0.32 a 1.11 1.11 0 0 1 -0.81 -0.32 a 1.15 1.15 0 0 1 0 -1.62 l 11.12 -11 A 5.15 5.15 0 0 0 49 38.65 L 38 49.73 a 1.15 1.15 0 0 1 -2 -0.82 a 1.14 1.14 0 0 1 0.33 -0.8 l 11.11 -11 a 5.14 5.14 0 0 0 0 -7.28 a 5.14 5.14 0 0 0 -3.64 -1.51 Z" fill="#f6c" transform="scale(0.6) translate(-50 -50)"/></g><g transform="translate(1405.6064506349271, -322.6601690534703)"><path d="M54.88 71.29 a 4.58 4.58 0 0 1 -3.28 -1.36 a 4.65 4.65 0 0 1 0 -6.57 l 11.11 -11 A 1.65 1.65 0 0 0 60.38 50 L 49.3 61.06 a 4.65 4.65 0 0 1 -7.93 -3.28 a 4.66 4.66 0 0 1 1.36 -3.29 l 11.12 -11 a 1.65 1.65 0 0 0 -1.17 -2.8 a 1.67 1.67 0 0 0 -1.17 0.48 L 40.44 52.2 a 4.65 4.65 0 0 1 -6.57 -6.57 L 45 34.59 a 1.63 1.63 0 0 0 0.48 -1.16 A 1.67 1.67 0 0 0 45 32.26 a 1.65 1.65 0 0 0 -1.17 -0.48 a 1.63 1.63 0 0 0 -1.16 0.48 L 29.28 45.63 a 1.5 1.5 0 1 1 -2.12 -2.12 L 40.53 30.14 a 4.65 4.65 0 0 1 7.93 3.29 a 4.58 4.58 0 0 1 -1.36 3.28 L 36 47.75 a 1.65 1.65 0 0 0 0 2.33 a 1.65 1.65 0 0 0 2.33 0 L 49.39 39 A 4.65 4.65 0 0 1 56 39 a 4.65 4.65 0 0 1 0 6.57 l -11.11 11 a 1.64 1.64 0 0 0 0 2.32 a 1.66 1.66 0 0 0 1.17 0.47 a 1.64 1.64 0 0 0 1.16 -0.47 L 58.26 47.87 a 4.65 4.65 0 0 1 6.57 0 a 4.65 4.65 0 0 1 0 6.57 l -11.12 11 a 1.65 1.65 0 0 0 2.34 2.33 l 13.29 -13.3 a 1.51 1.51 0 0 1 2.13 0 a 1.5 1.5 0 0 1 0 2.12 l -13.3 13.3 A 4.62 4.62 0 0 1 54.88 71.29 Z" fill="#f6c" transform="scale(0.6) translate(-50 -50)"/><path d="M 43.81 29.28 a 4.15 4.15 0 0 1 2.94 7.08 l -11.12 11 A 2.14 2.14 0 0 0 35 48.91 a 2.14 2.14 0 0 0 3.66 1.52 L 49.75 39.36 a 4.14 4.14 0 0 1 5.86 5.86 L 44.49 56.27 a 2.13 2.13 0 0 0 -0.62 1.51 a 2.16 2.16 0 0 0 3.67 1.52 L 58.61 48.22 a 4.15 4.15 0 0 1 5.87 5.86 l -11.12 11 a 2.15 2.15 0 0 0 0 3 a 2.17 2.17 0 0 0 3 0 l 13.3 -13.3 a 1 1 0 1 1 1.41 1.42 L 57.81 69.57 a 4.13 4.13 0 0 1 -5.86 0 a 4.14 4.14 0 0 1 0 -5.86 l 11.12 -11 a 2.15 2.15 0 0 0 -3 -3 L 49 60.71 a 4.15 4.15 0 0 1 -5.87 -5.86 L 54.2 43.8 a 2.15 2.15 0 0 0 -3 -3 L 40.09 51.85 A 4.15 4.15 0 0 1 34.22 46 l 11.12 -11 a 2.15 2.15 0 0 0 -1.53 -3.66 a 2.09 2.09 0 0 0 -1.51 0.63 L 28.93 45.28 a 1 1 0 0 1 -1.42 0 a 1 1 0 0 1 0 -1.42 L 40.88 30.5 a 4.1 4.1 0 0 1 2.93 -1.22 m 0 -1 a 5.18 5.18 0 0 0 -3.64 1.51 L 26.81 43.16 a 2 2 0 0 0 1.41 3.41 A 2 2 0 0 0 29.64 46 L 43 32.62 a 1.14 1.14 0 0 1 0.81 -0.34 A 1.16 1.16 0 0 1 45 33.43 a 1.14 1.14 0 0 1 -0.33 0.8 L 33.52 45.28 a 5.14 5.14 0 1 0 7.27 7.27 L 51.87 41.48 a 1.13 1.13 0 0 1 0.81 -0.33 a 1.14 1.14 0 0 1 0.81 2 l -11.11 11 a 5.15 5.15 0 1 0 7.28 7.28 L 60.73 50.34 a 1.17 1.17 0 0 1 0.81 -0.32 A 1.14 1.14 0 0 1 62.36 52 L 51.24 63 a 5.15 5.15 0 0 0 3.64 8.79 a 5.11 5.11 0 0 0 3.64 -1.51 L 71.82 57 a 2 2 0 0 0 0 -2.83 a 2 2 0 0 0 -2.83 0 l -13.3 13.3 a 1.12 1.12 0 0 1 -0.81 0.33 a 1.15 1.15 0 0 1 -0.81 -0.33 a 1.13 1.13 0 0 1 0 -1.61 L 65.18 54.79 a 5.14 5.14 0 0 0 0 -7.27 a 5.14 5.14 0 0 0 -7.28 0 L 46.83 58.59 a 1.12 1.12 0 0 1 -0.81 0.32 a 1.11 1.11 0 0 1 -0.81 -0.32 a 1.15 1.15 0 0 1 0 -1.62 l 11.12 -11 A 5.15 5.15 0 0 0 49 38.65 L 38 49.73 a 1.15 1.15 0 0 1 -2 -0.82 a 1.14 1.14 0 0 1 0.33 -0.8 l 11.11 -11 a 5.14 5.14 0 0 0 0 -7.28 a 5.14 5.14 0 0 0 -3.64 -1.51 Z" fill="#f6c" transform="scale(0.6) translate(-50 -50)"/></g><g transform="translate(1097.5598624558222, -261.0508514176493)"><path d="M54.88 71.29 a 4.58 4.58 0 0 1 -3.28 -1.36 a 4.65 4.65 0 0 1 0 -6.57 l 11.11 -11 A 1.65 1.65 0 0 0 60.38 50 L 49.3 61.06 a 4.65 4.65 0 0 1 -7.93 -3.28 a 4.66 4.66 0 0 1 1.36 -3.29 l 11.12 -11 a 1.65 1.65 0 0 0 -1.17 -2.8 a 1.67 1.67 0 0 0 -1.17 0.48 L 40.44 52.2 a 4.65 4.65 0 0 1 -6.57 -6.57 L 45 34.59 a 1.63 1.63 0 0 0 0.48 -1.16 A 1.67 1.67 0 0 0 45 32.26 a 1.65 1.65 0 0 0 -1.17 -0.48 a 1.63 1.63 0 0 0 -1.16 0.48 L 29.28 45.63 a 1.5 1.5 0 1 1 -2.12 -2.12 L 40.53 30.14 a 4.65 4.65 0 0 1 7.93 3.29 a 4.58 4.58 0 0 1 -1.36 3.28 L 36 47.75 a 1.65 1.65 0 0 0 0 2.33 a 1.65 1.65 0 0 0 2.33 0 L 49.39 39 A 4.65 4.65 0 0 1 56 39 a 4.65 4.65 0 0 1 0 6.57 l -11.11 11 a 1.64 1.64 0 0 0 0 2.32 a 1.66 1.66 0 0 0 1.17 0.47 a 1.64 1.64 0 0 0 1.16 -0.47 L 58.26 47.87 a 4.65 4.65 0 0 1 6.57 0 a 4.65 4.65 0 0 1 0 6.57 l -11.12 11 a 1.65 1.65 0 0 0 2.34 2.33 l 13.29 -13.3 a 1.51 1.51 0 0 1 2.13 0 a 1.5 1.5 0 0 1 0 2.12 l -13.3 13.3 A 4.62 4.62 0 0 1 54.88 71.29 Z" fill="#ff9900" transform="scale(0.6) translate(-50 -50)"/><path d="M 43.81 29.28 a 4.15 4.15 0 0 1 2.94 7.08 l -11.12 11 A 2.14 2.14 0 0 0 35 48.91 a 2.14 2.14 0 0 0 3.66 1.52 L 49.75 39.36 a 4.14 4.14 0 0 1 5.86 5.86 L 44.49 56.27 a 2.13 2.13 0 0 0 -0.62 1.51 a 2.16 2.16 0 0 0 3.67 1.52 L 58.61 48.22 a 4.15 4.15 0 0 1 5.87 5.86 l -11.12 11 a 2.15 2.15 0 0 0 0 3 a 2.17 2.17 0 0 0 3 0 l 13.3 -13.3 a 1 1 0 1 1 1.41 1.42 L 57.81 69.57 a 4.13 4.13 0 0 1 -5.86 0 a 4.14 4.14 0 0 1 0 -5.86 l 11.12 -11 a 2.15 2.15 0 0 0 -3 -3 L 49 60.71 a 4.15 4.15 0 0 1 -5.87 -5.86 L 54.2 43.8 a 2.15 2.15 0 0 0 -3 -3 L 40.09 51.85 A 4.15 4.15 0 0 1 34.22 46 l 11.12 -11 a 2.15 2.15 0 0 0 -1.53 -3.66 a 2.09 2.09 0 0 0 -1.51 0.63 L 28.93 45.28 a 1 1 0 0 1 -1.42 0 a 1 1 0 0 1 0 -1.42 L 40.88 30.5 a 4.1 4.1 0 0 1 2.93 -1.22 m 0 -1 a 5.18 5.18 0 0 0 -3.64 1.51 L 26.81 43.16 a 2 2 0 0 0 1.41 3.41 A 2 2 0 0 0 29.64 46 L 43 32.62 a 1.14 1.14 0 0 1 0.81 -0.34 A 1.16 1.16 0 0 1 45 33.43 a 1.14 1.14 0 0 1 -0.33 0.8 L 33.52 45.28 a 5.14 5.14 0 1 0 7.27 7.27 L 51.87 41.48 a 1.13 1.13 0 0 1 0.81 -0.33 a 1.14 1.14 0 0 1 0.81 2 l -11.11 11 a 5.15 5.15 0 1 0 7.28 7.28 L 60.73 50.34 a 1.17 1.17 0 0 1 0.81 -0.32 A 1.14 1.14 0 0 1 62.36 52 L 51.24 63 a 5.15 5.15 0 0 0 3.64 8.79 a 5.11 5.11 0 0 0 3.64 -1.51 L 71.82 57 a 2 2 0 0 0 0 -2.83 a 2 2 0 0 0 -2.83 0 l -13.3 13.3 a 1.12 1.12 0 0 1 -0.81 0.33 a 1.15 1.15 0 0 1 -0.81 -0.33 a 1.13 1.13 0 0 1 0 -1.61 L 65.18 54.79 a 5.14 5.14 0 0 0 0 -7.27 a 5.14 5.14 0 0 0 -7.28 0 L 46.83 58.59 a 1.12 1.12 0 0 1 -0.81 0.32 a 1.11 1.11 0 0 1 -0.81 -0.32 a 1.15 1.15 0 0 1 0 -1.62 l 11.12 -11 A 5.15 5.15 0 0 0 49 38.65 L 38 49.73 a 1.15 1.15 0 0 1 -2 -0.82 a 1.14 1.14 0 0 1 0.33 -0.8 l 11.11 -11 a 5.14 5.14 0 0 0 0 -7.28 a 5.14 5.14 0 0 0 -3.64 -1.51 Z" fill="#ff9900" transform="scale(0.6) translate(-50 -50)"/></g><g transform="translate(1409.457032987166, -257.2002690654105)"><path d="M54.88 71.29 a 4.58 4.58 0 0 1 -3.28 -1.36 a 4.65 4.65 0 0 1 0 -6.57 l 11.11 -11 A 1.65 1.65 0 0 0 60.38 50 L 49.3 61.06 a 4.65 4.65 0 0 1 -7.93 -3.28 a 4.66 4.66 0 0 1 1.36 -3.29 l 11.12 -11 a 1.65 1.65 0 0 0 -1.17 -2.8 a 1.67 1.67 0 0 0 -1.17 0.48 L 40.44 52.2 a 4.65 4.65 0 0 1 -6.57 -6.57 L 45 34.59 a 1.63 1.63 0 0 0 0.48 -1.16 A 1.67 1.67 0 0 0 45 32.26 a 1.65 1.65 0 0 0 -1.17 -0.48 a 1.63 1.63 0 0 0 -1.16 0.48 L 29.28 45.63 a 1.5 1.5 0 1 1 -2.12 -2.12 L 40.53 30.14 a 4.65 4.65 0 0 1 7.93 3.29 a 4.58 4.58 0 0 1 -1.36 3.28 L 36 47.75 a 1.65 1.65 0 0 0 0 2.33 a 1.65 1.65 0 0 0 2.33 0 L 49.39 39 A 4.65 4.65 0 0 1 56 39 a 4.65 4.65 0 0 1 0 6.57 l -11.11 11 a 1.64 1.64 0 0 0 0 2.32 a 1.66 1.66 0 0 0 1.17 0.47 a 1.64 1.64 0 0 0 1.16 -0.47 L 58.26 47.87 a 4.65 4.65 0 0 1 6.57 0 a 4.65 4.65 0 0 1 0 6.57 l -11.12 11 a 1.65 1.65 0 0 0 2.34 2.33 l 13.29 -13.3 a 1.51 1.51 0 0 1 2.13 0 a 1.5 1.5 0 0 1 0 2.12 l -13.3 13.3 A 4.62 4.62 0 0 1 54.88 71.29 Z" fill="#ff9900" transform="scale(0.6) translate(-50 -50)"/><path d="M 43.81 29.28 a 4.15 4.15 0 0 1 2.94 7.08 l -11.12 11 A 2.14 2.14 0 0 0 35 48.91 a 2.14 2.14 0 0 0 3.66 1.52 L 49.75 39.36 a 4.14 4.14 0 0 1 5.86 5.86 L 44.49 56.27 a 2.13 2.13 0 0 0 -0.62 1.51 a 2.16 2.16 0 0 0 3.67 1.52 L 58.61 48.22 a 4.15 4.15 0 0 1 5.87 5.86 l -11.12 11 a 2.15 2.15 0 0 0 0 3 a 2.17 2.17 0 0 0 3 0 l 13.3 -13.3 a 1 1 0 1 1 1.41 1.42 L 57.81 69.57 a 4.13 4.13 0 0 1 -5.86 0 a 4.14 4.14 0 0 1 0 -5.86 l 11.12 -11 a 2.15 2.15 0 0 0 -3 -3 L 49 60.71 a 4.15 4.15 0 0 1 -5.87 -5.86 L 54.2 43.8 a 2.15 2.15 0 0 0 -3 -3 L 40.09 51.85 A 4.15 4.15 0 0 1 34.22 46 l 11.12 -11 a 2.15 2.15 0 0 0 -1.53 -3.66 a 2.09 2.09 0 0 0 -1.51 0.63 L 28.93 45.28 a 1 1 0 0 1 -1.42 0 a 1 1 0 0 1 0 -1.42 L 40.88 30.5 a 4.1 4.1 0 0 1 2.93 -1.22 m 0 -1 a 5.18 5.18 0 0 0 -3.64 1.51 L 26.81 43.16 a 2 2 0 0 0 1.41 3.41 A 2 2 0 0 0 29.64 46 L 43 32.62 a 1.14 1.14 0 0 1 0.81 -0.34 A 1.16 1.16 0 0 1 45 33.43 a 1.14 1.14 0 0 1 -0.33 0.8 L 33.52 45.28 a 5.14 5.14 0 1 0 7.27 7.27 L 51.87 41.48 a 1.13 1.13 0 0 1 0.81 -0.33 a 1.14 1.14 0 0 1 0.81 2 l -11.11 11 a 5.15 5.15 0 1 0 7.28 7.28 L 60.73 50.34 a 1.17 1.17 0 0 1 0.81 -0.32 A 1.14 1.14 0 0 1 62.36 52 L 51.24 63 a 5.15 5.15 0 0 0 3.64 8.79 a 5.11 5.11 0 0 0 3.64 -1.51 L 71.82 57 a 2 2 0 0 0 0 -2.83 a 2 2 0 0 0 -2.83 0 l -13.3 13.3 a 1.12 1.12 0 0 1 -0.81 0.33 a 1.15 1.15 0 0 1 -0.81 -0.33 a 1.13 1.13 0 0 1 0 -1.61 L 65.18 54.79 a 5.14 5.14 0 0 0 0 -7.27 a 5.14 5.14 0 0 0 -7.28 0 L 46.83 58.59 a 1.12 1.12 0 0 1 -0.81 0.32 a 1.11 1.11 0 0 1 -0.81 -0.32 a 1.15 1.15 0 0 1 0 -1.62 l 11.12 -11 A 5.15 5.15 0 0 0 49 38.65 L 38 49.73 a 1.15 1.15 0 0 1 -2 -0.82 a 1.14 1.14 0 0 1 0.33 -0.8 l 11.11 -11 a 5.14 5.14 0 0 0 0 -7.28 a 5.14 5.14 0 0 0 -3.64 -1.51 Z" fill="#ff9900" transform="scale(0.6) translate(-50 -50)"/></g><g transform="translate(1050.2476144797024, 118.98023462414244)"><path d="M54.88 71.29 a 4.58 4.58 0 0 1 -3.28 -1.36 a 4.65 4.65 0 0 1 0 -6.57 l 11.11 -11 A 1.65 1.65 0 0 0 60.38 50 L 49.3 61.06 a 4.65 4.65 0 0 1 -7.93 -3.28 a 4.66 4.66 0 0 1 1.36 -3.29 l 11.12 -11 a 1.65 1.65 0 0 0 -1.17 -2.8 a 1.67 1.67 0 0 0 -1.17 0.48 L 40.44 52.2 a 4.65 4.65 0 0 1 -6.57 -6.57 L 45 34.59 a 1.63 1.63 0 0 0 0.48 -1.16 A 1.67 1.67 0 0 0 45 32.26 a 1.65 1.65 0 0 0 -1.17 -0.48 a 1.63 1.63 0 0 0 -1.16 0.48 L 29.28 45.63 a 1.5 1.5 0 1 1 -2.12 -2.12 L 40.53 30.14 a 4.65 4.65 0 0 1 7.93 3.29 a 4.58 4.58 0 0 1 -1.36 3.28 L 36 47.75 a 1.65 1.65 0 0 0 0 2.33 a 1.65 1.65 0 0 0 2.33 0 L 49.39 39 A 4.65 4.65 0 0 1 56 39 a 4.65 4.65 0 0 1 0 6.57 l -11.11 11 a 1.64 1.64 0 0 0 0 2.32 a 1.66 1.66 0 0 0 1.17 0.47 a 1.64 1.64 0 0 0 1.16 -0.47 L 58.26 47.87 a 4.65 4.65 0 0 1 6.57 0 a 4.65 4.65 0 0 1 0 6.57 l -11.12 11 a 1.65 1.65 0 0 0 2.34 2.33 l 13.29 -13.3 a 1.51 1.51 0 0 1 2.13 0 a 1.5 1.5 0 0 1 0 2.12 l -13.3 13.3 A 4.62 4.62 0 0 1 54.88 71.29 Z" fill="#33cc00" transform="scale(0.6) translate(-50 -50)"/><path d="M 43.81 29.28 a 4.15 4.15 0 0 1 2.94 7.08 l -11.12 11 A 2.14 2.14 0 0 0 35 48.91 a 2.14 2.14 0 0 0 3.66 1.52 L 49.75 39.36 a 4.14 4.14 0 0 1 5.86 5.86 L 44.49 56.27 a 2.13 2.13 0 0 0 -0.62 1.51 a 2.16 2.16 0 0 0 3.67 1.52 L 58.61 48.22 a 4.15 4.15 0 0 1 5.87 5.86 l -11.12 11 a 2.15 2.15 0 0 0 0 3 a 2.17 2.17 0 0 0 3 0 l 13.3 -13.3 a 1 1 0 1 1 1.41 1.42 L 57.81 69.57 a 4.13 4.13 0 0 1 -5.86 0 a 4.14 4.14 0 0 1 0 -5.86 l 11.12 -11 a 2.15 2.15 0 0 0 -3 -3 L 49 60.71 a 4.15 4.15 0 0 1 -5.87 -5.86 L 54.2 43.8 a 2.15 2.15 0 0 0 -3 -3 L 40.09 51.85 A 4.15 4.15 0 0 1 34.22 46 l 11.12 -11 a 2.15 2.15 0 0 0 -1.53 -3.66 a 2.09 2.09 0 0 0 -1.51 0.63 L 28.93 45.28 a 1 1 0 0 1 -1.42 0 a 1 1 0 0 1 0 -1.42 L 40.88 30.5 a 4.1 4.1 0 0 1 2.93 -1.22 m 0 -1 a 5.18 5.18 0 0 0 -3.64 1.51 L 26.81 43.16 a 2 2 0 0 0 1.41 3.41 A 2 2 0 0 0 29.64 46 L 43 32.62 a 1.14 1.14 0 0 1 0.81 -0.34 A 1.16 1.16 0 0 1 45 33.43 a 1.14 1.14 0 0 1 -0.33 0.8 L 33.52 45.28 a 5.14 5.14 0 1 0 7.27 7.27 L 51.87 41.48 a 1.13 1.13 0 0 1 0.81 -0.33 a 1.14 1.14 0 0 1 0.81 2 l -11.11 11 a 5.15 5.15 0 1 0 7.28 7.28 L 60.73 50.34 a 1.17 1.17 0 0 1 0.81 -0.32 A 1.14 1.14 0 0 1 62.36 52 L 51.24 63 a 5.15 5.15 0 0 0 3.64 8.79 a 5.11 5.11 0 0 0 3.64 -1.51 L 71.82 57 a 2 2 0 0 0 0 -2.83 a 2 2 0 0 0 -2.83 0 l -13.3 13.3 a 1.12 1.12 0 0 1 -0.81 0.33 a 1.15 1.15 0 0 1 -0.81 -0.33 a 1.13 1.13 0 0 1 0 -1.61 L 65.18 54.79 a 5.14 5.14 0 0 0 0 -7.27 a 5.14 5.14 0 0 0 -7.28 0 L 46.83 58.59 a 1.12 1.12 0 0 1 -0.81 0.32 a 1.11 1.11 0 0 1 -0.81 -0.32 a 1.15 1.15 0 0 1 0 -1.62 l 11.12 -11 A 5.15 5.15 0 0 0 49 38.65 L 38 49.73 a 1.15 1.15 0 0 1 -2 -0.82 a 1.14 1.14 0 0 1 0.33 -0.8 l 11.11 -11 a 5.14 5.14 0 0 0 0 -7.28 a 5.14 5.14 0 0 0 -3.64 -1.51 Z" fill="#33cc00" transform="scale(0.6) translate(-50 -50)"/></g><g transform="translate(1180.6726974860778, 189.68753386051424)"><path d="M54.88 71.29 a 4.58 4.58 0 0 1 -3.28 -1.36 a 4.65 4.65 0 0 1 0 -6.57 l 11.11 -11 A 1.65 1.65 0 0 0 60.38 50 L 49.3 61.06 a 4.65 4.65 0 0 1 -7.93 -3.28 a 4.66 4.66 0 0 1 1.36 -3.29 l 11.12 -11 a 1.65 1.65 0 0 0 -1.17 -2.8 a 1.67 1.67 0 0 0 -1.17 0.48 L 40.44 52.2 a 4.65 4.65 0 0 1 -6.57 -6.57 L 45 34.59 a 1.63 1.63 0 0 0 0.48 -1.16 A 1.67 1.67 0 0 0 45 32.26 a 1.65 1.65 0 0 0 -1.17 -0.48 a 1.63 1.63 0 0 0 -1.16 0.48 L 29.28 45.63 a 1.5 1.5 0 1 1 -2.12 -2.12 L 40.53 30.14 a 4.65 4.65 0 0 1 7.93 3.29 a 4.58 4.58 0 0 1 -1.36 3.28 L 36 47.75 a 1.65 1.65 0 0 0 0 2.33 a 1.65 1.65 0 0 0 2.33 0 L 49.39 39 A 4.65 4.65 0 0 1 56 39 a 4.65 4.65 0 0 1 0 6.57 l -11.11 11 a 1.64 1.64 0 0 0 0 2.32 a 1.66 1.66 0 0 0 1.17 0.47 a 1.64 1.64 0 0 0 1.16 -0.47 L 58.26 47.87 a 4.65 4.65 0 0 1 6.57 0 a 4.65 4.65 0 0 1 0 6.57 l -11.12 11 a 1.65 1.65 0 0 0 2.34 2.33 l 13.29 -13.3 a 1.51 1.51 0 0 1 2.13 0 a 1.5 1.5 0 0 1 0 2.12 l -13.3 13.3 A 4.62 4.62 0 0 1 54.88 71.29 Z" fill="#33cc00" transform="scale(0.6) translate(-50 -50)"/><path d="M 43.81 29.28 a 4.15 4.15 0 0 1 2.94 7.08 l -11.12 11 A 2.14 2.14 0 0 0 35 48.91 a 2.14 2.14 0 0 0 3.66 1.52 L 49.75 39.36 a 4.14 4.14 0 0 1 5.86 5.86 L 44.49 56.27 a 2.13 2.13 0 0 0 -0.62 1.51 a 2.16 2.16 0 0 0 3.67 1.52 L 58.61 48.22 a 4.15 4.15 0 0 1 5.87 5.86 l -11.12 11 a 2.15 2.15 0 0 0 0 3 a 2.17 2.17 0 0 0 3 0 l 13.3 -13.3 a 1 1 0 1 1 1.41 1.42 L 57.81 69.57 a 4.13 4.13 0 0 1 -5.86 0 a 4.14 4.14 0 0 1 0 -5.86 l 11.12 -11 a 2.15 2.15 0 0 0 -3 -3 L 49 60.71 a 4.15 4.15 0 0 1 -5.87 -5.86 L 54.2 43.8 a 2.15 2.15 0 0 0 -3 -3 L 40.09 51.85 A 4.15 4.15 0 0 1 34.22 46 l 11.12 -11 a 2.15 2.15 0 0 0 -1.53 -3.66 a 2.09 2.09 0 0 0 -1.51 0.63 L 28.93 45.28 a 1 1 0 0 1 -1.42 0 a 1 1 0 0 1 0 -1.42 L 40.88 30.5 a 4.1 4.1 0 0 1 2.93 -1.22 m 0 -1 a 5.18 5.18 0 0 0 -3.64 1.51 L 26.81 43.16 a 2 2 0 0 0 1.41 3.41 A 2 2 0 0 0 29.64 46 L 43 32.62 a 1.14 1.14 0 0 1 0.81 -0.34 A 1.16 1.16 0 0 1 45 33.43 a 1.14 1.14 0 0 1 -0.33 0.8 L 33.52 45.28 a 5.14 5.14 0 1 0 7.27 7.27 L 51.87 41.48 a 1.13 1.13 0 0 1 0.81 -0.33 a 1.14 1.14 0 0 1 0.81 2 l -11.11 11 a 5.15 5.15 0 1 0 7.28 7.28 L 60.73 50.34 a 1.17 1.17 0 0 1 0.81 -0.32 A 1.14 1.14 0 0 1 62.36 52 L 51.24 63 a 5.15 5.15 0 0 0 3.64 8.79 a 5.11 5.11 0 0 0 3.64 -1.51 L 71.82 57 a 2 2 0 0 0 0 -2.83 a 2 2 0 0 0 -2.83 0 l -13.3 13.3 a 1.12 1.12 0 0 1 -0.81 0.33 a 1.15 1.15 0 0 1 -0.81 -0.33 a 1.13 1.13 0 0 1 0 -1.61 L 65.18 54.79 a 5.14 5.14 0 0 0 0 -7.27 a 5.14 5.14 0 0 0 -7.28 0 L 46.83 58.59 a 1.12 1.12 0 0 1 -0.81 0.32 a 1.11 1.11 0 0 1 -0.81 -0.32 a 1.15 1.15 0 0 1 0 -1.62 l 11.12 -11 A 5.15 5.15 0 0 0 49 38.65 L 38 49.73 a 1.15 1.15 0 0 1 -2 -0.82 a 1.14 1.14 0 0 1 0.33 -0.8 l 11.11 -11 a 5.14 5.14 0 0 0 0 -7.28 a 5.14 5.14 0 0 0 -3.64 -1.51 Z" fill="#33cc00" transform="scale(0.6) translate(-50 -50)"/></g><path d="M 1699.7348405630194 -748.600019524572 C 1446.9504551693435 -758.6588760287657 1109.9290407503415 -758.0707060210536 857.1813045155141 -747.1295945052918" fill="none" stroke="#aaa" stroke-width="2" marker-end="url(#Inhibitor)" stroke-linecap="round" onmouseover="BMA.SVGHelper.Highlight(this, window.ElementRegistry.LineWidth + 1)" onmouseout="BMA.SVGHelper.UnHighlight(this, window.ElementRegistry.LineWidth + 1)" data-id="18" data-ishovered="false"/><path d="M 857.1970112978775 -738.1296082110252 C 1109.981396691553 -728.0707517068315 1447.0028111105553 -728.6589217145436 1699.7505473453828 -739.6000332303054" fill="none" stroke="#aaa" stroke-width="2" marker-end="url(#Inhibitor)" stroke-linecap="round" onmouseover="BMA.SVGHelper.Highlight(this, window.ElementRegistry.LineWidth + 1)" onmouseout="BMA.SVGHelper.UnHighlight(this, window.ElementRegistry.LineWidth + 1)" data-id="19" data-ishovered="false"/><path d="M 1075.027154434791 -595.3253365067758 C 1086.1063817538936 -589.5116338038113 1086.9375639345485 -580.477397075602 1077.105109886428 -572.7397446862525" fill="none" stroke="#aaa" stroke-width="2" marker-end="url(#Activator)" stroke-linecap="round" onmouseover="BMA.SVGHelper.Highlight(this, window.ElementRegistry.LineWidth + 1)" onmouseout="BMA.SVGHelper.UnHighlight(this, window.ElementRegistry.LineWidth + 1)" data-id="21" data-ishovered="false"/><path d="M 1068.1429607290468 -571.9151948206589 C 1057.0637334099442 -577.7288975236235 1056.2325512292894 -586.7631342518328 1066.06500527741 -594.5007866411822" fill="none" stroke="#aaa" stroke-width="2" marker-end="url(#Inhibitor)" stroke-linecap="round" onmouseover="BMA.SVGHelper.Highlight(this, window.ElementRegistry.LineWidth + 1)" onmouseout="BMA.SVGHelper.UnHighlight(this, window.ElementRegistry.LineWidth + 1)" data-id="22" data-ishovered="false"/><path d="M 1088.736456566265 -610.431097470252 C 1180.1683708419905 -600.3976821185728 1302.0061266989278 -601.0196125894653 1393.3308462086077 -611.9859236474832" fill="none" stroke="#aaa" stroke-width="2" marker-end="url(#Inhibitor)" stroke-linecap="round" onmouseover="BMA.SVGHelper.Highlight(this, window.ElementRegistry.LineWidth + 1)" onmouseout="BMA.SVGHelper.UnHighlight(this, window.ElementRegistry.LineWidth + 1)" data-id="23" data-ishovered="false"/><path d="M 1393.2849055945883 -620.9858063944963 C 1301.8529913188627 -631.0192217461755 1180.0152354619254 -630.397291275283 1088.6905159522455 -619.4309802172651" fill="none" stroke="#aaa" stroke-width="2" marker-end="url(#Inhibitor)" stroke-linecap="round" onmouseover="BMA.SVGHelper.Highlight(this, window.ElementRegistry.LineWidth + 1)" onmouseout="BMA.SVGHelper.UnHighlight(this, window.ElementRegistry.LineWidth + 1)" data-id="24" data-ishovered="false"/><path d="M 1094.4732069556512 -547.9870859373451 C 1184.553347088126 -537.8269362350139 1304.6073707855585 -538.2799702867023 1394.6082661992323 -549.1196710665661" fill="none" stroke="#aaa" stroke-width="2" marker-end="url(#Inhibitor)" stroke-linecap="round" onmouseover="BMA.SVGHelper.Highlight(this, window.ElementRegistry.LineWidth + 1)" onmouseout="BMA.SVGHelper.UnHighlight(this, window.ElementRegistry.LineWidth + 1)" data-id="25" data-ishovered="false"/><path d="M 1394.5743041768892 -558.1196069875068 C 1304.4941640444144 -568.279756689838 1184.440140346982 -567.8267226381496 1094.4392449333081 -556.9870218582859" fill="none" stroke="#aaa" stroke-width="2" marker-end="url(#Inhibitor)" stroke-linecap="round" onmouseover="BMA.SVGHelper.Highlight(this, window.ElementRegistry.LineWidth + 1)" onmouseout="BMA.SVGHelper.UnHighlight(this, window.ElementRegistry.LineWidth + 1)" data-id="26" data-ishovered="false"/><path d="M 1418.2147568157407 -596.6839365210789 C 1428.8527821688804 -590.0278259206265 1429.0397305145787 -580.8673569814147 1418.6821276799863 -573.7827641730493" fill="none" stroke="#aaa" stroke-width="2" marker-end="url(#Activator)" stroke-linecap="round" onmouseover="BMA.SVGHelper.Highlight(this, window.ElementRegistry.LineWidth + 1)" onmouseout="BMA.SVGHelper.UnHighlight(this, window.ElementRegistry.LineWidth + 1)" data-id="27" data-ishovered="false"/><path d="M 1409.684001313815 -573.5991289410866 C 1399.0459759606754 -580.255239541539 1398.859027614977 -589.4157084807508 1409.2166304495695 -596.5003012891162" fill="none" stroke="#aaa" stroke-width="2" marker-end="url(#Inhibitor)" stroke-linecap="round" onmouseover="BMA.SVGHelper.Highlight(this, window.ElementRegistry.LineWidth + 1)" onmouseout="BMA.SVGHelper.UnHighlight(this, window.ElementRegistry.LineWidth + 1)" data-id="28" data-ishovered="false"/><path d="M 1089.1917102607395 -615.7792187514767 C 1182.9656398771626 -609.8674260038649 1305.5608153921346 -588.1987256602704 1395.6796490481695 -561.6074678924906" fill="none" stroke="#aaa" stroke-width="2" marker-end="url(#Inhibitor)" stroke-linecap="round" onmouseover="BMA.SVGHelper.Highlight(this, window.ElementRegistry.LineWidth + 1)" onmouseout="BMA.SVGHelper.UnHighlight(this, window.ElementRegistry.LineWidth + 1)" data-id="29" data-ishovered="false"/><path d="M 1394.11317935086 -552.7448400267042 C 1300.3392497344369 -558.656632774316 1177.744074219465 -580.3253331179105 1087.62524056343 -606.9165908856903" fill="none" stroke="#aaa" stroke-width="2" marker-end="url(#Inhibitor)" stroke-linecap="round" onmouseover="BMA.SVGHelper.Highlight(this, window.ElementRegistry.LineWidth + 1)" onmouseout="BMA.SVGHelper.UnHighlight(this, window.ElementRegistry.LineWidth + 1)" data-id="30" data-ishovered="false"/><path d="M 1392.8195592141424 -617.2876382083444 C 1301.0006850858042 -610.5843586459488 1181.180721995101 -587.8911838181641 1093.2696514873849 -560.5547011388828" fill="none" stroke="#aaa" stroke-width="2" marker-end="url(#Inhibitor)" stroke-linecap="round" onmouseover="BMA.SVGHelper.Highlight(this, window.ElementRegistry.LineWidth + 1)" onmouseout="BMA.SVGHelper.UnHighlight(this, window.ElementRegistry.LineWidth + 1)" data-id="31" data-ishovered="false"/><path d="M 1094.9444244676517 -551.7118998030749 C 1186.76329859599 -558.4151793654705 1306.583261686693 -581.1083541932552 1394.4943321944093 -608.4448368725365" fill="none" stroke="#aaa" stroke-width="2" marker-end="url(#Inhibitor)" stroke-linecap="round" onmouseover="BMA.SVGHelper.Highlight(this, window.ElementRegistry.LineWidth + 1)" onmouseout="BMA.SVGHelper.UnHighlight(this, window.ElementRegistry.LineWidth + 1)" data-id="32" data-ishovered="false"/><path d="M 641.3800586444418 -455.53725825667834 C 1017.924654203973 -445.7836094741745 1519.9563647567588 -446.77871692819394 1896.459335026407 -458.0250268917269" fill="none" stroke="#aaa" stroke-width="2" marker-end="url(#Inhibitor)" stroke-linecap="round" onmouseover="BMA.SVGHelper.Highlight(this, window.ElementRegistry.LineWidth + 1)" onmouseout="BMA.SVGHelper.UnHighlight(this, window.ElementRegistry.LineWidth + 1)" data-id="34" data-ishovered="false"/><path d="M 1896.4414956164571 -467.02500921145685 C 1519.896900056926 -476.7786579939607 1017.8651895041398 -475.78355053994125 641.3622192344919 -464.5372405764083" fill="none" stroke="#aaa" stroke-width="2" marker-end="url(#Inhibitor)" stroke-linecap="round" onmouseover="BMA.SVGHelper.Highlight(this, window.ElementRegistry.LineWidth + 1)" onmouseout="BMA.SVGHelper.UnHighlight(this, window.ElementRegistry.LineWidth + 1)" data-id="35" data-ishovered="false"/><path d="M 625.8711782289557 -439.9976062833213 C 636.3711782289557 -428.50905393466456 636.3711782289557 -413.19098413645554 625.8711782289557 -401.7024317877988" fill="none" stroke="#aaa" stroke-width="2" marker-end="url(#Activator)" stroke-linecap="round" onmouseover="BMA.SVGHelper.Highlight(this, window.ElementRegistry.LineWidth + 1)" onmouseout="BMA.SVGHelper.UnHighlight(this, window.ElementRegistry.LineWidth + 1)" data-id="36" data-ishovered="false"/><path d="M 1910.4003284254138 -442.97775423249664 C 1899.33053746131 -436.12405284567484 1898.5279534652143 -425.8911068954518 1908.3938684351742 -417.3953893569389" fill="none" stroke="#aaa" stroke-width="2" marker-end="url(#Activator)" stroke-linecap="round" onmouseover="BMA.SVGHelper.Highlight(this, window.ElementRegistry.LineWidth + 1)" onmouseout="BMA.SVGHelper.UnHighlight(this, window.ElementRegistry.LineWidth + 1)" data-id="38" data-ishovered="false"/><path d="M 1917.3663138354873 -416.6916681490713 C 1928.436104799591 -423.5453695358931 1929.2386887956868 -433.7783154861161 1919.3727738257269 -442.27403302462903" fill="none" stroke="#aaa" stroke-width="2" marker-end="url(#Inhibitor)" stroke-linecap="round" onmouseover="BMA.SVGHelper.Highlight(this, window.ElementRegistry.LineWidth + 1)" onmouseout="BMA.SVGHelper.UnHighlight(this, window.ElementRegistry.LineWidth + 1)" data-id="39" data-ishovered="false"/><path d="M 1891.2639642703778 -401.365651498313 C 1516.1542183394502 -407.3874776284871 1016.1750426955656 -401.417577023784 641.3160251606665 -386.4408999865553" fill="none" stroke="#aaa" stroke-width="2" marker-end="url(#Inhibitor)" stroke-linecap="round" onmouseover="BMA.SVGHelper.Highlight(this, window.ElementRegistry.LineWidth + 1)" onmouseout="BMA.SVGHelper.UnHighlight(this, window.ElementRegistry.LineWidth + 1)" data-id="40" data-ishovered="false"/><path d="M 641.423480187536 -377.4415414862398 C 1016.5332261184636 -371.4197153560657 1516.5124017623482 -377.3896159607689 1891.3714192972473 -392.36629299799756" fill="none" stroke="#aaa" stroke-width="2" marker-end="url(#Inhibitor)" stroke-linecap="round" onmouseover="BMA.SVGHelper.Highlight(this, window.ElementRegistry.LineWidth + 1)" onmouseout="BMA.SVGHelper.UnHighlight(this, window.ElementRegistry.LineWidth + 1)" data-id="41" data-ishovered="false"/><path d="M 641.5665915084599 -463.5182997476871 C 1017.0756884397706 -455.7223687452924 1517.0727071522624 -431.3444046488624 1891.5591382896896 -402.57338950661216" fill="none" stroke="#aaa" stroke-width="2" marker-end="url(#Inhibitor)" stroke-linecap="round" onmouseover="BMA.SVGHelper.Highlight(this, window.ElementRegistry.LineWidth + 1)" onmouseout="BMA.SVGHelper.UnHighlight(this, window.ElementRegistry.LineWidth + 1)" data-id="42" data-ishovered="false"/><path d="M 1891.1208529494538 -393.5840677323883 C 1515.6117560181433 -401.379998734783 1015.6147373056513 -425.757962831213 641.1283061682241 -454.5289779734632" fill="none" stroke="#aaa" stroke-width="2" marker-end="url(#Inhibitor)" stroke-linecap="round" onmouseover="BMA.SVGHelper.Highlight(this, window.ElementRegistry.LineWidth + 1)" onmouseout="BMA.SVGHelper.UnHighlight(this, window.ElementRegistry.LineWidth + 1)" data-id="43" data-ishovered="false"/><path d="M 641.6127319076637 -378.4575119625978 C 1018.8141395402338 -391.48878786112783 1520.8769158545256 -422.83661234854145 1896.7696726933932 -456.82707318113194" fill="none" stroke="#aaa" stroke-width="2" marker-end="url(#Inhibitor)" stroke-linecap="round" onmouseover="BMA.SVGHelper.Highlight(this, window.ElementRegistry.LineWidth + 1)" onmouseout="BMA.SVGHelper.UnHighlight(this, window.ElementRegistry.LineWidth + 1)" data-id="44" data-ishovered="false"/><path d="M 1896.208822353235 -465.8095810100149 C 1519.007414720665 -452.7783051114848 1016.9446384063731 -421.4304806240712 641.0518815675056 -387.4400197914807" fill="none" stroke="#aaa" stroke-width="2" marker-end="url(#Inhibitor)" stroke-linecap="round" onmouseover="BMA.SVGHelper.Highlight(this, window.ElementRegistry.LineWidth + 1)" onmouseout="BMA.SVGHelper.UnHighlight(this, window.ElementRegistry.LineWidth + 1)" data-id="45" data-ishovered="false"/><path d="M 1122.731388336934 -329.5575769327267 C 1201.6945425929262 -339.388774699427 1306.8601084599725 -338.4975410903843 1385.6453030045495 -327.3294929101199" fill="none" stroke="#aaa" stroke-width="2" marker-end="url(#Inhibitor)" stroke-linecap="round" onmouseover="BMA.SVGHelper.Highlight(this, window.ElementRegistry.LineWidth + 1)" onmouseout="BMA.SVGHelper.UnHighlight(this, window.ElementRegistry.LineWidth + 1)" data-id="49" data-ishovered="false"/><path d="M 1385.5690345568005 -318.32981607570645 C 1306.6058803008084 -308.49861830900613 1201.440314433762 -309.38985191804886 1122.655119889185 -320.55790009831327" fill="none" stroke="#aaa" stroke-width="2" marker-end="url(#Inhibitor)" stroke-linecap="round" onmouseover="BMA.SVGHelper.Highlight(this, window.ElementRegistry.LineWidth + 1)" onmouseout="BMA.SVGHelper.UnHighlight(this, window.ElementRegistry.LineWidth + 1)" data-id="50" data-ishovered="false"/><path d="M 1117.6138897943943 -265.3036137556844 C 1199.3135750959723 -274.79577581795263 1308.0736624954661 -273.4530586895638 1389.514108293129 -261.9468209347124" fill="none" stroke="#aaa" stroke-width="2" marker-end="url(#Inhibitor)" stroke-linecap="round" onmouseover="BMA.SVGHelper.Highlight(this, window.ElementRegistry.LineWidth + 1)" onmouseout="BMA.SVGHelper.UnHighlight(this, window.ElementRegistry.LineWidth + 1)" data-id="51" data-ishovered="false"/><path d="M 1389.403005648594 -252.9475067273754 C 1307.703320347016 -243.4553446651072 1198.9432329475221 -244.798061793496 1117.5027871498592 -256.30429954834744" fill="none" stroke="#aaa" stroke-width="2" marker-end="url(#Inhibitor)" stroke-linecap="round" onmouseover="BMA.SVGHelper.Highlight(this, window.ElementRegistry.LineWidth + 1)" onmouseout="BMA.SVGHelper.UnHighlight(this, window.ElementRegistry.LineWidth + 1)" data-id="52" data-ishovered="false"/><path d="M 1096.613399059737 -305.6497718845133 C 1085.5635483616068 -299.1959682997231 1084.785827996939 -289.47446374137564 1094.6690981480676 -281.34601048864477" fill="none" stroke="#aaa" stroke-width="2" marker-end="url(#Activator)" stroke-linecap="round" onmouseover="BMA.SVGHelper.Highlight(this, window.ElementRegistry.LineWidth + 1)" onmouseout="BMA.SVGHelper.UnHighlight(this, window.ElementRegistry.LineWidth + 1)" data-id="53" data-ishovered="false"/><path d="M 1103.6404356548926 -280.6283034880988 C 1114.6902863530229 -287.082107072889 1115.4680067176907 -296.8036116312365 1105.584736566562 -304.93206488396737" fill="none" stroke="#aaa" stroke-width="2" marker-end="url(#Inhibitor)" stroke-linecap="round" onmouseover="BMA.SVGHelper.Highlight(this, window.ElementRegistry.LineWidth + 1)" onmouseout="BMA.SVGHelper.UnHighlight(this, window.ElementRegistry.LineWidth + 1)" data-id="54" data-ishovered="false"/><path d="M 1411.2731257532441 -302.958930688752 C 1422.2055171138354 -295.9168344009245 1422.8061977035075 -285.70526437650045 1412.774827227424 -277.430005627692" fill="none" stroke="#aaa" stroke-width="2" marker-end="url(#Activator)" stroke-linecap="round" onmouseover="BMA.SVGHelper.Highlight(this, window.ElementRegistry.LineWidth + 1)" onmouseout="BMA.SVGHelper.UnHighlight(this, window.ElementRegistry.LineWidth + 1)" data-id="55" data-ishovered="false"/><path d="M 1403.790357868849 -276.90150743012885 C 1392.8579665082577 -283.94360371795636 1392.2572859185857 -294.1551737423804 1402.288656394669 -302.4304324911888" fill="none" stroke="#aaa" stroke-width="2" marker-end="url(#Inhibitor)" stroke-linecap="round" onmouseover="BMA.SVGHelper.Highlight(this, window.ElementRegistry.LineWidth + 1)" onmouseout="BMA.SVGHelper.UnHighlight(this, window.ElementRegistry.LineWidth + 1)" data-id="56" data-ishovered="false"/><path d="M 1123.1938744819 -325.29053938476414 C 1205.7806239271329 -317.73140030112796 1312.8653189565246 -293.9845850854051 1390.9056120553787 -265.9235013454571" fill="none" stroke="#aaa" stroke-width="2" marker-end="url(#Inhibitor)" stroke-linecap="round" onmouseover="BMA.SVGHelper.Highlight(this, window.ElementRegistry.LineWidth + 1)" onmouseout="BMA.SVGHelper.UnHighlight(this, window.ElementRegistry.LineWidth + 1)" data-id="57" data-ishovered="false"/><path d="M 1388.9571307640736 -257.1369536356092 C 1306.3703813188406 -264.69609271924537 1199.285686289449 -288.4429079349682 1121.2453931905948 -316.5039916749162" fill="none" stroke="#aaa" stroke-width="2" marker-end="url(#Inhibitor)" stroke-linecap="round" onmouseover="BMA.SVGHelper.Highlight(this, window.ElementRegistry.LineWidth + 1)" onmouseout="BMA.SVGHelper.UnHighlight(this, window.ElementRegistry.LineWidth + 1)" data-id="58" data-ishovered="false"/><path d="M 1118.0539985777625 -260.56056107980385 C 1200.7602263421536 -266.3938656541373 1308.2895708027409 -287.89973454625476 1386.8773597292306 -314.32523331009753" fill="none" stroke="#aaa" stroke-width="2" marker-end="url(#Inhibitor)" stroke-linecap="round" onmouseover="BMA.SVGHelper.Highlight(this, window.ElementRegistry.LineWidth + 1)" onmouseout="BMA.SVGHelper.UnHighlight(this, window.ElementRegistry.LineWidth + 1)" data-id="59" data-ishovered="false"/><path d="M 1385.1123145129868 -323.1504593913158 C 1302.4060867485955 -317.31715481698234 1194.8767422880082 -295.8112859248649 1116.2889533615187 -269.3857871610221" fill="none" stroke="#aaa" stroke-width="2" marker-end="url(#Inhibitor)" stroke-linecap="round" onmouseover="BMA.SVGHelper.Highlight(this, window.ElementRegistry.LineWidth + 1)" onmouseout="BMA.SVGHelper.UnHighlight(this, window.ElementRegistry.LineWidth + 1)" data-id="60" data-ishovered="false"/><path d="M 637.7997052413573 -369.4405599811458 C 766.6304780566551 -235.18009538654943 927.772310441809 -47.0584932430029 1040.6542862042427 100.86344537772064" fill="none" stroke="#aaa" stroke-width="2" marker-end="url(#Activator)" stroke-linecap="round" onmouseover="BMA.SVGHelper.Highlight(this, window.ElementRegistry.LineWidth + 1)" onmouseout="BMA.SVGHelper.UnHighlight(this, window.ElementRegistry.LineWidth + 1)" data-id="82" data-ishovered="false"/><path d="M 1891.8481236258133 -390.68281261523884 C 1638.4224479374104 -251.03261484771403 1307.7187833950843 -52.824029519977216 1065.0889622699974 104.83865070410336" fill="none" stroke="#aaa" stroke-width="2" marker-end="url(#Inhibitor)" stroke-linecap="round" onmouseover="BMA.SVGHelper.Highlight(this, window.ElementRegistry.LineWidth + 1)" onmouseout="BMA.SVGHelper.UnHighlight(this, window.ElementRegistry.LineWidth + 1)" data-id="100" data-ishovered="false"/><path d="M 616.8711782289557 -401.7024317877988 C 606.3711782289557 -413.19098413645554 606.3711782289557 -428.50905393466456 616.8711782289557 -439.9976062833213" fill="none" stroke="#aaa" stroke-width="2" marker-end="url(#Inhibitor)" stroke-linecap="round" onmouseover="BMA.SVGHelper.Highlight(this, window.ElementRegistry.LineWidth + 1)" onmouseout="BMA.SVGHelper.UnHighlight(this, window.ElementRegistry.LineWidth + 1)" data-id="106" data-ishovered="false"/><path d="M 1105.6119707802889 -242.19843641237597 C 1138.6957170225035 -120.68200016247988 1169.0394809371644 43.87861367264259 1181.4713805669414 169.20309817543026" fill="none" stroke="#aaa" stroke-width="2" marker-end="url(#Activator)" stroke-linecap="round" onmouseover="BMA.SVGHelper.Highlight(this, window.ElementRegistry.LineWidth + 1)" onmouseout="BMA.SVGHelper.UnHighlight(this, window.ElementRegistry.LineWidth + 1)" data-id="114" data-ishovered="false"/><path d="M 1396.3373757393267 -241.4482979602055 C 1323.8241299676365 -122.84842214836 1239.6016471645453 41.66459057344345 1185.7811687315987 169.83423384430316" fill="none" stroke="#aaa" stroke-width="2" marker-end="url(#Inhibitor)" stroke-linecap="round" onmouseover="BMA.SVGHelper.Highlight(this, window.ElementRegistry.LineWidth + 1)" onmouseout="BMA.SVGHelper.UnHighlight(this, window.ElementRegistry.LineWidth + 1)" data-id="115" data-ishovered="false"/><path d="M1431.55809926021,-564.2838961495195L1702.775707026957,-733.546144376526" fill="none" stroke="#aaa" stroke-width="2" marker-end="url(#Activator)" stroke-linecap="round" onmouseover="BMA.SVGHelper.Highlight(this, window.ElementRegistry.LineWidth + 1)" onmouseout="BMA.SVGHelper.UnHighlight(this, window.ElementRegistry.LineWidth + 1)" data-id="116" data-ishovered="false"/><path d="M1729.40841391712,-726.6256965224492L1901.650515808854,-414.61399501255124" fill="none" stroke="#aaa" stroke-width="2" marker-end="url(#Inhibitor)" stroke-linecap="round" onmouseover="BMA.SVGHelper.Highlight(this, window.ElementRegistry.LineWidth + 1)" onmouseout="BMA.SVGHelper.UnHighlight(this, window.ElementRegistry.LineWidth + 1)" data-id="117" data-ishovered="false"/><path d="M826.9243716412279,-725.4298048066487L631.6359949516087,-398.867324378501" fill="none" stroke="#aaa" stroke-width="2" marker-end="url(#Inhibitor)" stroke-linecap="round" onmouseover="BMA.SVGHelper.Highlight(this, window.ElementRegistry.LineWidth + 1)" onmouseout="BMA.SVGHelper.UnHighlight(this, window.ElementRegistry.LineWidth + 1)" data-id="118" data-ishovered="false"/><path d="M1052.7184547233778,99.13344776857727L1095.0890222121468,-241.20406456208414" fill="none" stroke="#aaa" stroke-width="2" marker-end="url(#Activator)" stroke-linecap="round" onmouseover="BMA.SVGHelper.Highlight(this, window.ElementRegistry.LineWidth + 1)" onmouseout="BMA.SVGHelper.UnHighlight(this, window.ElementRegistry.LineWidth + 1)" data-id="119" data-ishovered="false"/><path d="M1064.0597050553333,104.51558274687386L1395.644942411535,-242.73561718814193" fill="none" stroke="#aaa" stroke-width="2" marker-end="url(#Inhibitor)" stroke-linecap="round" onmouseover="BMA.SVGHelper.Highlight(this, window.ElementRegistry.LineWidth + 1)" onmouseout="BMA.SVGHelper.UnHighlight(this, window.ElementRegistry.LineWidth + 1)" data-id="121" data-ishovered="false"/><path d="M 1033.8190874673007 106.71836281748944 C 904.9883146520032 -27.542101777106907 743.846482266849 -215.6637039206535 630.9645065044156 -363.585642541377" fill="none" stroke="#aaa" stroke-width="2" marker-end="url(#Inhibitor)" stroke-linecap="round" onmouseover="BMA.SVGHelper.Highlight(this, window.ElementRegistry.LineWidth + 1)" onmouseout="BMA.SVGHelper.UnHighlight(this, window.ElementRegistry.LineWidth + 1)" data-id="122" data-ishovered="false"/><path d="M 1069.7157570828472 112.55828604262724 C 1323.14143277125 -27.091911724897557 1653.8450973135762 -225.30049705263443 1896.474918438663 -382.963177276715" fill="none" stroke="#aaa" stroke-width="2" marker-end="url(#Inhibitor)" stroke-linecap="round" onmouseover="BMA.SVGHelper.Highlight(this, window.ElementRegistry.LineWidth + 1)" onmouseout="BMA.SVGHelper.UnHighlight(this, window.ElementRegistry.LineWidth + 1)" data-id="123" data-ishovered="false"/><path d="M1038.342992464228,102.90914335227536L633.2758002444301,-443.9265150114542" fill="none" stroke="#aaa" stroke-width="2" marker-end="url(#Inhibitor)" stroke-linecap="round" onmouseover="BMA.SVGHelper.Highlight(this, window.ElementRegistry.LineWidth + 1)" onmouseout="BMA.SVGHelper.UnHighlight(this, window.ElementRegistry.LineWidth + 1)" data-id="124" data-ishovered="false"/><path d="M1066.8524663557228,107.83219021377951L1899.8455241559227,-451.4166167744509" fill="none" stroke="#aaa" stroke-width="2" marker-end="url(#Inhibitor)" stroke-linecap="round" onmouseover="BMA.SVGHelper.Highlight(this, window.ElementRegistry.LineWidth + 1)" onmouseout="BMA.SVGHelper.UnHighlight(this, window.ElementRegistry.LineWidth + 1)" data-id="125" data-ishovered="false"/><path d="M 1172.6205891616112 170.8351188552409 C 1139.5368429193966 49.318682605344804 1109.1930790047356 -115.24193122977766 1096.7611793749586 -240.56641573256533" fill="none" stroke="#aaa" stroke-width="2" marker-end="url(#Inhibitor)" stroke-linecap="round" onmouseover="BMA.SVGHelper.Highlight(this, window.ElementRegistry.LineWidth + 1)" onmouseout="BMA.SVGHelper.UnHighlight(this, window.ElementRegistry.LineWidth + 1)" data-id="126" data-ishovered="false"/><path d="M1177.6780413534361,169.91300391294703L1105.6886283914491,-305.4526940073956" fill="none" stroke="#aaa" stroke-width="2" marker-end="url(#Inhibitor)" stroke-linecap="round" onmouseover="BMA.SVGHelper.Highlight(this, window.ElementRegistry.LineWidth + 1)" onmouseout="BMA.SVGHelper.UnHighlight(this, window.ElementRegistry.LineWidth + 1)" data-id="127" data-ishovered="false"/><path d="M 1193.7923547339171 173.93556275530923 C 1266.3056005056073 55.33568694346373 1350.5280833086986 -109.17732577833972 1404.3485617416452 -237.34696904919943" fill="none" stroke="#aaa" stroke-width="2" marker-end="url(#Inhibitor)" stroke-linecap="round" onmouseover="BMA.SVGHelper.Highlight(this, window.ElementRegistry.LineWidth + 1)" onmouseout="BMA.SVGHelper.UnHighlight(this, window.ElementRegistry.LineWidth + 1)" data-id="128" data-ishovered="false"/><path d="M1188.7125171650728,171.37466135155904L1397.5666309559322,-304.34729654451513" fill="none" stroke="#aaa" stroke-width="2" marker-end="url(#Inhibitor)" stroke-linecap="round" onmouseover="BMA.SVGHelper.Highlight(this, window.ElementRegistry.LineWidth + 1)" onmouseout="BMA.SVGHelper.UnHighlight(this, window.ElementRegistry.LineWidth + 1)" data-id="129" data-ishovered="false"/><g transform="translate(875, -420)"><text x="0" y="0" transform="translate(-345, -373)" font-size="51" font-family="OpenSans" src="local('Segoe UI'), local('Frutiger'), local('Frutiger Linotype'), local('Dejavu Sans'), local('Helvetica Neue'), local('HelveticaNeue'), local('Arial'), local('sans serif'), local('sans-serif')" fill="black">Posterior</text></g><g transform="translate(1625, -420)"><text x="0" y="0" transform="translate(-345, -373)" font-size="51" font-family="OpenSans" src="local('Segoe UI'), local('Frutiger'), local('Frutiger Linotype'), local('Dejavu Sans'), local('Helvetica Neue'), local('HelveticaNeue'), local('Arial'), local('sans serif'), local('sans-serif')" fill="black">Anterior</text></g><g transform="translate(1125, 140)"><text x="0" y="0" transform="translate(-115, -113)" font-size="17" font-family="OpenSans" src="local('Segoe UI'), local('Frutiger'), local('Frutiger Linotype'), local('Dejavu Sans'), local('Helvetica Neue'), local('HelveticaNeue'), local('Arial'), local('sans serif'), local('sans-serif')" fill="black">Posterior_effect</text></g><g transform="translate(837.1891883638809, -742.5946973973508)"><text x="0" y="0" transform="translate(-17.5, 32)" font-size="17" font-family="OpenSans" src="local('Segoe UI'), local('Frutiger'), local('Frutiger Linotype'), local('Dejavu Sans'), local('Helvetica Neue'), local('HelveticaNeue'), local('Arial'), local('sans serif'), local('sans-serif')" fill="black">PLK1_post</text></g><g transform="translate(1719.7426634970159, -744.1349303382464)"><text x="0" y="0" transform="translate(-17.5, 32)" font-size="17" font-family="OpenSans" src="local('Segoe UI'), local('Frutiger'), local('Frutiger Linotype'), local('Dejavu Sans'), local('Helvetica Neue'), local('HelveticaNeue'), local('Arial'), local('sans serif'), local('sans-serif')" fill="black">PLK1_ant</text></g><g transform="translate(1068.7137468214485, -614.8289485903819)"><text x="0" y="0" transform="translate(-17.5, 32)" font-size="17" font-family="OpenSans" src="local('Segoe UI'), local('Frutiger'), local('Frutiger Linotype'), local('Dejavu Sans'), local('Helvetica Neue'), local('HelveticaNeue'), local('Arial'), local('sans serif'), local('sans-serif')" fill="black">MEX5_post</text></g><g transform="translate(1413.3076153394047, -616.5879552743664)"><text x="0" y="0" transform="translate(-17.5, 32)" font-size="17" font-family="OpenSans" src="local('Segoe UI'), local('Frutiger'), local('Frutiger Linotype'), local('Dejavu Sans'), local('Helvetica Neue'), local('HelveticaNeue'), local('Arial'), local('sans serif'), local('sans-serif')" fill="black">MEX5_ant</text></g><g transform="translate(1074.4563683423894, -552.4115827370529)"><text x="0" y="0" transform="translate(-17.5, 32)" font-size="17" font-family="OpenSans" src="local('Segoe UI'), local('Frutiger'), local('Frutiger Linotype'), local('Dejavu Sans'), local('Helvetica Neue'), local('HelveticaNeue'), local('Arial'), local('sans serif'), local('sans-serif')" fill="black">MEX5_RNA_post</text></g><g transform="translate(1414.591142790151, -553.6951101877991)"><text x="0" y="0" transform="translate(-17.5, 32)" font-size="17" font-family="OpenSans" src="local('Segoe UI'), local('Frutiger'), local('Frutiger Linotype'), local('Dejavu Sans'), local('Helvetica Neue'), local('HelveticaNeue'), local('Arial'), local('sans serif'), local('sans-serif')" fill="black">MEX5_RNA_ant</text></g><g transform="translate(621.3711782289557, -459.9976062833213)"><text x="0" y="0" transform="translate(-17.5, 32)" font-size="17" font-family="OpenSans" src="local('Segoe UI'), local('Frutiger'), local('Frutiger Linotype'), local('Dejavu Sans'), local('Helvetica Neue'), local('HelveticaNeue'), local('Arial'), local('sans serif'), local('sans-serif')" fill="black">MEG3_post</text></g><g transform="translate(1916.450376031943, -462.5646611848139)"><text x="0" y="0" transform="translate(-17.5, 32)" font-size="17" font-family="OpenSans" src="local('Segoe UI'), local('Frutiger'), local('Frutiger Linotype'), local('Dejavu Sans'), local('Helvetica Neue'), local('HelveticaNeue'), local('Arial'), local('sans serif'), local('sans-serif')" fill="black">MEG3_ant</text></g><g transform="translate(621.3711782289557, -381.7024317877988)"><text x="0" y="0" transform="translate(-17.5, 32)" font-size="17" font-family="OpenSans" src="local('Segoe UI'), local('Frutiger'), local('Frutiger Linotype'), local('Dejavu Sans'), local('Helvetica Neue'), local('HelveticaNeue'), local('Arial'), local('sans serif'), local('sans-serif')" fill="black">MEG3_RNA_post</text></g><g transform="translate(1911.316266228958, -397.10476119675405)"><text x="0" y="0" transform="translate(-17.5, 32)" font-size="17" font-family="OpenSans" src="local('Segoe UI'), local('Frutiger'), local('Frutiger Linotype'), local('Dejavu Sans'), local('Helvetica Neue'), local('HelveticaNeue'), local('Arial'), local('sans serif'), local('sans-serif')" fill="black">MEG3_RNA_ant</text></g><g transform="translate(1102.6939722588074, -325.2272239549628)"><text x="0" y="0" transform="translate(-17.5, 32)" font-size="17" font-family="OpenSans" src="local('Segoe UI'), local('Frutiger'), local('Frutiger Linotype'), local('Dejavu Sans'), local('Helvetica Neue'), local('HelveticaNeue'), local('Arial'), local('sans serif'), local('sans-serif')" fill="black">PGL3_post</text></g><g transform="translate(1405.6064506349271, -322.6601690534703)"><text x="0" y="0" transform="translate(-17.5, 32)" font-size="17" font-family="OpenSans" src="local('Segoe UI'), local('Frutiger'), local('Frutiger Linotype'), local('Dejavu Sans'), local('Helvetica Neue'), local('HelveticaNeue'), local('Arial'), local('sans serif'), local('sans-serif')" fill="black">PGL3_ant</text></g><g transform="translate(1097.5598624558222, -261.0508514176493)"><text x="0" y="0" transform="translate(-17.5, 32)" font-size="17" font-family="OpenSans" src="local('Segoe UI'), local('Frutiger'), local('Frutiger Linotype'), local('Dejavu Sans'), local('Helvetica Neue'), local('HelveticaNeue'), local('Arial'), local('sans serif'), local('sans-serif')" fill="black">PGL3_RNA_post</text></g><g transform="translate(1409.457032987166, -257.2002690654105)"><text x="0" y="0" transform="translate(-17.5, 32)" font-size="17" font-family="OpenSans" src="local('Segoe UI'), local('Frutiger'), local('Frutiger Linotype'), local('Dejavu Sans'), local('Helvetica Neue'), local('HelveticaNeue'), local('Arial'), local('sans serif'), local('sans-serif')" fill="black">PGL3_RNA_ant</text></g><g transform="translate(1050.2476144797024, 118.98023462414244)"><text x="0" y="0" transform="translate(-17.5, 32)" font-size="17" font-family="OpenSans" src="local('Segoe UI'), local('Frutiger'), local('Frutiger Linotype'), local('Dejavu Sans'), local('Helvetica Neue'), local('HelveticaNeue'), local('Arial'), local('sans serif'), local('sans-serif')" fill="black">MEG3_granule</text></g><g transform="translate(1180.6726974860778, 189.68753386051424)"><text x="0" y="0" transform="translate(-17.5, 32)" font-size="17" font-family="OpenSans" src="local('Segoe UI'), local('Frutiger'), local('Frutiger Linotype'), local('Dejavu Sans'), local('Helvetica Neue'), local('HelveticaNeue'), local('Arial'), local('sans serif'), local('sans-serif')" fill="black">PGL3_granule</text></g></svg>