<svg xmlns="http://www.w3.org/2000/svg" version="1.1" width="1704" height="938" viewBox="-138.83727143926868 -931.2142289204733 2336.2025849588044 1286.0082304526752" preserveAspectRatio="none"><defs id="bmaDefs"><marker id="Activator" refX="3" refY="3" markerWidth="4" markerHeight="6" orient="auto" viewBox="0 0 4 6"><polyline points="1,1 3,3 1,5" fill="none" stroke="#aaa" stroke-width="1px" stroke-linecap="round" stroke-linejoin="round"/></marker><marker id="Inhibitor" refX="-0.5" refY="0" markerWidth="6" markerHeight="6" orient="auto" viewBox="-2 -4 4 8"><polyline points="0,1.5 0,-1.5" fill="none" stroke="#aaa" stroke-width="1px" stroke-linecap="round"/></marker><marker id="ActivatorSelected" refX="3" refY="3" markerWidth="4" markerHeight="6" orient="auto" viewBox="0 0 4 6"><polyline points="1,1 3,3 1,5" fill="none" stroke="#999999" stroke-width="1px" stroke-linecap="round" stroke-linejoin="round"/></marker><marker id="InhibitorSelected" refX="-0.5" refY="0" markerWidth="6" markerHeight="6" orient="auto" viewBox="-2 -4 4 8"><polyline points="0,1.5 0,-1.5" fill="none" stroke="#999999" stroke-width="1px" stroke-linecap="round"/></marker><marker id="ActivatorHighlighted" refX="3" refY="3" markerWidth="4" markerHeight="6" orient="auto" viewBox="0 0 4 6"><polyline points="1,1 3,3 1,5" fill="none" stroke="#33cc00" stroke-width="1px" stroke-linecap="round" stroke-linejoin="round"/></marker><marker id="InhibitorHighlighted" refX="-0.5" refY="0" markerWidth="6" markerHeight="6" orient="auto" viewBox="-2 -4 4 8"><polyline points="0,1.5 0,-1.5" fill="none" stroke="#33cc00" stroke-width="1px" stroke-linecap="round"/></marker></defs><g transform="translate(875, -420)"><rect x="-374.75" y="-419.72" width="749.5" height="839.44" stroke="none" fill="none"/><path d="M 640.36 249.05 c 113.22 0 205.33 106.84 205.33 238.16 S 753.58 725.37 640.36 725.37 S 435 618.53 435 487.21 s 92.11 -238.16 205.32 -238.16 m 0 -22.73 c -126 0 -228.06 116.8 -228.06 260.89 S 514.41 748.1 640.36 748.1 S 868.43 631.3 868.43 487.21 S 766.32 226.32 640.36 226.32 Z" stroke="#d0e9f0" stroke-width="2" fill="#d0e9f0" fill-rule="evenodd" transform="scale(1.56) translate(-640, -487)"/><ellipse cx="0" cy="0" rx="344" ry="396.5" stroke="none" fill="white"/></g><g transform="translate(1625, -420)"><rect x="-374.75" y="-419.72" width="749.5" height="839.44" stroke="none" fill="none"/><path d="M 640.36 249.05 c 113.22 0 205.33 106.84 205.33 238.16 S 753.58 725.37 640.36 725.37 S 435 618.53 435 487.21 s 92.11 -238.16 205.32 -238.16 m 0 -22.73 c -126 0 -228.06 116.8 -228.06 260.89 S 514.41 748.1 640.36 748.1 S 868.43 631.3 868.43 487.21 S 766.32 226.32 640.36 226.32 Z" stroke="#d0e9f0" stroke-width="2" fill="#d0e9f0" fill-rule="evenodd" transform="scale(1.56) translate(-640, -487)"/><ellipse cx="0" cy="0" rx="344" ry="396.5" stroke="none" fill="white"/></g><g transform="translate(1125, 140)"><rect x="-124.75" y="-139.72" width="249.5" height="279.44" stroke="none" fill="none"/><path d="M 640.36 249.05 c 113.22 0 205.33 106.84 205.33 238.16 S 753.58 725.37 640.36 725.37 S 435 618.53 435 487.21 s 92.11 -238.16 205.32 -238.16 m 0 -22.73 c -126 0 -228.06 116.8 -228.06 260.89 S 514.41 748.1 640.36 748.1 S 868.43 631.3 868.43 487.21 S 766.32 226.32 640.36 226.32 Z" stroke="#d0e9f0" stroke-width="2" fill="#d0e9f0" fill-rule="evenodd" transform="scale(0.52) translate(-640, -487)"/><ellipse cx="0" cy="0" rx="106" ry="123.5" stroke="none" fill="white"/></g><g transform="translate(837.1891883638809, -742.5946973973508)"><path d="M54.88 71.29 a 4.58 4.58 0 0 1 -3.28 -1.36 a 4.65 4.65 0 0 1 0 -6.57 l 11.11 -11 A 1.65 1.65 0 0 0 60.38 50 L 49.3 61.06 a 4.65 4.65 0 0 1 -7.93 -3.28 a 4.66 4.66 0 0 1 1.36 -3.29 l 11.12 -11 a 1.65 1.65 0 0 0 -1.17 -2.8 a 1.67 1.67 0 0 0 -1.17 0.48 L 40.44 52.2 a 4.65 4.65 0 0 1 -6.57 -6.57 L 45 34.59 a 1.63 1.63 0 0 0 0.48 -1.16 A 1.67 1.67 0 0 0 45 32.26 a 1.65 1.65 0 0 0 -1.17 -0.48 a 1.63 1.63 0 0 0 -1.16 0.48 L 29.28 45.63 a 1.5 1.5 0 1 1 -2.12 -2.12 L 40.53 30.14 a 4.65 4.65 0 0 1 7.93 3.29 a 4.58 4.58 0 0 1 -1.36 3.28 L 36 47.75 a 1.65 1.65 0 0 0 0 2.33 a 1.65 1.65 0 0 0 2.33 0 L 49.39 39 A 4.65 4.65 0 0 1 56 39 a 4.65 4.65 0 0 1 0 6.57 l -11.11 11 a 1.64 1.64 0 0 0 0 2.32 a 1.66 1.66 0 0 0 1.17 0.47 a 1.64 1.64 0 0 0 1.16 -0.47 L 58.26 47.87 a 4.65 4.65 0 0 1 6.57 0 a 4.65 4.65 0 0 1 0 6.57 l -11.12 11 a 1.65 1.65 0 0 0 2.34 2.33 l 13.29 -13.3 a 1.51 1.51 0 0 1 2.13 0 a 1.5 1.5 0 0 1 0 2.12 l -13.3 13.3 A 4.62 4.62 0 0 1 54.88 71.29 Z" fill="#f6c" transform="scale(0.6) translate(-50 -50)"/><path d="M 43.81 29.28 a 4.15 4.15 0 0 1 2.94 7.08 l -11.12 11 A 2.14 2.14 0 0 0 35 48.91 a 2.14 2.14 0 0 0 3.66 1.52 L 49.75 39.36 a 4.14 4.14 0 0 1 5.86 5.86 L 44.49 56.27 a 2.13 2.13 0 0 0 -0.62 1.51 a 2.16 2.16 0 0 0 3.67 1.52 L 58.61 48.22 a 4.15 4.15 0 0 1 5.87 5.86 l -11.12 11 a 2.15 2.15 0 0 0 0 3 a 2.17 2.17 0 0 0 3 0 l 13.3 -13.3 a 1 1 0 1 1 1.41 1.42 L 57.81 69.57 a 4.13 4.13 0 0 1 -5.86 0 a 4.14 4.14 0 0 1 0 -5.86 l 11.12 -11 a 2.15 2.15 0 0 0 -3 -3 L 49 60.71 a 4.15 4.15 0 0 1 -5.87 -5.86 L 54.2 43.8 a 2.15 2.15 0 0 0 -3 -3 L 40.09 51.85 A 4.15 4.15 0 0 1 34.22 46 l 11.12 -11 a 2.15 2.15 0 0 0 -1.53 -3.66 a 2.09 2.09 0 0 0 -1.51 0.63 L 28.93 45.28 a 1 1 0 0 1 -1.42 0 a 1 1 0 0 1 0 -1.42 L 40.88 30.5 a 4.1 4.1 0 0 1 2.93 -1.22 m 0 -1 a 5.18 5.18 0 0 0 -3.64 1.51 L 26.81 43.16 a 2 2 0 0 0 1.41 3.41 A 2 2 0 0 0 29.64 46 L 43 32.62 a 1.14 1.14 0 0 1 0.81 -0.34 A 1.16 1.16 0 0 1 45 33.43 a 1.14 1.14 0 0 1 -0.33 0.8 L 33.52 45.28 a 5.14 5.14 0 1 0 7.27 7.27 L 51.87 41.48 a 1.13 1.13 0 0 1 0.81 -0.33 a 1.14 1.14 0 0 1 0.81 2 l -11.11 11 a 5.15 5.15 0 1 0 7.28 7.28 L 60.73 50.34 a 1.17 1.17 0 0 1 0.81 -0.32 A 1.14 1.14 0 0 1 62.36 52 L 51.24 63 a 5.15 5.15 0 0 0 3.64 8.79 a 5.11 5.11 0 0 0 3.64 -1.51 L 71.82 57 a 2 2 0 0 0 0 -2.83 a 2 2 0 0 0 -2.83 0 l -13.3 13.3 a 1.12 1.12 0 0 1 -0.81 0.33 a 1.15 1.15 0 0 1 -0.81 -0.33 a 1.13 1.13 0 0 1 0 -1.61 L 65.18 54.79 a 5.14 5.14 0 0 0 0 -7.27 a 5.14 5.14 0 0 0 -7.28 0 L 46.83 58.59 a 1.12 1.12 0 0 1 -0.81 0.32 a 1.11 1.11 0 0 1 -0.81 -0.32 a 1.15 1.15 0 0 1 0 -1.62 l 11.12 -11 A 5.15 5.15 0 0 0 49 38.65 L 38 49.73 a 1.15 1.15 0 0 1 -2 -0.82 a 1.14 1.14 0 0 1 0.33 -0.8 l 11.11 -11 a 5.14 5.14 0 0 0 0 -7.28 a 5.14 5.14 0 0 0 -3.64 -1.51 Z" fill="#f6c" transform="scale(0.6) translate(-50 -50)"/></g><g transform="translate(1719.7426634970159, -744.1349303382464)"><path d="M54.88 71.29 a 4.58 4.58 0 0 1 -3.28 -1.36 a 4.65 4.65 0 0 1 0 -6.57 l 11.11 -11 A 1.65 1.65 0 0 0 60.38 50 L 49.3 61.06 a 4.65 4.65 0 0 1 -7.93 -3.28 a 4.66 4.66 0 0 1 1.36 -3.29 l 11.12 -11 a 1.65 1.65 0 0 0 -1.17 -2.8 a 1.67 1.67 0 0 0 -1.17 0.48 L 40.44 52.2 a 4.65 4.65 0 0 1 -6.57 -6.57 L 45 34.59 a 1.63 1.63 0 0 0 0.48 -1.16 A 1.67 1.67 0 0 0 45 32.26 a 1.65 1.65 0 0 0 -1.17 -0.48 a 1.63 1.63 0 0 0 -1.16 0.48 L 29.28 45.63 a 1.5 1.5 0 1 1 -2.12 -2.12 L 40.53 30.14 a 4.65 4.65 0 0 1 7.93 3.29 a 4.58 4.58 0 0 1 -1.36 3.28 L 36 47.75 a 1.65 1.65 0 0 0 0 2.33 a 1.65 1.65 0 0 0 2.33 0 L 49.39 39 A 4.65 4.65 0 0 1 56 39 a 4.65 4.65 0 0 1 0 6.57 l -11.11 11 a 1.64 1.64 0 0 0 0 2.32 a 1.66 1.66 0 0 0 1.17 0.47 a 1.64 1.64 0 0 0 1.16 -0.47 L 58.26 47.87 a 4.65 4.65 0 0 1 6.57 0 a 4.65 4.65 0 0 1 0 6.57 l -11.12 11 a 1.65 1.65 0 0 0 2.34 2.33 l 13.29 -13.3 a 1.51 1.51 0 0 1 2.13 0 a 1.5 1.5 0 0 1 0 2.12 l -13.3 13.3 A 4.62 4.62 0 0 1 54.88 71.29 Z" fill="#f6c" transform="scale(0.6) translate(-50 -50)"/><path d="M 43.81 29.28 a 4.15 4.15 0 0 1 2.94 7.08 l -11.12 11 A 2.14 2.14 0 0 0 35 48.91 a 2.14 2.14 0 0 0 3.66 1.52 L 49.75 39.36 a 4.14 4.14 0 0 1 5.86 5.86 L 44.49 56.27 a 2.13 2.13 0 0 0 -0.62 1.51 a 2.16 2.16 0 0 0 3.67 1.52 L 58.61 48.22 a 4.15 4.15 0 0 1 5.87 5.86 l -11.12 11 a 2.15 2.15 0 0 0 0 3 a 2.17 2.17 0 0 0 3 0 l 13.3 -13.3 a 1 1 0 1 1 1.41 1.42 L 57.81 69.57 a 4.13 4.13 0 0 1 -5.86 0 a 4.14 4.14 0 0 1 0 -5.86 l 11.12 -11 a 2.15 2.15 0 0 0 -3 -3 L 49 60.71 a 4.15 4.15 0 0 1 -5.87 -5.86 L 54.2 43.8 a 2.15 2.15 0 0 0 -3 -3 L 40.09 51.85 A 4.15 4.15 0 0 1 34.22 46 l 11.12 -11 a 2.15 2.15 0 0 0 -1.53 -3.66 a 2.09 2.09 0 0 0 -1.51 0.63 L 28.93 45.28 a 1 1 0 0 1 -1.42 0 a 1 1 0 0 1 0 -1.42 L 40.88 30.5 a 4.1 4.1 0 0 1 2.93 -1.22 m 0 -1 a 5.18 5.18 0 0 0 -3.64 1.51 L 26.81 43.16 a 2 2 0 0 0 1.41 3.41 A 2 2 0 0 0 29.64 46 L 43 32.62 a 1.14 1.14 0 0 1 0.81 -0.34 A 1.16 1.16 0 0 1 45 33.43 a 1.14 1.14 0 0 1 -0.33 0.8 L 33.52 45.28 a 5.14 5.14 0 1 0 7.27 7.27 L 51.87 41.48 a 1.13 1.13 0 0 1 0.81 -0.33 a 1.14 1.14 0 0 1 0.81 2 l -11.11 11 a 5.15 5.15 0 1 0 7.28 7.28 L 60.73 50.34 a 1.17 1.17 0 0 1 0.81 -0.32 A 1.14 1.14 0 0 1 62.36 52 L 51.24 63 a 5.15 5.15 0 0 0 3.64 8.79 a 5.11 5.11 0 0 0 3.64 -1.51 L 71.82 57 a 2 2 0 0 0 0 -2.83 a 2 2 0 0 0 -2.83 0 l -13.3 13.3 a 1.12 1.12 0 0 1 -0.81 0.33 a 1.15 1.15 0 0 1 -0.81 -0.33 a 1.13 1.13 0 0 1 0 -1.61 L 65.18 54.79 a 5.14 5.14 0 0 0 0 -7.27 a 5.14 5.14 0 0 0 -7.28 0 L 46.83 58.59 a 1.12 1.12 0 0 1 -0.81 0.32 a 1.11 1.11 0 0 1 -0.81 -0.32 a 1.15 1.15 0 0 1 0 -1.62 l 11.12 -11 A 5.15 5.15 0 0 0 49 38.65 L 38 49.73 a 1.15 1.15 0 0 1 -2 -0.82 a 1.14 1.14 0 0 1 0.33 -0.8 l 11.11 -11 a 5.14 5.14 0 0 0 0 -7.28 a 5.14 5.14 0 0 0 -3.64 -1.51 Z" fill="#f6c" transform="scale(0.6) translate(-50 -50)"/></g><g transform="translate(1068.7137468214485, -614.8289485903819)"><path d="M54.88 71.29 a 4.58 4.58 0 0 1 -3.28 -1.36 a 4.65 4.65 0 0 1 0 -6.57 l 11.11 -11 A 1.65 1.65 0 0 0 60.38 50 L 49.3 61.06 a 4.65 4.65 0 0 1 -7.93 -3.28 a 4.66 4.66 0 0 1 1.36 -3.29 l 11.12 -11 a 1.65 1.65 0 0 0 -1.17 -2.8 a 1.67 1.67 0 0 0 -1.17 0.48 L 40.44 52.2 a 4.65 4.65 0 0 1 -6.57 -6.57 L 45 34.59 a 1.63 1.63 0 0 0 0.48 -1.16 A 1.67 1.67 0 0 0 45 32.26 a 1.65 1.65 0 0 0 -1.17 -0.48 a 1.63 1.63 0 0 0 -1.16 0.48 L 29.28 45.63 a 1.5 1.5 0 1 1 -2.12 -2.12 L 40.53 30.14 a 4.65 4.65 0 0 1 7.93 3.29 a 4.58 4.58 0 0 1 -1.36 3.28 L 36 47.75 a 1.65 1.65 0 0 0 0 2.33 a 1.65 1.65 0 0 0 2.33 0 L 49.39 39 A 4.65 4.65 0 0 1 56 39 a 4.65 4.65 0 0 1 0 6.57 l -11.11 11 a 1.64 1.64 0 0 0 0 2.32 a 1.66 1.66 0 0 0 1.17 0.47 a 1.64 1.64 0 0 0 1.16 -0.47 L 58.26 47.87 a 4.65 4.65 0 0 1 6.57 0 a 4.65 4.65 0 0 1 0 6.57 l -11.12 11 a 1.65 1.65 0 0 0 2.34 2.33 l 13.29 -13.3 a 1.51 1.51 0 0 1 2.13 0 a 1.5 1.5 0 0 1 0 2.12 l -13.3 13.3 A 4.62 4.62 0 0 1 54.88 71.29 Z" fill="#f6c" transform="scale(0.6) translate(-50 -50)"/><path d="M 43.81 29.28 a 4.15 4.15 0 0 1 2.94 7.08 l -11.12 11 A 2.14 2.14 0 0 0 35 48.91 a 2.14 2.14 0 0 0 3.66 1.52 L 49.75 39.36 a 4.14 4.14 0 0 1 5.86 5.86 L 44.49 56.27 a 2.13 2.13 0 0 0 -0.62 1.51 a 2.16 2.16 0 0 0 3.67 1.52 L 58.61 48.22 a 4.15 4.15 0 0 1 5.87 5.86 l -11.12 11 a 2.15 2.15 0 0 0 0 3 a 2.17 2.17 0 0 0 3 0 l 13.3 -13.3 a 1 1 0 1 1 1.41 1.42 L 57.81 69.57 a 4.13 4.13 0 0 1 -5.86 0 a 4.14 4.14 0 0 1 0 -5.86 l 11.12 -11 a 2.15 2.15 0 0 0 -3 -3 L 49 60.71 a 4.15 4.15 0 0 1 -5.87 -5.86 L 54.2 43.8 a 2.15 2.15 0 0 0 -3 -3 L 40.09 51.85 A 4.15 4.15 0 0 1 34.22 46 l 11.12 -11 a 2.15 2.15 0 0 0 -1.53 -3.66 a 2.09 2.09 0 0 0 -1.51 0.63 L 28.93 45.28 a 1 1 0 0 1 -1.42 0 a 1 1 0 0 1 0 -1.42 L 40.88 30.5 a 4.1 4.1 0 0 1 2.93 -1.22 m 0 -1 a 5.18 5.18 0 0 0 -3.64 1.51 L 26.81 43.16 a 2 2 0 0 0 1.41 3.41 A 2 2 0 0 0 29.64 46 L 43 32.62 a 1.14 1.14 0 0 1 0.81 -0.34 A 1.16 1.16 0 0 1 45 33.43 a 1.14 1.14 0 0 1 -0.33 0.8 L 33.52 45.28 a 5.14 5.14 0 1 0 7.27 7.27 L 51.87 41.48 a 1.13 1.13 0 0 1 0.81 -0.33 a 1.14 1.14 0 0 1 0.81 2 l -11.11 11 a 5.15 5.15 0 1 0 7.28 7.28 L 60.73 50.34 a 1.17 1.17 0 0 1 0.81 -0.32 A 1.14 1.14 0 0 1 62.36 52 L 51.24 63 a 5.15 5.15 0 0 0 3.64 8.79 a 5.11 5.11 0 0 0 3.64 -1.51 L 71.82 57 a 2 2 0 0 0 0 -2.83 a 2 2 0 0 0 -2.83 0 l -13.3 13.3 a 1.12 1.12 0 0 1 -0.81 0.33 a 1.15 1.15 0 0 1 -0.81 -0.33 a 1.13 1.13 0 0 1 0 -1.61 L 65.18 54.79 a 5.14 5.14 0 0 0 0 -7.27 a 5.14 5.14 0 0 0 -7.28 0 L 46.83 58.59 a 1.12 1.12 0 0 1 -0.81 0.32 a 1.11 1.11 0 0 1 -0.81 -0.32 a 1.15 1.15 0 0 1 0 -1.62 l 11.12 -11 A 5.15 5.15 0 0 0 49 38.65 L 38 49.73 a 1.15 1.15 0 0 1 -2 -0.82 a 1.14 1.14 0 0 1 0.33 -0.8 l 11.11 -11 a 5.14 5.14 0 0 0 0 -7.28 a 5.14 5.14 0 0 0 -3.64 -1.51 Z" fill="#f6c" transform="scale(0.6) translate(-50 -50)"/></g><g transform="translate(1407.663031279939, -613.1396985739689)"><path d="M54.88 71.29 a 4.58 4.58 0 0 1 -3.28 -1.36 a 4.65 4.65 0 0 1 0 -6.57 l 11.11 -11 A 1.65 1.65 0 0 0 60.38 50 L 49.3 61.06 a 4.65 4.65 0 0 1 -7.93 -3.28 a 4.66 4.66 0 0 1 1.36 -3.29 l 11.12 -11 a 1.65 1.65 0 0 0 -1.17 -2.8 a 1.67 1.67 0 0 0 -1.17 0.48 L 40.44 52.2 a 4.65 4.65 0 0 1 -6.57 -6.57 L 45 34.59 a 1.63 1.63 0 0 0 0.48 -1.16 A 1.67 1.67 0 0 0 45 32.26 a 1.65 1.65 0 0 0 -1.17 -0.48 a 1.63 1.63 0 0 0 -1.16 0.48 L 29.28 45.63 a 1.5 1.5 0 1 1 -2.12 -2.12 L 40.53 30.14 a 4.65 4.65 0 0 1 7.93 3.29 a 4.58 4.58 0 0 1 -1.36 3.28 L 36 47.75 a 1.65 1.65 0 0 0 0 2.33 a 1.65 1.65 0 0 0 2.33 0 L 49.39 39 A 4.65 4.65 0 0 1 56 39 a 4.65 4.65 0 0 1 0 6.57 l -11.11 11 a 1.64 1.64 0 0 0 0 2.32 a 1.66 1.66 0 0 0 1.17 0.47 a 1.64 1.64 0 0 0 1.16 -0.47 L 58.26 47.87 a 4.65 4.65 0 0 1 6.57 0 a 4.65 4.65 0 0 1 0 6.57 l -11.12 11 a 1.65 1.65 0 0 0 2.34 2.33 l 13.29 -13.3 a 1.51 1.51 0 0 1 2.13 0 a 1.5 1.5 0 0 1 0 2.12 l -13.3 13.3 A 4.62 4.62 0 0 1 54.88 71.29 Z" fill="#f6c" transform="scale(0.6) translate(-50 -50)"/><path d="M 43.81 29.28 a 4.15 4.15 0 0 1 2.94 7.08 l -11.12 11 A 2.14 2.14 0 0 0 35 48.91 a 2.14 2.14 0 0 0 3.66 1.52 L 49.75 39.36 a 4.14 4.14 0 0 1 5.86 5.86 L 44.49 56.27 a 2.13 2.13 0 0 0 -0.62 1.51 a 2.16 2.16 0 0 0 3.67 1.52 L 58.61 48.22 a 4.15 4.15 0 0 1 5.87 5.86 l -11.12 11 a 2.15 2.15 0 0 0 0 3 a 2.17 2.17 0 0 0 3 0 l 13.3 -13.3 a 1 1 0 1 1 1.41 1.42 L 57.81 69.57 a 4.13 4.13 0 0 1 -5.86 0 a 4.14 4.14 0 0 1 0 -5.86 l 11.12 -11 a 2.15 2.15 0 0 0 -3 -3 L 49 60.71 a 4.15 4.15 0 0 1 -5.87 -5.86 L 54.2 43.8 a 2.15 2.15 0 0 0 -3 -3 L 40.09 51.85 A 4.15 4.15 0 0 1 34.22 46 l 11.12 -11 a 2.15 2.15 0 0 0 -1.53 -3.66 a 2.09 2.09 0 0 0 -1.51 0.63 L 28.93 45.28 a 1 1 0 0 1 -1.42 0 a 1 1 0 0 1 0 -1.42 L 40.88 30.5 a 4.1 4.1 0 0 1 2.93 -1.22 m 0 -1 a 5.18 5.18 0 0 0 -3.64 1.51 L 26.81 43.16 a 2 2 0 0 0 1.41 3.41 A 2 2 0 0 0 29.64 46 L 43 32.62 a 1.14 1.14 0 0 1 0.81 -0.34 A 1.16 1.16 0 0 1 45 33.43 a 1.14 1.14 0 0 1 -0.33 0.8 L 33.52 45.28 a 5.14 5.14 0 1 0 7.27 7.27 L 51.87 41.48 a 1.13 1.13 0 0 1 0.81 -0.33 a 1.14 1.14 0 0 1 0.81 2 l -11.11 11 a 5.15 5.15 0 1 0 7.28 7.28 L 60.73 50.34 a 1.17 1.17 0 0 1 0.81 -0.32 A 1.14 1.14 0 0 1 62.36 52 L 51.24 63 a 5.15 5.15 0 0 0 3.64 8.79 a 5.11 5.11 0 0 0 3.64 -1.51 L 71.82 57 a 2 2 0 0 0 0 -2.83 a 2 2 0 0 0 -2.83 0 l -13.3 13.3 a 1.12 1.12 0 0 1 -0.81 0.33 a 1.15 1.15 0 0 1 -0.81 -0.33 a 1.13 1.13 0 0 1 0 -1.61 L 65.18 54.79 a 5.14 5.14 0 0 0 0 -7.27 a 5.14 5.14 0 0 0 -7.28 0 L 46.83 58.59 a 1.12 1.12 0 0 1 -0.81 0.32 a 1.11 1.11 0 0 1 -0.81 -0.32 a 1.15 1.15 0 0 1 0 -1.62 l 11.12 -11 A 5.15 5.15 0 0 0 49 38.65 L 38 49.73 a 1.15 1.15 0 0 1 -2 -0.82 a 1.14 1.14 0 0 1 0.33 -0.8 l 11.11 -11 a 5.14 5.14 0 0 0 0 -7.28 a 5.14 5.14 0 0 0 -3.64 -1.51 Z" fill="#f6c" transform="scale(0.6) translate(-50 -50)"/></g><g transform="translate(1066.0528137023362, -558.2992623073303)"><path d="M54.88 71.29 a 4.58 4.58 0 0 1 -3.28 -1.36 a 4.65 4.65 0 0 1 0 -6.57 l 11.11 -11 A 1.65 1.65 0 0 0 60.38 50 L 49.3 61.06 a 4.65 4.65 0 0 1 -7.93 -3.28 a 4.66 4.66 0 0 1 1.36 -3.29 l 11.12 -11 a 1.65 1.65 0 0 0 -1.17 -2.8 a 1.67 1.67 0 0 0 -1.17 0.48 L 40.44 52.2 a 4.65 4.65 0 0 1 -6.57 -6.57 L 45 34.59 a 1.63 1.63 0 0 0 0.48 -1.16 A 1.67 1.67 0 0 0 45 32.26 a 1.65 1.65 0 0 0 -1.17 -0.48 a 1.63 1.63 0 0 0 -1.16 0.48 L 29.28 45.63 a 1.5 1.5 0 1 1 -2.12 -2.12 L 40.53 30.14 a 4.65 4.65 0 0 1 7.93 3.29 a 4.58 4.58 0 0 1 -1.36 3.28 L 36 47.75 a 1.65 1.65 0 0 0 0 2.33 a 1.65 1.65 0 0 0 2.33 0 L 49.39 39 A 4.65 4.65 0 0 1 56 39 a 4.65 4.65 0 0 1 0 6.57 l -11.11 11 a 1.64 1.64 0 0 0 0 2.32 a 1.66 1.66 0 0 0 1.17 0.47 a 1.64 1.64 0 0 0 1.16 -0.47 L 58.26 47.87 a 4.65 4.65 0 0 1 6.57 0 a 4.65 4.65 0 0 1 0 6.57 l -11.12 11 a 1.65 1.65 0 0 0 2.34 2.33 l 13.29 -13.3 a 1.51 1.51 0 0 1 2.13 0 a 1.5 1.5 0 0 1 0 2.12 l -13.3 13.3 A 4.62 4.62 0 0 1 54.88 71.29 Z" fill="#ff9900" transform="scale(0.6) translate(-50 -50)"/><path d="M 43.81 29.28 a 4.15 4.15 0 0 1 2.94 7.08 l -11.12 11 A 2.14 2.14 0 0 0 35 48.91 a 2.14 2.14 0 0 0 3.66 1.52 L 49.75 39.36 a 4.14 4.14 0 0 1 5.86 5.86 L 44.49 56.27 a 2.13 2.13 0 0 0 -0.62 1.51 a 2.16 2.16 0 0 0 3.67 1.52 L 58.61 48.22 a 4.15 4.15 0 0 1 5.87 5.86 l -11.12 11 a 2.15 2.15 0 0 0 0 3 a 2.17 2.17 0 0 0 3 0 l 13.3 -13.3 a 1 1 0 1 1 1.41 1.42 L 57.81 69.57 a 4.13 4.13 0 0 1 -5.86 0 a 4.14 4.14 0 0 1 0 -5.86 l 11.12 -11 a 2.15 2.15 0 0 0 -3 -3 L 49 60.71 a 4.15 4.15 0 0 1 -5.87 -5.86 L 54.2 43.8 a 2.15 2.15 0 0 0 -3 -3 L 40.09 51.85 A 4.15 4.15 0 0 1 34.22 46 l 11.12 -11 a 2.15 2.15 0 0 0 -1.53 -3.66 a 2.09 2.09 0 0 0 -1.51 0.63 L 28.93 45.28 a 1 1 0 0 1 -1.42 0 a 1 1 0 0 1 0 -1.42 L 40.88 30.5 a 4.1 4.1 0 0 1 2.93 -1.22 m 0 -1 a 5.18 5.18 0 0 0 -3.64 1.51 L 26.81 43.16 a 2 2 0 0 0 1.41 3.41 A 2 2 0 0 0 29.64 46 L 43 32.62 a 1.14 1.14 0 0 1 0.81 -0.34 A 1.16 1.16 0 0 1 45 33.43 a 1.14 1.14 0 0 1 -0.33 0.8 L 33.52 45.28 a 5.14 5.14 0 1 0 7.27 7.27 L 51.87 41.48 a 1.13 1.13 0 0 1 0.81 -0.33 a 1.14 1.14 0 0 1 0.81 2 l -11.11 11 a 5.15 5.15 0 1 0 7.28 7.28 L 60.73 50.34 a 1.17 1.17 0 0 1 0.81 -0.32 A 1.14 1.14 0 0 1 62.36 52 L 51.24 63 a 5.15 5.15 0 0 0 3.64 8.79 a 5.11 5.11 0 0 0 3.64 -1.51 L 71.82 57 a 2 2 0 0 0 0 -2.83 a 2 2 0 0 0 -2.83 0 l -13.3 13.3 a 1.12 1.12 0 0 1 -0.81 0.33 a 1.15 1.15 0 0 1 -0.81 -0.33 a 1.13 1.13 0 0 1 0 -1.61 L 65.18 54.79 a 5.14 5.14 0 0 0 0 -7.27 a 5.14 5.14 0 0 0 -7.28 0 L 46.83 58.59 a 1.12 1.12 0 0 1 -0.81 0.32 a 1.11 1.11 0 0 1 -0.81 -0.32 a 1.15 1.15 0 0 1 0 -1.62 l 11.12 -11 A 5.15 5.15 0 0 0 49 38.65 L 38 49.73 a 1.15 1.15 0 0 1 -2 -0.82 a 1.14 1.14 0 0 1 0.33 -0.8 l 11.11 -11 a 5.14 5.14 0 0 0 0 -7.28 a 5.14 5.14 0 0 0 -3.64 -1.51 Z" fill="#ff9900" transform="scale(0.6) translate(-50 -50)"/></g><g transform="translate(1414.591142790151, -553.6951101877991)"><path d="M54.88 71.29 a 4.58 4.58 0 0 1 -3.28 -1.36 a 4.65 4.65 0 0 1 0 -6.57 l 11.11 -11 A 1.65 1.65 0 0 0 60.38 50 L 49.3 61.06 a 4.65 4.65 0 0 1 -7.93 -3.28 a 4.66 4.66 0 0 1 1.36 -3.29 l 11.12 -11 a 1.65 1.65 0 0 0 -1.17 -2.8 a 1.67 1.67 0 0 0 -1.17 0.48 L 40.44 52.2 a 4.65 4.65 0 0 1 -6.57 -6.57 L 45 34.59 a 1.63 1.63 0 0 0 0.48 -1.16 A 1.67 1.67 0 0 0 45 32.26 a 1.65 1.65 0 0 0 -1.17 -0.48 a 1.63 1.63 0 0 0 -1.16 0.48 L 29.28 45.63 a 1.5 1.5 0 1 1 -2.12 -2.12 L 40.53 30.14 a 4.65 4.65 0 0 1 7.93 3.29 a 4.58 4.58 0 0 1 -1.36 3.28 L 36 47.75 a 1.65 1.65 0 0 0 0 2.33 a 1.65 1.65 0 0 0 2.33 0 L 49.39 39 A 4.65 4.65 0 0 1 56 39 a 4.65 4.65 0 0 1 0 6.57 l -11.11 11 a 1.64 1.64 0 0 0 0 2.32 a 1.66 1.66 0 0 0 1.17 0.47 a 1.64 1.64 0 0 0 1.16 -0.47 L 58.26 47.87 a 4.65 4.65 0 0 1 6.57 0 a 4.65 4.65 0 0 1 0 6.57 l -11.12 11 a 1.65 1.65 0 0 0 2.34 2.33 l 13.29 -13.3 a 1.51 1.51 0 0 1 2.13 0 a 1.5 1.5 0 0 1 0 2.12 l -13.3 13.3 A 4.62 4.62 0 0 1 54.88 71.29 Z" fill="#ff9900" transform="scale(0.6) translate(-50 -50)"/><path d="M 43.81 29.28 a 4.15 4.15 0 0 1 2.94 7.08 l -11.12 11 A 2.14 2.14 0 0 0 35 48.91 a 2.14 2.14 0 0 0 3.66 1.52 L 49.75 39.36 a 4.14 4.14 0 0 1 5.86 5.86 L 44.49 56.27 a 2.13 2.13 0 0 0 -0.62 1.51 a 2.16 2.16 0 0 0 3.67 1.52 L 58.61 48.22 a 4.15 4.15 0 0 1 5.87 5.86 l -11.12 11 a 2.15 2.15 0 0 0 0 3 a 2.17 2.17 0 0 0 3 0 l 13.3 -13.3 a 1 1 0 1 1 1.41 1.42 L 57.81 69.57 a 4.13 4.13 0 0 1 -5.86 0 a 4.14 4.14 0 0 1 0 -5.86 l 11.12 -11 a 2.15 2.15 0 0 0 -3 -3 L 49 60.71 a 4.15 4.15 0 0 1 -5.87 -5.86 L 54.2 43.8 a 2.15 2.15 0 0 0 -3 -3 L 40.09 51.85 A 4.15 4.15 0 0 1 34.22 46 l 11.12 -11 a 2.15 2.15 0 0 0 -1.53 -3.66 a 2.09 2.09 0 0 0 -1.51 0.63 L 28.93 45.28 a 1 1 0 0 1 -1.42 0 a 1 1 0 0 1 0 -1.42 L 40.88 30.5 a 4.1 4.1 0 0 1 2.93 -1.22 m 0 -1 a 5.18 5.18 0 0 0 -3.64 1.51 L 26.81 43.16 a 2 2 0 0 0 1.41 3.41 A 2 2 0 0 0 29.64 46 L 43 32.62 a 1.14 1.14 0 0 1 0.81 -0.34 A 1.16 1.16 0 0 1 45 33.43 a 1.14 1.14 0 0 1 -0.33 0.8 L 33.52 45.28 a 5.14 5.14 0 1 0 7.27 7.27 L 51.87 41.48 a 1.13 1.13 0 0 1 0.81 -0.33 a 1.14 1.14 0 0 1 0.81 2 l -11.11 11 a 5.15 5.15 0 1 0 7.28 7.28 L 60.73 50.34 a 1.17 1.17 0 0 1 0.81 -0.32 A 1.14 1.14 0 0 1 62.36 52 L 51.24 63 a 5.15 5.15 0 0 0 3.64 8.79 a 5.11 5.11 0 0 0 3.64 -1.51 L 71.82 57 a 2 2 0 0 0 0 -2.83 a 2 2 0 0 0 -2.83 0 l -13.3 13.3 a 1.12 1.12 0 0 1 -0.81 0.33 a 1.15 1.15 0 0 1 -0.81 -0.33 a 1.13 1.13 0 0 1 0 -1.61 L 65.18 54.79 a 5.14 5.14 0 0 0 0 -7.27 a 5.14 5.14 0 0 0 -7.28 0 L 46.83 58.59 a 1.12 1.12 0 0 1 -0.81 0.32 a 1.11 1.11 0 0 1 -0.81 -0.32 a 1.15 1.15 0 0 1 0 -1.62 l 11.12 -11 A 5.15 5.15 0 0 0 49 38.65 L 38 49.73 a 1.15 1.15 0 0 1 -2 -0.82 a 1.14 1.14 0 0 1 0.33 -0.8 l 11.11 -11 a 5.14 5.14 0 0 0 0 -7.28 a 5.14 5.14 0 0 0 -3.64 -1.51 Z" fill="#ff9900" transform="scale(0.6) translate(-50 -50)"/></g><g transform="translate(601.0919846809934, -457.29341272731995)"><path d="M54.88 71.29 a 4.58 4.58 0 0 1 -3.28 -1.36 a 4.65 4.65 0 0 1 0 -6.57 l 11.11 -11 A 1.65 1.65 0 0 0 60.38 50 L 49.3 61.06 a 4.65 4.65 0 0 1 -7.93 -3.28 a 4.66 4.66 0 0 1 1.36 -3.29 l 11.12 -11 a 1.65 1.65 0 0 0 -1.17 -2.8 a 1.67 1.67 0 0 0 -1.17 0.48 L 40.44 52.2 a 4.65 4.65 0 0 1 -6.57 -6.57 L 45 34.59 a 1.63 1.63 0 0 0 0.48 -1.16 A 1.67 1.67 0 0 0 45 32.26 a 1.65 1.65 0 0 0 -1.17 -0.48 a 1.63 1.63 0 0 0 -1.16 0.48 L 29.28 45.63 a 1.5 1.5 0 1 1 -2.12 -2.12 L 40.53 30.14 a 4.65 4.65 0 0 1 7.93 3.29 a 4.58 4.58 0 0 1 -1.36 3.28 L 36 47.75 a 1.65 1.65 0 0 0 0 2.33 a 1.65 1.65 0 0 0 2.33 0 L 49.39 39 A 4.65 4.65 0 0 1 56 39 a 4.65 4.65 0 0 1 0 6.57 l -11.11 11 a 1.64 1.64 0 0 0 0 2.32 a 1.66 1.66 0 0 0 1.17 0.47 a 1.64 1.64 0 0 0 1.16 -0.47 L 58.26 47.87 a 4.65 4.65 0 0 1 6.57 0 a 4.65 4.65 0 0 1 0 6.57 l -11.12 11 a 1.65 1.65 0 0 0 2.34 2.33 l 13.29 -13.3 a 1.51 1.51 0 0 1 2.13 0 a 1.5 1.5 0 0 1 0 2.12 l -13.3 13.3 A 4.62 4.62 0 0 1 54.88 71.29 Z" fill="#f6c" transform="scale(0.6) translate(-50 -50)"/><path d="M 43.81 29.28 a 4.15 4.15 0 0 1 2.94 7.08 l -11.12 11 A 2.14 2.14 0 0 0 35 48.91 a 2.14 2.14 0 0 0 3.66 1.52 L 49.75 39.36 a 4.14 4.14 0 0 1 5.86 5.86 L 44.49 56.27 a 2.13 2.13 0 0 0 -0.62 1.51 a 2.16 2.16 0 0 0 3.67 1.52 L 58.61 48.22 a 4.15 4.15 0 0 1 5.87 5.86 l -11.12 11 a 2.15 2.15 0 0 0 0 3 a 2.17 2.17 0 0 0 3 0 l 13.3 -13.3 a 1 1 0 1 1 1.41 1.42 L 57.81 69.57 a 4.13 4.13 0 0 1 -5.86 0 a 4.14 4.14 0 0 1 0 -5.86 l 11.12 -11 a 2.15 2.15 0 0 0 -3 -3 L 49 60.71 a 4.15 4.15 0 0 1 -5.87 -5.86 L 54.2 43.8 a 2.15 2.15 0 0 0 -3 -3 L 40.09 51.85 A 4.15 4.15 0 0 1 34.22 46 l 11.12 -11 a 2.15 2.15 0 0 0 -1.53 -3.66 a 2.09 2.09 0 0 0 -1.51 0.63 L 28.93 45.28 a 1 1 0 0 1 -1.42 0 a 1 1 0 0 1 0 -1.42 L 40.88 30.5 a 4.1 4.1 0 0 1 2.93 -1.22 m 0 -1 a 5.18 5.18 0 0 0 -3.64 1.51 L 26.81 43.16 a 2 2 0 0 0 1.41 3.41 A 2 2 0 0 0 29.64 46 L 43 32.62 a 1.14 1.14 0 0 1 0.81 -0.34 A 1.16 1.16 0 0 1 45 33.43 a 1.14 1.14 0 0 1 -0.33 0.8 L 33.52 45.28 a 5.14 5.14 0 1 0 7.27 7.27 L 51.87 41.48 a 1.13 1.13 0 0 1 0.81 -0.33 a 1.14 1.14 0 0 1 0.81 2 l -11.11 11 a 5.15 5.15 0 1 0 7.28 7.28 L 60.73 50.34 a 1.17 1.17 0 0 1 0.81 -0.32 A 1.14 1.14 0 0 1 62.36 52 L 51.24 63 a 5.15 5.15 0 0 0 3.64 8.79 a 5.11 5.11 0 0 0 3.64 -1.51 L 71.82 57 a 2 2 0 0 0 0 -2.83 a 2 2 0 0 0 -2.83 0 l -13.3 13.3 a 1.12 1.12 0 0 1 -0.81 0.33 a 1.15 1.15 0 0 1 -0.81 -0.33 a 1.13 1.13 0 0 1 0 -1.61 L 65.18 54.79 a 5.14 5.14 0 0 0 0 -7.27 a 5.14 5.14 0 0 0 -7.28 0 L 46.83 58.59 a 1.12 1.12 0 0 1 -0.81 0.32 a 1.11 1.11 0 0 1 -0.81 -0.32 a 1.15 1.15 0 0 1 0 -1.62 l 11.12 -11 A 5.15 5.15 0 0 0 49 38.65 L 38 49.73 a 1.15 1.15 0 0 1 -2 -0.82 a 1.14 1.14 0 0 1 0.33 -0.8 l 11.11 -11 a 5.14 5.14 0 0 0 0 -7.28 a 5.14 5.14 0 0 0 -3.64 -1.51 Z" fill="#f6c" transform="scale(0.6) translate(-50 -50)"/></g><g transform="translate(1908.1492537313436, -465.31343283582095)"><path d="M54.88 71.29 a 4.58 4.58 0 0 1 -3.28 -1.36 a 4.65 4.65 0 0 1 0 -6.57 l 11.11 -11 A 1.65 1.65 0 0 0 60.38 50 L 49.3 61.06 a 4.65 4.65 0 0 1 -7.93 -3.28 a 4.66 4.66 0 0 1 1.36 -3.29 l 11.12 -11 a 1.65 1.65 0 0 0 -1.17 -2.8 a 1.67 1.67 0 0 0 -1.17 0.48 L 40.44 52.2 a 4.65 4.65 0 0 1 -6.57 -6.57 L 45 34.59 a 1.63 1.63 0 0 0 0.48 -1.16 A 1.67 1.67 0 0 0 45 32.26 a 1.65 1.65 0 0 0 -1.17 -0.48 a 1.63 1.63 0 0 0 -1.16 0.48 L 29.28 45.63 a 1.5 1.5 0 1 1 -2.12 -2.12 L 40.53 30.14 a 4.65 4.65 0 0 1 7.93 3.29 a 4.58 4.58 0 0 1 -1.36 3.28 L 36 47.75 a 1.65 1.65 0 0 0 0 2.33 a 1.65 1.65 0 0 0 2.33 0 L 49.39 39 A 4.65 4.65 0 0 1 56 39 a 4.65 4.65 0 0 1 0 6.57 l -11.11 11 a 1.64 1.64 0 0 0 0 2.32 a 1.66 1.66 0 0 0 1.17 0.47 a 1.64 1.64 0 0 0 1.16 -0.47 L 58.26 47.87 a 4.65 4.65 0 0 1 6.57 0 a 4.65 4.65 0 0 1 0 6.57 l -11.12 11 a 1.65 1.65 0 0 0 2.34 2.33 l 13.29 -13.3 a 1.51 1.51 0 0 1 2.13 0 a 1.5 1.5 0 0 1 0 2.12 l -13.3 13.3 A 4.62 4.62 0 0 1 54.88 71.29 Z" fill="#f6c" transform="scale(0.6) translate(-50 -50)"/><path d="M 43.81 29.28 a 4.15 4.15 0 0 1 2.94 7.08 l -11.12 11 A 2.14 2.14 0 0 0 35 48.91 a 2.14 2.14 0 0 0 3.66 1.52 L 49.75 39.36 a 4.14 4.14 0 0 1 5.86 5.86 L 44.49 56.27 a 2.13 2.13 0 0 0 -0.62 1.51 a 2.16 2.16 0 0 0 3.67 1.52 L 58.61 48.22 a 4.15 4.15 0 0 1 5.87 5.86 l -11.12 11 a 2.15 2.15 0 0 0 0 3 a 2.17 2.17 0 0 0 3 0 l 13.3 -13.3 a 1 1 0 1 1 1.41 1.42 L 57.81 69.57 a 4.13 4.13 0 0 1 -5.86 0 a 4.14 4.14 0 0 1 0 -5.86 l 11.12 -11 a 2.15 2.15 0 0 0 -3 -3 L 49 60.71 a 4.15 4.15 0 0 1 -5.87 -5.86 L 54.2 43.8 a 2.15 2.15 0 0 0 -3 -3 L 40.09 51.85 A 4.15 4.15 0 0 1 34.22 46 l 11.12 -11 a 2.15 2.15 0 0 0 -1.53 -3.66 a 2.09 2.09 0 0 0 -1.51 0.63 L 28.93 45.28 a 1 1 0 0 1 -1.42 0 a 1 1 0 0 1 0 -1.42 L 40.88 30.5 a 4.1 4.1 0 0 1 2.93 -1.22 m 0 -1 a 5.18 5.18 0 0 0 -3.64 1.51 L 26.81 43.16 a 2 2 0 0 0 1.41 3.41 A 2 2 0 0 0 29.64 46 L 43 32.62 a 1.14 1.14 0 0 1 0.81 -0.34 A 1.16 1.16 0 0 1 45 33.43 a 1.14 1.14 0 0 1 -0.33 0.8 L 33.52 45.28 a 5.14 5.14 0 1 0 7.27 7.27 L 51.87 41.48 a 1.13 1.13 0 0 1 0.81 -0.33 a 1.14 1.14 0 0 1 0.81 2 l -11.11 11 a 5.15 5.15 0 1 0 7.28 7.28 L 60.73 50.34 a 1.17 1.17 0 0 1 0.81 -0.32 A 1.14 1.14 0 0 1 62.36 52 L 51.24 63 a 5.15 5.15 0 0 0 3.64 8.79 a 5.11 5.11 0 0 0 3.64 -1.51 L 71.82 57 a 2 2 0 0 0 0 -2.83 a 2 2 0 0 0 -2.83 0 l -13.3 13.3 a 1.12 1.12 0 0 1 -0.81 0.33 a 1.15 1.15 0 0 1 -0.81 -0.33 a 1.13 1.13 0 0 1 0 -1.61 L 65.18 54.79 a 5.14 5.14 0 0 0 0 -7.27 a 5.14 5.14 0 0 0 -7.28 0 L 46.83 58.59 a 1.12 1.12 0 0 1 -0.81 0.32 a 1.11 1.11 0 0 1 -0.81 -0.32 a 1.15 1.15 0 0 1 0 -1.62 l 11.12 -11 A 5.15 5.15 0 0 0 49 38.65 L 38 49.73 a 1.15 1.15 0 0 1 -2 -0.82 a 1.14 1.14 0 0 1 0.33 -0.8 l 11.11 -11 a 5.14 5.14 0 0 0 0 -7.28 a 5.14 5.14 0 0 0 -3.64 -1.51 Z" fill="#f6c" transform="scale(0.6) translate(-50 -50)"/></g><g transform="translate(595.9578748780084, -384.13234803478264)"><path d="M54.88 71.29 a 4.58 4.58 0 0 1 -3.28 -1.36 a 4.65 4.65 0 0 1 0 -6.57 l 11.11 -11 A 1.65 1.65 0 0 0 60.38 50 L 49.3 61.06 a 4.65 4.65 0 0 1 -7.93 -3.28 a 4.66 4.66 0 0 1 1.36 -3.29 l 11.12 -11 a 1.65 1.65 0 0 0 -1.17 -2.8 a 1.67 1.67 0 0 0 -1.17 0.48 L 40.44 52.2 a 4.65 4.65 0 0 1 -6.57 -6.57 L 45 34.59 a 1.63 1.63 0 0 0 0.48 -1.16 A 1.67 1.67 0 0 0 45 32.26 a 1.65 1.65 0 0 0 -1.17 -0.48 a 1.63 1.63 0 0 0 -1.16 0.48 L 29.28 45.63 a 1.5 1.5 0 1 1 -2.12 -2.12 L 40.53 30.14 a 4.65 4.65 0 0 1 7.93 3.29 a 4.58 4.58 0 0 1 -1.36 3.28 L 36 47.75 a 1.65 1.65 0 0 0 0 2.33 a 1.65 1.65 0 0 0 2.33 0 L 49.39 39 A 4.65 4.65 0 0 1 56 39 a 4.65 4.65 0 0 1 0 6.57 l -11.11 11 a 1.64 1.64 0 0 0 0 2.32 a 1.66 1.66 0 0 0 1.17 0.47 a 1.64 1.64 0 0 0 1.16 -0.47 L 58.26 47.87 a 4.65 4.65 0 0 1 6.57 0 a 4.65 4.65 0 0 1 0 6.57 l -11.12 11 a 1.65 1.65 0 0 0 2.34 2.33 l 13.29 -13.3 a 1.51 1.51 0 0 1 2.13 0 a 1.5 1.5 0 0 1 0 2.12 l -13.3 13.3 A 4.62 4.62 0 0 1 54.88 71.29 Z" fill="#ff9900" transform="scale(0.6) translate(-50 -50)"/><path d="M 43.81 29.28 a 4.15 4.15 0 0 1 2.94 7.08 l -11.12 11 A 2.14 2.14 0 0 0 35 48.91 a 2.14 2.14 0 0 0 3.66 1.52 L 49.75 39.36 a 4.14 4.14 0 0 1 5.86 5.86 L 44.49 56.27 a 2.13 2.13 0 0 0 -0.62 1.51 a 2.16 2.16 0 0 0 3.67 1.52 L 58.61 48.22 a 4.15 4.15 0 0 1 5.87 5.86 l -11.12 11 a 2.15 2.15 0 0 0 0 3 a 2.17 2.17 0 0 0 3 0 l 13.3 -13.3 a 1 1 0 1 1 1.41 1.42 L 57.81 69.57 a 4.13 4.13 0 0 1 -5.86 0 a 4.14 4.14 0 0 1 0 -5.86 l 11.12 -11 a 2.15 2.15 0 0 0 -3 -3 L 49 60.71 a 4.15 4.15 0 0 1 -5.87 -5.86 L 54.2 43.8 a 2.15 2.15 0 0 0 -3 -3 L 40.09 51.85 A 4.15 4.15 0 0 1 34.22 46 l 11.12 -11 a 2.15 2.15 0 0 0 -1.53 -3.66 a 2.09 2.09 0 0 0 -1.51 0.63 L 28.93 45.28 a 1 1 0 0 1 -1.42 0 a 1 1 0 0 1 0 -1.42 L 40.88 30.5 a 4.1 4.1 0 0 1 2.93 -1.22 m 0 -1 a 5.18 5.18 0 0 0 -3.64 1.51 L 26.81 43.16 a 2 2 0 0 0 1.41 3.41 A 2 2 0 0 0 29.64 46 L 43 32.62 a 1.14 1.14 0 0 1 0.81 -0.34 A 1.16 1.16 0 0 1 45 33.43 a 1.14 1.14 0 0 1 -0.33 0.8 L 33.52 45.28 a 5.14 5.14 0 1 0 7.27 7.27 L 51.87 41.48 a 1.13 1.13 0 0 1 0.81 -0.33 a 1.14 1.14 0 0 1 0.81 2 l -11.11 11 a 5.15 5.15 0 1 0 7.28 7.28 L 60.73 50.34 a 1.17 1.17 0 0 1 0.81 -0.32 A 1.14 1.14 0 0 1 62.36 52 L 51.24 63 a 5.15 5.15 0 0 0 3.64 8.79 a 5.11 5.11 0 0 0 3.64 -1.51 L 71.82 57 a 2 2 0 0 0 0 -2.83 a 2 2 0 0 0 -2.83 0 l -13.3 13.3 a 1.12 1.12 0 0 1 -0.81 0.33 a 1.15 1.15 0 0 1 -0.81 -0.33 a 1.13 1.13 0 0 1 0 -1.61 L 65.18 54.79 a 5.14 5.14 0 0 0 0 -7.27 a 5.14 5.14 0 0 0 -7.28 0 L 46.83 58.59 a 1.12 1.12 0 0 1 -0.81 0.32 a 1.11 1.11 0 0 1 -0.81 -0.32 a 1.15 1.15 0 0 1 0 -1.62 l 11.12 -11 A 5.15 5.15 0 0 0 49 38.65 L 38 49.73 a 1.15 1.15 0 0 1 -2 -0.82 a 1.14 1.14 0 0 1 0.33 -0.8 l 11.11 -11 a 5.14 5.14 0 0 0 0 -7.28 a 5.14 5.14 0 0 0 -3.64 -1.51 Z" fill="#ff9900" transform="scale(0.6) translate(-50 -50)"/></g><g transform="translate(1890.9552238805973, -406.5671641791045)"><path d="M54.88 71.29 a 4.58 4.58 0 0 1 -3.28 -1.36 a 4.65 4.65 0 0 1 0 -6.57 l 11.11 -11 A 1.65 1.65 0 0 0 60.38 50 L 49.3 61.06 a 4.65 4.65 0 0 1 -7.93 -3.28 a 4.66 4.66 0 0 1 1.36 -3.29 l 11.12 -11 a 1.65 1.65 0 0 0 -1.17 -2.8 a 1.67 1.67 0 0 0 -1.17 0.48 L 40.44 52.2 a 4.65 4.65 0 0 1 -6.57 -6.57 L 45 34.59 a 1.63 1.63 0 0 0 0.48 -1.16 A 1.67 1.67 0 0 0 45 32.26 a 1.65 1.65 0 0 0 -1.17 -0.48 a 1.63 1.63 0 0 0 -1.16 0.48 L 29.28 45.63 a 1.5 1.5 0 1 1 -2.12 -2.12 L 40.53 30.14 a 4.65 4.65 0 0 1 7.93 3.29 a 4.58 4.58 0 0 1 -1.36 3.28 L 36 47.75 a 1.65 1.65 0 0 0 0 2.33 a 1.65 1.65 0 0 0 2.33 0 L 49.39 39 A 4.65 4.65 0 0 1 56 39 a 4.65 4.65 0 0 1 0 6.57 l -11.11 11 a 1.64 1.64 0 0 0 0 2.32 a 1.66 1.66 0 0 0 1.17 0.47 a 1.64 1.64 0 0 0 1.16 -0.47 L 58.26 47.87 a 4.65 4.65 0 0 1 6.57 0 a 4.65 4.65 0 0 1 0 6.57 l -11.12 11 a 1.65 1.65 0 0 0 2.34 2.33 l 13.29 -13.3 a 1.51 1.51 0 0 1 2.13 0 a 1.5 1.5 0 0 1 0 2.12 l -13.3 13.3 A 4.62 4.62 0 0 1 54.88 71.29 Z" fill="#ff9900" transform="scale(0.6) translate(-50 -50)"/><path d="M 43.81 29.28 a 4.15 4.15 0 0 1 2.94 7.08 l -11.12 11 A 2.14 2.14 0 0 0 35 48.91 a 2.14 2.14 0 0 0 3.66 1.52 L 49.75 39.36 a 4.14 4.14 0 0 1 5.86 5.86 L 44.49 56.27 a 2.13 2.13 0 0 0 -0.62 1.51 a 2.16 2.16 0 0 0 3.67 1.52 L 58.61 48.22 a 4.15 4.15 0 0 1 5.87 5.86 l -11.12 11 a 2.15 2.15 0 0 0 0 3 a 2.17 2.17 0 0 0 3 0 l 13.3 -13.3 a 1 1 0 1 1 1.41 1.42 L 57.81 69.57 a 4.13 4.13 0 0 1 -5.86 0 a 4.14 4.14 0 0 1 0 -5.86 l 11.12 -11 a 2.15 2.15 0 0 0 -3 -3 L 49 60.71 a 4.15 4.15 0 0 1 -5.87 -5.86 L 54.2 43.8 a 2.15 2.15 0 0 0 -3 -3 L 40.09 51.85 A 4.15 4.15 0 0 1 34.22 46 l 11.12 -11 a 2.15 2.15 0 0 0 -1.53 -3.66 a 2.09 2.09 0 0 0 -1.51 0.63 L 28.93 45.28 a 1 1 0 0 1 -1.42 0 a 1 1 0 0 1 0 -1.42 L 40.88 30.5 a 4.1 4.1 0 0 1 2.93 -1.22 m 0 -1 a 5.18 5.18 0 0 0 -3.64 1.51 L 26.81 43.16 a 2 2 0 0 0 1.41 3.41 A 2 2 0 0 0 29.64 46 L 43 32.62 a 1.14 1.14 0 0 1 0.81 -0.34 A 1.16 1.16 0 0 1 45 33.43 a 1.14 1.14 0 0 1 -0.33 0.8 L 33.52 45.28 a 5.14 5.14 0 1 0 7.27 7.27 L 51.87 41.48 a 1.13 1.13 0 0 1 0.81 -0.33 a 1.14 1.14 0 0 1 0.81 2 l -11.11 11 a 5.15 5.15 0 1 0 7.28 7.28 L 60.73 50.34 a 1.17 1.17 0 0 1 0.81 -0.32 A 1.14 1.14 0 0 1 62.36 52 L 51.24 63 a 5.15 5.15 0 0 0 3.64 8.79 a 5.11 5.11 0 0 0 3.64 -1.51 L 71.82 57 a 2 2 0 0 0 0 -2.83 a 2 2 0 0 0 -2.83 0 l -13.3 13.3 a 1.12 1.12 0 0 1 -0.81 0.33 a 1.15 1.15 0 0 1 -0.81 -0.33 a 1.13 1.13 0 0 1 0 -1.61 L 65.18 54.79 a 5.14 5.14 0 0 0 0 -7.27 a 5.14 5.14 0 0 0 -7.28 0 L 46.83 58.59 a 1.12 1.12 0 0 1 -0.81 0.32 a 1.11 1.11 0 0 1 -0.81 -0.32 a 1.15 1.15 0 0 1 0 -1.62 l 11.12 -11 A 5.15 5.15 0 0 0 49 38.65 L 38 49.73 a 1.15 1.15 0 0 1 -2 -0.82 a 1.14 1.14 0 0 1 0.33 -0.8 l 11.11 -11 a 5.14 5.14 0 0 0 0 -7.28 a 5.14 5.14 0 0 0 -3.64 -1.51 Z" fill="#ff9900" transform="scale(0.6) translate(-50 -50)"/></g><g transform="translate(1102.6939722588074, -325.2272239549628)"><path d="M54.88 71.29 a 4.58 4.58 0 0 1 -3.28 -1.36 a 4.65 4.65 0 0 1 0 -6.57 l 11.11 -11 A 1.65 1.65 0 0 0 60.38 50 L 49.3 61.06 a 4.65 4.65 0 0 1 -7.93 -3.28 a 4.66 4.66 0 0 1 1.36 -3.29 l 11.12 -11 a 1.65 1.65 0 0 0 -1.17 -2.8 a 1.67 1.67 0 0 0 -1.17 0.48 L 40.44 52.2 a 4.65 4.65 0 0 1 -6.57 -6.57 L 45 34.59 a 1.63 1.63 0 0 0 0.48 -1.16 A 1.67 1.67 0 0 0 45 32.26 a 1.65 1.65 0 0 0 -1.17 -0.48 a 1.63 1.63 0 0 0 -1.16 0.48 L 29.28 45.63 a 1.5 1.5 0 1 1 -2.12 -2.12 L 40.53 30.14 a 4.65 4.65 0 0 1 7.93 3.29 a 4.58 4.58 0 0 1 -1.36 3.28 L 36 47.75 a 1.65 1.65 0 0 0 0 2.33 a 1.65 1.65 0 0 0 2.33 0 L 49.39 39 A 4.65 4.65 0 0 1 56 39 a 4.65 4.65 0 0 1 0 6.57 l -11.11 11 a 1.64 1.64 0 0 0 0 2.32 a 1.66 1.66 0 0 0 1.17 0.47 a 1.64 1.64 0 0 0 1.16 -0.47 L 58.26 47.87 a 4.65 4.65 0 0 1 6.57 0 a 4.65 4.65 0 0 1 0 6.57 l -11.12 11 a 1.65 1.65 0 0 0 2.34 2.33 l 13.29 -13.3 a 1.51 1.51 0 0 1 2.13 0 a 1.5 1.5 0 0 1 0 2.12 l -13.3 13.3 A 4.62 4.62 0 0 1 54.88 71.29 Z" fill="#f6c" transform="scale(0.6) translate(-50 -50)"/><path d="M 43.81 29.28 a 4.15 4.15 0 0 1 2.94 7.08 l -11.12 11 A 2.14 2.14 0 0 0 35 48.91 a 2.14 2.14 0 0 0 3.66 1.52 L 49.75 39.36 a 4.14 4.14 0 0 1 5.86 5.86 L 44.49 56.27 a 2.13 2.13 0 0 0 -0.62 1.51 a 2.16 2.16 0 0 0 3.67 1.52 L 58.61 48.22 a 4.15 4.15 0 0 1 5.87 5.86 l -11.12 11 a 2.15 2.15 0 0 0 0 3 a 2.17 2.17 0 0 0 3 0 l 13.3 -13.3 a 1 1 0 1 1 1.41 1.42 L 57.81 69.57 a 4.13 4.13 0 0 1 -5.86 0 a 4.14 4.14 0 0 1 0 -5.86 l 11.12 -11 a 2.15 2.15 0 0 0 -3 -3 L 49 60.71 a 4.15 4.15 0 0 1 -5.87 -5.86 L 54.2 43.8 a 2.15 2.15 0 0 0 -3 -3 L 40.09 51.85 A 4.15 4.15 0 0 1 34.22 46 l 11.12 -11 a 2.15 2.15 0 0 0 -1.53 -3.66 a 2.09 2.09 0 0 0 -1.51 0.63 L 28.93 45.28 a 1 1 0 0 1 -1.42 0 a 1 1 0 0 1 0 -1.42 L 40.88 30.5 a 4.1 4.1 0 0 1 2.93 -1.22 m 0 -1 a 5.18 5.18 0 0 0 -3.64 1.51 L 26.81 43.16 a 2 2 0 0 0 1.41 3.41 A 2 2 0 0 0 29.64 46 L 43 32.62 a 1.14 1.14 0 0 1 0.81 -0.34 A 1.16 1.16 0 0 1 45 33.43 a 1.14 1.14 0 0 1 -0.33 0.8 L 33.52 45.28 a 5.14 5.14 0 1 0 7.27 7.27 L 51.87 41.48 a 1.13 1.13 0 0 1 0.81 -0.33 a 1.14 1.14 0 0 1 0.81 2 l -11.11 11 a 5.15 5.15 0 1 0 7.28 7.28 L 60.73 50.34 a 1.17 1.17 0 0 1 0.81 -0.32 A 1.14 1.14 0 0 1 62.36 52 L 51.24 63 a 5.15 5.15 0 0 0 3.64 8.79 a 5.11 5.11 0 0 0 3.64 -1.51 L 71.82 57 a 2 2 0 0 0 0 -2.83 a 2 2 0 0 0 -2.83 0 l -13.3 13.3 a 1.12 1.12 0 0 1 -0.81 0.33 a 1.15 1.15 0 0 1 -0.81 -0.33 a 1.13 1.13 0 0 1 0 -1.61 L 65.18 54.79 a 5.14 5.14 0 0 0 0 -7.27 a 5.14 5.14 0 0 0 -7.28 0 L 46.83 58.59 a 1.12 1.12 0 0 1 -0.81 0.32 a 1.11 1.11 0 0 1 -0.81 -0.32 a 1.15 1.15 0 0 1 0 -1.62 l 11.12 -11 A 5.15 5.15 0 0 0 49 38.65 L 38 49.73 a 1.15 1.15 0 0 1 -2 -0.82 a 1.14 1.14 0 0 1 0.33 -0.8 l 11.11 -11 a 5.14 5.14 0 0 0 0 -7.28 a 5.14 5.14 0 0 0 -3.64 -1.51 Z" fill="#f6c" transform="scale(0.6) translate(-50 -50)"/></g><g transform="translate(1405.6064506349271, -322.6601690534703)"><path d="M54.88 71.29 a 4.58 4.58 0 0 1 -3.28 -1.36 a 4.65 4.65 0 0 1 0 -6.57 l 11.11 -11 A 1.65 1.65 0 0 0 60.38 50 L 49.3 61.06 a 4.65 4.65 0 0 1 -7.93 -3.28 a 4.66 4.66 0 0 1 1.36 -3.29 l 11.12 -11 a 1.65 1.65 0 0 0 -1.17 -2.8 a 1.67 1.67 0 0 0 -1.17 0.48 L 40.44 52.2 a 4.65 4.65 0 0 1 -6.57 -6.57 L 45 34.59 a 1.63 1.63 0 0 0 0.48 -1.16 A 1.67 1.67 0 0 0 45 32.26 a 1.65 1.65 0 0 0 -1.17 -0.48 a 1.63 1.63 0 0 0 -1.16 0.48 L 29.28 45.63 a 1.5 1.5 0 1 1 -2.12 -2.12 L 40.53 30.14 a 4.65 4.65 0 0 1 7.93 3.29 a 4.58 4.58 0 0 1 -1.36 3.28 L 36 47.75 a 1.65 1.65 0 0 0 0 2.33 a 1.65 1.65 0 0 0 2.33 0 L 49.39 39 A 4.65 4.65 0 0 1 56 39 a 4.65 4.65 0 0 1 0 6.57 l -11.11 11 a 1.64 1.64 0 0 0 0 2.32 a 1.66 1.66 0 0 0 1.17 0.47 a 1.64 1.64 0 0 0 1.16 -0.47 L 58.26 47.87 a 4.65 4.65 0 0 1 6.57 0 a 4.65 4.65 0 0 1 0 6.57 l -11.12 11 a 1.65 1.65 0 0 0 2.34 2.33 l 13.29 -13.3 a 1.51 1.51 0 0 1 2.13 0 a 1.5 1.5 0 0 1 0 2.12 l -13.3 13.3 A 4.62 4.62 0 0 1 54.88 71.29 Z" fill="#f6c" transform="scale(0.6) translate(-50 -50)"/><path d="M 43.81 29.28 a 4.15 4.15 0 0 1 2.94 7.08 l -11.12 11 A 2.14 2.14 0 0 0 35 48.91 a 2.14 2.14 0 0 0 3.66 1.52 L 49.75 39.36 a 4.14 4.14 0 0 1 5.86 5.86 L 44.49 56.27 a 2.13 2.13 0 0 0 -0.62 1.51 a 2.16 2.16 0 0 0 3.67 1.52 L 58.61 48.22 a 4.15 4.15 0 0 1 5.87 5.86 l -11.12 11 a 2.15 2.15 0 0 0 0 3 a 2.17 2.17 0 0 0 3 0 l 13.3 -13.3 a 1 1 0 1 1 1.41 1.42 L 57.81 69.57 a 4.13 4.13 0 0 1 -5.86 0 a 4.14 4.14 0 0 1 0 -5.86 l 11.12 -11 a 2.15 2.15 0 0 0 -3 -3 L 49 60.71 a 4.15 4.15 0 0 1 -5.87 -5.86 L 54.2 43.8 a 2.15 2.15 0 0 0 -3 -3 L 40.09 51.85 A 4.15 4.15 0 0 1 34.22 46 l 11.12 -11 a 2.15 2.15 0 0 0 -1.53 -3.66 a 2.09 2.09 0 0 0 -1.51 0.63 L 28.93 45.28 a 1 1 0 0 1 -1.42 0 a 1 1 0 0 1 0 -1.42 L 40.88 30.5 a 4.1 4.1 0 0 1 2.93 -1.22 m 0 -1 a 5.18 5.18 0 0 0 -3.64 1.51 L 26.81 43.16 a 2 2 0 0 0 1.41 3.41 A 2 2 0 0 0 29.64 46 L 43 32.62 a 1.14 1.14 0 0 1 0.81 -0.34 A 1.16 1.16 0 0 1 45 33.43 a 1.14 1.14 0 0 1 -0.33 0.8 L 33.52 45.28 a 5.14 5.14 0 1 0 7.27 7.27 L 51.87 41.48 a 1.13 1.13 0 0 1 0.81 -0.33 a 1.14 1.14 0 0 1 0.81 2 l -11.11 11 a 5.15 5.15 0 1 0 7.28 7.28 L 60.73 50.34 a 1.17 1.17 0 0 1 0.81 -0.32 A 1.14 1.14 0 0 1 62.36 52 L 51.24 63 a 5.15 5.15 0 0 0 3.64 8.79 a 5.11 5.11 0 0 0 3.64 -1.51 L 71.82 57 a 2 2 0 0 0 0 -2.83 a 2 2 0 0 0 -2.83 0 l -13.3 13.3 a 1.12 1.12 0 0 1 -0.81 0.33 a 1.15 1.15 0 0 1 -0.81 -0.33 a 1.13 1.13 0 0 1 0 -1.61 L 65.18 54.79 a 5.14 5.14 0 0 0 0 -7.27 a 5.14 5.14 0 0 0 -7.28 0 L 46.83 58.59 a 1.12 1.12 0 0 1 -0.81 0.32 a 1.11 1.11 0 0 1 -0.81 -0.32 a 1.15 1.15 0 0 1 0 -1.62 l 11.12 -11 A 5.15 5.15 0 0 0 49 38.65 L 38 49.73 a 1.15 1.15 0 0 1 -2 -0.82 a 1.14 1.14 0 0 1 0.33 -0.8 l 11.11 -11 a 5.14 5.14 0 0 0 0 -7.28 a 5.14 5.14 0 0 0 -3.64 -1.51 Z" fill="#f6c" transform="scale(0.6) translate(-50 -50)"/></g><g transform="translate(1097.5598624558222, -261.0508514176493)"><path d="M54.88 71.29 a 4.58 4.58 0 0 1 -3.28 -1.36 a 4.65 4.65 0 0 1 0 -6.57 l 11.11 -11 A 1.65 1.65 0 0 0 60.38 50 L 49.3 61.06 a 4.65 4.65 0 0 1 -7.93 -3.28 a 4.66 4.66 0 0 1 1.36 -3.29 l 11.12 -11 a 1.65 1.65 0 0 0 -1.17 -2.8 a 1.67 1.67 0 0 0 -1.17 0.48 L 40.44 52.2 a 4.65 4.65 0 0 1 -6.57 -6.57 L 45 34.59 a 1.63 1.63 0 0 0 0.48 -1.16 A 1.67 1.67 0 0 0 45 32.26 a 1.65 1.65 0 0 0 -1.17 -0.48 a 1.63 1.63 0 0 0 -1.16 0.48 L 29.28 45.63 a 1.5 1.5 0 1 1 -2.12 -2.12 L 40.53 30.14 a 4.65 4.65 0 0 1 7.93 3.29 a 4.58 4.58 0 0 1 -1.36 3.28 L 36 47.75 a 1.65 1.65 0 0 0 0 2.33 a 1.65 1.65 0 0 0 2.33 0 L 49.39 39 A 4.65 4.65 0 0 1 56 39 a 4.65 4.65 0 0 1 0 6.57 l -11.11 11 a 1.64 1.64 0 0 0 0 2.32 a 1.66 1.66 0 0 0 1.17 0.47 a 1.64 1.64 0 0 0 1.16 -0.47 L 58.26 47.87 a 4.65 4.65 0 0 1 6.57 0 a 4.65 4.65 0 0 1 0 6.57 l -11.12 11 a 1.65 1.65 0 0 0 2.34 2.33 l 13.29 -13.3 a 1.51 1.51 0 0 1 2.13 0 a 1.5 1.5 0 0 1 0 2.12 l -13.3 13.3 A 4.62 4.62 0 0 1 54.88 71.29 Z" fill="#ff9900" transform="scale(0.6) translate(-50 -50)"/><path d="M 43.81 29.28 a 4.15 4.15 0 0 1 2.94 7.08 l -11.12 11 A 2.14 2.14 0 0 0 35 48.91 a 2.14 2.14 0 0 0 3.66 1.52 L 49.75 39.36 a 4.14 4.14 0 0 1 5.86 5.86 L 44.49 56.27 a 2.13 2.13 0 0 0 -0.62 1.51 a 2.16 2.16 0 0 0 3.67 1.52 L 58.61 48.22 a 4.15 4.15 0 0 1 5.87 5.86 l -11.12 11 a 2.15 2.15 0 0 0 0 3 a 2.17 2.17 0 0 0 3 0 l 13.3 -13.3 a 1 1 0 1 1 1.41 1.42 L 57.81 69.57 a 4.13 4.13 0 0 1 -5.86 0 a 4.14 4.14 0 0 1 0 -5.86 l 11.12 -11 a 2.15 2.15 0 0 0 -3 -3 L 49 60.71 a 4.15 4.15 0 0 1 -5.87 -5.86 L 54.2 43.8 a 2.15 2.15 0 0 0 -3 -3 L 40.09 51.85 A 4.15 4.15 0 0 1 34.22 46 l 11.12 -11 a 2.15 2.15 0 0 0 -1.53 -3.66 a 2.09 2.09 0 0 0 -1.51 0.63 L 28.93 45.28 a 1 1 0 0 1 -1.42 0 a 1 1 0 0 1 0 -1.42 L 40.88 30.5 a 4.1 4.1 0 0 1 2.93 -1.22 m 0 -1 a 5.18 5.18 0 0 0 -3.64 1.51 L 26.81 43.16 a 2 2 0 0 0 1.41 3.41 A 2 2 0 0 0 29.64 46 L 43 32.62 a 1.14 1.14 0 0 1 0.81 -0.34 A 1.16 1.16 0 0 1 45 33.43 a 1.14 1.14 0 0 1 -0.33 0.8 L 33.52 45.28 a 5.14 5.14 0 1 0 7.27 7.27 L 51.87 41.48 a 1.13 1.13 0 0 1 0.81 -0.33 a 1.14 1.14 0 0 1 0.81 2 l -11.11 11 a 5.15 5.15 0 1 0 7.28 7.28 L 60.73 50.34 a 1.17 1.17 0 0 1 0.81 -0.32 A 1.14 1.14 0 0 1 62.36 52 L 51.24 63 a 5.15 5.15 0 0 0 3.64 8.79 a 5.11 5.11 0 0 0 3.64 -1.51 L 71.82 57 a 2 2 0 0 0 0 -2.83 a 2 2 0 0 0 -2.83 0 l -13.3 13.3 a 1.12 1.12 0 0 1 -0.81 0.33 a 1.15 1.15 0 0 1 -0.81 -0.33 a 1.13 1.13 0 0 1 0 -1.61 L 65.18 54.79 a 5.14 5.14 0 0 0 0 -7.27 a 5.14 5.14 0 0 0 -7.28 0 L 46.83 58.59 a 1.12 1.12 0 0 1 -0.81 0.32 a 1.11 1.11 0 0 1 -0.81 -0.32 a 1.15 1.15 0 0 1 0 -1.62 l 11.12 -11 A 5.15 5.15 0 0 0 49 38.65 L 38 49.73 a 1.15 1.15 0 0 1 -2 -0.82 a 1.14 1.14 0 0 1 0.33 -0.8 l 11.11 -11 a 5.14 5.14 0 0 0 0 -7.28 a 5.14 5.14 0 0 0 -3.64 -1.51 Z" fill="#ff9900" transform="scale(0.6) translate(-50 -50)"/></g><g transform="translate(1409.457032987166, -257.2002690654105)"><path d="M54.88 71.29 a 4.58 4.58 0 0 1 -3.28 -1.36 a 4.65 4.65 0 0 1 0 -6.57 l 11.11 -11 A 1.65 1.65 0 0 0 60.38 50 L 49.3 61.06 a 4.65 4.65 0 0 1 -7.93 -3.28 a 4.66 4.66 0 0 1 1.36 -3.29 l 11.12 -11 a 1.65 1.65 0 0 0 -1.17 -2.8 a 1.67 1.67 0 0 0 -1.17 0.48 L 40.44 52.2 a 4.65 4.65 0 0 1 -6.57 -6.57 L 45 34.59 a 1.63 1.63 0 0 0 0.48 -1.16 A 1.67 1.67 0 0 0 45 32.26 a 1.65 1.65 0 0 0 -1.17 -0.48 a 1.63 1.63 0 0 0 -1.16 0.48 L 29.28 45.63 a 1.5 1.5 0 1 1 -2.12 -2.12 L 40.53 30.14 a 4.65 4.65 0 0 1 7.93 3.29 a 4.58 4.58 0 0 1 -1.36 3.28 L 36 47.75 a 1.65 1.65 0 0 0 0 2.33 a 1.65 1.65 0 0 0 2.33 0 L 49.39 39 A 4.65 4.65 0 0 1 56 39 a 4.65 4.65 0 0 1 0 6.57 l -11.11 11 a 1.64 1.64 0 0 0 0 2.32 a 1.66 1.66 0 0 0 1.17 0.47 a 1.64 1.64 0 0 0 1.16 -0.47 L 58.26 47.87 a 4.65 4.65 0 0 1 6.57 0 a 4.65 4.65 0 0 1 0 6.57 l -11.12 11 a 1.65 1.65 0 0 0 2.34 2.33 l 13.29 -13.3 a 1.51 1.51 0 0 1 2.13 0 a 1.5 1.5 0 0 1 0 2.12 l -13.3 13.3 A 4.62 4.62 0 0 1 54.88 71.29 Z" fill="#ff9900" transform="scale(0.6) translate(-50 -50)"/><path d="M 43.81 29.28 a 4.15 4.15 0 0 1 2.94 7.08 l -11.12 11 A 2.14 2.14 0 0 0 35 48.91 a 2.14 2.14 0 0 0 3.66 1.52 L 49.75 39.36 a 4.14 4.14 0 0 1 5.86 5.86 L 44.49 56.27 a 2.13 2.13 0 0 0 -0.62 1.51 a 2.16 2.16 0 0 0 3.67 1.52 L 58.61 48.22 a 4.15 4.15 0 0 1 5.87 5.86 l -11.12 11 a 2.15 2.15 0 0 0 0 3 a 2.17 2.17 0 0 0 3 0 l 13.3 -13.3 a 1 1 0 1 1 1.41 1.42 L 57.81 69.57 a 4.13 4.13 0 0 1 -5.86 0 a 4.14 4.14 0 0 1 0 -5.86 l 11.12 -11 a 2.15 2.15 0 0 0 -3 -3 L 49 60.71 a 4.15 4.15 0 0 1 -5.87 -5.86 L 54.2 43.8 a 2.15 2.15 0 0 0 -3 -3 L 40.09 51.85 A 4.15 4.15 0 0 1 34.22 46 l 11.12 -11 a 2.15 2.15 0 0 0 -1.53 -3.66 a 2.09 2.09 0 0 0 -1.51 0.63 L 28.93 45.28 a 1 1 0 0 1 -1.42 0 a 1 1 0 0 1 0 -1.42 L 40.88 30.5 a 4.1 4.1 0 0 1 2.93 -1.22 m 0 -1 a 5.18 5.18 0 0 0 -3.64 1.51 L 26.81 43.16 a 2 2 0 0 0 1.41 3.41 A 2 2 0 0 0 29.64 46 L 43 32.62 a 1.14 1.14 0 0 1 0.81 -0.34 A 1.16 1.16 0 0 1 45 33.43 a 1.14 1.14 0 0 1 -0.33 0.8 L 33.52 45.28 a 5.14 5.14 0 1 0 7.27 7.27 L 51.87 41.48 a 1.13 1.13 0 0 1 0.81 -0.33 a 1.14 1.14 0 0 1 0.81 2 l -11.11 11 a 5.15 5.15 0 1 0 7.28 7.28 L 60.73 50.34 a 1.17 1.17 0 0 1 0.81 -0.32 A 1.14 1.14 0 0 1 62.36 52 L 51.24 63 a 5.15 5.15 0 0 0 3.64 8.79 a 5.11 5.11 0 0 0 3.64 -1.51 L 71.82 57 a 2 2 0 0 0 0 -2.83 a 2 2 0 0 0 -2.83 0 l -13.3 13.3 a 1.12 1.12 0 0 1 -0.81 0.33 a 1.15 1.15 0 0 1 -0.81 -0.33 a 1.13 1.13 0 0 1 0 -1.61 L 65.18 54.79 a 5.14 5.14 0 0 0 0 -7.27 a 5.14 5.14 0 0 0 -7.28 0 L 46.83 58.59 a 1.12 1.12 0 0 1 -0.81 0.32 a 1.11 1.11 0 0 1 -0.81 -0.32 a 1.15 1.15 0 0 1 0 -1.62 l 11.12 -11 A 5.15 5.15 0 0 0 49 38.65 L 38 49.73 a 1.15 1.15 0 0 1 -2 -0.82 a 1.14 1.14 0 0 1 0.33 -0.8 l 11.11 -11 a 5.14 5.14 0 0 0 0 -7.28 a 5.14 5.14 0 0 0 -3.64 -1.51 Z" fill="#ff9900" transform="scale(0.6) translate(-50 -50)"/></g><g transform="translate(1052.9850746268658, 121.19402985074626)"><path d="M54.88 71.29 a 4.58 4.58 0 0 1 -3.28 -1.36 a 4.65 4.65 0 0 1 0 -6.57 l 11.11 -11 A 1.65 1.65 0 0 0 60.38 50 L 49.3 61.06 a 4.65 4.65 0 0 1 -7.93 -3.28 a 4.66 4.66 0 0 1 1.36 -3.29 l 11.12 -11 a 1.65 1.65 0 0 0 -1.17 -2.8 a 1.67 1.67 0 0 0 -1.17 0.48 L 40.44 52.2 a 4.65 4.65 0 0 1 -6.57 -6.57 L 45 34.59 a 1.63 1.63 0 0 0 0.48 -1.16 A 1.67 1.67 0 0 0 45 32.26 a 1.65 1.65 0 0 0 -1.17 -0.48 a 1.63 1.63 0 0 0 -1.16 0.48 L 29.28 45.63 a 1.5 1.5 0 1 1 -2.12 -2.12 L 40.53 30.14 a 4.65 4.65 0 0 1 7.93 3.29 a 4.58 4.58 0 0 1 -1.36 3.28 L 36 47.75 a 1.65 1.65 0 0 0 0 2.33 a 1.65 1.65 0 0 0 2.33 0 L 49.39 39 A 4.65 4.65 0 0 1 56 39 a 4.65 4.65 0 0 1 0 6.57 l -11.11 11 a 1.64 1.64 0 0 0 0 2.32 a 1.66 1.66 0 0 0 1.17 0.47 a 1.64 1.64 0 0 0 1.16 -0.47 L 58.26 47.87 a 4.65 4.65 0 0 1 6.57 0 a 4.65 4.65 0 0 1 0 6.57 l -11.12 11 a 1.65 1.65 0 0 0 2.34 2.33 l 13.29 -13.3 a 1.51 1.51 0 0 1 2.13 0 a 1.5 1.5 0 0 1 0 2.12 l -13.3 13.3 A 4.62 4.62 0 0 1 54.88 71.29 Z" fill="#33cc00" transform="scale(0.6) translate(-50 -50)"/><path d="M 43.81 29.28 a 4.15 4.15 0 0 1 2.94 7.08 l -11.12 11 A 2.14 2.14 0 0 0 35 48.91 a 2.14 2.14 0 0 0 3.66 1.52 L 49.75 39.36 a 4.14 4.14 0 0 1 5.86 5.86 L 44.49 56.27 a 2.13 2.13 0 0 0 -0.62 1.51 a 2.16 2.16 0 0 0 3.67 1.52 L 58.61 48.22 a 4.15 4.15 0 0 1 5.87 5.86 l -11.12 11 a 2.15 2.15 0 0 0 0 3 a 2.17 2.17 0 0 0 3 0 l 13.3 -13.3 a 1 1 0 1 1 1.41 1.42 L 57.81 69.57 a 4.13 4.13 0 0 1 -5.86 0 a 4.14 4.14 0 0 1 0 -5.86 l 11.12 -11 a 2.15 2.15 0 0 0 -3 -3 L 49 60.71 a 4.15 4.15 0 0 1 -5.87 -5.86 L 54.2 43.8 a 2.15 2.15 0 0 0 -3 -3 L 40.09 51.85 A 4.15 4.15 0 0 1 34.22 46 l 11.12 -11 a 2.15 2.15 0 0 0 -1.53 -3.66 a 2.09 2.09 0 0 0 -1.51 0.63 L 28.93 45.28 a 1 1 0 0 1 -1.42 0 a 1 1 0 0 1 0 -1.42 L 40.88 30.5 a 4.1 4.1 0 0 1 2.93 -1.22 m 0 -1 a 5.18 5.18 0 0 0 -3.64 1.51 L 26.81 43.16 a 2 2 0 0 0 1.41 3.41 A 2 2 0 0 0 29.64 46 L 43 32.62 a 1.14 1.14 0 0 1 0.81 -0.34 A 1.16 1.16 0 0 1 45 33.43 a 1.14 1.14 0 0 1 -0.33 0.8 L 33.52 45.28 a 5.14 5.14 0 1 0 7.27 7.27 L 51.87 41.48 a 1.13 1.13 0 0 1 0.81 -0.33 a 1.14 1.14 0 0 1 0.81 2 l -11.11 11 a 5.15 5.15 0 1 0 7.28 7.28 L 60.73 50.34 a 1.17 1.17 0 0 1 0.81 -0.32 A 1.14 1.14 0 0 1 62.36 52 L 51.24 63 a 5.15 5.15 0 0 0 3.64 8.79 a 5.11 5.11 0 0 0 3.64 -1.51 L 71.82 57 a 2 2 0 0 0 0 -2.83 a 2 2 0 0 0 -2.83 0 l -13.3 13.3 a 1.12 1.12 0 0 1 -0.81 0.33 a 1.15 1.15 0 0 1 -0.81 -0.33 a 1.13 1.13 0 0 1 0 -1.61 L 65.18 54.79 a 5.14 5.14 0 0 0 0 -7.27 a 5.14 5.14 0 0 0 -7.28 0 L 46.83 58.59 a 1.12 1.12 0 0 1 -0.81 0.32 a 1.11 1.11 0 0 1 -0.81 -0.32 a 1.15 1.15 0 0 1 0 -1.62 l 11.12 -11 A 5.15 5.15 0 0 0 49 38.65 L 38 49.73 a 1.15 1.15 0 0 1 -2 -0.82 a 1.14 1.14 0 0 1 0.33 -0.8 l 11.11 -11 a 5.14 5.14 0 0 0 0 -7.28 a 5.14 5.14 0 0 0 -3.64 -1.51 Z" fill="#33cc00" transform="scale(0.6) translate(-50 -50)"/></g><g transform="translate(1180.6726974860778, 189.68753386051424)"><path d="M54.88 71.29 a 4.58 4.58 0 0 1 -3.28 -1.36 a 4.65 4.65 0 0 1 0 -6.57 l 11.11 -11 A 1.65 1.65 0 0 0 60.38 50 L 49.3 61.06 a 4.65 4.65 0 0 1 -7.93 -3.28 a 4.66 4.66 0 0 1 1.36 -3.29 l 11.12 -11 a 1.65 1.65 0 0 0 -1.17 -2.8 a 1.67 1.67 0 0 0 -1.17 0.48 L 40.44 52.2 a 4.65 4.65 0 0 1 -6.57 -6.57 L 45 34.59 a 1.63 1.63 0 0 0 0.48 -1.16 A 1.67 1.67 0 0 0 45 32.26 a 1.65 1.65 0 0 0 -1.17 -0.48 a 1.63 1.63 0 0 0 -1.16 0.48 L 29.28 45.63 a 1.5 1.5 0 1 1 -2.12 -2.12 L 40.53 30.14 a 4.65 4.65 0 0 1 7.93 3.29 a 4.58 4.58 0 0 1 -1.36 3.28 L 36 47.75 a 1.65 1.65 0 0 0 0 2.33 a 1.65 1.65 0 0 0 2.33 0 L 49.39 39 A 4.65 4.65 0 0 1 56 39 a 4.65 4.65 0 0 1 0 6.57 l -11.11 11 a 1.64 1.64 0 0 0 0 2.32 a 1.66 1.66 0 0 0 1.17 0.47 a 1.64 1.64 0 0 0 1.16 -0.47 L 58.26 47.87 a 4.65 4.65 0 0 1 6.57 0 a 4.65 4.65 0 0 1 0 6.57 l -11.12 11 a 1.65 1.65 0 0 0 2.34 2.33 l 13.29 -13.3 a 1.51 1.51 0 0 1 2.13 0 a 1.5 1.5 0 0 1 0 2.12 l -13.3 13.3 A 4.62 4.62 0 0 1 54.88 71.29 Z" fill="#33cc00" transform="scale(0.6) translate(-50 -50)"/><path d="M 43.81 29.28 a 4.15 4.15 0 0 1 2.94 7.08 l -11.12 11 A 2.14 2.14 0 0 0 35 48.91 a 2.14 2.14 0 0 0 3.66 1.52 L 49.75 39.36 a 4.14 4.14 0 0 1 5.86 5.86 L 44.49 56.27 a 2.13 2.13 0 0 0 -0.62 1.51 a 2.16 2.16 0 0 0 3.67 1.52 L 58.61 48.22 a 4.15 4.15 0 0 1 5.87 5.86 l -11.12 11 a 2.15 2.15 0 0 0 0 3 a 2.17 2.17 0 0 0 3 0 l 13.3 -13.3 a 1 1 0 1 1 1.41 1.42 L 57.81 69.57 a 4.13 4.13 0 0 1 -5.86 0 a 4.14 4.14 0 0 1 0 -5.86 l 11.12 -11 a 2.15 2.15 0 0 0 -3 -3 L 49 60.71 a 4.15 4.15 0 0 1 -5.87 -5.86 L 54.2 43.8 a 2.15 2.15 0 0 0 -3 -3 L 40.09 51.85 A 4.15 4.15 0 0 1 34.22 46 l 11.12 -11 a 2.15 2.15 0 0 0 -1.53 -3.66 a 2.09 2.09 0 0 0 -1.51 0.63 L 28.93 45.28 a 1 1 0 0 1 -1.42 0 a 1 1 0 0 1 0 -1.42 L 40.88 30.5 a 4.1 4.1 0 0 1 2.93 -1.22 m 0 -1 a 5.18 5.18 0 0 0 -3.64 1.51 L 26.81 43.16 a 2 2 0 0 0 1.41 3.41 A 2 2 0 0 0 29.64 46 L 43 32.62 a 1.14 1.14 0 0 1 0.81 -0.34 A 1.16 1.16 0 0 1 45 33.43 a 1.14 1.14 0 0 1 -0.33 0.8 L 33.52 45.28 a 5.14 5.14 0 1 0 7.27 7.27 L 51.87 41.48 a 1.13 1.13 0 0 1 0.81 -0.33 a 1.14 1.14 0 0 1 0.81 2 l -11.11 11 a 5.15 5.15 0 1 0 7.28 7.28 L 60.73 50.34 a 1.17 1.17 0 0 1 0.81 -0.32 A 1.14 1.14 0 0 1 62.36 52 L 51.24 63 a 5.15 5.15 0 0 0 3.64 8.79 a 5.11 5.11 0 0 0 3.64 -1.51 L 71.82 57 a 2 2 0 0 0 0 -2.83 a 2 2 0 0 0 -2.83 0 l -13.3 13.3 a 1.12 1.12 0 0 1 -0.81 0.33 a 1.15 1.15 0 0 1 -0.81 -0.33 a 1.13 1.13 0 0 1 0 -1.61 L 65.18 54.79 a 5.14 5.14 0 0 0 0 -7.27 a 5.14 5.14 0 0 0 -7.28 0 L 46.83 58.59 a 1.12 1.12 0 0 1 -0.81 0.32 a 1.11 1.11 0 0 1 -0.81 -0.32 a 1.15 1.15 0 0 1 0 -1.62 l 11.12 -11 A 5.15 5.15 0 0 0 49 38.65 L 38 49.73 a 1.15 1.15 0 0 1 -2 -0.82 a 1.14 1.14 0 0 1 0.33 -0.8 l 11.11 -11 a 5.14 5.14 0 0 0 0 -7.28 a 5.14 5.14 0 0 0 -3.64 -1.51 Z" fill="#33cc00" transform="scale(0.6) translate(-50 -50)"/></g><g transform="translate(854.688632258, -538.8766077962291)"><path d="M54.88 71.29 a 4.58 4.58 0 0 1 -3.28 -1.36 a 4.65 4.65 0 0 1 0 -6.57 l 11.11 -11 A 1.65 1.65 0 0 0 60.38 50 L 49.3 61.06 a 4.65 4.65 0 0 1 -7.93 -3.28 a 4.66 4.66 0 0 1 1.36 -3.29 l 11.12 -11 a 1.65 1.65 0 0 0 -1.17 -2.8 a 1.67 1.67 0 0 0 -1.17 0.48 L 40.44 52.2 a 4.65 4.65 0 0 1 -6.57 -6.57 L 45 34.59 a 1.63 1.63 0 0 0 0.48 -1.16 A 1.67 1.67 0 0 0 45 32.26 a 1.65 1.65 0 0 0 -1.17 -0.48 a 1.63 1.63 0 0 0 -1.16 0.48 L 29.28 45.63 a 1.5 1.5 0 1 1 -2.12 -2.12 L 40.53 30.14 a 4.65 4.65 0 0 1 7.93 3.29 a 4.58 4.58 0 0 1 -1.36 3.28 L 36 47.75 a 1.65 1.65 0 0 0 0 2.33 a 1.65 1.65 0 0 0 2.33 0 L 49.39 39 A 4.65 4.65 0 0 1 56 39 a 4.65 4.65 0 0 1 0 6.57 l -11.11 11 a 1.64 1.64 0 0 0 0 2.32 a 1.66 1.66 0 0 0 1.17 0.47 a 1.64 1.64 0 0 0 1.16 -0.47 L 58.26 47.87 a 4.65 4.65 0 0 1 6.57 0 a 4.65 4.65 0 0 1 0 6.57 l -11.12 11 a 1.65 1.65 0 0 0 2.34 2.33 l 13.29 -13.3 a 1.51 1.51 0 0 1 2.13 0 a 1.5 1.5 0 0 1 0 2.12 l -13.3 13.3 A 4.62 4.62 0 0 1 54.88 71.29 Z" fill="#00cccc" transform="scale(0.6) translate(-50 -50)"/><path d="M 43.81 29.28 a 4.15 4.15 0 0 1 2.94 7.08 l -11.12 11 A 2.14 2.14 0 0 0 35 48.91 a 2.14 2.14 0 0 0 3.66 1.52 L 49.75 39.36 a 4.14 4.14 0 0 1 5.86 5.86 L 44.49 56.27 a 2.13 2.13 0 0 0 -0.62 1.51 a 2.16 2.16 0 0 0 3.67 1.52 L 58.61 48.22 a 4.15 4.15 0 0 1 5.87 5.86 l -11.12 11 a 2.15 2.15 0 0 0 0 3 a 2.17 2.17 0 0 0 3 0 l 13.3 -13.3 a 1 1 0 1 1 1.41 1.42 L 57.81 69.57 a 4.13 4.13 0 0 1 -5.86 0 a 4.14 4.14 0 0 1 0 -5.86 l 11.12 -11 a 2.15 2.15 0 0 0 -3 -3 L 49 60.71 a 4.15 4.15 0 0 1 -5.87 -5.86 L 54.2 43.8 a 2.15 2.15 0 0 0 -3 -3 L 40.09 51.85 A 4.15 4.15 0 0 1 34.22 46 l 11.12 -11 a 2.15 2.15 0 0 0 -1.53 -3.66 a 2.09 2.09 0 0 0 -1.51 0.63 L 28.93 45.28 a 1 1 0 0 1 -1.42 0 a 1 1 0 0 1 0 -1.42 L 40.88 30.5 a 4.1 4.1 0 0 1 2.93 -1.22 m 0 -1 a 5.18 5.18 0 0 0 -3.64 1.51 L 26.81 43.16 a 2 2 0 0 0 1.41 3.41 A 2 2 0 0 0 29.64 46 L 43 32.62 a 1.14 1.14 0 0 1 0.81 -0.34 A 1.16 1.16 0 0 1 45 33.43 a 1.14 1.14 0 0 1 -0.33 0.8 L 33.52 45.28 a 5.14 5.14 0 1 0 7.27 7.27 L 51.87 41.48 a 1.13 1.13 0 0 1 0.81 -0.33 a 1.14 1.14 0 0 1 0.81 2 l -11.11 11 a 5.15 5.15 0 1 0 7.28 7.28 L 60.73 50.34 a 1.17 1.17 0 0 1 0.81 -0.32 A 1.14 1.14 0 0 1 62.36 52 L 51.24 63 a 5.15 5.15 0 0 0 3.64 8.79 a 5.11 5.11 0 0 0 3.64 -1.51 L 71.82 57 a 2 2 0 0 0 0 -2.83 a 2 2 0 0 0 -2.83 0 l -13.3 13.3 a 1.12 1.12 0 0 1 -0.81 0.33 a 1.15 1.15 0 0 1 -0.81 -0.33 a 1.13 1.13 0 0 1 0 -1.61 L 65.18 54.79 a 5.14 5.14 0 0 0 0 -7.27 a 5.14 5.14 0 0 0 -7.28 0 L 46.83 58.59 a 1.12 1.12 0 0 1 -0.81 0.32 a 1.11 1.11 0 0 1 -0.81 -0.32 a 1.15 1.15 0 0 1 0 -1.62 l 11.12 -11 A 5.15 5.15 0 0 0 49 38.65 L 38 49.73 a 1.15 1.15 0 0 1 -2 -0.82 a 1.14 1.14 0 0 1 0.33 -0.8 l 11.11 -11 a 5.14 5.14 0 0 0 0 -7.28 a 5.14 5.14 0 0 0 -3.64 -1.51 Z" fill="#00cccc" transform="scale(0.6) translate(-50 -50)"/></g><path d="M 1699.7348405630194 -748.600019524572 C 1446.9504551693435 -758.6588760287657 1109.9290407503415 -758.0707060210536 857.1813045155141 -747.1295945052918" fill="none" stroke="#aaa" stroke-width="2" marker-end="url(#Inhibitor)" stroke-linecap="round" onmouseover="BMA.SVGHelper.Highlight(this, window.ElementRegistry.LineWidth + 1)" onmouseout="BMA.SVGHelper.UnHighlight(this, window.ElementRegistry.LineWidth + 1)" data-id="18" data-ishovered="false"/><path d="M 857.1970112978775 -738.1296082110252 C 1109.981396691553 -728.0707517068315 1447.0028111105553 -728.6589217145436 1699.7505473453828 -739.6000332303054" fill="none" stroke="#aaa" stroke-width="2" marker-end="url(#Inhibitor)" stroke-linecap="round" onmouseover="BMA.SVGHelper.Highlight(this, window.ElementRegistry.LineWidth + 1)" onmouseout="BMA.SVGHelper.UnHighlight(this, window.ElementRegistry.LineWidth + 1)" data-id="19" data-ishovered="false"/><path d="M 1063.2783365798978 -595.0626561837103 C 1052.5559022805653 -590.5841813878022 1052.2438389056529 -583.9546105212837 1062.498178142617 -578.4887290174141" fill="none" stroke="#aaa" stroke-width="2" marker-end="url(#Activator)" stroke-linecap="round" onmouseover="BMA.SVGHelper.Highlight(this, window.ElementRegistry.LineWidth + 1)" onmouseout="BMA.SVGHelper.UnHighlight(this, window.ElementRegistry.LineWidth + 1)" data-id="21" data-ishovered="false"/><path d="M 1071.4882239438869 -578.0655547140019 C 1082.2106582432193 -582.5440295099099 1082.5227216181318 -589.1736003764285 1072.2683823811676 -594.639481880298" fill="none" stroke="#aaa" stroke-width="2" marker-end="url(#Inhibitor)" stroke-linecap="round" onmouseover="BMA.SVGHelper.Highlight(this, window.ElementRegistry.LineWidth + 1)" onmouseout="BMA.SVGHelper.UnHighlight(this, window.ElementRegistry.LineWidth + 1)" data-id="22" data-ishovered="false"/><path d="M 1088.7359251944729 -619.2292182637985 C 1178.4731886398547 -629.2821175263997 1298.0531011243722 -628.6861570733488 1387.6857064057665 -617.7393171311714" fill="none" stroke="#aaa" stroke-width="2" marker-end="url(#Inhibitor)" stroke-linecap="round" onmouseover="BMA.SVGHelper.Highlight(this, window.ElementRegistry.LineWidth + 1)" onmouseout="BMA.SVGHelper.UnHighlight(this, window.ElementRegistry.LineWidth + 1)" data-id="23" data-ishovered="false"/><path d="M 1387.6408529069147 -608.7394289005522 C 1297.9035894615329 -598.686529637951 1178.3236769770153 -599.2824900910019 1088.691071695621 -610.2293300331793" fill="none" stroke="#aaa" stroke-width="2" marker-end="url(#Inhibitor)" stroke-linecap="round" onmouseover="BMA.SVGHelper.Highlight(this, window.ElementRegistry.LineWidth + 1)" onmouseout="BMA.SVGHelper.UnHighlight(this, window.ElementRegistry.LineWidth + 1)" data-id="24" data-ishovered="false"/><path d="M 1086.1105082273027 -562.5346950293936 C 1178.81174554184 -571.8110382035603 1302.2284730033125 -570.1807171171693 1394.652326880984 -558.458892313416" fill="none" stroke="#aaa" stroke-width="2" marker-end="url(#Inhibitor)" stroke-linecap="round" onmouseover="BMA.SVGHelper.Highlight(this, window.ElementRegistry.LineWidth + 1)" onmouseout="BMA.SVGHelper.UnHighlight(this, window.ElementRegistry.LineWidth + 1)" data-id="25" data-ishovered="false"/><path d="M 1394.5334482651845 -549.4596774657358 C 1301.832210950647 -540.183334291569 1178.4154834891747 -541.8136553779601 1085.9916296115032 -553.5354801817134" fill="none" stroke="#aaa" stroke-width="2" marker-end="url(#Inhibitor)" stroke-linecap="round" onmouseover="BMA.SVGHelper.Highlight(this, window.ElementRegistry.LineWidth + 1)" onmouseout="BMA.SVGHelper.UnHighlight(this, window.ElementRegistry.LineWidth + 1)" data-id="26" data-ishovered="false"/><path d="M 1414.448053000396 -593.7951003550104 C 1425.5667267703827 -589.0965651024665 1426.485750366065 -581.2111580500558 1416.7456119896015 -574.0815827239838" fill="none" stroke="#aaa" stroke-width="2" marker-end="url(#Activator)" stroke-linecap="round" onmouseover="BMA.SVGHelper.Highlight(this, window.ElementRegistry.LineWidth + 1)" onmouseout="BMA.SVGHelper.UnHighlight(this, window.ElementRegistry.LineWidth + 1)" data-id="27" data-ishovered="false"/><path d="M 1407.8061210696942 -573.0397084067575 C 1396.6874472997074 -577.7382436593015 1395.768423704025 -585.6236507117121 1405.5085620804887 -592.7532260377841" fill="none" stroke="#aaa" stroke-width="2" marker-end="url(#Inhibitor)" stroke-linecap="round" onmouseover="BMA.SVGHelper.Highlight(this, window.ElementRegistry.LineWidth + 1)" onmouseout="BMA.SVGHelper.UnHighlight(this, window.ElementRegistry.LineWidth + 1)" data-id="28" data-ishovered="false"/><path d="M 1089.1917102607395 -615.7792187514767 C 1182.9656398771626 -609.8674260038649 1305.5608153921346 -588.1987256602704 1395.6796490481695 -561.6074678924906" fill="none" stroke="#aaa" stroke-width="2" marker-end="url(#Inhibitor)" stroke-linecap="round" onmouseover="BMA.SVGHelper.Highlight(this, window.ElementRegistry.LineWidth + 1)" onmouseout="BMA.SVGHelper.UnHighlight(this, window.ElementRegistry.LineWidth + 1)" data-id="29" data-ishovered="false"/><path d="M 1394.11317935086 -552.7448400267042 C 1300.3392497344369 -558.656632774316 1177.744074219465 -580.3253331179105 1087.62524056343 -606.9165908856903" fill="none" stroke="#aaa" stroke-width="2" marker-end="url(#Inhibitor)" stroke-linecap="round" onmouseover="BMA.SVGHelper.Highlight(this, window.ElementRegistry.LineWidth + 1)" onmouseout="BMA.SVGHelper.UnHighlight(this, window.ElementRegistry.LineWidth + 1)" data-id="30" data-ishovered="false"/><path d="M 1387.2025944579443 -614.4126970237558 C 1294.903516782958 -610.2298936150555 1174.057158892721 -590.8298094052516 1085.086699732352 -565.9124864992459" fill="none" stroke="#aaa" stroke-width="2" marker-end="url(#Inhibitor)" stroke-linecap="round" onmouseover="BMA.SVGHelper.Highlight(this, window.ElementRegistry.LineWidth + 1)" onmouseout="BMA.SVGHelper.UnHighlight(this, window.ElementRegistry.LineWidth + 1)" data-id="31" data-ishovered="false"/><path d="M 1086.513250524331 -557.0262638575434 C 1178.8123281993176 -561.2090672662437 1299.6586860895545 -580.6091514760476 1388.6291452499233 -605.5264743820533" fill="none" stroke="#aaa" stroke-width="2" marker-end="url(#Inhibitor)" stroke-linecap="round" onmouseover="BMA.SVGHelper.Highlight(this, window.ElementRegistry.LineWidth + 1)" onmouseout="BMA.SVGHelper.UnHighlight(this, window.ElementRegistry.LineWidth + 1)" data-id="32" data-ishovered="false"/><path d="M 621.119219387943 -452.916213852154 C 1001.3010521130223 -444.7487876908996 1508.1242609223693 -447.8586226020043 1888.1772414113104 -460.69080112991577" fill="none" stroke="#aaa" stroke-width="2" marker-end="url(#Inhibitor)" stroke-linecap="round" onmouseover="BMA.SVGHelper.Highlight(this, window.ElementRegistry.LineWidth + 1)" onmouseout="BMA.SVGHelper.UnHighlight(this, window.ElementRegistry.LineWidth + 1)" data-id="34" data-ishovered="false"/><path d="M 1888.1220190243941 -469.6906317109869 C 1507.9401862993147 -477.8580578722414 1001.1169774899679 -474.74822296113666 621.0639970010267 -461.9160444332251" fill="none" stroke="#aaa" stroke-width="2" marker-end="url(#Inhibitor)" stroke-linecap="round" onmouseover="BMA.SVGHelper.Highlight(this, window.ElementRegistry.LineWidth + 1)" onmouseout="BMA.SVGHelper.UnHighlight(this, window.ElementRegistry.LineWidth + 1)" data-id="35" data-ishovered="false"/><path d="M 595.202958626427 -437.65749227197495 C 584.0285240717459 -428.4147684529664 583.0949326542435 -415.11109075355813 592.8689800826711 -404.39829802345423" fill="none" stroke="#aaa" stroke-width="2" marker-end="url(#Activator)" stroke-linecap="round" onmouseover="BMA.SVGHelper.Highlight(this, window.ElementRegistry.LineWidth + 1)" onmouseout="BMA.SVGHelper.UnHighlight(this, window.ElementRegistry.LineWidth + 1)" data-id="36" data-ishovered="false"/><path d="M 1898.212460334392 -447.3827290853737 C 1886.3477936448298 -444.2251342818005 1883.9645617568628 -436.0824253312462 1892.2543806144745 -427.0259567089881" fill="none" stroke="#aaa" stroke-width="2" marker-end="url(#Activator)" stroke-linecap="round" onmouseover="BMA.SVGHelper.Highlight(this, window.ElementRegistry.LineWidth + 1)" onmouseout="BMA.SVGHelper.UnHighlight(this, window.ElementRegistry.LineWidth + 1)" data-id="38" data-ishovered="false"/><path d="M 1900.8920172775488 -424.4978679295518 C 1912.756683967111 -427.655462733125 1915.139915855078 -435.79817168367924 1906.8500969974664 -444.8546403059374" fill="none" stroke="#aaa" stroke-width="2" marker-end="url(#Inhibitor)" stroke-linecap="round" onmouseover="BMA.SVGHelper.Highlight(this, window.ElementRegistry.LineWidth + 1)" onmouseout="BMA.SVGHelper.UnHighlight(this, window.ElementRegistry.LineWidth + 1)" data-id="39" data-ishovered="false"/><path d="M 1870.880277206472 -410.7200566688078 C 1494.1973951439327 -414.69589592920835 992.1960550550417 -405.9991153699495 615.8769269842442 -388.9781052706606" fill="none" stroke="#aaa" stroke-width="2" marker-end="url(#Inhibitor)" stroke-linecap="round" onmouseover="BMA.SVGHelper.Highlight(this, window.ElementRegistry.LineWidth + 1)" onmouseout="BMA.SVGHelper.UnHighlight(this, window.ElementRegistry.LineWidth + 1)" data-id="40" data-ishovered="false"/><path d="M 616.0328215521336 -379.97945554507936 C 992.7157036146729 -376.0036162846788 1494.7170437035638 -384.70039684393765 1871.0361717743615 -401.72140694322655" fill="none" stroke="#aaa" stroke-width="2" marker-end="url(#Inhibitor)" stroke-linecap="round" onmouseover="BMA.SVGHelper.Highlight(this, window.ElementRegistry.LineWidth + 1)" onmouseout="BMA.SVGHelper.UnHighlight(this, window.ElementRegistry.LineWidth + 1)" data-id="41" data-ishovered="false"/><path d="M 621.2533706907873 -461.00400758045157 C 996.6342242005446 -456.7495803655276 1496.5918783513928 -437.08782440775974 1871.1475060679074 -411.84961768603176" fill="none" stroke="#aaa" stroke-width="2" marker-end="url(#Inhibitor)" stroke-linecap="round" onmouseover="BMA.SVGHelper.Highlight(this, window.ElementRegistry.LineWidth + 1)" onmouseout="BMA.SVGHelper.UnHighlight(this, window.ElementRegistry.LineWidth + 1)" data-id="42" data-ishovered="false"/><path d="M 1870.7938378708034 -402.8565693259729 C 1495.412984361046 -407.11099654089685 995.4553302101979 -426.7727524986647 620.8997024936832 -452.0109592203927" fill="none" stroke="#aaa" stroke-width="2" marker-end="url(#Inhibitor)" stroke-linecap="round" onmouseover="BMA.SVGHelper.Highlight(this, window.ElementRegistry.LineWidth + 1)" onmouseout="BMA.SVGHelper.UnHighlight(this, window.ElementRegistry.LineWidth + 1)" data-id="43" data-ishovered="false"/><path d="M 616.1975787357494 -380.875910141786 C 998.5262534926883 -394.0092875402926 1507.4333374248067 -425.4937415630317 1888.4652885660455 -459.58704519863375" fill="none" stroke="#aaa" stroke-width="2" marker-end="url(#Inhibitor)" stroke-linecap="round" onmouseover="BMA.SVGHelper.Highlight(this, window.ElementRegistry.LineWidth + 1)" onmouseout="BMA.SVGHelper.UnHighlight(this, window.ElementRegistry.LineWidth + 1)" data-id="44" data-ishovered="false"/><path d="M 1887.9095498736026 -468.5698707288176 C 1505.5808751166637 -455.436493330311 996.6737911845453 -423.9520393075719 615.6418400433065 -389.85873567196984" fill="none" stroke="#aaa" stroke-width="2" marker-end="url(#Inhibitor)" stroke-linecap="round" onmouseover="BMA.SVGHelper.Highlight(this, window.ElementRegistry.LineWidth + 1)" onmouseout="BMA.SVGHelper.UnHighlight(this, window.ElementRegistry.LineWidth + 1)" data-id="45" data-ishovered="false"/><path d="M 1122.731388336934 -329.5575769327267 C 1201.6945425929262 -339.388774699427 1306.8601084599725 -338.4975410903843 1385.6453030045495 -327.3294929101199" fill="none" stroke="#aaa" stroke-width="2" marker-end="url(#Inhibitor)" stroke-linecap="round" onmouseover="BMA.SVGHelper.Highlight(this, window.ElementRegistry.LineWidth + 1)" onmouseout="BMA.SVGHelper.UnHighlight(this, window.ElementRegistry.LineWidth + 1)" data-id="49" data-ishovered="false"/><path d="M 1385.5690345568005 -318.32981607570645 C 1306.6058803008084 -308.49861830900613 1201.440314433762 -309.38985191804886 1122.655119889185 -320.55790009831327" fill="none" stroke="#aaa" stroke-width="2" marker-end="url(#Inhibitor)" stroke-linecap="round" onmouseover="BMA.SVGHelper.Highlight(this, window.ElementRegistry.LineWidth + 1)" onmouseout="BMA.SVGHelper.UnHighlight(this, window.ElementRegistry.LineWidth + 1)" data-id="50" data-ishovered="false"/><path d="M 1117.6138897943943 -265.3036137556844 C 1199.3135750959723 -274.79577581795263 1308.0736624954661 -273.4530586895638 1389.514108293129 -261.9468209347124" fill="none" stroke="#aaa" stroke-width="2" marker-end="url(#Inhibitor)" stroke-linecap="round" onmouseover="BMA.SVGHelper.Highlight(this, window.ElementRegistry.LineWidth + 1)" onmouseout="BMA.SVGHelper.UnHighlight(this, window.ElementRegistry.LineWidth + 1)" data-id="51" data-ishovered="false"/><path d="M 1389.403005648594 -252.9475067273754 C 1307.703320347016 -243.4553446651072 1198.9432329475221 -244.798061793496 1117.5027871498592 -256.30429954834744" fill="none" stroke="#aaa" stroke-width="2" marker-end="url(#Inhibitor)" stroke-linecap="round" onmouseover="BMA.SVGHelper.Highlight(this, window.ElementRegistry.LineWidth + 1)" onmouseout="BMA.SVGHelper.UnHighlight(this, window.ElementRegistry.LineWidth + 1)" data-id="52" data-ishovered="false"/><path d="M 1096.613399059737 -305.6497718845133 C 1085.5635483616068 -299.1959682997231 1084.785827996939 -289.47446374137564 1094.6690981480676 -281.34601048864477" fill="none" stroke="#aaa" stroke-width="2" marker-end="url(#Activator)" stroke-linecap="round" onmouseover="BMA.SVGHelper.Highlight(this, window.ElementRegistry.LineWidth + 1)" onmouseout="BMA.SVGHelper.UnHighlight(this, window.ElementRegistry.LineWidth + 1)" data-id="53" data-ishovered="false"/><path d="M 1103.6404356548926 -280.6283034880988 C 1114.6902863530229 -287.082107072889 1115.4680067176907 -296.8036116312365 1105.584736566562 -304.93206488396737" fill="none" stroke="#aaa" stroke-width="2" marker-end="url(#Inhibitor)" stroke-linecap="round" onmouseover="BMA.SVGHelper.Highlight(this, window.ElementRegistry.LineWidth + 1)" onmouseout="BMA.SVGHelper.UnHighlight(this, window.ElementRegistry.LineWidth + 1)" data-id="54" data-ishovered="false"/><path d="M 1411.2731257532441 -302.958930688752 C 1422.2055171138354 -295.9168344009245 1422.8061977035075 -285.70526437650045 1412.774827227424 -277.430005627692" fill="none" stroke="#aaa" stroke-width="2" marker-end="url(#Activator)" stroke-linecap="round" onmouseover="BMA.SVGHelper.Highlight(this, window.ElementRegistry.LineWidth + 1)" onmouseout="BMA.SVGHelper.UnHighlight(this, window.ElementRegistry.LineWidth + 1)" data-id="55" data-ishovered="false"/><path d="M 1403.790357868849 -276.90150743012885 C 1392.8579665082577 -283.94360371795636 1392.2572859185857 -294.1551737423804 1402.288656394669 -302.4304324911888" fill="none" stroke="#aaa" stroke-width="2" marker-end="url(#Inhibitor)" stroke-linecap="round" onmouseover="BMA.SVGHelper.Highlight(this, window.ElementRegistry.LineWidth + 1)" onmouseout="BMA.SVGHelper.UnHighlight(this, window.ElementRegistry.LineWidth + 1)" data-id="56" data-ishovered="false"/><path d="M 1123.1938744819 -325.29053938476414 C 1205.7806239271329 -317.73140030112796 1312.8653189565246 -293.9845850854051 1390.9056120553787 -265.9235013454571" fill="none" stroke="#aaa" stroke-width="2" marker-end="url(#Inhibitor)" stroke-linecap="round" onmouseover="BMA.SVGHelper.Highlight(this, window.ElementRegistry.LineWidth + 1)" onmouseout="BMA.SVGHelper.UnHighlight(this, window.ElementRegistry.LineWidth + 1)" data-id="57" data-ishovered="false"/><path d="M 1388.9571307640736 -257.1369536356092 C 1306.3703813188406 -264.69609271924537 1199.285686289449 -288.4429079349682 1121.2453931905948 -316.5039916749162" fill="none" stroke="#aaa" stroke-width="2" marker-end="url(#Inhibitor)" stroke-linecap="round" onmouseover="BMA.SVGHelper.Highlight(this, window.ElementRegistry.LineWidth + 1)" onmouseout="BMA.SVGHelper.UnHighlight(this, window.ElementRegistry.LineWidth + 1)" data-id="58" data-ishovered="false"/><path d="M 1118.0539985777625 -260.56056107980385 C 1200.7602263421536 -266.3938656541373 1308.2895708027409 -287.89973454625476 1386.8773597292306 -314.32523331009753" fill="none" stroke="#aaa" stroke-width="2" marker-end="url(#Inhibitor)" stroke-linecap="round" onmouseover="BMA.SVGHelper.Highlight(this, window.ElementRegistry.LineWidth + 1)" onmouseout="BMA.SVGHelper.UnHighlight(this, window.ElementRegistry.LineWidth + 1)" data-id="59" data-ishovered="false"/><path d="M 1385.1123145129868 -323.1504593913158 C 1302.4060867485955 -317.31715481698234 1194.8767422880082 -295.8112859248649 1116.2889533615187 -269.3857871610221" fill="none" stroke="#aaa" stroke-width="2" marker-end="url(#Inhibitor)" stroke-linecap="round" onmouseover="BMA.SVGHelper.Highlight(this, window.ElementRegistry.LineWidth + 1)" onmouseout="BMA.SVGHelper.UnHighlight(this, window.ElementRegistry.LineWidth + 1)" data-id="60" data-ishovered="false"/><path d="M 612.7108299820642 -372.31759051372075 C 749.5571550209476 -236.66274593962768 921.635653976335 -46.39878651470059 1042.9070773705323 103.34230804859682" fill="none" stroke="#aaa" stroke-width="2" marker-end="url(#Activator)" stroke-linecap="round" onmouseover="BMA.SVGHelper.Highlight(this, window.ElementRegistry.LineWidth + 1)" onmouseout="BMA.SVGHelper.UnHighlight(this, window.ElementRegistry.LineWidth + 1)" data-id="82" data-ishovered="false"/><path d="M 1871.6337874057285 -399.71646402892935 C 1624.8010342200544 -256.6678956672356 1303.1516045272363 -54.09016992738712 1067.510213173683 106.72785032069177" fill="none" stroke="#aaa" stroke-width="2" marker-end="url(#Inhibitor)" stroke-linecap="round" onmouseover="BMA.SVGHelper.Highlight(this, window.ElementRegistry.LineWidth + 1)" onmouseout="BMA.SVGHelper.UnHighlight(this, window.ElementRegistry.LineWidth + 1)" data-id="100" data-ishovered="false"/><path d="M 601.8469009325748 -403.76826849012764 C 613.0213354872559 -413.01099230913616 613.9549269047583 -426.31467000854445 604.1808794763307 -437.02746273864835" fill="none" stroke="#aaa" stroke-width="2" marker-end="url(#Inhibitor)" stroke-linecap="round" onmouseover="BMA.SVGHelper.Highlight(this, window.ElementRegistry.LineWidth + 1)" onmouseout="BMA.SVGHelper.UnHighlight(this, window.ElementRegistry.LineWidth + 1)" data-id="106" data-ishovered="false"/><path d="M 1105.6119707802889 -242.19843641237597 C 1138.6957170225035 -120.68200016247988 1169.0394809371644 43.87861367264259 1181.4713805669414 169.20309817543026" fill="none" stroke="#aaa" stroke-width="2" marker-end="url(#Activator)" stroke-linecap="round" onmouseover="BMA.SVGHelper.Highlight(this, window.ElementRegistry.LineWidth + 1)" onmouseout="BMA.SVGHelper.UnHighlight(this, window.ElementRegistry.LineWidth + 1)" data-id="114" data-ishovered="false"/><path d="M 1396.3373757393267 -241.4482979602055 C 1323.8241299676365 -122.84842214836 1239.6016471645453 41.66459057344345 1185.7811687315987 169.83423384430316" fill="none" stroke="#aaa" stroke-width="2" marker-end="url(#Inhibitor)" stroke-linecap="round" onmouseover="BMA.SVGHelper.Highlight(this, window.ElementRegistry.LineWidth + 1)" onmouseout="BMA.SVGHelper.UnHighlight(this, window.ElementRegistry.LineWidth + 1)" data-id="115" data-ishovered="false"/><path d="M1431.55809926021,-564.2838961495195L1702.775707026957,-733.546144376526" fill="none" stroke="#aaa" stroke-width="2" marker-end="url(#Activator)" stroke-linecap="round" onmouseover="BMA.SVGHelper.Highlight(this, window.ElementRegistry.LineWidth + 1)" onmouseout="BMA.SVGHelper.UnHighlight(this, window.ElementRegistry.LineWidth + 1)" data-id="116" data-ishovered="false"/><path d="M1728.7894522113315,-726.2980131730374L1881.9084351662816,-424.40408134431357" fill="none" stroke="#aaa" stroke-width="2" marker-end="url(#Inhibitor)" stroke-linecap="round" onmouseover="BMA.SVGHelper.Highlight(this, window.ElementRegistry.LineWidth + 1)" onmouseout="BMA.SVGHelper.UnHighlight(this, window.ElementRegistry.LineWidth + 1)" data-id="117" data-ishovered="false"/><path d="M826.022980572391,-726.002054342151L607.1240826694983,-400.72499108998244" fill="none" stroke="#aaa" stroke-width="2" marker-end="url(#Inhibitor)" stroke-linecap="round" onmouseover="BMA.SVGHelper.Highlight(this, window.ElementRegistry.LineWidth + 1)" onmouseout="BMA.SVGHelper.UnHighlight(this, window.ElementRegistry.LineWidth + 1)" data-id="118" data-ishovered="false"/><path d="M1055.3016401797247,101.32864477923789L1095.2432969029633,-241.18546634614094" fill="none" stroke="#aaa" stroke-width="2" marker-end="url(#Activator)" stroke-linecap="round" onmouseover="BMA.SVGHelper.Highlight(this, window.ElementRegistry.LineWidth + 1)" onmouseout="BMA.SVGHelper.UnHighlight(this, window.ElementRegistry.LineWidth + 1)" data-id="119" data-ishovered="false"/><path d="M1066.6992247308997,106.63648586406957L1395.742882883132,-242.64272507873383" fill="none" stroke="#aaa" stroke-width="2" marker-end="url(#Inhibitor)" stroke-linecap="round" onmouseover="BMA.SVGHelper.Highlight(this, window.ElementRegistry.LineWidth + 1)" onmouseout="BMA.SVGHelper.UnHighlight(this, window.ElementRegistry.LineWidth + 1)" data-id="121" data-ishovered="false"/><path d="M 1036.2321195228099 109.37927232968438 C 899.3857944839264 -26.275572244408693 727.3072955285392 -216.5395316693358 606.0358721343417 -366.2806262326332" fill="none" stroke="#aaa" stroke-width="2" marker-end="url(#Inhibitor)" stroke-linecap="round" onmouseover="BMA.SVGHelper.Highlight(this, window.ElementRegistry.LineWidth + 1)" onmouseout="BMA.SVGHelper.UnHighlight(this, window.ElementRegistry.LineWidth + 1)" data-id="122" data-ishovered="false"/><path d="M 1072.3065111017345 114.3433297005711 C 1319.1392642874087 -28.705238661122692 1640.7886939802268 -231.28296440097117 1876.43008533378 -392.1009846490501" fill="none" stroke="#aaa" stroke-width="2" marker-end="url(#Inhibitor)" stroke-linecap="round" onmouseover="BMA.SVGHelper.Highlight(this, window.ElementRegistry.LineWidth + 1)" onmouseout="BMA.SVGHelper.UnHighlight(this, window.ElementRegistry.LineWidth + 1)" data-id="123" data-ishovered="false"/><path d="M1040.6730435520724,105.43287853450911L613.4040157557866,-441.5322614110828" fill="none" stroke="#aaa" stroke-width="2" marker-end="url(#Inhibitor)" stroke-linecap="round" onmouseover="BMA.SVGHelper.Highlight(this, window.ElementRegistry.LineWidth + 1)" onmouseout="BMA.SVGHelper.UnHighlight(this, window.ElementRegistry.LineWidth + 1)" data-id="124" data-ishovered="false"/><path d="M1069.4786695631108,109.88203064286643L1891.6556587950986,-454.00143362794114" fill="none" stroke="#aaa" stroke-width="2" marker-end="url(#Inhibitor)" stroke-linecap="round" onmouseover="BMA.SVGHelper.Highlight(this, window.ElementRegistry.LineWidth + 1)" onmouseout="BMA.SVGHelper.UnHighlight(this, window.ElementRegistry.LineWidth + 1)" data-id="125" data-ishovered="false"/><path d="M 1172.6205891616112 170.8351188552409 C 1139.5368429193966 49.318682605344804 1109.1930790047356 -115.24193122977766 1096.7611793749586 -240.56641573256533" fill="none" stroke="#aaa" stroke-width="2" marker-end="url(#Inhibitor)" stroke-linecap="round" onmouseover="BMA.SVGHelper.Highlight(this, window.ElementRegistry.LineWidth + 1)" onmouseout="BMA.SVGHelper.UnHighlight(this, window.ElementRegistry.LineWidth + 1)" data-id="126" data-ishovered="false"/><path d="M1177.6780413534361,169.91300391294703L1105.6886283914491,-305.4526940073956" fill="none" stroke="#aaa" stroke-width="2" marker-end="url(#Inhibitor)" stroke-linecap="round" onmouseover="BMA.SVGHelper.Highlight(this, window.ElementRegistry.LineWidth + 1)" onmouseout="BMA.SVGHelper.UnHighlight(this, window.ElementRegistry.LineWidth + 1)" data-id="127" data-ishovered="false"/><path d="M 1193.7923547339171 173.93556275530923 C 1266.3056005056073 55.33568694346373 1350.5280833086986 -109.17732577833972 1404.3485617416452 -237.34696904919943" fill="none" stroke="#aaa" stroke-width="2" marker-end="url(#Inhibitor)" stroke-linecap="round" onmouseover="BMA.SVGHelper.Highlight(this, window.ElementRegistry.LineWidth + 1)" onmouseout="BMA.SVGHelper.UnHighlight(this, window.ElementRegistry.LineWidth + 1)" data-id="128" data-ishovered="false"/><path d="M1188.7125171650728,171.37466135155904L1397.5666309559322,-304.34729654451513" fill="none" stroke="#aaa" stroke-width="2" marker-end="url(#Inhibitor)" stroke-linecap="round" onmouseover="BMA.SVGHelper.Highlight(this, window.ElementRegistry.LineWidth + 1)" onmouseout="BMA.SVGHelper.UnHighlight(this, window.ElementRegistry.LineWidth + 1)" data-id="129" data-ishovered="false"/><path d="M837.5243266811585,-528.6108095289335L613.1221804548499,-394.39814630207826" fill="none" stroke="#aaa" stroke-width="2" marker-end="url(#Activator)" stroke-linecap="round" onmouseover="BMA.SVGHelper.Highlight(this, window.ElementRegistry.LineWidth + 1)" onmouseout="BMA.SVGHelper.UnHighlight(this, window.ElementRegistry.LineWidth + 1)" data-id="131" data-ishovered="false"/><path d="M874.5275795303364,-536.3435915851765L1871.116276608261,-409.10018039015716" fill="none" stroke="#aaa" stroke-width="2" marker-end="url(#Activator)" stroke-linecap="round" onmouseover="BMA.SVGHelper.Highlight(this, window.ElementRegistry.LineWidth + 1)" onmouseout="BMA.SVGHelper.UnHighlight(this, window.ElementRegistry.LineWidth + 1)" data-id="132" data-ishovered="false"/><g transform="translate(875, -420)"><text x="0" y="0" transform="translate(-345, -372)" font-size="54" font-family="OpenSans" src="local('Segoe UI'), local('Frutiger'), local('Frutiger Linotype'), local('Dejavu Sans'), local('Helvetica Neue'), local('HelveticaNeue'), local('Arial'), local('sans serif'), local('sans-serif')" fill="black">Posterior</text></g><g transform="translate(1625, -420)"><text x="0" y="0" transform="translate(-345, -372)" font-size="54" font-family="OpenSans" src="local('Segoe UI'), local('Frutiger'), local('Frutiger Linotype'), local('Dejavu Sans'), local('Helvetica Neue'), local('HelveticaNeue'), local('Arial'), local('sans serif'), local('sans-serif')" fill="black">Anterior</text></g><g transform="translate(1125, 140)"><text x="0" y="0" transform="translate(-115, -112)" font-size="18" font-family="OpenSans" src="local('Segoe UI'), local('Frutiger'), local('Frutiger Linotype'), local('Dejavu Sans'), local('Helvetica Neue'), local('HelveticaNeue'), local('Arial'), local('sans serif'), local('sans-serif')" fill="black">Posterior_effect</text></g><g transform="translate(837.1891883638809, -742.5946973973508)"><text x="0" y="0" transform="translate(-17.5, 33)" font-size="18" font-family="OpenSans" src="local('Segoe UI'), local('Frutiger'), local('Frutiger Linotype'), local('Dejavu Sans'), local('Helvetica Neue'), local('HelveticaNeue'), local('Arial'), local('sans serif'), local('sans-serif')" fill="black">PLK1_post</text></g><g transform="translate(1719.7426634970159, -744.1349303382464)"><text x="0" y="0" transform="translate(-17.5, 33)" font-size="18" font-family="OpenSans" src="local('Segoe UI'), local('Frutiger'), local('Frutiger Linotype'), local('Dejavu Sans'), local('Helvetica Neue'), local('HelveticaNeue'), local('Arial'), local('sans serif'), local('sans-serif')" fill="black">PLK1_ant</text></g><g transform="translate(1068.7137468214485, -614.8289485903819)"><text x="0" y="0" transform="translate(-17.5, 33)" font-size="18" font-family="OpenSans" src="local('Segoe UI'), local('Frutiger'), local('Frutiger Linotype'), local('Dejavu Sans'), local('Helvetica Neue'), local('HelveticaNeue'), local('Arial'), local('sans serif'), local('sans-serif')" fill="black">MEX5_post</text></g><g transform="translate(1407.663031279939, -613.1396985739689)"><text x="0" y="0" transform="translate(-17.5, 33)" font-size="18" font-family="OpenSans" src="local('Segoe UI'), local('Frutiger'), local('Frutiger Linotype'), local('Dejavu Sans'), local('Helvetica Neue'), local('HelveticaNeue'), local('Arial'), local('sans serif'), local('sans-serif')" fill="black">MEX5_ant</text></g><g transform="translate(1066.0528137023362, -558.2992623073303)"><text x="0" y="0" transform="translate(-17.5, 33)" font-size="18" font-family="OpenSans" src="local('Segoe UI'), local('Frutiger'), local('Frutiger Linotype'), local('Dejavu Sans'), local('Helvetica Neue'), local('HelveticaNeue'), local('Arial'), local('sans serif'), local('sans-serif')" fill="black">MEX5_RNA_post</text></g><g transform="translate(1414.591142790151, -553.6951101877991)"><text x="0" y="0" transform="translate(-17.5, 33)" font-size="18" font-family="OpenSans" src="local('Segoe UI'), local('Frutiger'), local('Frutiger Linotype'), local('Dejavu Sans'), local('Helvetica Neue'), local('HelveticaNeue'), local('Arial'), local('sans serif'), local('sans-serif')" fill="black">MEX5_RNA_ant</text></g><g transform="translate(601.0919846809934, -457.29341272731995)"><text x="0" y="0" transform="translate(-17.5, 33)" font-size="18" font-family="OpenSans" src="local('Segoe UI'), local('Frutiger'), local('Frutiger Linotype'), local('Dejavu Sans'), local('Helvetica Neue'), local('HelveticaNeue'), local('Arial'), local('sans serif'), local('sans-serif')" fill="black">MEG3_post</text></g><g transform="translate(1908.1492537313436, -465.31343283582095)"><text x="0" y="0" transform="translate(-17.5, 33)" font-size="18" font-family="OpenSans" src="local('Segoe UI'), local('Frutiger'), local('Frutiger Linotype'), local('Dejavu Sans'), local('Helvetica Neue'), local('HelveticaNeue'), local('Arial'), local('sans serif'), local('sans-serif')" fill="black">MEG3_ant</text></g><g transform="translate(595.9578748780084, -384.13234803478264)"><text x="0" y="0" transform="translate(-17.5, 33)" font-size="18" font-family="OpenSans" src="local('Segoe UI'), local('Frutiger'), local('Frutiger Linotype'), local('Dejavu Sans'), local('Helvetica Neue'), local('HelveticaNeue'), local('Arial'), local('sans serif'), local('sans-serif')" fill="black">MEG3_RNA_post</text></g><g transform="translate(1890.9552238805973, -406.5671641791045)"><text x="0" y="0" transform="translate(-17.5, 33)" font-size="18" font-family="OpenSans" src="local('Segoe UI'), local('Frutiger'), local('Frutiger Linotype'), local('Dejavu Sans'), local('Helvetica Neue'), local('HelveticaNeue'), local('Arial'), local('sans serif'), local('sans-serif')" fill="black">MEG3_RNA_ant</text></g><g transform="translate(1102.6939722588074, -325.2272239549628)"><text x="0" y="0" transform="translate(-17.5, 33)" font-size="18" font-family="OpenSans" src="local('Segoe UI'), local('Frutiger'), local('Frutiger Linotype'), local('Dejavu Sans'), local('Helvetica Neue'), local('HelveticaNeue'), local('Arial'), local('sans serif'), local('sans-serif')" fill="black">PGL3_post</text></g><g transform="translate(1405.6064506349271, -322.6601690534703)"><text x="0" y="0" transform="translate(-17.5, 33)" font-size="18" font-family="OpenSans" src="local('Segoe UI'), local('Frutiger'), local('Frutiger Linotype'), local('Dejavu Sans'), local('Helvetica Neue'), local('HelveticaNeue'), local('Arial'), local('sans serif'), local('sans-serif')" fill="black">PGL3_ant</text></g><g transform="translate(1097.5598624558222, -261.0508514176493)"><text x="0" y="0" transform="translate(-17.5, 33)" font-size="18" font-family="OpenSans" src="local('Segoe UI'), local('Frutiger'), local('Frutiger Linotype'), local('Dejavu Sans'), local('Helvetica Neue'), local('HelveticaNeue'), local('Arial'), local('sans serif'), local('sans-serif')" fill="black">PGL3_RNA_post</text></g><g transform="translate(1409.457032987166, -257.2002690654105)"><text x="0" y="0" transform="translate(-17.5, 33)" font-size="18" font-family="OpenSans" src="local('Segoe UI'), local('Frutiger'), local('Frutiger Linotype'), local('Dejavu Sans'), local('Helvetica Neue'), local('HelveticaNeue'), local('Arial'), local('sans serif'), local('sans-serif')" fill="black">PGL3_RNA_ant</text></g><g transform="translate(1052.9850746268658, 121.19402985074626)"><text x="0" y="0" transform="translate(-17.5, 33)" font-size="18" font-family="OpenSans" src="local('Segoe UI'), local('Frutiger'), local('Frutiger Linotype'), local('Dejavu Sans'), local('Helvetica Neue'), local('HelveticaNeue'), local('Arial'), local('sans serif'), local('sans-serif')" fill="black">MEG3_granule</text></g><g transform="translate(1180.6726974860778, 189.68753386051424)"><text x="0" y="0" transform="translate(-17.5, 33)" font-size="18" font-family="OpenSans" src="local('Segoe UI'), local('Frutiger'), local('Frutiger Linotype'), local('Dejavu Sans'), local('Helvetica Neue'), local('HelveticaNeue'), local('Arial'), local('sans serif'), local('sans-serif')" fill="black">PGL3_granule</text></g><g transform="translate(854.688632258, -538.8766077962291)"><text x="0" y="0" transform="translate(-17.5, 33)" font-size="18" font-family="OpenSans" src="local('Segoe UI'), local('Frutiger'), local('Frutiger Linotype'), local('Dejavu Sans'), local('Helvetica Neue'), local('HelveticaNeue'), local('Arial'), local('sans serif'), local('sans-serif')" fill="black">phosphatase</text></g></svg>