<svg xmlns="http://www.w3.org/2000/svg" version="1.1" width="1704" height="938" viewBox="-678.8128321048752 -1085.108318876922 3364.1317223406804 1851.8518518518536" preserveAspectRatio="none"><defs id="bmaDefs"><marker id="Activator" refX="3" refY="3" markerWidth="4" markerHeight="6" orient="auto" viewBox="0 0 4 6"><polyline points="1,1 3,3 1,5" fill="none" stroke="#aaa" stroke-width="1px" stroke-linecap="round" stroke-linejoin="round"/></marker><marker id="Inhibitor" refX="-0.5" refY="0" markerWidth="6" markerHeight="6" orient="auto" viewBox="-2 -4 4 8"><polyline points="0,1.5 0,-1.5" fill="none" stroke="#aaa" stroke-width="1px" stroke-linecap="round"/></marker><marker id="ActivatorSelected" refX="3" refY="3" markerWidth="4" markerHeight="6" orient="auto" viewBox="0 0 4 6"><polyline points="1,1 3,3 1,5" fill="none" stroke="#999999" stroke-width="1px" stroke-linecap="round" stroke-linejoin="round"/></marker><marker id="InhibitorSelected" refX="-0.5" refY="0" markerWidth="6" markerHeight="6" orient="auto" viewBox="-2 -4 4 8"><polyline points="0,1.5 0,-1.5" fill="none" stroke="#999999" stroke-width="1px" stroke-linecap="round"/></marker><marker id="ActivatorHighlighted" refX="3" refY="3" markerWidth="4" markerHeight="6" orient="auto" viewBox="0 0 4 6"><polyline points="1,1 3,3 1,5" fill="none" stroke="#33cc00" stroke-width="1px" stroke-linecap="round" stroke-linejoin="round"/></marker><marker id="InhibitorHighlighted" refX="-0.5" refY="0" markerWidth="6" markerHeight="6" orient="auto" viewBox="-2 -4 4 8"><polyline points="0,1.5 0,-1.5" fill="none" stroke="#33cc00" stroke-width="1px" stroke-linecap="round"/></marker></defs><g transform="translate(875, -420)"><rect x="-374.75" y="-419.72" width="749.5" height="839.44" stroke="none" fill="none"/><path d="M 640.36 249.05 c 113.22 0 205.33 106.84 205.33 238.16 S 753.58 725.37 640.36 725.37 S 435 618.53 435 487.21 s 92.11 -238.16 205.32 -238.16 m 0 -22.73 c -126 0 -228.06 116.8 -228.06 260.89 S 514.41 748.1 640.36 748.1 S 868.43 631.3 868.43 487.21 S 766.32 226.32 640.36 226.32 Z" stroke="#d0e9f0" stroke-width="2" fill="#d0e9f0" fill-rule="evenodd" transform="scale(1.56) translate(-640, -487)"/><ellipse cx="0" cy="0" rx="344" ry="396.5" stroke="none" fill="white"/></g><g transform="translate(1625, -420)"><rect x="-374.75" y="-419.72" width="749.5" height="839.44" stroke="none" fill="none"/><path d="M 640.36 249.05 c 113.22 0 205.33 106.84 205.33 238.16 S 753.58 725.37 640.36 725.37 S 435 618.53 435 487.21 s 92.11 -238.16 205.32 -238.16 m 0 -22.73 c -126 0 -228.06 116.8 -228.06 260.89 S 514.41 748.1 640.36 748.1 S 868.43 631.3 868.43 487.21 S 766.32 226.32 640.36 226.32 Z" stroke="#d0e9f0" stroke-width="2" fill="#d0e9f0" fill-rule="evenodd" transform="scale(1.56) translate(-640, -487)"/><ellipse cx="0" cy="0" rx="344" ry="396.5" stroke="none" fill="white"/></g><g transform="translate(1125, 140)"><rect x="-124.75" y="-139.72" width="249.5" height="279.44" stroke="none" fill="none"/><path d="M 640.36 249.05 c 113.22 0 205.33 106.84 205.33 238.16 S 753.58 725.37 640.36 725.37 S 435 618.53 435 487.21 s 92.11 -238.16 205.32 -238.16 m 0 -22.73 c -126 0 -228.06 116.8 -228.06 260.89 S 514.41 748.1 640.36 748.1 S 868.43 631.3 868.43 487.21 S 766.32 226.32 640.36 226.32 Z" stroke="#d0e9f0" stroke-width="2" fill="#d0e9f0" fill-rule="evenodd" transform="scale(0.52) translate(-640, -487)"/><ellipse cx="0" cy="0" rx="106" ry="123.5" stroke="none" fill="white"/></g><g transform="translate(856.5671641791047, -726.5671641791046)"><path d="M54.88 71.29 a 4.58 4.58 0 0 1 -3.28 -1.36 a 4.65 4.65 0 0 1 0 -6.57 l 11.11 -11 A 1.65 1.65 0 0 0 60.38 50 L 49.3 61.06 a 4.65 4.65 0 0 1 -7.93 -3.28 a 4.66 4.66 0 0 1 1.36 -3.29 l 11.12 -11 a 1.65 1.65 0 0 0 -1.17 -2.8 a 1.67 1.67 0 0 0 -1.17 0.48 L 40.44 52.2 a 4.65 4.65 0 0 1 -6.57 -6.57 L 45 34.59 a 1.63 1.63 0 0 0 0.48 -1.16 A 1.67 1.67 0 0 0 45 32.26 a 1.65 1.65 0 0 0 -1.17 -0.48 a 1.63 1.63 0 0 0 -1.16 0.48 L 29.28 45.63 a 1.5 1.5 0 1 1 -2.12 -2.12 L 40.53 30.14 a 4.65 4.65 0 0 1 7.93 3.29 a 4.58 4.58 0 0 1 -1.36 3.28 L 36 47.75 a 1.65 1.65 0 0 0 0 2.33 a 1.65 1.65 0 0 0 2.33 0 L 49.39 39 A 4.65 4.65 0 0 1 56 39 a 4.65 4.65 0 0 1 0 6.57 l -11.11 11 a 1.64 1.64 0 0 0 0 2.32 a 1.66 1.66 0 0 0 1.17 0.47 a 1.64 1.64 0 0 0 1.16 -0.47 L 58.26 47.87 a 4.65 4.65 0 0 1 6.57 0 a 4.65 4.65 0 0 1 0 6.57 l -11.12 11 a 1.65 1.65 0 0 0 2.34 2.33 l 13.29 -13.3 a 1.51 1.51 0 0 1 2.13 0 a 1.5 1.5 0 0 1 0 2.12 l -13.3 13.3 A 4.62 4.62 0 0 1 54.88 71.29 Z" fill="#f6c" transform="scale(0.6) translate(-50 -50)"/><path d="M 43.81 29.28 a 4.15 4.15 0 0 1 2.94 7.08 l -11.12 11 A 2.14 2.14 0 0 0 35 48.91 a 2.14 2.14 0 0 0 3.66 1.52 L 49.75 39.36 a 4.14 4.14 0 0 1 5.86 5.86 L 44.49 56.27 a 2.13 2.13 0 0 0 -0.62 1.51 a 2.16 2.16 0 0 0 3.67 1.52 L 58.61 48.22 a 4.15 4.15 0 0 1 5.87 5.86 l -11.12 11 a 2.15 2.15 0 0 0 0 3 a 2.17 2.17 0 0 0 3 0 l 13.3 -13.3 a 1 1 0 1 1 1.41 1.42 L 57.81 69.57 a 4.13 4.13 0 0 1 -5.86 0 a 4.14 4.14 0 0 1 0 -5.86 l 11.12 -11 a 2.15 2.15 0 0 0 -3 -3 L 49 60.71 a 4.15 4.15 0 0 1 -5.87 -5.86 L 54.2 43.8 a 2.15 2.15 0 0 0 -3 -3 L 40.09 51.85 A 4.15 4.15 0 0 1 34.22 46 l 11.12 -11 a 2.15 2.15 0 0 0 -1.53 -3.66 a 2.09 2.09 0 0 0 -1.51 0.63 L 28.93 45.28 a 1 1 0 0 1 -1.42 0 a 1 1 0 0 1 0 -1.42 L 40.88 30.5 a 4.1 4.1 0 0 1 2.93 -1.22 m 0 -1 a 5.18 5.18 0 0 0 -3.64 1.51 L 26.81 43.16 a 2 2 0 0 0 1.41 3.41 A 2 2 0 0 0 29.64 46 L 43 32.62 a 1.14 1.14 0 0 1 0.81 -0.34 A 1.16 1.16 0 0 1 45 33.43 a 1.14 1.14 0 0 1 -0.33 0.8 L 33.52 45.28 a 5.14 5.14 0 1 0 7.27 7.27 L 51.87 41.48 a 1.13 1.13 0 0 1 0.81 -0.33 a 1.14 1.14 0 0 1 0.81 2 l -11.11 11 a 5.15 5.15 0 1 0 7.28 7.28 L 60.73 50.34 a 1.17 1.17 0 0 1 0.81 -0.32 A 1.14 1.14 0 0 1 62.36 52 L 51.24 63 a 5.15 5.15 0 0 0 3.64 8.79 a 5.11 5.11 0 0 0 3.64 -1.51 L 71.82 57 a 2 2 0 0 0 0 -2.83 a 2 2 0 0 0 -2.83 0 l -13.3 13.3 a 1.12 1.12 0 0 1 -0.81 0.33 a 1.15 1.15 0 0 1 -0.81 -0.33 a 1.13 1.13 0 0 1 0 -1.61 L 65.18 54.79 a 5.14 5.14 0 0 0 0 -7.27 a 5.14 5.14 0 0 0 -7.28 0 L 46.83 58.59 a 1.12 1.12 0 0 1 -0.81 0.32 a 1.11 1.11 0 0 1 -0.81 -0.32 a 1.15 1.15 0 0 1 0 -1.62 l 11.12 -11 A 5.15 5.15 0 0 0 49 38.65 L 38 49.73 a 1.15 1.15 0 0 1 -2 -0.82 a 1.14 1.14 0 0 1 0.33 -0.8 l 11.11 -11 a 5.14 5.14 0 0 0 0 -7.28 a 5.14 5.14 0 0 0 -3.64 -1.51 Z" fill="#f6c" transform="scale(0.6) translate(-50 -50)"/></g><g transform="translate(1626.5293900866047, -714.7613782937167)"><path d="M54.88 71.29 a 4.58 4.58 0 0 1 -3.28 -1.36 a 4.65 4.65 0 0 1 0 -6.57 l 11.11 -11 A 1.65 1.65 0 0 0 60.38 50 L 49.3 61.06 a 4.65 4.65 0 0 1 -7.93 -3.28 a 4.66 4.66 0 0 1 1.36 -3.29 l 11.12 -11 a 1.65 1.65 0 0 0 -1.17 -2.8 a 1.67 1.67 0 0 0 -1.17 0.48 L 40.44 52.2 a 4.65 4.65 0 0 1 -6.57 -6.57 L 45 34.59 a 1.63 1.63 0 0 0 0.48 -1.16 A 1.67 1.67 0 0 0 45 32.26 a 1.65 1.65 0 0 0 -1.17 -0.48 a 1.63 1.63 0 0 0 -1.16 0.48 L 29.28 45.63 a 1.5 1.5 0 1 1 -2.12 -2.12 L 40.53 30.14 a 4.65 4.65 0 0 1 7.93 3.29 a 4.58 4.58 0 0 1 -1.36 3.28 L 36 47.75 a 1.65 1.65 0 0 0 0 2.33 a 1.65 1.65 0 0 0 2.33 0 L 49.39 39 A 4.65 4.65 0 0 1 56 39 a 4.65 4.65 0 0 1 0 6.57 l -11.11 11 a 1.64 1.64 0 0 0 0 2.32 a 1.66 1.66 0 0 0 1.17 0.47 a 1.64 1.64 0 0 0 1.16 -0.47 L 58.26 47.87 a 4.65 4.65 0 0 1 6.57 0 a 4.65 4.65 0 0 1 0 6.57 l -11.12 11 a 1.65 1.65 0 0 0 2.34 2.33 l 13.29 -13.3 a 1.51 1.51 0 0 1 2.13 0 a 1.5 1.5 0 0 1 0 2.12 l -13.3 13.3 A 4.62 4.62 0 0 1 54.88 71.29 Z" fill="#f6c" transform="scale(0.6) translate(-50 -50)"/><path d="M 43.81 29.28 a 4.15 4.15 0 0 1 2.94 7.08 l -11.12 11 A 2.14 2.14 0 0 0 35 48.91 a 2.14 2.14 0 0 0 3.66 1.52 L 49.75 39.36 a 4.14 4.14 0 0 1 5.86 5.86 L 44.49 56.27 a 2.13 2.13 0 0 0 -0.62 1.51 a 2.16 2.16 0 0 0 3.67 1.52 L 58.61 48.22 a 4.15 4.15 0 0 1 5.87 5.86 l -11.12 11 a 2.15 2.15 0 0 0 0 3 a 2.17 2.17 0 0 0 3 0 l 13.3 -13.3 a 1 1 0 1 1 1.41 1.42 L 57.81 69.57 a 4.13 4.13 0 0 1 -5.86 0 a 4.14 4.14 0 0 1 0 -5.86 l 11.12 -11 a 2.15 2.15 0 0 0 -3 -3 L 49 60.71 a 4.15 4.15 0 0 1 -5.87 -5.86 L 54.2 43.8 a 2.15 2.15 0 0 0 -3 -3 L 40.09 51.85 A 4.15 4.15 0 0 1 34.22 46 l 11.12 -11 a 2.15 2.15 0 0 0 -1.53 -3.66 a 2.09 2.09 0 0 0 -1.51 0.63 L 28.93 45.28 a 1 1 0 0 1 -1.42 0 a 1 1 0 0 1 0 -1.42 L 40.88 30.5 a 4.1 4.1 0 0 1 2.93 -1.22 m 0 -1 a 5.18 5.18 0 0 0 -3.64 1.51 L 26.81 43.16 a 2 2 0 0 0 1.41 3.41 A 2 2 0 0 0 29.64 46 L 43 32.62 a 1.14 1.14 0 0 1 0.81 -0.34 A 1.16 1.16 0 0 1 45 33.43 a 1.14 1.14 0 0 1 -0.33 0.8 L 33.52 45.28 a 5.14 5.14 0 1 0 7.27 7.27 L 51.87 41.48 a 1.13 1.13 0 0 1 0.81 -0.33 a 1.14 1.14 0 0 1 0.81 2 l -11.11 11 a 5.15 5.15 0 1 0 7.28 7.28 L 60.73 50.34 a 1.17 1.17 0 0 1 0.81 -0.32 A 1.14 1.14 0 0 1 62.36 52 L 51.24 63 a 5.15 5.15 0 0 0 3.64 8.79 a 5.11 5.11 0 0 0 3.64 -1.51 L 71.82 57 a 2 2 0 0 0 0 -2.83 a 2 2 0 0 0 -2.83 0 l -13.3 13.3 a 1.12 1.12 0 0 1 -0.81 0.33 a 1.15 1.15 0 0 1 -0.81 -0.33 a 1.13 1.13 0 0 1 0 -1.61 L 65.18 54.79 a 5.14 5.14 0 0 0 0 -7.27 a 5.14 5.14 0 0 0 -7.28 0 L 46.83 58.59 a 1.12 1.12 0 0 1 -0.81 0.32 a 1.11 1.11 0 0 1 -0.81 -0.32 a 1.15 1.15 0 0 1 0 -1.62 l 11.12 -11 A 5.15 5.15 0 0 0 49 38.65 L 38 49.73 a 1.15 1.15 0 0 1 -2 -0.82 a 1.14 1.14 0 0 1 0.33 -0.8 l 11.11 -11 a 5.14 5.14 0 0 0 0 -7.28 a 5.14 5.14 0 0 0 -3.64 -1.51 Z" fill="#f6c" transform="scale(0.6) translate(-50 -50)"/></g><g transform="translate(1111.8370928734098, -619.1839723555604)"><path d="M54.88 71.29 a 4.58 4.58 0 0 1 -3.28 -1.36 a 4.65 4.65 0 0 1 0 -6.57 l 11.11 -11 A 1.65 1.65 0 0 0 60.38 50 L 49.3 61.06 a 4.65 4.65 0 0 1 -7.93 -3.28 a 4.66 4.66 0 0 1 1.36 -3.29 l 11.12 -11 a 1.65 1.65 0 0 0 -1.17 -2.8 a 1.67 1.67 0 0 0 -1.17 0.48 L 40.44 52.2 a 4.65 4.65 0 0 1 -6.57 -6.57 L 45 34.59 a 1.63 1.63 0 0 0 0.48 -1.16 A 1.67 1.67 0 0 0 45 32.26 a 1.65 1.65 0 0 0 -1.17 -0.48 a 1.63 1.63 0 0 0 -1.16 0.48 L 29.28 45.63 a 1.5 1.5 0 1 1 -2.12 -2.12 L 40.53 30.14 a 4.65 4.65 0 0 1 7.93 3.29 a 4.58 4.58 0 0 1 -1.36 3.28 L 36 47.75 a 1.65 1.65 0 0 0 0 2.33 a 1.65 1.65 0 0 0 2.33 0 L 49.39 39 A 4.65 4.65 0 0 1 56 39 a 4.65 4.65 0 0 1 0 6.57 l -11.11 11 a 1.64 1.64 0 0 0 0 2.32 a 1.66 1.66 0 0 0 1.17 0.47 a 1.64 1.64 0 0 0 1.16 -0.47 L 58.26 47.87 a 4.65 4.65 0 0 1 6.57 0 a 4.65 4.65 0 0 1 0 6.57 l -11.12 11 a 1.65 1.65 0 0 0 2.34 2.33 l 13.29 -13.3 a 1.51 1.51 0 0 1 2.13 0 a 1.5 1.5 0 0 1 0 2.12 l -13.3 13.3 A 4.62 4.62 0 0 1 54.88 71.29 Z" fill="#f6c" transform="scale(0.6) translate(-50 -50)"/><path d="M 43.81 29.28 a 4.15 4.15 0 0 1 2.94 7.08 l -11.12 11 A 2.14 2.14 0 0 0 35 48.91 a 2.14 2.14 0 0 0 3.66 1.52 L 49.75 39.36 a 4.14 4.14 0 0 1 5.86 5.86 L 44.49 56.27 a 2.13 2.13 0 0 0 -0.62 1.51 a 2.16 2.16 0 0 0 3.67 1.52 L 58.61 48.22 a 4.15 4.15 0 0 1 5.87 5.86 l -11.12 11 a 2.15 2.15 0 0 0 0 3 a 2.17 2.17 0 0 0 3 0 l 13.3 -13.3 a 1 1 0 1 1 1.41 1.42 L 57.81 69.57 a 4.13 4.13 0 0 1 -5.86 0 a 4.14 4.14 0 0 1 0 -5.86 l 11.12 -11 a 2.15 2.15 0 0 0 -3 -3 L 49 60.71 a 4.15 4.15 0 0 1 -5.87 -5.86 L 54.2 43.8 a 2.15 2.15 0 0 0 -3 -3 L 40.09 51.85 A 4.15 4.15 0 0 1 34.22 46 l 11.12 -11 a 2.15 2.15 0 0 0 -1.53 -3.66 a 2.09 2.09 0 0 0 -1.51 0.63 L 28.93 45.28 a 1 1 0 0 1 -1.42 0 a 1 1 0 0 1 0 -1.42 L 40.88 30.5 a 4.1 4.1 0 0 1 2.93 -1.22 m 0 -1 a 5.18 5.18 0 0 0 -3.64 1.51 L 26.81 43.16 a 2 2 0 0 0 1.41 3.41 A 2 2 0 0 0 29.64 46 L 43 32.62 a 1.14 1.14 0 0 1 0.81 -0.34 A 1.16 1.16 0 0 1 45 33.43 a 1.14 1.14 0 0 1 -0.33 0.8 L 33.52 45.28 a 5.14 5.14 0 1 0 7.27 7.27 L 51.87 41.48 a 1.13 1.13 0 0 1 0.81 -0.33 a 1.14 1.14 0 0 1 0.81 2 l -11.11 11 a 5.15 5.15 0 1 0 7.28 7.28 L 60.73 50.34 a 1.17 1.17 0 0 1 0.81 -0.32 A 1.14 1.14 0 0 1 62.36 52 L 51.24 63 a 5.15 5.15 0 0 0 3.64 8.79 a 5.11 5.11 0 0 0 3.64 -1.51 L 71.82 57 a 2 2 0 0 0 0 -2.83 a 2 2 0 0 0 -2.83 0 l -13.3 13.3 a 1.12 1.12 0 0 1 -0.81 0.33 a 1.15 1.15 0 0 1 -0.81 -0.33 a 1.13 1.13 0 0 1 0 -1.61 L 65.18 54.79 a 5.14 5.14 0 0 0 0 -7.27 a 5.14 5.14 0 0 0 -7.28 0 L 46.83 58.59 a 1.12 1.12 0 0 1 -0.81 0.32 a 1.11 1.11 0 0 1 -0.81 -0.32 a 1.15 1.15 0 0 1 0 -1.62 l 11.12 -11 A 5.15 5.15 0 0 0 49 38.65 L 38 49.73 a 1.15 1.15 0 0 1 -2 -0.82 a 1.14 1.14 0 0 1 0.33 -0.8 l 11.11 -11 a 5.14 5.14 0 0 0 0 -7.28 a 5.14 5.14 0 0 0 -3.64 -1.51 Z" fill="#f6c" transform="scale(0.6) translate(-50 -50)"/></g><g transform="translate(1404.0269373020603, -615.2354609443624)"><path d="M54.88 71.29 a 4.58 4.58 0 0 1 -3.28 -1.36 a 4.65 4.65 0 0 1 0 -6.57 l 11.11 -11 A 1.65 1.65 0 0 0 60.38 50 L 49.3 61.06 a 4.65 4.65 0 0 1 -7.93 -3.28 a 4.66 4.66 0 0 1 1.36 -3.29 l 11.12 -11 a 1.65 1.65 0 0 0 -1.17 -2.8 a 1.67 1.67 0 0 0 -1.17 0.48 L 40.44 52.2 a 4.65 4.65 0 0 1 -6.57 -6.57 L 45 34.59 a 1.63 1.63 0 0 0 0.48 -1.16 A 1.67 1.67 0 0 0 45 32.26 a 1.65 1.65 0 0 0 -1.17 -0.48 a 1.63 1.63 0 0 0 -1.16 0.48 L 29.28 45.63 a 1.5 1.5 0 1 1 -2.12 -2.12 L 40.53 30.14 a 4.65 4.65 0 0 1 7.93 3.29 a 4.58 4.58 0 0 1 -1.36 3.28 L 36 47.75 a 1.65 1.65 0 0 0 0 2.33 a 1.65 1.65 0 0 0 2.33 0 L 49.39 39 A 4.65 4.65 0 0 1 56 39 a 4.65 4.65 0 0 1 0 6.57 l -11.11 11 a 1.64 1.64 0 0 0 0 2.32 a 1.66 1.66 0 0 0 1.17 0.47 a 1.64 1.64 0 0 0 1.16 -0.47 L 58.26 47.87 a 4.65 4.65 0 0 1 6.57 0 a 4.65 4.65 0 0 1 0 6.57 l -11.12 11 a 1.65 1.65 0 0 0 2.34 2.33 l 13.29 -13.3 a 1.51 1.51 0 0 1 2.13 0 a 1.5 1.5 0 0 1 0 2.12 l -13.3 13.3 A 4.62 4.62 0 0 1 54.88 71.29 Z" fill="#f6c" transform="scale(0.6) translate(-50 -50)"/><path d="M 43.81 29.28 a 4.15 4.15 0 0 1 2.94 7.08 l -11.12 11 A 2.14 2.14 0 0 0 35 48.91 a 2.14 2.14 0 0 0 3.66 1.52 L 49.75 39.36 a 4.14 4.14 0 0 1 5.86 5.86 L 44.49 56.27 a 2.13 2.13 0 0 0 -0.62 1.51 a 2.16 2.16 0 0 0 3.67 1.52 L 58.61 48.22 a 4.15 4.15 0 0 1 5.87 5.86 l -11.12 11 a 2.15 2.15 0 0 0 0 3 a 2.17 2.17 0 0 0 3 0 l 13.3 -13.3 a 1 1 0 1 1 1.41 1.42 L 57.81 69.57 a 4.13 4.13 0 0 1 -5.86 0 a 4.14 4.14 0 0 1 0 -5.86 l 11.12 -11 a 2.15 2.15 0 0 0 -3 -3 L 49 60.71 a 4.15 4.15 0 0 1 -5.87 -5.86 L 54.2 43.8 a 2.15 2.15 0 0 0 -3 -3 L 40.09 51.85 A 4.15 4.15 0 0 1 34.22 46 l 11.12 -11 a 2.15 2.15 0 0 0 -1.53 -3.66 a 2.09 2.09 0 0 0 -1.51 0.63 L 28.93 45.28 a 1 1 0 0 1 -1.42 0 a 1 1 0 0 1 0 -1.42 L 40.88 30.5 a 4.1 4.1 0 0 1 2.93 -1.22 m 0 -1 a 5.18 5.18 0 0 0 -3.64 1.51 L 26.81 43.16 a 2 2 0 0 0 1.41 3.41 A 2 2 0 0 0 29.64 46 L 43 32.62 a 1.14 1.14 0 0 1 0.81 -0.34 A 1.16 1.16 0 0 1 45 33.43 a 1.14 1.14 0 0 1 -0.33 0.8 L 33.52 45.28 a 5.14 5.14 0 1 0 7.27 7.27 L 51.87 41.48 a 1.13 1.13 0 0 1 0.81 -0.33 a 1.14 1.14 0 0 1 0.81 2 l -11.11 11 a 5.15 5.15 0 1 0 7.28 7.28 L 60.73 50.34 a 1.17 1.17 0 0 1 0.81 -0.32 A 1.14 1.14 0 0 1 62.36 52 L 51.24 63 a 5.15 5.15 0 0 0 3.64 8.79 a 5.11 5.11 0 0 0 3.64 -1.51 L 71.82 57 a 2 2 0 0 0 0 -2.83 a 2 2 0 0 0 -2.83 0 l -13.3 13.3 a 1.12 1.12 0 0 1 -0.81 0.33 a 1.15 1.15 0 0 1 -0.81 -0.33 a 1.13 1.13 0 0 1 0 -1.61 L 65.18 54.79 a 5.14 5.14 0 0 0 0 -7.27 a 5.14 5.14 0 0 0 -7.28 0 L 46.83 58.59 a 1.12 1.12 0 0 1 -0.81 0.32 a 1.11 1.11 0 0 1 -0.81 -0.32 a 1.15 1.15 0 0 1 0 -1.62 l 11.12 -11 A 5.15 5.15 0 0 0 49 38.65 L 38 49.73 a 1.15 1.15 0 0 1 -2 -0.82 a 1.14 1.14 0 0 1 0.33 -0.8 l 11.11 -11 a 5.14 5.14 0 0 0 0 -7.28 a 5.14 5.14 0 0 0 -3.64 -1.51 Z" fill="#f6c" transform="scale(0.6) translate(-50 -50)"/></g><g transform="translate(1109.8628371678108, -542.1879998371998)"><path d="M54.88 71.29 a 4.58 4.58 0 0 1 -3.28 -1.36 a 4.65 4.65 0 0 1 0 -6.57 l 11.11 -11 A 1.65 1.65 0 0 0 60.38 50 L 49.3 61.06 a 4.65 4.65 0 0 1 -7.93 -3.28 a 4.66 4.66 0 0 1 1.36 -3.29 l 11.12 -11 a 1.65 1.65 0 0 0 -1.17 -2.8 a 1.67 1.67 0 0 0 -1.17 0.48 L 40.44 52.2 a 4.65 4.65 0 0 1 -6.57 -6.57 L 45 34.59 a 1.63 1.63 0 0 0 0.48 -1.16 A 1.67 1.67 0 0 0 45 32.26 a 1.65 1.65 0 0 0 -1.17 -0.48 a 1.63 1.63 0 0 0 -1.16 0.48 L 29.28 45.63 a 1.5 1.5 0 1 1 -2.12 -2.12 L 40.53 30.14 a 4.65 4.65 0 0 1 7.93 3.29 a 4.58 4.58 0 0 1 -1.36 3.28 L 36 47.75 a 1.65 1.65 0 0 0 0 2.33 a 1.65 1.65 0 0 0 2.33 0 L 49.39 39 A 4.65 4.65 0 0 1 56 39 a 4.65 4.65 0 0 1 0 6.57 l -11.11 11 a 1.64 1.64 0 0 0 0 2.32 a 1.66 1.66 0 0 0 1.17 0.47 a 1.64 1.64 0 0 0 1.16 -0.47 L 58.26 47.87 a 4.65 4.65 0 0 1 6.57 0 a 4.65 4.65 0 0 1 0 6.57 l -11.12 11 a 1.65 1.65 0 0 0 2.34 2.33 l 13.29 -13.3 a 1.51 1.51 0 0 1 2.13 0 a 1.5 1.5 0 0 1 0 2.12 l -13.3 13.3 A 4.62 4.62 0 0 1 54.88 71.29 Z" fill="#ff9900" transform="scale(0.6) translate(-50 -50)"/><path d="M 43.81 29.28 a 4.15 4.15 0 0 1 2.94 7.08 l -11.12 11 A 2.14 2.14 0 0 0 35 48.91 a 2.14 2.14 0 0 0 3.66 1.52 L 49.75 39.36 a 4.14 4.14 0 0 1 5.86 5.86 L 44.49 56.27 a 2.13 2.13 0 0 0 -0.62 1.51 a 2.16 2.16 0 0 0 3.67 1.52 L 58.61 48.22 a 4.15 4.15 0 0 1 5.87 5.86 l -11.12 11 a 2.15 2.15 0 0 0 0 3 a 2.17 2.17 0 0 0 3 0 l 13.3 -13.3 a 1 1 0 1 1 1.41 1.42 L 57.81 69.57 a 4.13 4.13 0 0 1 -5.86 0 a 4.14 4.14 0 0 1 0 -5.86 l 11.12 -11 a 2.15 2.15 0 0 0 -3 -3 L 49 60.71 a 4.15 4.15 0 0 1 -5.87 -5.86 L 54.2 43.8 a 2.15 2.15 0 0 0 -3 -3 L 40.09 51.85 A 4.15 4.15 0 0 1 34.22 46 l 11.12 -11 a 2.15 2.15 0 0 0 -1.53 -3.66 a 2.09 2.09 0 0 0 -1.51 0.63 L 28.93 45.28 a 1 1 0 0 1 -1.42 0 a 1 1 0 0 1 0 -1.42 L 40.88 30.5 a 4.1 4.1 0 0 1 2.93 -1.22 m 0 -1 a 5.18 5.18 0 0 0 -3.64 1.51 L 26.81 43.16 a 2 2 0 0 0 1.41 3.41 A 2 2 0 0 0 29.64 46 L 43 32.62 a 1.14 1.14 0 0 1 0.81 -0.34 A 1.16 1.16 0 0 1 45 33.43 a 1.14 1.14 0 0 1 -0.33 0.8 L 33.52 45.28 a 5.14 5.14 0 1 0 7.27 7.27 L 51.87 41.48 a 1.13 1.13 0 0 1 0.81 -0.33 a 1.14 1.14 0 0 1 0.81 2 l -11.11 11 a 5.15 5.15 0 1 0 7.28 7.28 L 60.73 50.34 a 1.17 1.17 0 0 1 0.81 -0.32 A 1.14 1.14 0 0 1 62.36 52 L 51.24 63 a 5.15 5.15 0 0 0 3.64 8.79 a 5.11 5.11 0 0 0 3.64 -1.51 L 71.82 57 a 2 2 0 0 0 0 -2.83 a 2 2 0 0 0 -2.83 0 l -13.3 13.3 a 1.12 1.12 0 0 1 -0.81 0.33 a 1.15 1.15 0 0 1 -0.81 -0.33 a 1.13 1.13 0 0 1 0 -1.61 L 65.18 54.79 a 5.14 5.14 0 0 0 0 -7.27 a 5.14 5.14 0 0 0 -7.28 0 L 46.83 58.59 a 1.12 1.12 0 0 1 -0.81 0.32 a 1.11 1.11 0 0 1 -0.81 -0.32 a 1.15 1.15 0 0 1 0 -1.62 l 11.12 -11 A 5.15 5.15 0 0 0 49 38.65 L 38 49.73 a 1.15 1.15 0 0 1 -2 -0.82 a 1.14 1.14 0 0 1 0.33 -0.8 l 11.11 -11 a 5.14 5.14 0 0 0 0 -7.28 a 5.14 5.14 0 0 0 -3.64 -1.51 Z" fill="#ff9900" transform="scale(0.6) translate(-50 -50)"/></g><g transform="translate(1406.0011930076594, -542.1879998371998)"><path d="M54.88 71.29 a 4.58 4.58 0 0 1 -3.28 -1.36 a 4.65 4.65 0 0 1 0 -6.57 l 11.11 -11 A 1.65 1.65 0 0 0 60.38 50 L 49.3 61.06 a 4.65 4.65 0 0 1 -7.93 -3.28 a 4.66 4.66 0 0 1 1.36 -3.29 l 11.12 -11 a 1.65 1.65 0 0 0 -1.17 -2.8 a 1.67 1.67 0 0 0 -1.17 0.48 L 40.44 52.2 a 4.65 4.65 0 0 1 -6.57 -6.57 L 45 34.59 a 1.63 1.63 0 0 0 0.48 -1.16 A 1.67 1.67 0 0 0 45 32.26 a 1.65 1.65 0 0 0 -1.17 -0.48 a 1.63 1.63 0 0 0 -1.16 0.48 L 29.28 45.63 a 1.5 1.5 0 1 1 -2.12 -2.12 L 40.53 30.14 a 4.65 4.65 0 0 1 7.93 3.29 a 4.58 4.58 0 0 1 -1.36 3.28 L 36 47.75 a 1.65 1.65 0 0 0 0 2.33 a 1.65 1.65 0 0 0 2.33 0 L 49.39 39 A 4.65 4.65 0 0 1 56 39 a 4.65 4.65 0 0 1 0 6.57 l -11.11 11 a 1.64 1.64 0 0 0 0 2.32 a 1.66 1.66 0 0 0 1.17 0.47 a 1.64 1.64 0 0 0 1.16 -0.47 L 58.26 47.87 a 4.65 4.65 0 0 1 6.57 0 a 4.65 4.65 0 0 1 0 6.57 l -11.12 11 a 1.65 1.65 0 0 0 2.34 2.33 l 13.29 -13.3 a 1.51 1.51 0 0 1 2.13 0 a 1.5 1.5 0 0 1 0 2.12 l -13.3 13.3 A 4.62 4.62 0 0 1 54.88 71.29 Z" fill="#ff9900" transform="scale(0.6) translate(-50 -50)"/><path d="M 43.81 29.28 a 4.15 4.15 0 0 1 2.94 7.08 l -11.12 11 A 2.14 2.14 0 0 0 35 48.91 a 2.14 2.14 0 0 0 3.66 1.52 L 49.75 39.36 a 4.14 4.14 0 0 1 5.86 5.86 L 44.49 56.27 a 2.13 2.13 0 0 0 -0.62 1.51 a 2.16 2.16 0 0 0 3.67 1.52 L 58.61 48.22 a 4.15 4.15 0 0 1 5.87 5.86 l -11.12 11 a 2.15 2.15 0 0 0 0 3 a 2.17 2.17 0 0 0 3 0 l 13.3 -13.3 a 1 1 0 1 1 1.41 1.42 L 57.81 69.57 a 4.13 4.13 0 0 1 -5.86 0 a 4.14 4.14 0 0 1 0 -5.86 l 11.12 -11 a 2.15 2.15 0 0 0 -3 -3 L 49 60.71 a 4.15 4.15 0 0 1 -5.87 -5.86 L 54.2 43.8 a 2.15 2.15 0 0 0 -3 -3 L 40.09 51.85 A 4.15 4.15 0 0 1 34.22 46 l 11.12 -11 a 2.15 2.15 0 0 0 -1.53 -3.66 a 2.09 2.09 0 0 0 -1.51 0.63 L 28.93 45.28 a 1 1 0 0 1 -1.42 0 a 1 1 0 0 1 0 -1.42 L 40.88 30.5 a 4.1 4.1 0 0 1 2.93 -1.22 m 0 -1 a 5.18 5.18 0 0 0 -3.64 1.51 L 26.81 43.16 a 2 2 0 0 0 1.41 3.41 A 2 2 0 0 0 29.64 46 L 43 32.62 a 1.14 1.14 0 0 1 0.81 -0.34 A 1.16 1.16 0 0 1 45 33.43 a 1.14 1.14 0 0 1 -0.33 0.8 L 33.52 45.28 a 5.14 5.14 0 1 0 7.27 7.27 L 51.87 41.48 a 1.13 1.13 0 0 1 0.81 -0.33 a 1.14 1.14 0 0 1 0.81 2 l -11.11 11 a 5.15 5.15 0 1 0 7.28 7.28 L 60.73 50.34 a 1.17 1.17 0 0 1 0.81 -0.32 A 1.14 1.14 0 0 1 62.36 52 L 51.24 63 a 5.15 5.15 0 0 0 3.64 8.79 a 5.11 5.11 0 0 0 3.64 -1.51 L 71.82 57 a 2 2 0 0 0 0 -2.83 a 2 2 0 0 0 -2.83 0 l -13.3 13.3 a 1.12 1.12 0 0 1 -0.81 0.33 a 1.15 1.15 0 0 1 -0.81 -0.33 a 1.13 1.13 0 0 1 0 -1.61 L 65.18 54.79 a 5.14 5.14 0 0 0 0 -7.27 a 5.14 5.14 0 0 0 -7.28 0 L 46.83 58.59 a 1.12 1.12 0 0 1 -0.81 0.32 a 1.11 1.11 0 0 1 -0.81 -0.32 a 1.15 1.15 0 0 1 0 -1.62 l 11.12 -11 A 5.15 5.15 0 0 0 49 38.65 L 38 49.73 a 1.15 1.15 0 0 1 -2 -0.82 a 1.14 1.14 0 0 1 0.33 -0.8 l 11.11 -11 a 5.14 5.14 0 0 0 0 -7.28 a 5.14 5.14 0 0 0 -3.64 -1.51 Z" fill="#ff9900" transform="scale(0.6) translate(-50 -50)"/></g><g transform="translate(1111.8370928734098, -415.8356346788643)"><path d="M54.88 71.29 a 4.58 4.58 0 0 1 -3.28 -1.36 a 4.65 4.65 0 0 1 0 -6.57 l 11.11 -11 A 1.65 1.65 0 0 0 60.38 50 L 49.3 61.06 a 4.65 4.65 0 0 1 -7.93 -3.28 a 4.66 4.66 0 0 1 1.36 -3.29 l 11.12 -11 a 1.65 1.65 0 0 0 -1.17 -2.8 a 1.67 1.67 0 0 0 -1.17 0.48 L 40.44 52.2 a 4.65 4.65 0 0 1 -6.57 -6.57 L 45 34.59 a 1.63 1.63 0 0 0 0.48 -1.16 A 1.67 1.67 0 0 0 45 32.26 a 1.65 1.65 0 0 0 -1.17 -0.48 a 1.63 1.63 0 0 0 -1.16 0.48 L 29.28 45.63 a 1.5 1.5 0 1 1 -2.12 -2.12 L 40.53 30.14 a 4.65 4.65 0 0 1 7.93 3.29 a 4.58 4.58 0 0 1 -1.36 3.28 L 36 47.75 a 1.65 1.65 0 0 0 0 2.33 a 1.65 1.65 0 0 0 2.33 0 L 49.39 39 A 4.65 4.65 0 0 1 56 39 a 4.65 4.65 0 0 1 0 6.57 l -11.11 11 a 1.64 1.64 0 0 0 0 2.32 a 1.66 1.66 0 0 0 1.17 0.47 a 1.64 1.64 0 0 0 1.16 -0.47 L 58.26 47.87 a 4.65 4.65 0 0 1 6.57 0 a 4.65 4.65 0 0 1 0 6.57 l -11.12 11 a 1.65 1.65 0 0 0 2.34 2.33 l 13.29 -13.3 a 1.51 1.51 0 0 1 2.13 0 a 1.5 1.5 0 0 1 0 2.12 l -13.3 13.3 A 4.62 4.62 0 0 1 54.88 71.29 Z" fill="#f6c" transform="scale(0.6) translate(-50 -50)"/><path d="M 43.81 29.28 a 4.15 4.15 0 0 1 2.94 7.08 l -11.12 11 A 2.14 2.14 0 0 0 35 48.91 a 2.14 2.14 0 0 0 3.66 1.52 L 49.75 39.36 a 4.14 4.14 0 0 1 5.86 5.86 L 44.49 56.27 a 2.13 2.13 0 0 0 -0.62 1.51 a 2.16 2.16 0 0 0 3.67 1.52 L 58.61 48.22 a 4.15 4.15 0 0 1 5.87 5.86 l -11.12 11 a 2.15 2.15 0 0 0 0 3 a 2.17 2.17 0 0 0 3 0 l 13.3 -13.3 a 1 1 0 1 1 1.41 1.42 L 57.81 69.57 a 4.13 4.13 0 0 1 -5.86 0 a 4.14 4.14 0 0 1 0 -5.86 l 11.12 -11 a 2.15 2.15 0 0 0 -3 -3 L 49 60.71 a 4.15 4.15 0 0 1 -5.87 -5.86 L 54.2 43.8 a 2.15 2.15 0 0 0 -3 -3 L 40.09 51.85 A 4.15 4.15 0 0 1 34.22 46 l 11.12 -11 a 2.15 2.15 0 0 0 -1.53 -3.66 a 2.09 2.09 0 0 0 -1.51 0.63 L 28.93 45.28 a 1 1 0 0 1 -1.42 0 a 1 1 0 0 1 0 -1.42 L 40.88 30.5 a 4.1 4.1 0 0 1 2.93 -1.22 m 0 -1 a 5.18 5.18 0 0 0 -3.64 1.51 L 26.81 43.16 a 2 2 0 0 0 1.41 3.41 A 2 2 0 0 0 29.64 46 L 43 32.62 a 1.14 1.14 0 0 1 0.81 -0.34 A 1.16 1.16 0 0 1 45 33.43 a 1.14 1.14 0 0 1 -0.33 0.8 L 33.52 45.28 a 5.14 5.14 0 1 0 7.27 7.27 L 51.87 41.48 a 1.13 1.13 0 0 1 0.81 -0.33 a 1.14 1.14 0 0 1 0.81 2 l -11.11 11 a 5.15 5.15 0 1 0 7.28 7.28 L 60.73 50.34 a 1.17 1.17 0 0 1 0.81 -0.32 A 1.14 1.14 0 0 1 62.36 52 L 51.24 63 a 5.15 5.15 0 0 0 3.64 8.79 a 5.11 5.11 0 0 0 3.64 -1.51 L 71.82 57 a 2 2 0 0 0 0 -2.83 a 2 2 0 0 0 -2.83 0 l -13.3 13.3 a 1.12 1.12 0 0 1 -0.81 0.33 a 1.15 1.15 0 0 1 -0.81 -0.33 a 1.13 1.13 0 0 1 0 -1.61 L 65.18 54.79 a 5.14 5.14 0 0 0 0 -7.27 a 5.14 5.14 0 0 0 -7.28 0 L 46.83 58.59 a 1.12 1.12 0 0 1 -0.81 0.32 a 1.11 1.11 0 0 1 -0.81 -0.32 a 1.15 1.15 0 0 1 0 -1.62 l 11.12 -11 A 5.15 5.15 0 0 0 49 38.65 L 38 49.73 a 1.15 1.15 0 0 1 -2 -0.82 a 1.14 1.14 0 0 1 0.33 -0.8 l 11.11 -11 a 5.14 5.14 0 0 0 0 -7.28 a 5.14 5.14 0 0 0 -3.64 -1.51 Z" fill="#f6c" transform="scale(0.6) translate(-50 -50)"/></g><g transform="translate(1402.0526815964613, -415.8356346788643)"><path d="M54.88 71.29 a 4.58 4.58 0 0 1 -3.28 -1.36 a 4.65 4.65 0 0 1 0 -6.57 l 11.11 -11 A 1.65 1.65 0 0 0 60.38 50 L 49.3 61.06 a 4.65 4.65 0 0 1 -7.93 -3.28 a 4.66 4.66 0 0 1 1.36 -3.29 l 11.12 -11 a 1.65 1.65 0 0 0 -1.17 -2.8 a 1.67 1.67 0 0 0 -1.17 0.48 L 40.44 52.2 a 4.65 4.65 0 0 1 -6.57 -6.57 L 45 34.59 a 1.63 1.63 0 0 0 0.48 -1.16 A 1.67 1.67 0 0 0 45 32.26 a 1.65 1.65 0 0 0 -1.17 -0.48 a 1.63 1.63 0 0 0 -1.16 0.48 L 29.28 45.63 a 1.5 1.5 0 1 1 -2.12 -2.12 L 40.53 30.14 a 4.65 4.65 0 0 1 7.93 3.29 a 4.58 4.58 0 0 1 -1.36 3.28 L 36 47.75 a 1.65 1.65 0 0 0 0 2.33 a 1.65 1.65 0 0 0 2.33 0 L 49.39 39 A 4.65 4.65 0 0 1 56 39 a 4.65 4.65 0 0 1 0 6.57 l -11.11 11 a 1.64 1.64 0 0 0 0 2.32 a 1.66 1.66 0 0 0 1.17 0.47 a 1.64 1.64 0 0 0 1.16 -0.47 L 58.26 47.87 a 4.65 4.65 0 0 1 6.57 0 a 4.65 4.65 0 0 1 0 6.57 l -11.12 11 a 1.65 1.65 0 0 0 2.34 2.33 l 13.29 -13.3 a 1.51 1.51 0 0 1 2.13 0 a 1.5 1.5 0 0 1 0 2.12 l -13.3 13.3 A 4.62 4.62 0 0 1 54.88 71.29 Z" fill="#f6c" transform="scale(0.6) translate(-50 -50)"/><path d="M 43.81 29.28 a 4.15 4.15 0 0 1 2.94 7.08 l -11.12 11 A 2.14 2.14 0 0 0 35 48.91 a 2.14 2.14 0 0 0 3.66 1.52 L 49.75 39.36 a 4.14 4.14 0 0 1 5.86 5.86 L 44.49 56.27 a 2.13 2.13 0 0 0 -0.62 1.51 a 2.16 2.16 0 0 0 3.67 1.52 L 58.61 48.22 a 4.15 4.15 0 0 1 5.87 5.86 l -11.12 11 a 2.15 2.15 0 0 0 0 3 a 2.17 2.17 0 0 0 3 0 l 13.3 -13.3 a 1 1 0 1 1 1.41 1.42 L 57.81 69.57 a 4.13 4.13 0 0 1 -5.86 0 a 4.14 4.14 0 0 1 0 -5.86 l 11.12 -11 a 2.15 2.15 0 0 0 -3 -3 L 49 60.71 a 4.15 4.15 0 0 1 -5.87 -5.86 L 54.2 43.8 a 2.15 2.15 0 0 0 -3 -3 L 40.09 51.85 A 4.15 4.15 0 0 1 34.22 46 l 11.12 -11 a 2.15 2.15 0 0 0 -1.53 -3.66 a 2.09 2.09 0 0 0 -1.51 0.63 L 28.93 45.28 a 1 1 0 0 1 -1.42 0 a 1 1 0 0 1 0 -1.42 L 40.88 30.5 a 4.1 4.1 0 0 1 2.93 -1.22 m 0 -1 a 5.18 5.18 0 0 0 -3.64 1.51 L 26.81 43.16 a 2 2 0 0 0 1.41 3.41 A 2 2 0 0 0 29.64 46 L 43 32.62 a 1.14 1.14 0 0 1 0.81 -0.34 A 1.16 1.16 0 0 1 45 33.43 a 1.14 1.14 0 0 1 -0.33 0.8 L 33.52 45.28 a 5.14 5.14 0 1 0 7.27 7.27 L 51.87 41.48 a 1.13 1.13 0 0 1 0.81 -0.33 a 1.14 1.14 0 0 1 0.81 2 l -11.11 11 a 5.15 5.15 0 1 0 7.28 7.28 L 60.73 50.34 a 1.17 1.17 0 0 1 0.81 -0.32 A 1.14 1.14 0 0 1 62.36 52 L 51.24 63 a 5.15 5.15 0 0 0 3.64 8.79 a 5.11 5.11 0 0 0 3.64 -1.51 L 71.82 57 a 2 2 0 0 0 0 -2.83 a 2 2 0 0 0 -2.83 0 l -13.3 13.3 a 1.12 1.12 0 0 1 -0.81 0.33 a 1.15 1.15 0 0 1 -0.81 -0.33 a 1.13 1.13 0 0 1 0 -1.61 L 65.18 54.79 a 5.14 5.14 0 0 0 0 -7.27 a 5.14 5.14 0 0 0 -7.28 0 L 46.83 58.59 a 1.12 1.12 0 0 1 -0.81 0.32 a 1.11 1.11 0 0 1 -0.81 -0.32 a 1.15 1.15 0 0 1 0 -1.62 l 11.12 -11 A 5.15 5.15 0 0 0 49 38.65 L 38 49.73 a 1.15 1.15 0 0 1 -2 -0.82 a 1.14 1.14 0 0 1 0.33 -0.8 l 11.11 -11 a 5.14 5.14 0 0 0 0 -7.28 a 5.14 5.14 0 0 0 -3.64 -1.51 Z" fill="#f6c" transform="scale(0.6) translate(-50 -50)"/></g><g transform="translate(1048.660910294242, -366.47924203888954)"><path d="M54.88 71.29 a 4.58 4.58 0 0 1 -3.28 -1.36 a 4.65 4.65 0 0 1 0 -6.57 l 11.11 -11 A 1.65 1.65 0 0 0 60.38 50 L 49.3 61.06 a 4.65 4.65 0 0 1 -7.93 -3.28 a 4.66 4.66 0 0 1 1.36 -3.29 l 11.12 -11 a 1.65 1.65 0 0 0 -1.17 -2.8 a 1.67 1.67 0 0 0 -1.17 0.48 L 40.44 52.2 a 4.65 4.65 0 0 1 -6.57 -6.57 L 45 34.59 a 1.63 1.63 0 0 0 0.48 -1.16 A 1.67 1.67 0 0 0 45 32.26 a 1.65 1.65 0 0 0 -1.17 -0.48 a 1.63 1.63 0 0 0 -1.16 0.48 L 29.28 45.63 a 1.5 1.5 0 1 1 -2.12 -2.12 L 40.53 30.14 a 4.65 4.65 0 0 1 7.93 3.29 a 4.58 4.58 0 0 1 -1.36 3.28 L 36 47.75 a 1.65 1.65 0 0 0 0 2.33 a 1.65 1.65 0 0 0 2.33 0 L 49.39 39 A 4.65 4.65 0 0 1 56 39 a 4.65 4.65 0 0 1 0 6.57 l -11.11 11 a 1.64 1.64 0 0 0 0 2.32 a 1.66 1.66 0 0 0 1.17 0.47 a 1.64 1.64 0 0 0 1.16 -0.47 L 58.26 47.87 a 4.65 4.65 0 0 1 6.57 0 a 4.65 4.65 0 0 1 0 6.57 l -11.12 11 a 1.65 1.65 0 0 0 2.34 2.33 l 13.29 -13.3 a 1.51 1.51 0 0 1 2.13 0 a 1.5 1.5 0 0 1 0 2.12 l -13.3 13.3 A 4.62 4.62 0 0 1 54.88 71.29 Z" fill="#ff9900" transform="scale(0.6) translate(-50 -50)"/><path d="M 43.81 29.28 a 4.15 4.15 0 0 1 2.94 7.08 l -11.12 11 A 2.14 2.14 0 0 0 35 48.91 a 2.14 2.14 0 0 0 3.66 1.52 L 49.75 39.36 a 4.14 4.14 0 0 1 5.86 5.86 L 44.49 56.27 a 2.13 2.13 0 0 0 -0.62 1.51 a 2.16 2.16 0 0 0 3.67 1.52 L 58.61 48.22 a 4.15 4.15 0 0 1 5.87 5.86 l -11.12 11 a 2.15 2.15 0 0 0 0 3 a 2.17 2.17 0 0 0 3 0 l 13.3 -13.3 a 1 1 0 1 1 1.41 1.42 L 57.81 69.57 a 4.13 4.13 0 0 1 -5.86 0 a 4.14 4.14 0 0 1 0 -5.86 l 11.12 -11 a 2.15 2.15 0 0 0 -3 -3 L 49 60.71 a 4.15 4.15 0 0 1 -5.87 -5.86 L 54.2 43.8 a 2.15 2.15 0 0 0 -3 -3 L 40.09 51.85 A 4.15 4.15 0 0 1 34.22 46 l 11.12 -11 a 2.15 2.15 0 0 0 -1.53 -3.66 a 2.09 2.09 0 0 0 -1.51 0.63 L 28.93 45.28 a 1 1 0 0 1 -1.42 0 a 1 1 0 0 1 0 -1.42 L 40.88 30.5 a 4.1 4.1 0 0 1 2.93 -1.22 m 0 -1 a 5.18 5.18 0 0 0 -3.64 1.51 L 26.81 43.16 a 2 2 0 0 0 1.41 3.41 A 2 2 0 0 0 29.64 46 L 43 32.62 a 1.14 1.14 0 0 1 0.81 -0.34 A 1.16 1.16 0 0 1 45 33.43 a 1.14 1.14 0 0 1 -0.33 0.8 L 33.52 45.28 a 5.14 5.14 0 1 0 7.27 7.27 L 51.87 41.48 a 1.13 1.13 0 0 1 0.81 -0.33 a 1.14 1.14 0 0 1 0.81 2 l -11.11 11 a 5.15 5.15 0 1 0 7.28 7.28 L 60.73 50.34 a 1.17 1.17 0 0 1 0.81 -0.32 A 1.14 1.14 0 0 1 62.36 52 L 51.24 63 a 5.15 5.15 0 0 0 3.64 8.79 a 5.11 5.11 0 0 0 3.64 -1.51 L 71.82 57 a 2 2 0 0 0 0 -2.83 a 2 2 0 0 0 -2.83 0 l -13.3 13.3 a 1.12 1.12 0 0 1 -0.81 0.33 a 1.15 1.15 0 0 1 -0.81 -0.33 a 1.13 1.13 0 0 1 0 -1.61 L 65.18 54.79 a 5.14 5.14 0 0 0 0 -7.27 a 5.14 5.14 0 0 0 -7.28 0 L 46.83 58.59 a 1.12 1.12 0 0 1 -0.81 0.32 a 1.11 1.11 0 0 1 -0.81 -0.32 a 1.15 1.15 0 0 1 0 -1.62 l 11.12 -11 A 5.15 5.15 0 0 0 49 38.65 L 38 49.73 a 1.15 1.15 0 0 1 -2 -0.82 a 1.14 1.14 0 0 1 0.33 -0.8 l 11.11 -11 a 5.14 5.14 0 0 0 0 -7.28 a 5.14 5.14 0 0 0 -3.64 -1.51 Z" fill="#ff9900" transform="scale(0.6) translate(-50 -50)"/></g><g transform="translate(1431.6665171804464, -356.6079635108946)"><path d="M54.88 71.29 a 4.58 4.58 0 0 1 -3.28 -1.36 a 4.65 4.65 0 0 1 0 -6.57 l 11.11 -11 A 1.65 1.65 0 0 0 60.38 50 L 49.3 61.06 a 4.65 4.65 0 0 1 -7.93 -3.28 a 4.66 4.66 0 0 1 1.36 -3.29 l 11.12 -11 a 1.65 1.65 0 0 0 -1.17 -2.8 a 1.67 1.67 0 0 0 -1.17 0.48 L 40.44 52.2 a 4.65 4.65 0 0 1 -6.57 -6.57 L 45 34.59 a 1.63 1.63 0 0 0 0.48 -1.16 A 1.67 1.67 0 0 0 45 32.26 a 1.65 1.65 0 0 0 -1.17 -0.48 a 1.63 1.63 0 0 0 -1.16 0.48 L 29.28 45.63 a 1.5 1.5 0 1 1 -2.12 -2.12 L 40.53 30.14 a 4.65 4.65 0 0 1 7.93 3.29 a 4.58 4.58 0 0 1 -1.36 3.28 L 36 47.75 a 1.65 1.65 0 0 0 0 2.33 a 1.65 1.65 0 0 0 2.33 0 L 49.39 39 A 4.65 4.65 0 0 1 56 39 a 4.65 4.65 0 0 1 0 6.57 l -11.11 11 a 1.64 1.64 0 0 0 0 2.32 a 1.66 1.66 0 0 0 1.17 0.47 a 1.64 1.64 0 0 0 1.16 -0.47 L 58.26 47.87 a 4.65 4.65 0 0 1 6.57 0 a 4.65 4.65 0 0 1 0 6.57 l -11.12 11 a 1.65 1.65 0 0 0 2.34 2.33 l 13.29 -13.3 a 1.51 1.51 0 0 1 2.13 0 a 1.5 1.5 0 0 1 0 2.12 l -13.3 13.3 A 4.62 4.62 0 0 1 54.88 71.29 Z" fill="#ff9900" transform="scale(0.6) translate(-50 -50)"/><path d="M 43.81 29.28 a 4.15 4.15 0 0 1 2.94 7.08 l -11.12 11 A 2.14 2.14 0 0 0 35 48.91 a 2.14 2.14 0 0 0 3.66 1.52 L 49.75 39.36 a 4.14 4.14 0 0 1 5.86 5.86 L 44.49 56.27 a 2.13 2.13 0 0 0 -0.62 1.51 a 2.16 2.16 0 0 0 3.67 1.52 L 58.61 48.22 a 4.15 4.15 0 0 1 5.87 5.86 l -11.12 11 a 2.15 2.15 0 0 0 0 3 a 2.17 2.17 0 0 0 3 0 l 13.3 -13.3 a 1 1 0 1 1 1.41 1.42 L 57.81 69.57 a 4.13 4.13 0 0 1 -5.86 0 a 4.14 4.14 0 0 1 0 -5.86 l 11.12 -11 a 2.15 2.15 0 0 0 -3 -3 L 49 60.71 a 4.15 4.15 0 0 1 -5.87 -5.86 L 54.2 43.8 a 2.15 2.15 0 0 0 -3 -3 L 40.09 51.85 A 4.15 4.15 0 0 1 34.22 46 l 11.12 -11 a 2.15 2.15 0 0 0 -1.53 -3.66 a 2.09 2.09 0 0 0 -1.51 0.63 L 28.93 45.28 a 1 1 0 0 1 -1.42 0 a 1 1 0 0 1 0 -1.42 L 40.88 30.5 a 4.1 4.1 0 0 1 2.93 -1.22 m 0 -1 a 5.18 5.18 0 0 0 -3.64 1.51 L 26.81 43.16 a 2 2 0 0 0 1.41 3.41 A 2 2 0 0 0 29.64 46 L 43 32.62 a 1.14 1.14 0 0 1 0.81 -0.34 A 1.16 1.16 0 0 1 45 33.43 a 1.14 1.14 0 0 1 -0.33 0.8 L 33.52 45.28 a 5.14 5.14 0 1 0 7.27 7.27 L 51.87 41.48 a 1.13 1.13 0 0 1 0.81 -0.33 a 1.14 1.14 0 0 1 0.81 2 l -11.11 11 a 5.15 5.15 0 1 0 7.28 7.28 L 60.73 50.34 a 1.17 1.17 0 0 1 0.81 -0.32 A 1.14 1.14 0 0 1 62.36 52 L 51.24 63 a 5.15 5.15 0 0 0 3.64 8.79 a 5.11 5.11 0 0 0 3.64 -1.51 L 71.82 57 a 2 2 0 0 0 0 -2.83 a 2 2 0 0 0 -2.83 0 l -13.3 13.3 a 1.12 1.12 0 0 1 -0.81 0.33 a 1.15 1.15 0 0 1 -0.81 -0.33 a 1.13 1.13 0 0 1 0 -1.61 L 65.18 54.79 a 5.14 5.14 0 0 0 0 -7.27 a 5.14 5.14 0 0 0 -7.28 0 L 46.83 58.59 a 1.12 1.12 0 0 1 -0.81 0.32 a 1.11 1.11 0 0 1 -0.81 -0.32 a 1.15 1.15 0 0 1 0 -1.62 l 11.12 -11 A 5.15 5.15 0 0 0 49 38.65 L 38 49.73 a 1.15 1.15 0 0 1 -2 -0.82 a 1.14 1.14 0 0 1 0.33 -0.8 l 11.11 -11 a 5.14 5.14 0 0 0 0 -7.28 a 5.14 5.14 0 0 0 -3.64 -1.51 Z" fill="#ff9900" transform="scale(0.6) translate(-50 -50)"/></g><g transform="translate(945.9996136030944, -238.15262117495513)"><path d="M54.88 71.29 a 4.58 4.58 0 0 1 -3.28 -1.36 a 4.65 4.65 0 0 1 0 -6.57 l 11.11 -11 A 1.65 1.65 0 0 0 60.38 50 L 49.3 61.06 a 4.65 4.65 0 0 1 -7.93 -3.28 a 4.66 4.66 0 0 1 1.36 -3.29 l 11.12 -11 a 1.65 1.65 0 0 0 -1.17 -2.8 a 1.67 1.67 0 0 0 -1.17 0.48 L 40.44 52.2 a 4.65 4.65 0 0 1 -6.57 -6.57 L 45 34.59 a 1.63 1.63 0 0 0 0.48 -1.16 A 1.67 1.67 0 0 0 45 32.26 a 1.65 1.65 0 0 0 -1.17 -0.48 a 1.63 1.63 0 0 0 -1.16 0.48 L 29.28 45.63 a 1.5 1.5 0 1 1 -2.12 -2.12 L 40.53 30.14 a 4.65 4.65 0 0 1 7.93 3.29 a 4.58 4.58 0 0 1 -1.36 3.28 L 36 47.75 a 1.65 1.65 0 0 0 0 2.33 a 1.65 1.65 0 0 0 2.33 0 L 49.39 39 A 4.65 4.65 0 0 1 56 39 a 4.65 4.65 0 0 1 0 6.57 l -11.11 11 a 1.64 1.64 0 0 0 0 2.32 a 1.66 1.66 0 0 0 1.17 0.47 a 1.64 1.64 0 0 0 1.16 -0.47 L 58.26 47.87 a 4.65 4.65 0 0 1 6.57 0 a 4.65 4.65 0 0 1 0 6.57 l -11.12 11 a 1.65 1.65 0 0 0 2.34 2.33 l 13.29 -13.3 a 1.51 1.51 0 0 1 2.13 0 a 1.5 1.5 0 0 1 0 2.12 l -13.3 13.3 A 4.62 4.62 0 0 1 54.88 71.29 Z" fill="#f6c" transform="scale(0.6) translate(-50 -50)"/><path d="M 43.81 29.28 a 4.15 4.15 0 0 1 2.94 7.08 l -11.12 11 A 2.14 2.14 0 0 0 35 48.91 a 2.14 2.14 0 0 0 3.66 1.52 L 49.75 39.36 a 4.14 4.14 0 0 1 5.86 5.86 L 44.49 56.27 a 2.13 2.13 0 0 0 -0.62 1.51 a 2.16 2.16 0 0 0 3.67 1.52 L 58.61 48.22 a 4.15 4.15 0 0 1 5.87 5.86 l -11.12 11 a 2.15 2.15 0 0 0 0 3 a 2.17 2.17 0 0 0 3 0 l 13.3 -13.3 a 1 1 0 1 1 1.41 1.42 L 57.81 69.57 a 4.13 4.13 0 0 1 -5.86 0 a 4.14 4.14 0 0 1 0 -5.86 l 11.12 -11 a 2.15 2.15 0 0 0 -3 -3 L 49 60.71 a 4.15 4.15 0 0 1 -5.87 -5.86 L 54.2 43.8 a 2.15 2.15 0 0 0 -3 -3 L 40.09 51.85 A 4.15 4.15 0 0 1 34.22 46 l 11.12 -11 a 2.15 2.15 0 0 0 -1.53 -3.66 a 2.09 2.09 0 0 0 -1.51 0.63 L 28.93 45.28 a 1 1 0 0 1 -1.42 0 a 1 1 0 0 1 0 -1.42 L 40.88 30.5 a 4.1 4.1 0 0 1 2.93 -1.22 m 0 -1 a 5.18 5.18 0 0 0 -3.64 1.51 L 26.81 43.16 a 2 2 0 0 0 1.41 3.41 A 2 2 0 0 0 29.64 46 L 43 32.62 a 1.14 1.14 0 0 1 0.81 -0.34 A 1.16 1.16 0 0 1 45 33.43 a 1.14 1.14 0 0 1 -0.33 0.8 L 33.52 45.28 a 5.14 5.14 0 1 0 7.27 7.27 L 51.87 41.48 a 1.13 1.13 0 0 1 0.81 -0.33 a 1.14 1.14 0 0 1 0.81 2 l -11.11 11 a 5.15 5.15 0 1 0 7.28 7.28 L 60.73 50.34 a 1.17 1.17 0 0 1 0.81 -0.32 A 1.14 1.14 0 0 1 62.36 52 L 51.24 63 a 5.15 5.15 0 0 0 3.64 8.79 a 5.11 5.11 0 0 0 3.64 -1.51 L 71.82 57 a 2 2 0 0 0 0 -2.83 a 2 2 0 0 0 -2.83 0 l -13.3 13.3 a 1.12 1.12 0 0 1 -0.81 0.33 a 1.15 1.15 0 0 1 -0.81 -0.33 a 1.13 1.13 0 0 1 0 -1.61 L 65.18 54.79 a 5.14 5.14 0 0 0 0 -7.27 a 5.14 5.14 0 0 0 -7.28 0 L 46.83 58.59 a 1.12 1.12 0 0 1 -0.81 0.32 a 1.11 1.11 0 0 1 -0.81 -0.32 a 1.15 1.15 0 0 1 0 -1.62 l 11.12 -11 A 5.15 5.15 0 0 0 49 38.65 L 38 49.73 a 1.15 1.15 0 0 1 -2 -0.82 a 1.14 1.14 0 0 1 0.33 -0.8 l 11.11 -11 a 5.14 5.14 0 0 0 0 -7.28 a 5.14 5.14 0 0 0 -3.64 -1.51 Z" fill="#f6c" transform="scale(0.6) translate(-50 -50)"/></g><g transform="translate(1482.9971655260201, -230.2555983525592)"><path d="M54.88 71.29 a 4.58 4.58 0 0 1 -3.28 -1.36 a 4.65 4.65 0 0 1 0 -6.57 l 11.11 -11 A 1.65 1.65 0 0 0 60.38 50 L 49.3 61.06 a 4.65 4.65 0 0 1 -7.93 -3.28 a 4.66 4.66 0 0 1 1.36 -3.29 l 11.12 -11 a 1.65 1.65 0 0 0 -1.17 -2.8 a 1.67 1.67 0 0 0 -1.17 0.48 L 40.44 52.2 a 4.65 4.65 0 0 1 -6.57 -6.57 L 45 34.59 a 1.63 1.63 0 0 0 0.48 -1.16 A 1.67 1.67 0 0 0 45 32.26 a 1.65 1.65 0 0 0 -1.17 -0.48 a 1.63 1.63 0 0 0 -1.16 0.48 L 29.28 45.63 a 1.5 1.5 0 1 1 -2.12 -2.12 L 40.53 30.14 a 4.65 4.65 0 0 1 7.93 3.29 a 4.58 4.58 0 0 1 -1.36 3.28 L 36 47.75 a 1.65 1.65 0 0 0 0 2.33 a 1.65 1.65 0 0 0 2.33 0 L 49.39 39 A 4.65 4.65 0 0 1 56 39 a 4.65 4.65 0 0 1 0 6.57 l -11.11 11 a 1.64 1.64 0 0 0 0 2.32 a 1.66 1.66 0 0 0 1.17 0.47 a 1.64 1.64 0 0 0 1.16 -0.47 L 58.26 47.87 a 4.65 4.65 0 0 1 6.57 0 a 4.65 4.65 0 0 1 0 6.57 l -11.12 11 a 1.65 1.65 0 0 0 2.34 2.33 l 13.29 -13.3 a 1.51 1.51 0 0 1 2.13 0 a 1.5 1.5 0 0 1 0 2.12 l -13.3 13.3 A 4.62 4.62 0 0 1 54.88 71.29 Z" fill="#f6c" transform="scale(0.6) translate(-50 -50)"/><path d="M 43.81 29.28 a 4.15 4.15 0 0 1 2.94 7.08 l -11.12 11 A 2.14 2.14 0 0 0 35 48.91 a 2.14 2.14 0 0 0 3.66 1.52 L 49.75 39.36 a 4.14 4.14 0 0 1 5.86 5.86 L 44.49 56.27 a 2.13 2.13 0 0 0 -0.62 1.51 a 2.16 2.16 0 0 0 3.67 1.52 L 58.61 48.22 a 4.15 4.15 0 0 1 5.87 5.86 l -11.12 11 a 2.15 2.15 0 0 0 0 3 a 2.17 2.17 0 0 0 3 0 l 13.3 -13.3 a 1 1 0 1 1 1.41 1.42 L 57.81 69.57 a 4.13 4.13 0 0 1 -5.86 0 a 4.14 4.14 0 0 1 0 -5.86 l 11.12 -11 a 2.15 2.15 0 0 0 -3 -3 L 49 60.71 a 4.15 4.15 0 0 1 -5.87 -5.86 L 54.2 43.8 a 2.15 2.15 0 0 0 -3 -3 L 40.09 51.85 A 4.15 4.15 0 0 1 34.22 46 l 11.12 -11 a 2.15 2.15 0 0 0 -1.53 -3.66 a 2.09 2.09 0 0 0 -1.51 0.63 L 28.93 45.28 a 1 1 0 0 1 -1.42 0 a 1 1 0 0 1 0 -1.42 L 40.88 30.5 a 4.1 4.1 0 0 1 2.93 -1.22 m 0 -1 a 5.18 5.18 0 0 0 -3.64 1.51 L 26.81 43.16 a 2 2 0 0 0 1.41 3.41 A 2 2 0 0 0 29.64 46 L 43 32.62 a 1.14 1.14 0 0 1 0.81 -0.34 A 1.16 1.16 0 0 1 45 33.43 a 1.14 1.14 0 0 1 -0.33 0.8 L 33.52 45.28 a 5.14 5.14 0 1 0 7.27 7.27 L 51.87 41.48 a 1.13 1.13 0 0 1 0.81 -0.33 a 1.14 1.14 0 0 1 0.81 2 l -11.11 11 a 5.15 5.15 0 1 0 7.28 7.28 L 60.73 50.34 a 1.17 1.17 0 0 1 0.81 -0.32 A 1.14 1.14 0 0 1 62.36 52 L 51.24 63 a 5.15 5.15 0 0 0 3.64 8.79 a 5.11 5.11 0 0 0 3.64 -1.51 L 71.82 57 a 2 2 0 0 0 0 -2.83 a 2 2 0 0 0 -2.83 0 l -13.3 13.3 a 1.12 1.12 0 0 1 -0.81 0.33 a 1.15 1.15 0 0 1 -0.81 -0.33 a 1.13 1.13 0 0 1 0 -1.61 L 65.18 54.79 a 5.14 5.14 0 0 0 0 -7.27 a 5.14 5.14 0 0 0 -7.28 0 L 46.83 58.59 a 1.12 1.12 0 0 1 -0.81 0.32 a 1.11 1.11 0 0 1 -0.81 -0.32 a 1.15 1.15 0 0 1 0 -1.62 l 11.12 -11 A 5.15 5.15 0 0 0 49 38.65 L 38 49.73 a 1.15 1.15 0 0 1 -2 -0.82 a 1.14 1.14 0 0 1 0.33 -0.8 l 11.11 -11 a 5.14 5.14 0 0 0 0 -7.28 a 5.14 5.14 0 0 0 -3.64 -1.51 Z" fill="#f6c" transform="scale(0.6) translate(-50 -50)"/></g><g transform="translate(910.4630109023126, -169.05367147899045)"><path d="M54.88 71.29 a 4.58 4.58 0 0 1 -3.28 -1.36 a 4.65 4.65 0 0 1 0 -6.57 l 11.11 -11 A 1.65 1.65 0 0 0 60.38 50 L 49.3 61.06 a 4.65 4.65 0 0 1 -7.93 -3.28 a 4.66 4.66 0 0 1 1.36 -3.29 l 11.12 -11 a 1.65 1.65 0 0 0 -1.17 -2.8 a 1.67 1.67 0 0 0 -1.17 0.48 L 40.44 52.2 a 4.65 4.65 0 0 1 -6.57 -6.57 L 45 34.59 a 1.63 1.63 0 0 0 0.48 -1.16 A 1.67 1.67 0 0 0 45 32.26 a 1.65 1.65 0 0 0 -1.17 -0.48 a 1.63 1.63 0 0 0 -1.16 0.48 L 29.28 45.63 a 1.5 1.5 0 1 1 -2.12 -2.12 L 40.53 30.14 a 4.65 4.65 0 0 1 7.93 3.29 a 4.58 4.58 0 0 1 -1.36 3.28 L 36 47.75 a 1.65 1.65 0 0 0 0 2.33 a 1.65 1.65 0 0 0 2.33 0 L 49.39 39 A 4.65 4.65 0 0 1 56 39 a 4.65 4.65 0 0 1 0 6.57 l -11.11 11 a 1.64 1.64 0 0 0 0 2.32 a 1.66 1.66 0 0 0 1.17 0.47 a 1.64 1.64 0 0 0 1.16 -0.47 L 58.26 47.87 a 4.65 4.65 0 0 1 6.57 0 a 4.65 4.65 0 0 1 0 6.57 l -11.12 11 a 1.65 1.65 0 0 0 2.34 2.33 l 13.29 -13.3 a 1.51 1.51 0 0 1 2.13 0 a 1.5 1.5 0 0 1 0 2.12 l -13.3 13.3 A 4.62 4.62 0 0 1 54.88 71.29 Z" fill="#ff9900" transform="scale(0.6) translate(-50 -50)"/><path d="M 43.81 29.28 a 4.15 4.15 0 0 1 2.94 7.08 l -11.12 11 A 2.14 2.14 0 0 0 35 48.91 a 2.14 2.14 0 0 0 3.66 1.52 L 49.75 39.36 a 4.14 4.14 0 0 1 5.86 5.86 L 44.49 56.27 a 2.13 2.13 0 0 0 -0.62 1.51 a 2.16 2.16 0 0 0 3.67 1.52 L 58.61 48.22 a 4.15 4.15 0 0 1 5.87 5.86 l -11.12 11 a 2.15 2.15 0 0 0 0 3 a 2.17 2.17 0 0 0 3 0 l 13.3 -13.3 a 1 1 0 1 1 1.41 1.42 L 57.81 69.57 a 4.13 4.13 0 0 1 -5.86 0 a 4.14 4.14 0 0 1 0 -5.86 l 11.12 -11 a 2.15 2.15 0 0 0 -3 -3 L 49 60.71 a 4.15 4.15 0 0 1 -5.87 -5.86 L 54.2 43.8 a 2.15 2.15 0 0 0 -3 -3 L 40.09 51.85 A 4.15 4.15 0 0 1 34.22 46 l 11.12 -11 a 2.15 2.15 0 0 0 -1.53 -3.66 a 2.09 2.09 0 0 0 -1.51 0.63 L 28.93 45.28 a 1 1 0 0 1 -1.42 0 a 1 1 0 0 1 0 -1.42 L 40.88 30.5 a 4.1 4.1 0 0 1 2.93 -1.22 m 0 -1 a 5.18 5.18 0 0 0 -3.64 1.51 L 26.81 43.16 a 2 2 0 0 0 1.41 3.41 A 2 2 0 0 0 29.64 46 L 43 32.62 a 1.14 1.14 0 0 1 0.81 -0.34 A 1.16 1.16 0 0 1 45 33.43 a 1.14 1.14 0 0 1 -0.33 0.8 L 33.52 45.28 a 5.14 5.14 0 1 0 7.27 7.27 L 51.87 41.48 a 1.13 1.13 0 0 1 0.81 -0.33 a 1.14 1.14 0 0 1 0.81 2 l -11.11 11 a 5.15 5.15 0 1 0 7.28 7.28 L 60.73 50.34 a 1.17 1.17 0 0 1 0.81 -0.32 A 1.14 1.14 0 0 1 62.36 52 L 51.24 63 a 5.15 5.15 0 0 0 3.64 8.79 a 5.11 5.11 0 0 0 3.64 -1.51 L 71.82 57 a 2 2 0 0 0 0 -2.83 a 2 2 0 0 0 -2.83 0 l -13.3 13.3 a 1.12 1.12 0 0 1 -0.81 0.33 a 1.15 1.15 0 0 1 -0.81 -0.33 a 1.13 1.13 0 0 1 0 -1.61 L 65.18 54.79 a 5.14 5.14 0 0 0 0 -7.27 a 5.14 5.14 0 0 0 -7.28 0 L 46.83 58.59 a 1.12 1.12 0 0 1 -0.81 0.32 a 1.11 1.11 0 0 1 -0.81 -0.32 a 1.15 1.15 0 0 1 0 -1.62 l 11.12 -11 A 5.15 5.15 0 0 0 49 38.65 L 38 49.73 a 1.15 1.15 0 0 1 -2 -0.82 a 1.14 1.14 0 0 1 0.33 -0.8 l 11.11 -11 a 5.14 5.14 0 0 0 0 -7.28 a 5.14 5.14 0 0 0 -3.64 -1.51 Z" fill="#ff9900" transform="scale(0.6) translate(-50 -50)"/></g><g transform="translate(1552.0961152219847, -171.02792718458946)"><path d="M54.88 71.29 a 4.58 4.58 0 0 1 -3.28 -1.36 a 4.65 4.65 0 0 1 0 -6.57 l 11.11 -11 A 1.65 1.65 0 0 0 60.38 50 L 49.3 61.06 a 4.65 4.65 0 0 1 -7.93 -3.28 a 4.66 4.66 0 0 1 1.36 -3.29 l 11.12 -11 a 1.65 1.65 0 0 0 -1.17 -2.8 a 1.67 1.67 0 0 0 -1.17 0.48 L 40.44 52.2 a 4.65 4.65 0 0 1 -6.57 -6.57 L 45 34.59 a 1.63 1.63 0 0 0 0.48 -1.16 A 1.67 1.67 0 0 0 45 32.26 a 1.65 1.65 0 0 0 -1.17 -0.48 a 1.63 1.63 0 0 0 -1.16 0.48 L 29.28 45.63 a 1.5 1.5 0 1 1 -2.12 -2.12 L 40.53 30.14 a 4.65 4.65 0 0 1 7.93 3.29 a 4.58 4.58 0 0 1 -1.36 3.28 L 36 47.75 a 1.65 1.65 0 0 0 0 2.33 a 1.65 1.65 0 0 0 2.33 0 L 49.39 39 A 4.65 4.65 0 0 1 56 39 a 4.65 4.65 0 0 1 0 6.57 l -11.11 11 a 1.64 1.64 0 0 0 0 2.32 a 1.66 1.66 0 0 0 1.17 0.47 a 1.64 1.64 0 0 0 1.16 -0.47 L 58.26 47.87 a 4.65 4.65 0 0 1 6.57 0 a 4.65 4.65 0 0 1 0 6.57 l -11.12 11 a 1.65 1.65 0 0 0 2.34 2.33 l 13.29 -13.3 a 1.51 1.51 0 0 1 2.13 0 a 1.5 1.5 0 0 1 0 2.12 l -13.3 13.3 A 4.62 4.62 0 0 1 54.88 71.29 Z" fill="#ff9900" transform="scale(0.6) translate(-50 -50)"/><path d="M 43.81 29.28 a 4.15 4.15 0 0 1 2.94 7.08 l -11.12 11 A 2.14 2.14 0 0 0 35 48.91 a 2.14 2.14 0 0 0 3.66 1.52 L 49.75 39.36 a 4.14 4.14 0 0 1 5.86 5.86 L 44.49 56.27 a 2.13 2.13 0 0 0 -0.62 1.51 a 2.16 2.16 0 0 0 3.67 1.52 L 58.61 48.22 a 4.15 4.15 0 0 1 5.87 5.86 l -11.12 11 a 2.15 2.15 0 0 0 0 3 a 2.17 2.17 0 0 0 3 0 l 13.3 -13.3 a 1 1 0 1 1 1.41 1.42 L 57.81 69.57 a 4.13 4.13 0 0 1 -5.86 0 a 4.14 4.14 0 0 1 0 -5.86 l 11.12 -11 a 2.15 2.15 0 0 0 -3 -3 L 49 60.71 a 4.15 4.15 0 0 1 -5.87 -5.86 L 54.2 43.8 a 2.15 2.15 0 0 0 -3 -3 L 40.09 51.85 A 4.15 4.15 0 0 1 34.22 46 l 11.12 -11 a 2.15 2.15 0 0 0 -1.53 -3.66 a 2.09 2.09 0 0 0 -1.51 0.63 L 28.93 45.28 a 1 1 0 0 1 -1.42 0 a 1 1 0 0 1 0 -1.42 L 40.88 30.5 a 4.1 4.1 0 0 1 2.93 -1.22 m 0 -1 a 5.18 5.18 0 0 0 -3.64 1.51 L 26.81 43.16 a 2 2 0 0 0 1.41 3.41 A 2 2 0 0 0 29.64 46 L 43 32.62 a 1.14 1.14 0 0 1 0.81 -0.34 A 1.16 1.16 0 0 1 45 33.43 a 1.14 1.14 0 0 1 -0.33 0.8 L 33.52 45.28 a 5.14 5.14 0 1 0 7.27 7.27 L 51.87 41.48 a 1.13 1.13 0 0 1 0.81 -0.33 a 1.14 1.14 0 0 1 0.81 2 l -11.11 11 a 5.15 5.15 0 1 0 7.28 7.28 L 60.73 50.34 a 1.17 1.17 0 0 1 0.81 -0.32 A 1.14 1.14 0 0 1 62.36 52 L 51.24 63 a 5.15 5.15 0 0 0 3.64 8.79 a 5.11 5.11 0 0 0 3.64 -1.51 L 71.82 57 a 2 2 0 0 0 0 -2.83 a 2 2 0 0 0 -2.83 0 l -13.3 13.3 a 1.12 1.12 0 0 1 -0.81 0.33 a 1.15 1.15 0 0 1 -0.81 -0.33 a 1.13 1.13 0 0 1 0 -1.61 L 65.18 54.79 a 5.14 5.14 0 0 0 0 -7.27 a 5.14 5.14 0 0 0 -7.28 0 L 46.83 58.59 a 1.12 1.12 0 0 1 -0.81 0.32 a 1.11 1.11 0 0 1 -0.81 -0.32 a 1.15 1.15 0 0 1 0 -1.62 l 11.12 -11 A 5.15 5.15 0 0 0 49 38.65 L 38 49.73 a 1.15 1.15 0 0 1 -2 -0.82 a 1.14 1.14 0 0 1 0.33 -0.8 l 11.11 -11 a 5.14 5.14 0 0 0 0 -7.28 a 5.14 5.14 0 0 0 -3.64 -1.51 Z" fill="#ff9900" transform="scale(0.6) translate(-50 -50)"/></g><g transform="translate(1113.8113485790086, 65.88275748728948)"><path d="M54.88 71.29 a 4.58 4.58 0 0 1 -3.28 -1.36 a 4.65 4.65 0 0 1 0 -6.57 l 11.11 -11 A 1.65 1.65 0 0 0 60.38 50 L 49.3 61.06 a 4.65 4.65 0 0 1 -7.93 -3.28 a 4.66 4.66 0 0 1 1.36 -3.29 l 11.12 -11 a 1.65 1.65 0 0 0 -1.17 -2.8 a 1.67 1.67 0 0 0 -1.17 0.48 L 40.44 52.2 a 4.65 4.65 0 0 1 -6.57 -6.57 L 45 34.59 a 1.63 1.63 0 0 0 0.48 -1.16 A 1.67 1.67 0 0 0 45 32.26 a 1.65 1.65 0 0 0 -1.17 -0.48 a 1.63 1.63 0 0 0 -1.16 0.48 L 29.28 45.63 a 1.5 1.5 0 1 1 -2.12 -2.12 L 40.53 30.14 a 4.65 4.65 0 0 1 7.93 3.29 a 4.58 4.58 0 0 1 -1.36 3.28 L 36 47.75 a 1.65 1.65 0 0 0 0 2.33 a 1.65 1.65 0 0 0 2.33 0 L 49.39 39 A 4.65 4.65 0 0 1 56 39 a 4.65 4.65 0 0 1 0 6.57 l -11.11 11 a 1.64 1.64 0 0 0 0 2.32 a 1.66 1.66 0 0 0 1.17 0.47 a 1.64 1.64 0 0 0 1.16 -0.47 L 58.26 47.87 a 4.65 4.65 0 0 1 6.57 0 a 4.65 4.65 0 0 1 0 6.57 l -11.12 11 a 1.65 1.65 0 0 0 2.34 2.33 l 13.29 -13.3 a 1.51 1.51 0 0 1 2.13 0 a 1.5 1.5 0 0 1 0 2.12 l -13.3 13.3 A 4.62 4.62 0 0 1 54.88 71.29 Z" fill="#33cc00" transform="scale(0.6) translate(-50 -50)"/><path d="M 43.81 29.28 a 4.15 4.15 0 0 1 2.94 7.08 l -11.12 11 A 2.14 2.14 0 0 0 35 48.91 a 2.14 2.14 0 0 0 3.66 1.52 L 49.75 39.36 a 4.14 4.14 0 0 1 5.86 5.86 L 44.49 56.27 a 2.13 2.13 0 0 0 -0.62 1.51 a 2.16 2.16 0 0 0 3.67 1.52 L 58.61 48.22 a 4.15 4.15 0 0 1 5.87 5.86 l -11.12 11 a 2.15 2.15 0 0 0 0 3 a 2.17 2.17 0 0 0 3 0 l 13.3 -13.3 a 1 1 0 1 1 1.41 1.42 L 57.81 69.57 a 4.13 4.13 0 0 1 -5.86 0 a 4.14 4.14 0 0 1 0 -5.86 l 11.12 -11 a 2.15 2.15 0 0 0 -3 -3 L 49 60.71 a 4.15 4.15 0 0 1 -5.87 -5.86 L 54.2 43.8 a 2.15 2.15 0 0 0 -3 -3 L 40.09 51.85 A 4.15 4.15 0 0 1 34.22 46 l 11.12 -11 a 2.15 2.15 0 0 0 -1.53 -3.66 a 2.09 2.09 0 0 0 -1.51 0.63 L 28.93 45.28 a 1 1 0 0 1 -1.42 0 a 1 1 0 0 1 0 -1.42 L 40.88 30.5 a 4.1 4.1 0 0 1 2.93 -1.22 m 0 -1 a 5.18 5.18 0 0 0 -3.64 1.51 L 26.81 43.16 a 2 2 0 0 0 1.41 3.41 A 2 2 0 0 0 29.64 46 L 43 32.62 a 1.14 1.14 0 0 1 0.81 -0.34 A 1.16 1.16 0 0 1 45 33.43 a 1.14 1.14 0 0 1 -0.33 0.8 L 33.52 45.28 a 5.14 5.14 0 1 0 7.27 7.27 L 51.87 41.48 a 1.13 1.13 0 0 1 0.81 -0.33 a 1.14 1.14 0 0 1 0.81 2 l -11.11 11 a 5.15 5.15 0 1 0 7.28 7.28 L 60.73 50.34 a 1.17 1.17 0 0 1 0.81 -0.32 A 1.14 1.14 0 0 1 62.36 52 L 51.24 63 a 5.15 5.15 0 0 0 3.64 8.79 a 5.11 5.11 0 0 0 3.64 -1.51 L 71.82 57 a 2 2 0 0 0 0 -2.83 a 2 2 0 0 0 -2.83 0 l -13.3 13.3 a 1.12 1.12 0 0 1 -0.81 0.33 a 1.15 1.15 0 0 1 -0.81 -0.33 a 1.13 1.13 0 0 1 0 -1.61 L 65.18 54.79 a 5.14 5.14 0 0 0 0 -7.27 a 5.14 5.14 0 0 0 -7.28 0 L 46.83 58.59 a 1.12 1.12 0 0 1 -0.81 0.32 a 1.11 1.11 0 0 1 -0.81 -0.32 a 1.15 1.15 0 0 1 0 -1.62 l 11.12 -11 A 5.15 5.15 0 0 0 49 38.65 L 38 49.73 a 1.15 1.15 0 0 1 -2 -0.82 a 1.14 1.14 0 0 1 0.33 -0.8 l 11.11 -11 a 5.14 5.14 0 0 0 0 -7.28 a 5.14 5.14 0 0 0 -3.64 -1.51 Z" fill="#33cc00" transform="scale(0.6) translate(-50 -50)"/></g><g transform="translate(1094.0687915230187, 217.90044681841178)"><path d="M54.88 71.29 a 4.58 4.58 0 0 1 -3.28 -1.36 a 4.65 4.65 0 0 1 0 -6.57 l 11.11 -11 A 1.65 1.65 0 0 0 60.38 50 L 49.3 61.06 a 4.65 4.65 0 0 1 -7.93 -3.28 a 4.66 4.66 0 0 1 1.36 -3.29 l 11.12 -11 a 1.65 1.65 0 0 0 -1.17 -2.8 a 1.67 1.67 0 0 0 -1.17 0.48 L 40.44 52.2 a 4.65 4.65 0 0 1 -6.57 -6.57 L 45 34.59 a 1.63 1.63 0 0 0 0.48 -1.16 A 1.67 1.67 0 0 0 45 32.26 a 1.65 1.65 0 0 0 -1.17 -0.48 a 1.63 1.63 0 0 0 -1.16 0.48 L 29.28 45.63 a 1.5 1.5 0 1 1 -2.12 -2.12 L 40.53 30.14 a 4.65 4.65 0 0 1 7.93 3.29 a 4.58 4.58 0 0 1 -1.36 3.28 L 36 47.75 a 1.65 1.65 0 0 0 0 2.33 a 1.65 1.65 0 0 0 2.33 0 L 49.39 39 A 4.65 4.65 0 0 1 56 39 a 4.65 4.65 0 0 1 0 6.57 l -11.11 11 a 1.64 1.64 0 0 0 0 2.32 a 1.66 1.66 0 0 0 1.17 0.47 a 1.64 1.64 0 0 0 1.16 -0.47 L 58.26 47.87 a 4.65 4.65 0 0 1 6.57 0 a 4.65 4.65 0 0 1 0 6.57 l -11.12 11 a 1.65 1.65 0 0 0 2.34 2.33 l 13.29 -13.3 a 1.51 1.51 0 0 1 2.13 0 a 1.5 1.5 0 0 1 0 2.12 l -13.3 13.3 A 4.62 4.62 0 0 1 54.88 71.29 Z" fill="#33cc00" transform="scale(0.6) translate(-50 -50)"/><path d="M 43.81 29.28 a 4.15 4.15 0 0 1 2.94 7.08 l -11.12 11 A 2.14 2.14 0 0 0 35 48.91 a 2.14 2.14 0 0 0 3.66 1.52 L 49.75 39.36 a 4.14 4.14 0 0 1 5.86 5.86 L 44.49 56.27 a 2.13 2.13 0 0 0 -0.62 1.51 a 2.16 2.16 0 0 0 3.67 1.52 L 58.61 48.22 a 4.15 4.15 0 0 1 5.87 5.86 l -11.12 11 a 2.15 2.15 0 0 0 0 3 a 2.17 2.17 0 0 0 3 0 l 13.3 -13.3 a 1 1 0 1 1 1.41 1.42 L 57.81 69.57 a 4.13 4.13 0 0 1 -5.86 0 a 4.14 4.14 0 0 1 0 -5.86 l 11.12 -11 a 2.15 2.15 0 0 0 -3 -3 L 49 60.71 a 4.15 4.15 0 0 1 -5.87 -5.86 L 54.2 43.8 a 2.15 2.15 0 0 0 -3 -3 L 40.09 51.85 A 4.15 4.15 0 0 1 34.22 46 l 11.12 -11 a 2.15 2.15 0 0 0 -1.53 -3.66 a 2.09 2.09 0 0 0 -1.51 0.63 L 28.93 45.28 a 1 1 0 0 1 -1.42 0 a 1 1 0 0 1 0 -1.42 L 40.88 30.5 a 4.1 4.1 0 0 1 2.93 -1.22 m 0 -1 a 5.18 5.18 0 0 0 -3.64 1.51 L 26.81 43.16 a 2 2 0 0 0 1.41 3.41 A 2 2 0 0 0 29.64 46 L 43 32.62 a 1.14 1.14 0 0 1 0.81 -0.34 A 1.16 1.16 0 0 1 45 33.43 a 1.14 1.14 0 0 1 -0.33 0.8 L 33.52 45.28 a 5.14 5.14 0 1 0 7.27 7.27 L 51.87 41.48 a 1.13 1.13 0 0 1 0.81 -0.33 a 1.14 1.14 0 0 1 0.81 2 l -11.11 11 a 5.15 5.15 0 1 0 7.28 7.28 L 60.73 50.34 a 1.17 1.17 0 0 1 0.81 -0.32 A 1.14 1.14 0 0 1 62.36 52 L 51.24 63 a 5.15 5.15 0 0 0 3.64 8.79 a 5.11 5.11 0 0 0 3.64 -1.51 L 71.82 57 a 2 2 0 0 0 0 -2.83 a 2 2 0 0 0 -2.83 0 l -13.3 13.3 a 1.12 1.12 0 0 1 -0.81 0.33 a 1.15 1.15 0 0 1 -0.81 -0.33 a 1.13 1.13 0 0 1 0 -1.61 L 65.18 54.79 a 5.14 5.14 0 0 0 0 -7.27 a 5.14 5.14 0 0 0 -7.28 0 L 46.83 58.59 a 1.12 1.12 0 0 1 -0.81 0.32 a 1.11 1.11 0 0 1 -0.81 -0.32 a 1.15 1.15 0 0 1 0 -1.62 l 11.12 -11 A 5.15 5.15 0 0 0 49 38.65 L 38 49.73 a 1.15 1.15 0 0 1 -2 -0.82 a 1.14 1.14 0 0 1 0.33 -0.8 l 11.11 -11 a 5.14 5.14 0 0 0 0 -7.28 a 5.14 5.14 0 0 0 -3.64 -1.51 Z" fill="#33cc00" transform="scale(0.6) translate(-50 -50)"/></g><g transform="translate(1824.5434025946454, -305.27731516532083)"><path d="M54.88 71.29 a 4.58 4.58 0 0 1 -3.28 -1.36 a 4.65 4.65 0 0 1 0 -6.57 l 11.11 -11 A 1.65 1.65 0 0 0 60.38 50 L 49.3 61.06 a 4.65 4.65 0 0 1 -7.93 -3.28 a 4.66 4.66 0 0 1 1.36 -3.29 l 11.12 -11 a 1.65 1.65 0 0 0 -1.17 -2.8 a 1.67 1.67 0 0 0 -1.17 0.48 L 40.44 52.2 a 4.65 4.65 0 0 1 -6.57 -6.57 L 45 34.59 a 1.63 1.63 0 0 0 0.48 -1.16 A 1.67 1.67 0 0 0 45 32.26 a 1.65 1.65 0 0 0 -1.17 -0.48 a 1.63 1.63 0 0 0 -1.16 0.48 L 29.28 45.63 a 1.5 1.5 0 1 1 -2.12 -2.12 L 40.53 30.14 a 4.65 4.65 0 0 1 7.93 3.29 a 4.58 4.58 0 0 1 -1.36 3.28 L 36 47.75 a 1.65 1.65 0 0 0 0 2.33 a 1.65 1.65 0 0 0 2.33 0 L 49.39 39 A 4.65 4.65 0 0 1 56 39 a 4.65 4.65 0 0 1 0 6.57 l -11.11 11 a 1.64 1.64 0 0 0 0 2.32 a 1.66 1.66 0 0 0 1.17 0.47 a 1.64 1.64 0 0 0 1.16 -0.47 L 58.26 47.87 a 4.65 4.65 0 0 1 6.57 0 a 4.65 4.65 0 0 1 0 6.57 l -11.12 11 a 1.65 1.65 0 0 0 2.34 2.33 l 13.29 -13.3 a 1.51 1.51 0 0 1 2.13 0 a 1.5 1.5 0 0 1 0 2.12 l -13.3 13.3 A 4.62 4.62 0 0 1 54.88 71.29 Z" fill="#9966ff" transform="scale(0.6) translate(-50 -50)"/><path d="M 43.81 29.28 a 4.15 4.15 0 0 1 2.94 7.08 l -11.12 11 A 2.14 2.14 0 0 0 35 48.91 a 2.14 2.14 0 0 0 3.66 1.52 L 49.75 39.36 a 4.14 4.14 0 0 1 5.86 5.86 L 44.49 56.27 a 2.13 2.13 0 0 0 -0.62 1.51 a 2.16 2.16 0 0 0 3.67 1.52 L 58.61 48.22 a 4.15 4.15 0 0 1 5.87 5.86 l -11.12 11 a 2.15 2.15 0 0 0 0 3 a 2.17 2.17 0 0 0 3 0 l 13.3 -13.3 a 1 1 0 1 1 1.41 1.42 L 57.81 69.57 a 4.13 4.13 0 0 1 -5.86 0 a 4.14 4.14 0 0 1 0 -5.86 l 11.12 -11 a 2.15 2.15 0 0 0 -3 -3 L 49 60.71 a 4.15 4.15 0 0 1 -5.87 -5.86 L 54.2 43.8 a 2.15 2.15 0 0 0 -3 -3 L 40.09 51.85 A 4.15 4.15 0 0 1 34.22 46 l 11.12 -11 a 2.15 2.15 0 0 0 -1.53 -3.66 a 2.09 2.09 0 0 0 -1.51 0.63 L 28.93 45.28 a 1 1 0 0 1 -1.42 0 a 1 1 0 0 1 0 -1.42 L 40.88 30.5 a 4.1 4.1 0 0 1 2.93 -1.22 m 0 -1 a 5.18 5.18 0 0 0 -3.64 1.51 L 26.81 43.16 a 2 2 0 0 0 1.41 3.41 A 2 2 0 0 0 29.64 46 L 43 32.62 a 1.14 1.14 0 0 1 0.81 -0.34 A 1.16 1.16 0 0 1 45 33.43 a 1.14 1.14 0 0 1 -0.33 0.8 L 33.52 45.28 a 5.14 5.14 0 1 0 7.27 7.27 L 51.87 41.48 a 1.13 1.13 0 0 1 0.81 -0.33 a 1.14 1.14 0 0 1 0.81 2 l -11.11 11 a 5.15 5.15 0 1 0 7.28 7.28 L 60.73 50.34 a 1.17 1.17 0 0 1 0.81 -0.32 A 1.14 1.14 0 0 1 62.36 52 L 51.24 63 a 5.15 5.15 0 0 0 3.64 8.79 a 5.11 5.11 0 0 0 3.64 -1.51 L 71.82 57 a 2 2 0 0 0 0 -2.83 a 2 2 0 0 0 -2.83 0 l -13.3 13.3 a 1.12 1.12 0 0 1 -0.81 0.33 a 1.15 1.15 0 0 1 -0.81 -0.33 a 1.13 1.13 0 0 1 0 -1.61 L 65.18 54.79 a 5.14 5.14 0 0 0 0 -7.27 a 5.14 5.14 0 0 0 -7.28 0 L 46.83 58.59 a 1.12 1.12 0 0 1 -0.81 0.32 a 1.11 1.11 0 0 1 -0.81 -0.32 a 1.15 1.15 0 0 1 0 -1.62 l 11.12 -11 A 5.15 5.15 0 0 0 49 38.65 L 38 49.73 a 1.15 1.15 0 0 1 -2 -0.82 a 1.14 1.14 0 0 1 0.33 -0.8 l 11.11 -11 a 5.14 5.14 0 0 0 0 -7.28 a 5.14 5.14 0 0 0 -3.64 -1.51 Z" fill="#9966ff" transform="scale(0.6) translate(-50 -50)"/></g><g transform="translate(639.9899792352509, -283.56050240373196)"><path d="M54.88 71.29 a 4.58 4.58 0 0 1 -3.28 -1.36 a 4.65 4.65 0 0 1 0 -6.57 l 11.11 -11 A 1.65 1.65 0 0 0 60.38 50 L 49.3 61.06 a 4.65 4.65 0 0 1 -7.93 -3.28 a 4.66 4.66 0 0 1 1.36 -3.29 l 11.12 -11 a 1.65 1.65 0 0 0 -1.17 -2.8 a 1.67 1.67 0 0 0 -1.17 0.48 L 40.44 52.2 a 4.65 4.65 0 0 1 -6.57 -6.57 L 45 34.59 a 1.63 1.63 0 0 0 0.48 -1.16 A 1.67 1.67 0 0 0 45 32.26 a 1.65 1.65 0 0 0 -1.17 -0.48 a 1.63 1.63 0 0 0 -1.16 0.48 L 29.28 45.63 a 1.5 1.5 0 1 1 -2.12 -2.12 L 40.53 30.14 a 4.65 4.65 0 0 1 7.93 3.29 a 4.58 4.58 0 0 1 -1.36 3.28 L 36 47.75 a 1.65 1.65 0 0 0 0 2.33 a 1.65 1.65 0 0 0 2.33 0 L 49.39 39 A 4.65 4.65 0 0 1 56 39 a 4.65 4.65 0 0 1 0 6.57 l -11.11 11 a 1.64 1.64 0 0 0 0 2.32 a 1.66 1.66 0 0 0 1.17 0.47 a 1.64 1.64 0 0 0 1.16 -0.47 L 58.26 47.87 a 4.65 4.65 0 0 1 6.57 0 a 4.65 4.65 0 0 1 0 6.57 l -11.12 11 a 1.65 1.65 0 0 0 2.34 2.33 l 13.29 -13.3 a 1.51 1.51 0 0 1 2.13 0 a 1.5 1.5 0 0 1 0 2.12 l -13.3 13.3 A 4.62 4.62 0 0 1 54.88 71.29 Z" fill="#9966ff" transform="scale(0.6) translate(-50 -50)"/><path d="M 43.81 29.28 a 4.15 4.15 0 0 1 2.94 7.08 l -11.12 11 A 2.14 2.14 0 0 0 35 48.91 a 2.14 2.14 0 0 0 3.66 1.52 L 49.75 39.36 a 4.14 4.14 0 0 1 5.86 5.86 L 44.49 56.27 a 2.13 2.13 0 0 0 -0.62 1.51 a 2.16 2.16 0 0 0 3.67 1.52 L 58.61 48.22 a 4.15 4.15 0 0 1 5.87 5.86 l -11.12 11 a 2.15 2.15 0 0 0 0 3 a 2.17 2.17 0 0 0 3 0 l 13.3 -13.3 a 1 1 0 1 1 1.41 1.42 L 57.81 69.57 a 4.13 4.13 0 0 1 -5.86 0 a 4.14 4.14 0 0 1 0 -5.86 l 11.12 -11 a 2.15 2.15 0 0 0 -3 -3 L 49 60.71 a 4.15 4.15 0 0 1 -5.87 -5.86 L 54.2 43.8 a 2.15 2.15 0 0 0 -3 -3 L 40.09 51.85 A 4.15 4.15 0 0 1 34.22 46 l 11.12 -11 a 2.15 2.15 0 0 0 -1.53 -3.66 a 2.09 2.09 0 0 0 -1.51 0.63 L 28.93 45.28 a 1 1 0 0 1 -1.42 0 a 1 1 0 0 1 0 -1.42 L 40.88 30.5 a 4.1 4.1 0 0 1 2.93 -1.22 m 0 -1 a 5.18 5.18 0 0 0 -3.64 1.51 L 26.81 43.16 a 2 2 0 0 0 1.41 3.41 A 2 2 0 0 0 29.64 46 L 43 32.62 a 1.14 1.14 0 0 1 0.81 -0.34 A 1.16 1.16 0 0 1 45 33.43 a 1.14 1.14 0 0 1 -0.33 0.8 L 33.52 45.28 a 5.14 5.14 0 1 0 7.27 7.27 L 51.87 41.48 a 1.13 1.13 0 0 1 0.81 -0.33 a 1.14 1.14 0 0 1 0.81 2 l -11.11 11 a 5.15 5.15 0 1 0 7.28 7.28 L 60.73 50.34 a 1.17 1.17 0 0 1 0.81 -0.32 A 1.14 1.14 0 0 1 62.36 52 L 51.24 63 a 5.15 5.15 0 0 0 3.64 8.79 a 5.11 5.11 0 0 0 3.64 -1.51 L 71.82 57 a 2 2 0 0 0 0 -2.83 a 2 2 0 0 0 -2.83 0 l -13.3 13.3 a 1.12 1.12 0 0 1 -0.81 0.33 a 1.15 1.15 0 0 1 -0.81 -0.33 a 1.13 1.13 0 0 1 0 -1.61 L 65.18 54.79 a 5.14 5.14 0 0 0 0 -7.27 a 5.14 5.14 0 0 0 -7.28 0 L 46.83 58.59 a 1.12 1.12 0 0 1 -0.81 0.32 a 1.11 1.11 0 0 1 -0.81 -0.32 a 1.15 1.15 0 0 1 0 -1.62 l 11.12 -11 A 5.15 5.15 0 0 0 49 38.65 L 38 49.73 a 1.15 1.15 0 0 1 -2 -0.82 a 1.14 1.14 0 0 1 0.33 -0.8 l 11.11 -11 a 5.14 5.14 0 0 0 0 -7.28 a 5.14 5.14 0 0 0 -3.64 -1.51 Z" fill="#9966ff" transform="scale(0.6) translate(-50 -50)"/></g><g transform="translate(657.7582805856417, -625.1067394723574)"><path d="M54.88 71.29 a 4.58 4.58 0 0 1 -3.28 -1.36 a 4.65 4.65 0 0 1 0 -6.57 l 11.11 -11 A 1.65 1.65 0 0 0 60.38 50 L 49.3 61.06 a 4.65 4.65 0 0 1 -7.93 -3.28 a 4.66 4.66 0 0 1 1.36 -3.29 l 11.12 -11 a 1.65 1.65 0 0 0 -1.17 -2.8 a 1.67 1.67 0 0 0 -1.17 0.48 L 40.44 52.2 a 4.65 4.65 0 0 1 -6.57 -6.57 L 45 34.59 a 1.63 1.63 0 0 0 0.48 -1.16 A 1.67 1.67 0 0 0 45 32.26 a 1.65 1.65 0 0 0 -1.17 -0.48 a 1.63 1.63 0 0 0 -1.16 0.48 L 29.28 45.63 a 1.5 1.5 0 1 1 -2.12 -2.12 L 40.53 30.14 a 4.65 4.65 0 0 1 7.93 3.29 a 4.58 4.58 0 0 1 -1.36 3.28 L 36 47.75 a 1.65 1.65 0 0 0 0 2.33 a 1.65 1.65 0 0 0 2.33 0 L 49.39 39 A 4.65 4.65 0 0 1 56 39 a 4.65 4.65 0 0 1 0 6.57 l -11.11 11 a 1.64 1.64 0 0 0 0 2.32 a 1.66 1.66 0 0 0 1.17 0.47 a 1.64 1.64 0 0 0 1.16 -0.47 L 58.26 47.87 a 4.65 4.65 0 0 1 6.57 0 a 4.65 4.65 0 0 1 0 6.57 l -11.12 11 a 1.65 1.65 0 0 0 2.34 2.33 l 13.29 -13.3 a 1.51 1.51 0 0 1 2.13 0 a 1.5 1.5 0 0 1 0 2.12 l -13.3 13.3 A 4.62 4.62 0 0 1 54.88 71.29 Z" fill="#00cccc" transform="scale(0.6) translate(-50 -50)"/><path d="M 43.81 29.28 a 4.15 4.15 0 0 1 2.94 7.08 l -11.12 11 A 2.14 2.14 0 0 0 35 48.91 a 2.14 2.14 0 0 0 3.66 1.52 L 49.75 39.36 a 4.14 4.14 0 0 1 5.86 5.86 L 44.49 56.27 a 2.13 2.13 0 0 0 -0.62 1.51 a 2.16 2.16 0 0 0 3.67 1.52 L 58.61 48.22 a 4.15 4.15 0 0 1 5.87 5.86 l -11.12 11 a 2.15 2.15 0 0 0 0 3 a 2.17 2.17 0 0 0 3 0 l 13.3 -13.3 a 1 1 0 1 1 1.41 1.42 L 57.81 69.57 a 4.13 4.13 0 0 1 -5.86 0 a 4.14 4.14 0 0 1 0 -5.86 l 11.12 -11 a 2.15 2.15 0 0 0 -3 -3 L 49 60.71 a 4.15 4.15 0 0 1 -5.87 -5.86 L 54.2 43.8 a 2.15 2.15 0 0 0 -3 -3 L 40.09 51.85 A 4.15 4.15 0 0 1 34.22 46 l 11.12 -11 a 2.15 2.15 0 0 0 -1.53 -3.66 a 2.09 2.09 0 0 0 -1.51 0.63 L 28.93 45.28 a 1 1 0 0 1 -1.42 0 a 1 1 0 0 1 0 -1.42 L 40.88 30.5 a 4.1 4.1 0 0 1 2.93 -1.22 m 0 -1 a 5.18 5.18 0 0 0 -3.64 1.51 L 26.81 43.16 a 2 2 0 0 0 1.41 3.41 A 2 2 0 0 0 29.64 46 L 43 32.62 a 1.14 1.14 0 0 1 0.81 -0.34 A 1.16 1.16 0 0 1 45 33.43 a 1.14 1.14 0 0 1 -0.33 0.8 L 33.52 45.28 a 5.14 5.14 0 1 0 7.27 7.27 L 51.87 41.48 a 1.13 1.13 0 0 1 0.81 -0.33 a 1.14 1.14 0 0 1 0.81 2 l -11.11 11 a 5.15 5.15 0 1 0 7.28 7.28 L 60.73 50.34 a 1.17 1.17 0 0 1 0.81 -0.32 A 1.14 1.14 0 0 1 62.36 52 L 51.24 63 a 5.15 5.15 0 0 0 3.64 8.79 a 5.11 5.11 0 0 0 3.64 -1.51 L 71.82 57 a 2 2 0 0 0 0 -2.83 a 2 2 0 0 0 -2.83 0 l -13.3 13.3 a 1.12 1.12 0 0 1 -0.81 0.33 a 1.15 1.15 0 0 1 -0.81 -0.33 a 1.13 1.13 0 0 1 0 -1.61 L 65.18 54.79 a 5.14 5.14 0 0 0 0 -7.27 a 5.14 5.14 0 0 0 -7.28 0 L 46.83 58.59 a 1.12 1.12 0 0 1 -0.81 0.32 a 1.11 1.11 0 0 1 -0.81 -0.32 a 1.15 1.15 0 0 1 0 -1.62 l 11.12 -11 A 5.15 5.15 0 0 0 49 38.65 L 38 49.73 a 1.15 1.15 0 0 1 -2 -0.82 a 1.14 1.14 0 0 1 0.33 -0.8 l 11.11 -11 a 5.14 5.14 0 0 0 0 -7.28 a 5.14 5.14 0 0 0 -3.64 -1.51 Z" fill="#00cccc" transform="scale(0.6) translate(-50 -50)"/></g><path d="M 1606.462750534987 -710.5685299652596 C 1387.3116954511056 -703.4275261084678 1095.3249246268724 -707.9045422291662 876.4958234744031 -721.7610702670056" fill="none" stroke="#aaa" stroke-width="2" marker-end="url(#Inhibitor)" stroke-linecap="round" onmouseover="BMA.SVGHelper.Highlight(this, window.ElementRegistry.LineWidth + 1)" onmouseout="BMA.SVGHelper.UnHighlight(this, window.ElementRegistry.LineWidth + 1)" data-id="18" data-ishovered="false"/><path d="M 876.6338037307225 -730.7600125075617 C 1095.7848588146035 -737.9010163643535 1387.771629638837 -733.4240002436551 1606.6007307913062 -719.5674722058156" fill="none" stroke="#aaa" stroke-width="2" marker-end="url(#Inhibitor)" stroke-linecap="round" onmouseover="BMA.SVGHelper.Highlight(this, window.ElementRegistry.LineWidth + 1)" onmouseout="BMA.SVGHelper.UnHighlight(this, window.ElementRegistry.LineWidth + 1)" data-id="19" data-ishovered="false"/><path d="M 1106.8259194184661 -599.3058904409372 C 1096.0446838917474 -588.4722981646646 1095.6651032221887 -573.668652051872 1105.8769677445691 -562.2967751589558" fill="none" stroke="#aaa" stroke-width="2" marker-end="url(#Activator)" stroke-linecap="round" onmouseover="BMA.SVGHelper.Highlight(this, window.ElementRegistry.LineWidth + 1)" onmouseout="BMA.SVGHelper.UnHighlight(this, window.ElementRegistry.LineWidth + 1)" data-id="21" data-ishovered="false"/><path d="M 1114.8740106227544 -562.0660817518228 C 1125.6552461494732 -572.8996740280954 1126.0348268190319 -587.7033201408881 1115.8229622966514 -599.0751970338042" fill="none" stroke="#aaa" stroke-width="2" marker-end="url(#Inhibitor)" stroke-linecap="round" onmouseover="BMA.SVGHelper.Highlight(this, window.ElementRegistry.LineWidth + 1)" onmouseout="BMA.SVGHelper.UnHighlight(this, window.ElementRegistry.LineWidth + 1)" data-id="22" data-ishovered="false"/><path d="M 1131.8960722320955 -623.4133159320296 C 1207.6960000388 -632.8899512685241 1308.573398530581 -631.5267431807973 1384.089568461548 -620.0052957127127" fill="none" stroke="#aaa" stroke-width="2" marker-end="url(#Inhibitor)" stroke-linecap="round" onmouseover="BMA.SVGHelper.Highlight(this, window.ElementRegistry.LineWidth + 1)" onmouseout="BMA.SVGHelper.UnHighlight(this, window.ElementRegistry.LineWidth + 1)" data-id="23" data-ishovered="false"/><path d="M 1383.9679579433746 -611.0061173678932 C 1308.16803013667 -601.5294820313987 1207.2906316448891 -602.8926901191255 1131.7744617139222 -614.4141375872101" fill="none" stroke="#aaa" stroke-width="2" marker-end="url(#Inhibitor)" stroke-linecap="round" onmouseover="BMA.SVGHelper.Highlight(this, window.ElementRegistry.LineWidth + 1)" onmouseout="BMA.SVGHelper.UnHighlight(this, window.ElementRegistry.LineWidth + 1)" data-id="24" data-ishovered="false"/><path d="M 1129.8628371678108 -537.6879998371998 C 1206.7043439197653 -527.1879998371998 1309.1596862557049 -527.1879998371998 1386.0011930076594 -537.6879998371998" fill="none" stroke="#aaa" stroke-width="2" marker-end="url(#Inhibitor)" stroke-linecap="round" onmouseover="BMA.SVGHelper.Highlight(this, window.ElementRegistry.LineWidth + 1)" onmouseout="BMA.SVGHelper.UnHighlight(this, window.ElementRegistry.LineWidth + 1)" data-id="25" data-ishovered="false"/><path d="M 1386.0011930076594 -546.6879998371998 C 1309.1596862557049 -557.1879998371998 1206.7043439197653 -557.1879998371998 1129.8628371678108 -546.6879998371998" fill="none" stroke="#aaa" stroke-width="2" marker-end="url(#Inhibitor)" stroke-linecap="round" onmouseover="BMA.SVGHelper.Highlight(this, window.ElementRegistry.LineWidth + 1)" onmouseout="BMA.SVGHelper.UnHighlight(this, window.ElementRegistry.LineWidth + 1)" data-id="26" data-ishovered="false"/><path d="M 1409.0656378934466 -595.364338772971 C 1419.8298758526162 -585.7294002734494 1420.1873035532892 -572.50457534855 1409.9592071451289 -562.3022764607224" fill="none" stroke="#aaa" stroke-width="2" marker-end="url(#Activator)" stroke-linecap="round" onmouseover="BMA.SVGHelper.Highlight(this, window.ElementRegistry.LineWidth + 1)" onmouseout="BMA.SVGHelper.UnHighlight(this, window.ElementRegistry.LineWidth + 1)" data-id="27" data-ishovered="false"/><path d="M 1400.962492416273 -562.0591220085912 C 1390.1982544571035 -571.6940605081128 1389.8408267564305 -584.9188854330122 1400.0689231645908 -595.1211843208398" fill="none" stroke="#aaa" stroke-width="2" marker-end="url(#Inhibitor)" stroke-linecap="round" onmouseover="BMA.SVGHelper.Highlight(this, window.ElementRegistry.LineWidth + 1)" onmouseout="BMA.SVGHelper.UnHighlight(this, window.ElementRegistry.LineWidth + 1)" data-id="28" data-ishovered="false"/><path d="M 1132.3247611514546 -618.4730233216685 C 1211.6238245869806 -608.5706143185375 1313.8109030260841 -581.823660901591 1387.7924572492132 -551.6056397793021" fill="none" stroke="#aaa" stroke-width="2" marker-end="url(#Inhibitor)" stroke-linecap="round" onmouseover="BMA.SVGHelper.Highlight(this, window.ElementRegistry.LineWidth + 1)" onmouseout="BMA.SVGHelper.UnHighlight(this, window.ElementRegistry.LineWidth + 1)" data-id="29" data-ishovered="false"/><path d="M 1385.5135247296146 -542.8989488710916 C 1306.2144612940886 -552.8013578742227 1204.027382854985 -579.5483112911693 1130.045828631856 -609.766332413458" fill="none" stroke="#aaa" stroke-width="2" marker-end="url(#Inhibitor)" stroke-linecap="round" onmouseover="BMA.SVGHelper.Highlight(this, window.ElementRegistry.LineWidth + 1)" onmouseout="BMA.SVGHelper.UnHighlight(this, window.ElementRegistry.LineWidth + 1)" data-id="30" data-ishovered="false"/><path d="M 1383.531936255881 -614.7827666577871 C 1304.3984710222571 -605.9510675283243 1202.261222036122 -580.5881265049215 1128.1888137905428 -551.3754140992803" fill="none" stroke="#aaa" stroke-width="2" marker-end="url(#Inhibitor)" stroke-linecap="round" onmouseover="BMA.SVGHelper.Highlight(this, window.ElementRegistry.LineWidth + 1)" onmouseout="BMA.SVGHelper.UnHighlight(this, window.ElementRegistry.LineWidth + 1)" data-id="31" data-ishovered="false"/><path d="M 1130.3578382139901 -542.6406941237751 C 1209.491303447614 -551.4723932532379 1311.628552433749 -576.8353342766407 1385.7009606793283 -606.0480466822819" fill="none" stroke="#aaa" stroke-width="2" marker-end="url(#Inhibitor)" stroke-linecap="round" onmouseover="BMA.SVGHelper.Highlight(this, window.ElementRegistry.LineWidth + 1)" onmouseout="BMA.SVGHelper.UnHighlight(this, window.ElementRegistry.LineWidth + 1)" data-id="32" data-ishovered="false"/><path d="M 1131.8370928734098 -411.3356346788643 C 1206.9017694903253 -400.8356346788643 1306.9880049795458 -400.8356346788643 1382.0526815964613 -411.3356346788643" fill="none" stroke="#aaa" stroke-width="2" marker-end="url(#Inhibitor)" stroke-linecap="round" onmouseover="BMA.SVGHelper.Highlight(this, window.ElementRegistry.LineWidth + 1)" onmouseout="BMA.SVGHelper.UnHighlight(this, window.ElementRegistry.LineWidth + 1)" data-id="34" data-ishovered="false"/><path d="M 1382.0526815964613 -420.3356346788643 C 1306.9880049795458 -430.8356346788643 1206.9017694903253 -430.8356346788643 1131.8370928734098 -420.3356346788643" fill="none" stroke="#aaa" stroke-width="2" marker-end="url(#Inhibitor)" stroke-linecap="round" onmouseover="BMA.SVGHelper.Highlight(this, window.ElementRegistry.LineWidth + 1)" onmouseout="BMA.SVGHelper.UnHighlight(this, window.ElementRegistry.LineWidth + 1)" data-id="35" data-ishovered="false"/><path d="M 1093.306207210043 -407.06886352117857 C 1077.3453824802782 -407.9239301569618 1064.683299428204 -398.0316777725289 1061.650999579858 -382.33823256009634" fill="none" stroke="#aaa" stroke-width="2" marker-end="url(#Activator)" stroke-linecap="round" onmouseover="BMA.SVGHelper.Highlight(this, window.ElementRegistry.LineWidth + 1)" onmouseout="BMA.SVGHelper.UnHighlight(this, window.ElementRegistry.LineWidth + 1)" data-id="36" data-ishovered="false"/><path d="M 1415.0218758659603 -399.9595520386158 C 1427.9309489006553 -397.6201197329734 1432.6210656062499 -388.2398863217841 1426.7471676299467 -376.50896851064266" fill="none" stroke="#aaa" stroke-width="2" marker-end="url(#Activator)" stroke-linecap="round" onmouseover="BMA.SVGHelper.Highlight(this, window.ElementRegistry.LineWidth + 1)" onmouseout="BMA.SVGHelper.UnHighlight(this, window.ElementRegistry.LineWidth + 1)" data-id="38" data-ishovered="false"/><path d="M 1418.6973229109474 -372.4840461511431 C 1405.7882498762524 -374.8234784567855 1401.0981331706578 -384.2037118679748 1406.972031146961 -395.93462967911626" fill="none" stroke="#aaa" stroke-width="2" marker-end="url(#Inhibitor)" stroke-linecap="round" onmouseover="BMA.SVGHelper.Highlight(this, window.ElementRegistry.LineWidth + 1)" onmouseout="BMA.SVGHelper.UnHighlight(this, window.ElementRegistry.LineWidth + 1)" data-id="39" data-ishovered="false"/><path d="M 1411.5572155687187 -352.6247501487253 C 1308.3810212203425 -344.7804436418341 1171.17346705082 -348.3167208111517 1068.5383301449122 -361.4654430720193" fill="none" stroke="#aaa" stroke-width="2" marker-end="url(#Inhibitor)" stroke-linecap="round" onmouseover="BMA.SVGHelper.Highlight(this, window.ElementRegistry.LineWidth + 1)" onmouseout="BMA.SVGHelper.UnHighlight(this, window.ElementRegistry.LineWidth + 1)" data-id="40" data-ishovered="false"/><path d="M 1068.7702119059697 -370.46245540105883 C 1171.9464062543457 -378.30676190795003 1309.1539604238683 -374.77048473863243 1411.7890973297763 -361.62176247776483" fill="none" stroke="#aaa" stroke-width="2" marker-end="url(#Inhibitor)" stroke-linecap="round" onmouseover="BMA.SVGHelper.Highlight(this, window.ElementRegistry.LineWidth + 1)" onmouseout="BMA.SVGHelper.UnHighlight(this, window.ElementRegistry.LineWidth + 1)" data-id="41" data-ishovered="false"/><path d="M 1132.3221346439193 -416.6186184976483 C 1218.3835151081312 -411.35984932178184 1330.5827727511944 -390.5822090175109 1412.8202787515775 -364.6745177369708" fill="none" stroke="#aaa" stroke-width="2" marker-end="url(#Inhibitor)" stroke-linecap="round" onmouseover="BMA.SVGHelper.Highlight(this, window.ElementRegistry.LineWidth + 1)" onmouseout="BMA.SVGHelper.UnHighlight(this, window.ElementRegistry.LineWidth + 1)" data-id="42" data-ishovered="false"/><path d="M 1411.1814754099369 -355.8249796921106 C 1325.120094945725 -361.0837488679771 1212.9208373026618 -381.86138917224804 1130.6833313022787 -407.7690804527881" fill="none" stroke="#aaa" stroke-width="2" marker-end="url(#Inhibitor)" stroke-linecap="round" onmouseover="BMA.SVGHelper.Highlight(this, window.ElementRegistry.LineWidth + 1)" onmouseout="BMA.SVGHelper.UnHighlight(this, window.ElementRegistry.LineWidth + 1)" data-id="43" data-ishovered="false"/><path d="M 1069.0911059179336 -364.7889442019125 C 1164.6763735717084 -367.5369286528525 1290.1868856765493 -385.06632978481355 1382.867386180036 -408.61244703181507" fill="none" stroke="#aaa" stroke-width="2" marker-end="url(#Inhibitor)" stroke-linecap="round" onmouseover="BMA.SVGHelper.Highlight(this, window.ElementRegistry.LineWidth + 1)" onmouseout="BMA.SVGHelper.UnHighlight(this, window.ElementRegistry.LineWidth + 1)" data-id="44" data-ishovered="false"/><path d="M 1381.6224859727697 -417.52593251584136 C 1286.037218318995 -414.77794806490135 1160.526706214154 -397.2485469329403 1067.8462057106674 -373.7024296859388" fill="none" stroke="#aaa" stroke-width="2" marker-end="url(#Inhibitor)" stroke-linecap="round" onmouseover="BMA.SVGHelper.Highlight(this, window.ElementRegistry.LineWidth + 1)" onmouseout="BMA.SVGHelper.UnHighlight(this, window.ElementRegistry.LineWidth + 1)" data-id="45" data-ishovered="false"/><path d="M 966.0636206400344 -242.35804881333172 C 1115.318578654981 -250.664258279415 1314.11932924739 -247.74071782952666 1463.065497121057 -235.0491976886108" fill="none" stroke="#aaa" stroke-width="2" marker-end="url(#Inhibitor)" stroke-linecap="round" onmouseover="BMA.SVGHelper.Highlight(this, window.ElementRegistry.LineWidth + 1)" onmouseout="BMA.SVGHelper.UnHighlight(this, window.ElementRegistry.LineWidth + 1)" data-id="49" data-ishovered="false"/><path d="M 1462.9331584890801 -226.0501707141826 C 1313.6782004741335 -217.7439612480993 1114.8774498817247 -220.66750169798766 965.9312820080576 -233.35902183890352" fill="none" stroke="#aaa" stroke-width="2" marker-end="url(#Inhibitor)" stroke-linecap="round" onmouseover="BMA.SVGHelper.Highlight(this, window.ElementRegistry.LineWidth + 1)" onmouseout="BMA.SVGHelper.UnHighlight(this, window.ElementRegistry.LineWidth + 1)" data-id="50" data-ishovered="false"/><path d="M 930.4767623167313 -164.61523095084854 C 1110.9990579563362 -154.67063446417683 1351.6523754233124 -155.41110621022906 1532.1100559841714 -166.46641031597915" fill="none" stroke="#aaa" stroke-width="2" marker-end="url(#Inhibitor)" stroke-linecap="round" onmouseover="BMA.SVGHelper.Highlight(this, window.ElementRegistry.LineWidth + 1)" onmouseout="BMA.SVGHelper.UnHighlight(this, window.ElementRegistry.LineWidth + 1)" data-id="51" data-ishovered="false"/><path d="M 1532.082363807566 -175.46636771273137 C 1351.560068167961 -185.41096419940308 1110.906750700985 -184.67049245335085 930.449070140126 -173.61518834760076" fill="none" stroke="#aaa" stroke-width="2" marker-end="url(#Inhibitor)" stroke-linecap="round" onmouseover="BMA.SVGHelper.Highlight(this, window.ElementRegistry.LineWidth + 1)" onmouseout="BMA.SVGHelper.UnHighlight(this, window.ElementRegistry.LineWidth + 1)" data-id="52" data-ishovered="false"/><path d="M 932.8508582402476 -222.42493118538562 C 918.3405316571217 -217.16885403693195 911.443458778741 -203.75787899563645 915.6081760442962 -188.8974935821468" fill="none" stroke="#aaa" stroke-width="2" marker-end="url(#Activator)" stroke-linecap="round" onmouseover="BMA.SVGHelper.Highlight(this, window.ElementRegistry.LineWidth + 1)" onmouseout="BMA.SVGHelper.UnHighlight(this, window.ElementRegistry.LineWidth + 1)" data-id="53" data-ishovered="false"/><path d="M 923.6117662651595 -184.78136146855996 C 938.1220928482854 -190.03743861701363 945.0191657266661 -203.44841365830914 940.8544484611109 -218.30879907179877" fill="none" stroke="#aaa" stroke-width="2" marker-end="url(#Inhibitor)" stroke-linecap="round" onmouseover="BMA.SVGHelper.Highlight(this, window.ElementRegistry.LineWidth + 1)" onmouseout="BMA.SVGHelper.UnHighlight(this, window.ElementRegistry.LineWidth + 1)" data-id="54" data-ishovered="false"/><path d="M 1501.110858753878 -220.65642559408366 C 1519.5627738555713 -218.66981504999998 1535.0542480961126 -205.3914085581076 1539.8395443552308 -187.4604093643527" fill="none" stroke="#aaa" stroke-width="2" marker-end="url(#Activator)" stroke-linecap="round" onmouseover="BMA.SVGHelper.Highlight(this, window.ElementRegistry.LineWidth + 1)" onmouseout="BMA.SVGHelper.UnHighlight(this, window.ElementRegistry.LineWidth + 1)" data-id="55" data-ishovered="false"/><path d="M 1533.982421994127 -180.627099943065 C 1515.5305068924336 -182.61371048714867 1500.0390326518923 -195.89211697904105 1495.253736392774 -213.82311617279595" fill="none" stroke="#aaa" stroke-width="2" marker-end="url(#Inhibitor)" stroke-linecap="round" onmouseover="BMA.SVGHelper.Highlight(this, window.ElementRegistry.LineWidth + 1)" onmouseout="BMA.SVGHelper.UnHighlight(this, window.ElementRegistry.LineWidth + 1)" data-id="56" data-ishovered="false"/><path d="M 966.3734194780379 -240.42375176787945 C 1137.4310920126584 -232.04345083834602 1363.966922207692 -206.9547921196778 1532.7129949656226 -177.70210497120888" fill="none" stroke="#aaa" stroke-width="2" marker-end="url(#Inhibitor)" stroke-linecap="round" onmouseover="BMA.SVGHelper.Highlight(this, window.ElementRegistry.LineWidth + 1)" onmouseout="BMA.SVGHelper.UnHighlight(this, window.ElementRegistry.LineWidth + 1)" data-id="57" data-ishovered="false"/><path d="M 1531.7223093470413 -168.75679659166514 C 1360.664636812421 -177.13709752119854 1134.128806617387 -202.22575623986677 965.3827338594565 -231.4784433883357" fill="none" stroke="#aaa" stroke-width="2" marker-end="url(#Inhibitor)" stroke-linecap="round" onmouseover="BMA.SVGHelper.Highlight(this, window.ElementRegistry.LineWidth + 1)" onmouseout="BMA.SVGHelper.UnHighlight(this, window.ElementRegistry.LineWidth + 1)" data-id="58" data-ishovered="false"/><path d="M 930.8280216969127 -166.7049834759092 C 1091.772302674215 -173.3495514554562 1304.8766034517316 -196.12966636615627 1463.5887736407042 -223.6552707526593" fill="none" stroke="#aaa" stroke-width="2" marker-end="url(#Inhibitor)" stroke-linecap="round" onmouseover="BMA.SVGHelper.Highlight(this, window.ElementRegistry.LineWidth + 1)" onmouseout="BMA.SVGHelper.UnHighlight(this, window.ElementRegistry.LineWidth + 1)" data-id="59" data-ishovered="false"/><path d="M 1462.6321547314199 -232.60428635564045 C 1301.6878737541178 -225.95971837609343 1088.583572976601 -203.17960346539337 929.8714027876287 -175.65399907889034" fill="none" stroke="#aaa" stroke-width="2" marker-end="url(#Inhibitor)" stroke-linecap="round" onmouseover="BMA.SVGHelper.Highlight(this, window.ElementRegistry.LineWidth + 1)" onmouseout="BMA.SVGHelper.UnHighlight(this, window.ElementRegistry.LineWidth + 1)" data-id="60" data-ishovered="false"/><path d="M 1056.0907318066625 -347.3730191705783 C 1084.2306157982557 -231.09499001384512 1107.9067462877574 -73.97157858351359 1115.2810580304172 45.435509405250656" fill="none" stroke="#aaa" stroke-width="2" marker-end="url(#Activator)" stroke-linecap="round" onmouseover="BMA.SVGHelper.Highlight(this, window.ElementRegistry.LineWidth + 1)" onmouseout="BMA.SVGHelper.UnHighlight(this, window.ElementRegistry.LineWidth + 1)" data-id="82" data-ishovered="false"/><path d="M 1416.046669033026 -343.3312792918764 C 1319.5138688311656 -232.48583763640625 1201.990909405832 -76.27519591577658 1122.2392704696917 47.195325009697946" fill="none" stroke="#aaa" stroke-width="2" marker-end="url(#Inhibitor)" stroke-linecap="round" onmouseover="BMA.SVGHelper.Highlight(this, window.ElementRegistry.LineWidth + 1)" onmouseout="BMA.SVGHelper.UnHighlight(this, window.ElementRegistry.LineWidth + 1)" data-id="100" data-ishovered="false"/><path d="M 1067.1917959576087 -375.2460131965753 C 1083.1526206873737 -374.3909465607921 1095.8147037394479 -384.28319894522497 1098.8470035877938 -399.9766441576575" fill="none" stroke="#aaa" stroke-width="2" marker-end="url(#Inhibitor)" stroke-linecap="round" onmouseover="BMA.SVGHelper.Highlight(this, window.ElementRegistry.LineWidth + 1)" onmouseout="BMA.SVGHelper.UnHighlight(this, window.ElementRegistry.LineWidth + 1)" data-id="106" data-ishovered="false"/><path d="M 923.1021769352046 -152.91361317695856 C 982.5260316184932 -52.16999772438305 1049.1094528905016 88.15635248329065 1089.5607301152256 197.90226234222578" fill="none" stroke="#aaa" stroke-width="2" marker-end="url(#Activator)" stroke-linecap="round" onmouseover="BMA.SVGHelper.Highlight(this, window.ElementRegistry.LineWidth + 1)" onmouseout="BMA.SVGHelper.UnHighlight(this, window.ElementRegistry.LineWidth + 1)" data-id="114" data-ishovered="false"/><path d="M 1533.9381445746988 -161.51277600490246 C 1398.8808075026698 -60.60523261011315 1227.8660938998094 84.60984747507439 1106.4013605675475 201.52492420806644" fill="none" stroke="#aaa" stroke-width="2" marker-end="url(#Inhibitor)" stroke-linecap="round" onmouseover="BMA.SVGHelper.Highlight(this, window.ElementRegistry.LineWidth + 1)" onmouseout="BMA.SVGHelper.UnHighlight(this, window.ElementRegistry.LineWidth + 1)" data-id="115" data-ishovered="false"/><path d="M1421.7517750664447,-554.5135491072921L1610.7788080278194,-702.4358290236244" fill="none" stroke="#aaa" stroke-width="2" marker-end="url(#Activator)" stroke-linecap="round" onmouseover="BMA.SVGHelper.Highlight(this, window.ElementRegistry.LineWidth + 1)" onmouseout="BMA.SVGHelper.UnHighlight(this, window.ElementRegistry.LineWidth + 1)" data-id="116" data-ishovered="false"/><path d="M1616.9710106177745,-697.1932998008979L1441.2248966492766,-374.17604200371346" fill="none" stroke="#aaa" stroke-width="2" marker-end="url(#Inhibitor)" stroke-linecap="round" onmouseover="BMA.SVGHelper.Highlight(this, window.ElementRegistry.LineWidth + 1)" onmouseout="BMA.SVGHelper.UnHighlight(this, window.ElementRegistry.LineWidth + 1)" data-id="117" data-ishovered="false"/><path d="M865.9807164538256,-708.9210588419177L1039.247358019521,-384.12534737607643" fill="none" stroke="#aaa" stroke-width="2" marker-end="url(#Inhibitor)" stroke-linecap="round" onmouseover="BMA.SVGHelper.Highlight(this, window.ElementRegistry.LineWidth + 1)" onmouseout="BMA.SVGHelper.UnHighlight(this, window.ElementRegistry.LineWidth + 1)" data-id="118" data-ishovered="false"/><path d="M1100.7224164095342,50.760593136149176L923.5519430717869,-153.93150712785015" fill="none" stroke="#aaa" stroke-width="2" marker-end="url(#Activator)" stroke-linecap="round" onmouseover="BMA.SVGHelper.Highlight(this, window.ElementRegistry.LineWidth + 1)" onmouseout="BMA.SVGHelper.UnHighlight(this, window.ElementRegistry.LineWidth + 1)" data-id="119" data-ishovered="false"/><path d="M1131.4054788505312,56.37241679998L1534.5019849504622,-161.51758649727998" fill="none" stroke="#aaa" stroke-width="2" marker-end="url(#Inhibitor)" stroke-linecap="round" onmouseover="BMA.SVGHelper.Highlight(this, window.ElementRegistry.LineWidth + 1)" onmouseout="BMA.SVGHelper.UnHighlight(this, window.ElementRegistry.LineWidth + 1)" data-id="121" data-ishovered="false"/><path d="M 1106.3815270665882 46.776534618978275 C 1078.241643074995 -69.50149453775488 1054.5655125854933 -226.62490596808647 1047.1912008428335 -346.0319939568507" fill="none" stroke="#aaa" stroke-width="2" marker-end="url(#Inhibitor)" stroke-linecap="round" onmouseover="BMA.SVGHelper.Highlight(this, window.ElementRegistry.LineWidth + 1)" onmouseout="BMA.SVGHelper.UnHighlight(this, window.ElementRegistry.LineWidth + 1)" data-id="122" data-ishovered="false"/><path d="M 1129.4311967264289 52.60607326827127 C 1225.9639969282894 -58.23936838719886 1343.4869563536229 -214.45001010782858 1423.2385952897632 -337.92053103330306" fill="none" stroke="#aaa" stroke-width="2" marker-end="url(#Inhibitor)" stroke-linecap="round" onmouseover="BMA.SVGHelper.Highlight(this, window.ElementRegistry.LineWidth + 1)" onmouseout="BMA.SVGHelper.UnHighlight(this, window.ElementRegistry.LineWidth + 1)" data-id="123" data-ishovered="false"/><path d="M1113.7293820542689,45.88292545077422L1111.9190593981496,-395.83580264234905" fill="none" stroke="#aaa" stroke-width="2" marker-end="url(#Inhibitor)" stroke-linecap="round" onmouseover="BMA.SVGHelper.Highlight(this, window.ElementRegistry.LineWidth + 1)" onmouseout="BMA.SVGHelper.UnHighlight(this, window.ElementRegistry.LineWidth + 1)" data-id="124" data-ishovered="false"/><path d="M1124.0805688115017,48.720499016547535L1391.7834613639682,-398.67337620812236" fill="none" stroke="#aaa" stroke-width="2" marker-end="url(#Inhibitor)" stroke-linecap="round" onmouseover="BMA.SVGHelper.Highlight(this, window.ElementRegistry.LineWidth + 1)" onmouseout="BMA.SVGHelper.UnHighlight(this, window.ElementRegistry.LineWidth + 1)" data-id="125" data-ishovered="false"/><path d="M 1081.4296254901267 201.7603885163799 C 1022.0057708068381 101.01677306380438 955.4223495348298 -39.30957714386932 914.9710723101057 -149.05548700280445" fill="none" stroke="#aaa" stroke-width="2" marker-end="url(#Inhibitor)" stroke-linecap="round" onmouseover="BMA.SVGHelper.Highlight(this, window.ElementRegistry.LineWidth + 1)" onmouseout="BMA.SVGHelper.UnHighlight(this, window.ElementRegistry.LineWidth + 1)" data-id="126" data-ishovered="false"/><path d="M1087.892656445811,198.87795078061257L952.1757486803019,-219.13012513715591" fill="none" stroke="#aaa" stroke-width="2" marker-end="url(#Inhibitor)" stroke-linecap="round" onmouseover="BMA.SVGHelper.Highlight(this, window.ElementRegistry.LineWidth + 1)" onmouseout="BMA.SVGHelper.UnHighlight(this, window.ElementRegistry.LineWidth + 1)" data-id="127" data-ishovered="false"/><path d="M 1112.2267621703047 208.38529563872478 C 1247.2840992423337 107.47775224393547 1418.298812845194 -37.73732784125207 1539.763546177456 -154.65240457424412" fill="none" stroke="#aaa" stroke-width="2" marker-end="url(#Inhibitor)" stroke-linecap="round" onmouseover="BMA.SVGHelper.Highlight(this, window.ElementRegistry.LineWidth + 1)" onmouseout="BMA.SVGHelper.UnHighlight(this, window.ElementRegistry.LineWidth + 1)" data-id="128" data-ishovered="false"/><path d="M1107.1775326213615,202.7954507304738L1469.8884244276774,-215.1506022646212" fill="none" stroke="#aaa" stroke-width="2" marker-end="url(#Inhibitor)" stroke-linecap="round" onmouseover="BMA.SVGHelper.Highlight(this, window.ElementRegistry.LineWidth + 1)" onmouseout="BMA.SVGHelper.UnHighlight(this, window.ElementRegistry.LineWidth + 1)" data-id="129" data-ishovered="false"/><path d="M 1804.9215735038833 -311.2131237145346 C 1684.6297115802013 -367.2374534996268 1531.1369374265503 -454.12015585075 1421.1896381197555 -528.4198795923428" fill="none" stroke="#aaa" stroke-width="2" marker-end="url(#Activator)" stroke-linecap="round" onmouseover="BMA.SVGHelper.Highlight(this, window.ElementRegistry.LineWidth + 1)" onmouseout="BMA.SVGHelper.UnHighlight(this, window.ElementRegistry.LineWidth + 1)" data-id="131" data-ishovered="false"/><path d="M 1804.128965631139 -303.4062824389853 C 1696.8044731525508 -306.83933821484175 1555.5188806397402 -325.29876236224413 1450.9149843491125 -349.55484280749124" fill="none" stroke="#aaa" stroke-width="2" marker-end="url(#Activator)" stroke-linecap="round" onmouseover="BMA.SVGHelper.Highlight(this, window.ElementRegistry.LineWidth + 1)" onmouseout="BMA.SVGHelper.UnHighlight(this, window.ElementRegistry.LineWidth + 1)" data-id="132" data-ishovered="false"/><path d="M 1804.6141335476973 -300.4737503167576 C 1729.0030299980729 -274.9216326803131 1634.3763088049323 -228.2939729619539 1568.0473305648454 -183.90460102085967" fill="none" stroke="#aaa" stroke-width="2" marker-end="url(#Activator)" stroke-linecap="round" onmouseover="BMA.SVGHelper.Highlight(this, window.ElementRegistry.LineWidth + 1)" onmouseout="BMA.SVGHelper.UnHighlight(this, window.ElementRegistry.LineWidth + 1)" data-id="133" data-ishovered="false"/><path d="M 1425.6230220984214 -536.2521912879859 C 1545.9148840221035 -480.22786150289375 1699.4076581757545 -393.34515915177053 1809.3549574825493 -319.0454354101778" fill="none" stroke="#aaa" stroke-width="2" marker-end="url(#Inhibitor)" stroke-linecap="round" onmouseover="BMA.SVGHelper.Highlight(this, window.ElementRegistry.LineWidth + 1)" onmouseout="BMA.SVGHelper.UnHighlight(this, window.ElementRegistry.LineWidth + 1)" data-id="134" data-ishovered="false"/><path d="M 1452.0809541439528 -358.47899623723015 C 1559.405446622541 -355.0459404613737 1700.6910391353515 -336.5865163139713 1805.2949354259792 -312.3304358687242" fill="none" stroke="#aaa" stroke-width="2" marker-end="url(#Inhibitor)" stroke-linecap="round" onmouseover="BMA.SVGHelper.Highlight(this, window.ElementRegistry.LineWidth + 1)" onmouseout="BMA.SVGHelper.UnHighlight(this, window.ElementRegistry.LineWidth + 1)" data-id="135" data-ishovered="false"/><path d="M 1572.0253842689328 -175.83149203315264 C 1647.6364878185573 -201.3836096695972 1742.2632090116979 -248.0112693879564 1808.5921872517847 -292.40064132905064" fill="none" stroke="#aaa" stroke-width="2" marker-end="url(#Inhibitor)" stroke-linecap="round" onmouseover="BMA.SVGHelper.Highlight(this, window.ElementRegistry.LineWidth + 1)" onmouseout="BMA.SVGHelper.UnHighlight(this, window.ElementRegistry.LineWidth + 1)" data-id="136" data-ishovered="false"/><path d="M 659.6810938279511 -289.2622570544643 C 795.1933400002245 -351.86545581121135 969.1255162849405 -447.6012335141433 1094.5115345397414 -528.6017013117943" fill="none" stroke="#aaa" stroke-width="2" marker-end="url(#Activator)" stroke-linecap="round" onmouseover="BMA.SVGHelper.Highlight(this, window.ElementRegistry.LineWidth + 1)" onmouseout="BMA.SVGHelper.UnHighlight(this, window.ElementRegistry.LineWidth + 1)" data-id="138" data-ishovered="false"/><path d="M 660.4854015556223 -283.12730047665553 C 773.4142050589239 -295.32643974701466 921.2020880565399 -325.31238702189324 1029.955109049662 -358.0921686638519" fill="none" stroke="#aaa" stroke-width="2" marker-end="url(#Activator)" stroke-linecap="round" onmouseover="BMA.SVGHelper.Highlight(this, window.ElementRegistry.LineWidth + 1)" onmouseout="BMA.SVGHelper.UnHighlight(this, window.ElementRegistry.LineWidth + 1)" data-id="139" data-ishovered="false"/><path d="M 660.1618349657209 -279.9072522905995 C 734.3467732292395 -259.9026958677883 827.8019946394196 -220.3377116211427 893.7998884911713 -180.99479167398547" fill="none" stroke="#aaa" stroke-width="2" marker-end="url(#Activator)" stroke-linecap="round" onmouseover="BMA.SVGHelper.Highlight(this, window.ElementRegistry.LineWidth + 1)" onmouseout="BMA.SVGHelper.UnHighlight(this, window.ElementRegistry.LineWidth + 1)" data-id="140" data-ishovered="false"/><path d="M 1090.1717225751106 -536.4862451864675 C 954.6594764028372 -473.8830464297204 780.7273001181211 -378.14726872678847 655.3412818633201 -297.14680092913744" fill="none" stroke="#aaa" stroke-width="2" marker-end="url(#Inhibitor)" stroke-linecap="round" onmouseover="BMA.SVGHelper.Highlight(this, window.ElementRegistry.LineWidth + 1)" onmouseout="BMA.SVGHelper.UnHighlight(this, window.ElementRegistry.LineWidth + 1)" data-id="141" data-ishovered="false"/><path d="M 1028.1654879738708 -366.91244396596596 C 915.2366844705691 -354.71330469560684 767.4488014729532 -324.72735742072825 658.695780479831 -291.9475757787696" fill="none" stroke="#aaa" stroke-width="2" marker-end="url(#Inhibitor)" stroke-linecap="round" onmouseover="BMA.SVGHelper.Highlight(this, window.ElementRegistry.LineWidth + 1)" onmouseout="BMA.SVGHelper.UnHighlight(this, window.ElementRegistry.LineWidth + 1)" data-id="142" data-ishovered="false"/><path d="M 890.2911551718425 -172.70692159212288 C 816.106216908324 -192.7114780149341 722.6509954981439 -232.27646226157972 656.6531016463922 -271.6193822087369" fill="none" stroke="#aaa" stroke-width="2" marker-end="url(#Inhibitor)" stroke-linecap="round" onmouseover="BMA.SVGHelper.Highlight(this, window.ElementRegistry.LineWidth + 1)" onmouseout="BMA.SVGHelper.UnHighlight(this, window.ElementRegistry.LineWidth + 1)" data-id="143" data-ishovered="false"/><path d="M 660.0691051100932 -279.42786352497274 C 1003.629615933811 -275.2247084549899 1461.4536734888234 -283.61814951016515 1804.6292489976245 -300.4114661629108" fill="none" stroke="#aaa" stroke-width="2" marker-end="url(#Inhibitor)" stroke-linecap="round" onmouseover="BMA.SVGHelper.Highlight(this, window.ElementRegistry.LineWidth + 1)" onmouseout="BMA.SVGHelper.UnHighlight(this, window.ElementRegistry.LineWidth + 1)" data-id="144" data-ishovered="false"/><path d="M 1804.464276719803 -309.40995404408005 C 1460.9037658960851 -313.6131091140628 1003.0797083410728 -305.2196680588876 659.9041328322719 -288.426351406142" fill="none" stroke="#aaa" stroke-width="2" marker-end="url(#Inhibitor)" stroke-linecap="round" onmouseover="BMA.SVGHelper.Highlight(this, window.ElementRegistry.LineWidth + 1)" onmouseout="BMA.SVGHelper.UnHighlight(this, window.ElementRegistry.LineWidth + 1)" data-id="145" data-ishovered="false"/><path d="M674.4380648909275,-614.0711246037087L1031.9811259889561,-377.5148569075383" fill="none" stroke="#aaa" stroke-width="2" marker-end="url(#Activator)" stroke-linecap="round" onmouseover="BMA.SVGHelper.Highlight(this, window.ElementRegistry.LineWidth + 1)" onmouseout="BMA.SVGHelper.UnHighlight(this, window.ElementRegistry.LineWidth + 1)" data-id="147" data-ishovered="false"/><path d="M676.6534128239944,-618.55128543048L1412.7713849420938,-363.16341755277205" fill="none" stroke="#aaa" stroke-width="2" marker-end="url(#Activator)" stroke-linecap="round" onmouseover="BMA.SVGHelper.Highlight(this, window.ElementRegistry.LineWidth + 1)" onmouseout="BMA.SVGHelper.UnHighlight(this, window.ElementRegistry.LineWidth + 1)" data-id="149" data-ishovered="false"/><g transform="translate(875, -420)"><text x="0" y="0" transform="translate(-345, -372)" font-size="54" font-family="OpenSans" src="local('Segoe UI'), local('Frutiger'), local('Frutiger Linotype'), local('Dejavu Sans'), local('Helvetica Neue'), local('HelveticaNeue'), local('Arial'), local('sans serif'), local('sans-serif')" fill="black">Posterior</text></g><g transform="translate(1625, -420)"><text x="0" y="0" transform="translate(-345, -372)" font-size="54" font-family="OpenSans" src="local('Segoe UI'), local('Frutiger'), local('Frutiger Linotype'), local('Dejavu Sans'), local('Helvetica Neue'), local('HelveticaNeue'), local('Arial'), local('sans serif'), local('sans-serif')" fill="black">Anterior</text></g><g transform="translate(1125, 140)"><text x="0" y="0" transform="translate(-115, -112)" font-size="18" font-family="OpenSans" src="local('Segoe UI'), local('Frutiger'), local('Frutiger Linotype'), local('Dejavu Sans'), local('Helvetica Neue'), local('HelveticaNeue'), local('Arial'), local('sans serif'), local('sans-serif')" fill="black">Posterior_effect</text></g><g transform="translate(856.5671641791047, -726.5671641791046)"><text x="0" y="0" transform="translate(-17.5, 33)" font-size="18" font-family="OpenSans" src="local('Segoe UI'), local('Frutiger'), local('Frutiger Linotype'), local('Dejavu Sans'), local('Helvetica Neue'), local('HelveticaNeue'), local('Arial'), local('sans serif'), local('sans-serif')" fill="black">PLK1_post</text></g><g transform="translate(1626.5293900866047, -714.7613782937167)"><text x="0" y="0" transform="translate(-17.5, 33)" font-size="18" font-family="OpenSans" src="local('Segoe UI'), local('Frutiger'), local('Frutiger Linotype'), local('Dejavu Sans'), local('Helvetica Neue'), local('HelveticaNeue'), local('Arial'), local('sans serif'), local('sans-serif')" fill="black">PLK1_ant</text></g><g transform="translate(1111.8370928734098, -619.1839723555604)"><text x="0" y="0" transform="translate(-17.5, 33)" font-size="18" font-family="OpenSans" src="local('Segoe UI'), local('Frutiger'), local('Frutiger Linotype'), local('Dejavu Sans'), local('Helvetica Neue'), local('HelveticaNeue'), local('Arial'), local('sans serif'), local('sans-serif')" fill="black">MEX5_post</text></g><g transform="translate(1404.0269373020603, -615.2354609443624)"><text x="0" y="0" transform="translate(-17.5, 33)" font-size="18" font-family="OpenSans" src="local('Segoe UI'), local('Frutiger'), local('Frutiger Linotype'), local('Dejavu Sans'), local('Helvetica Neue'), local('HelveticaNeue'), local('Arial'), local('sans serif'), local('sans-serif')" fill="black">MEX5_ant</text></g><g transform="translate(1109.8628371678108, -542.1879998371998)"><text x="0" y="0" transform="translate(-17.5, 33)" font-size="18" font-family="OpenSans" src="local('Segoe UI'), local('Frutiger'), local('Frutiger Linotype'), local('Dejavu Sans'), local('Helvetica Neue'), local('HelveticaNeue'), local('Arial'), local('sans serif'), local('sans-serif')" fill="black">MEX5_RNA_post</text></g><g transform="translate(1406.0011930076594, -542.1879998371998)"><text x="0" y="0" transform="translate(-17.5, 33)" font-size="18" font-family="OpenSans" src="local('Segoe UI'), local('Frutiger'), local('Frutiger Linotype'), local('Dejavu Sans'), local('Helvetica Neue'), local('HelveticaNeue'), local('Arial'), local('sans serif'), local('sans-serif')" fill="black">MEX5_RNA_ant</text></g><g transform="translate(1111.8370928734098, -415.8356346788643)"><text x="0" y="0" transform="translate(-17.5, 33)" font-size="18" font-family="OpenSans" src="local('Segoe UI'), local('Frutiger'), local('Frutiger Linotype'), local('Dejavu Sans'), local('Helvetica Neue'), local('HelveticaNeue'), local('Arial'), local('sans serif'), local('sans-serif')" fill="black">MEG3_post</text></g><g transform="translate(1402.0526815964613, -415.8356346788643)"><text x="0" y="0" transform="translate(-17.5, 33)" font-size="18" font-family="OpenSans" src="local('Segoe UI'), local('Frutiger'), local('Frutiger Linotype'), local('Dejavu Sans'), local('Helvetica Neue'), local('HelveticaNeue'), local('Arial'), local('sans serif'), local('sans-serif')" fill="black">MEG3_ant</text></g><g transform="translate(1048.660910294242, -366.47924203888954)"><text x="0" y="0" transform="translate(-17.5, 33)" font-size="18" font-family="OpenSans" src="local('Segoe UI'), local('Frutiger'), local('Frutiger Linotype'), local('Dejavu Sans'), local('Helvetica Neue'), local('HelveticaNeue'), local('Arial'), local('sans serif'), local('sans-serif')" fill="black">MEG3_RNA_post</text></g><g transform="translate(1431.6665171804464, -356.6079635108946)"><text x="0" y="0" transform="translate(-17.5, 33)" font-size="18" font-family="OpenSans" src="local('Segoe UI'), local('Frutiger'), local('Frutiger Linotype'), local('Dejavu Sans'), local('Helvetica Neue'), local('HelveticaNeue'), local('Arial'), local('sans serif'), local('sans-serif')" fill="black">MEG3_RNA_ant</text></g><g transform="translate(945.9996136030944, -238.15262117495513)"><text x="0" y="0" transform="translate(-17.5, 33)" font-size="18" font-family="OpenSans" src="local('Segoe UI'), local('Frutiger'), local('Frutiger Linotype'), local('Dejavu Sans'), local('Helvetica Neue'), local('HelveticaNeue'), local('Arial'), local('sans serif'), local('sans-serif')" fill="black">PGL3_post</text></g><g transform="translate(1482.9971655260201, -230.2555983525592)"><text x="0" y="0" transform="translate(-17.5, 33)" font-size="18" font-family="OpenSans" src="local('Segoe UI'), local('Frutiger'), local('Frutiger Linotype'), local('Dejavu Sans'), local('Helvetica Neue'), local('HelveticaNeue'), local('Arial'), local('sans serif'), local('sans-serif')" fill="black">PGL3_ant</text></g><g transform="translate(910.4630109023126, -169.05367147899045)"><text x="0" y="0" transform="translate(-17.5, 33)" font-size="18" font-family="OpenSans" src="local('Segoe UI'), local('Frutiger'), local('Frutiger Linotype'), local('Dejavu Sans'), local('Helvetica Neue'), local('HelveticaNeue'), local('Arial'), local('sans serif'), local('sans-serif')" fill="black">PGL3_RNA_post</text></g><g transform="translate(1552.0961152219847, -171.02792718458946)"><text x="0" y="0" transform="translate(-17.5, 33)" font-size="18" font-family="OpenSans" src="local('Segoe UI'), local('Frutiger'), local('Frutiger Linotype'), local('Dejavu Sans'), local('Helvetica Neue'), local('HelveticaNeue'), local('Arial'), local('sans serif'), local('sans-serif')" fill="black">PGL3_RNA_ant</text></g><g transform="translate(1113.8113485790086, 65.88275748728948)"><text x="0" y="0" transform="translate(-17.5, 33)" font-size="18" font-family="OpenSans" src="local('Segoe UI'), local('Frutiger'), local('Frutiger Linotype'), local('Dejavu Sans'), local('Helvetica Neue'), local('HelveticaNeue'), local('Arial'), local('sans serif'), local('sans-serif')" fill="black">MEG3_granule</text></g><g transform="translate(1094.0687915230187, 217.90044681841178)"><text x="0" y="0" transform="translate(-17.5, 33)" font-size="18" font-family="OpenSans" src="local('Segoe UI'), local('Frutiger'), local('Frutiger Linotype'), local('Dejavu Sans'), local('Helvetica Neue'), local('HelveticaNeue'), local('Arial'), local('sans serif'), local('sans-serif')" fill="black">PGL3_granule</text></g><g transform="translate(1824.5434025946454, -305.27731516532083)"><text x="0" y="0" transform="translate(-17.5, 33)" font-size="18" font-family="OpenSans" src="local('Segoe UI'), local('Frutiger'), local('Frutiger Linotype'), local('Dejavu Sans'), local('Helvetica Neue'), local('HelveticaNeue'), local('Arial'), local('sans serif'), local('sans-serif')" fill="black">RNA_ant</text></g><g transform="translate(639.9899792352509, -283.56050240373196)"><text x="0" y="0" transform="translate(-17.5, 33)" font-size="18" font-family="OpenSans" src="local('Segoe UI'), local('Frutiger'), local('Frutiger Linotype'), local('Dejavu Sans'), local('Helvetica Neue'), local('HelveticaNeue'), local('Arial'), local('sans serif'), local('sans-serif')" fill="black">RNA_post</text></g><g transform="translate(657.7582805856417, -625.1067394723574)"><text x="0" y="0" transform="translate(-17.5, 33)" font-size="18" font-family="OpenSans" src="local('Segoe UI'), local('Frutiger'), local('Frutiger Linotype'), local('Dejavu Sans'), local('Helvetica Neue'), local('HelveticaNeue'), local('Arial'), local('sans serif'), local('sans-serif')" fill="black">phosphotase</text></g></svg>