<svg xmlns="http://www.w3.org/2000/svg" version="1.1" width="1704" height="938" viewBox="-470.37412935323385 -978.6427860696522 2441.552238805971 1344.0000000000005" preserveAspectRatio="none"><defs id="bmaDefs"><marker id="Activator" refX="3" refY="3" markerWidth="4" markerHeight="6" orient="auto" viewBox="0 0 4 6"><polyline points="1,1 3,3 1,5" fill="none" stroke="#aaa" stroke-width="1px" stroke-linecap="round" stroke-linejoin="round"/></marker><marker id="Inhibitor" refX="-0.5" refY="0" markerWidth="6" markerHeight="6" orient="auto" viewBox="-2 -4 4 8"><polyline points="0,1.5 0,-1.5" fill="none" stroke="#aaa" stroke-width="1px" stroke-linecap="round"/></marker><marker id="ActivatorSelected" refX="3" refY="3" markerWidth="4" markerHeight="6" orient="auto" viewBox="0 0 4 6"><polyline points="1,1 3,3 1,5" fill="none" stroke="#999999" stroke-width="1px" stroke-linecap="round" stroke-linejoin="round"/></marker><marker id="InhibitorSelected" refX="-0.5" refY="0" markerWidth="6" markerHeight="6" orient="auto" viewBox="-2 -4 4 8"><polyline points="0,1.5 0,-1.5" fill="none" stroke="#999999" stroke-width="1px" stroke-linecap="round"/></marker><marker id="ActivatorHighlighted" refX="3" refY="3" markerWidth="4" markerHeight="6" orient="auto" viewBox="0 0 4 6"><polyline points="1,1 3,3 1,5" fill="none" stroke="#33cc00" stroke-width="1px" stroke-linecap="round" stroke-linejoin="round"/></marker><marker id="InhibitorHighlighted" refX="-0.5" refY="0" markerWidth="6" markerHeight="6" orient="auto" viewBox="-2 -4 4 8"><polyline points="0,1.5 0,-1.5" fill="none" stroke="#33cc00" stroke-width="1px" stroke-linecap="round"/></marker></defs><g transform="translate(875, -420)"><rect x="-374.75" y="-419.72" width="749.5" height="839.44" stroke="none" fill="none"/><path d="M 640.36 249.05 c 113.22 0 205.33 106.84 205.33 238.16 S 753.58 725.37 640.36 725.37 S 435 618.53 435 487.21 s 92.11 -238.16 205.32 -238.16 m 0 -22.73 c -126 0 -228.06 116.8 -228.06 260.89 S 514.41 748.1 640.36 748.1 S 868.43 631.3 868.43 487.21 S 766.32 226.32 640.36 226.32 Z" stroke="#d0e9f0" stroke-width="2" fill="#d0e9f0" fill-rule="evenodd" transform="scale(1.56) translate(-640, -487)"/><ellipse cx="0" cy="0" rx="344" ry="396.5" stroke="none" fill="white"/></g><g transform="translate(1625, -420)"><rect x="-374.75" y="-419.72" width="749.5" height="839.44" stroke="none" fill="none"/><path d="M 640.36 249.05 c 113.22 0 205.33 106.84 205.33 238.16 S 753.58 725.37 640.36 725.37 S 435 618.53 435 487.21 s 92.11 -238.16 205.32 -238.16 m 0 -22.73 c -126 0 -228.06 116.8 -228.06 260.89 S 514.41 748.1 640.36 748.1 S 868.43 631.3 868.43 487.21 S 766.32 226.32 640.36 226.32 Z" stroke="#d0e9f0" stroke-width="2" fill="#d0e9f0" fill-rule="evenodd" transform="scale(1.56) translate(-640, -487)"/><ellipse cx="0" cy="0" rx="344" ry="396.5" stroke="none" fill="white"/></g><g transform="translate(1125, 140)"><rect x="-124.75" y="-139.72" width="249.5" height="279.44" stroke="none" fill="none"/><path d="M 640.36 249.05 c 113.22 0 205.33 106.84 205.33 238.16 S 753.58 725.37 640.36 725.37 S 435 618.53 435 487.21 s 92.11 -238.16 205.32 -238.16 m 0 -22.73 c -126 0 -228.06 116.8 -228.06 260.89 S 514.41 748.1 640.36 748.1 S 868.43 631.3 868.43 487.21 S 766.32 226.32 640.36 226.32 Z" stroke="#d0e9f0" stroke-width="2" fill="#d0e9f0" fill-rule="evenodd" transform="scale(0.52) translate(-640, -487)"/><ellipse cx="0" cy="0" rx="106" ry="123.5" stroke="none" fill="white"/></g><g transform="translate(856.6865671641793, -719.6417910447761)"><path d="M54.88 71.29 a 4.58 4.58 0 0 1 -3.28 -1.36 a 4.65 4.65 0 0 1 0 -6.57 l 11.11 -11 A 1.65 1.65 0 0 0 60.38 50 L 49.3 61.06 a 4.65 4.65 0 0 1 -7.93 -3.28 a 4.66 4.66 0 0 1 1.36 -3.29 l 11.12 -11 a 1.65 1.65 0 0 0 -1.17 -2.8 a 1.67 1.67 0 0 0 -1.17 0.48 L 40.44 52.2 a 4.65 4.65 0 0 1 -6.57 -6.57 L 45 34.59 a 1.63 1.63 0 0 0 0.48 -1.16 A 1.67 1.67 0 0 0 45 32.26 a 1.65 1.65 0 0 0 -1.17 -0.48 a 1.63 1.63 0 0 0 -1.16 0.48 L 29.28 45.63 a 1.5 1.5 0 1 1 -2.12 -2.12 L 40.53 30.14 a 4.65 4.65 0 0 1 7.93 3.29 a 4.58 4.58 0 0 1 -1.36 3.28 L 36 47.75 a 1.65 1.65 0 0 0 0 2.33 a 1.65 1.65 0 0 0 2.33 0 L 49.39 39 A 4.65 4.65 0 0 1 56 39 a 4.65 4.65 0 0 1 0 6.57 l -11.11 11 a 1.64 1.64 0 0 0 0 2.32 a 1.66 1.66 0 0 0 1.17 0.47 a 1.64 1.64 0 0 0 1.16 -0.47 L 58.26 47.87 a 4.65 4.65 0 0 1 6.57 0 a 4.65 4.65 0 0 1 0 6.57 l -11.12 11 a 1.65 1.65 0 0 0 2.34 2.33 l 13.29 -13.3 a 1.51 1.51 0 0 1 2.13 0 a 1.5 1.5 0 0 1 0 2.12 l -13.3 13.3 A 4.62 4.62 0 0 1 54.88 71.29 Z" fill="#f6c" transform="scale(0.6) translate(-50 -50)"/><path d="M 43.81 29.28 a 4.15 4.15 0 0 1 2.94 7.08 l -11.12 11 A 2.14 2.14 0 0 0 35 48.91 a 2.14 2.14 0 0 0 3.66 1.52 L 49.75 39.36 a 4.14 4.14 0 0 1 5.86 5.86 L 44.49 56.27 a 2.13 2.13 0 0 0 -0.62 1.51 a 2.16 2.16 0 0 0 3.67 1.52 L 58.61 48.22 a 4.15 4.15 0 0 1 5.87 5.86 l -11.12 11 a 2.15 2.15 0 0 0 0 3 a 2.17 2.17 0 0 0 3 0 l 13.3 -13.3 a 1 1 0 1 1 1.41 1.42 L 57.81 69.57 a 4.13 4.13 0 0 1 -5.86 0 a 4.14 4.14 0 0 1 0 -5.86 l 11.12 -11 a 2.15 2.15 0 0 0 -3 -3 L 49 60.71 a 4.15 4.15 0 0 1 -5.87 -5.86 L 54.2 43.8 a 2.15 2.15 0 0 0 -3 -3 L 40.09 51.85 A 4.15 4.15 0 0 1 34.22 46 l 11.12 -11 a 2.15 2.15 0 0 0 -1.53 -3.66 a 2.09 2.09 0 0 0 -1.51 0.63 L 28.93 45.28 a 1 1 0 0 1 -1.42 0 a 1 1 0 0 1 0 -1.42 L 40.88 30.5 a 4.1 4.1 0 0 1 2.93 -1.22 m 0 -1 a 5.18 5.18 0 0 0 -3.64 1.51 L 26.81 43.16 a 2 2 0 0 0 1.41 3.41 A 2 2 0 0 0 29.64 46 L 43 32.62 a 1.14 1.14 0 0 1 0.81 -0.34 A 1.16 1.16 0 0 1 45 33.43 a 1.14 1.14 0 0 1 -0.33 0.8 L 33.52 45.28 a 5.14 5.14 0 1 0 7.27 7.27 L 51.87 41.48 a 1.13 1.13 0 0 1 0.81 -0.33 a 1.14 1.14 0 0 1 0.81 2 l -11.11 11 a 5.15 5.15 0 1 0 7.28 7.28 L 60.73 50.34 a 1.17 1.17 0 0 1 0.81 -0.32 A 1.14 1.14 0 0 1 62.36 52 L 51.24 63 a 5.15 5.15 0 0 0 3.64 8.79 a 5.11 5.11 0 0 0 3.64 -1.51 L 71.82 57 a 2 2 0 0 0 0 -2.83 a 2 2 0 0 0 -2.83 0 l -13.3 13.3 a 1.12 1.12 0 0 1 -0.81 0.33 a 1.15 1.15 0 0 1 -0.81 -0.33 a 1.13 1.13 0 0 1 0 -1.61 L 65.18 54.79 a 5.14 5.14 0 0 0 0 -7.27 a 5.14 5.14 0 0 0 -7.28 0 L 46.83 58.59 a 1.12 1.12 0 0 1 -0.81 0.32 a 1.11 1.11 0 0 1 -0.81 -0.32 a 1.15 1.15 0 0 1 0 -1.62 l 11.12 -11 A 5.15 5.15 0 0 0 49 38.65 L 38 49.73 a 1.15 1.15 0 0 1 -2 -0.82 a 1.14 1.14 0 0 1 0.33 -0.8 l 11.11 -11 a 5.14 5.14 0 0 0 0 -7.28 a 5.14 5.14 0 0 0 -3.64 -1.51 Z" fill="#f6c" transform="scale(0.6) translate(-50 -50)"/></g><g transform="translate(1630.4179104477616, -730.3880597014926)"><path d="M54.88 71.29 a 4.58 4.58 0 0 1 -3.28 -1.36 a 4.65 4.65 0 0 1 0 -6.57 l 11.11 -11 A 1.65 1.65 0 0 0 60.38 50 L 49.3 61.06 a 4.65 4.65 0 0 1 -7.93 -3.28 a 4.66 4.66 0 0 1 1.36 -3.29 l 11.12 -11 a 1.65 1.65 0 0 0 -1.17 -2.8 a 1.67 1.67 0 0 0 -1.17 0.48 L 40.44 52.2 a 4.65 4.65 0 0 1 -6.57 -6.57 L 45 34.59 a 1.63 1.63 0 0 0 0.48 -1.16 A 1.67 1.67 0 0 0 45 32.26 a 1.65 1.65 0 0 0 -1.17 -0.48 a 1.63 1.63 0 0 0 -1.16 0.48 L 29.28 45.63 a 1.5 1.5 0 1 1 -2.12 -2.12 L 40.53 30.14 a 4.65 4.65 0 0 1 7.93 3.29 a 4.58 4.58 0 0 1 -1.36 3.28 L 36 47.75 a 1.65 1.65 0 0 0 0 2.33 a 1.65 1.65 0 0 0 2.33 0 L 49.39 39 A 4.65 4.65 0 0 1 56 39 a 4.65 4.65 0 0 1 0 6.57 l -11.11 11 a 1.64 1.64 0 0 0 0 2.32 a 1.66 1.66 0 0 0 1.17 0.47 a 1.64 1.64 0 0 0 1.16 -0.47 L 58.26 47.87 a 4.65 4.65 0 0 1 6.57 0 a 4.65 4.65 0 0 1 0 6.57 l -11.12 11 a 1.65 1.65 0 0 0 2.34 2.33 l 13.29 -13.3 a 1.51 1.51 0 0 1 2.13 0 a 1.5 1.5 0 0 1 0 2.12 l -13.3 13.3 A 4.62 4.62 0 0 1 54.88 71.29 Z" fill="#f6c" transform="scale(0.6) translate(-50 -50)"/><path d="M 43.81 29.28 a 4.15 4.15 0 0 1 2.94 7.08 l -11.12 11 A 2.14 2.14 0 0 0 35 48.91 a 2.14 2.14 0 0 0 3.66 1.52 L 49.75 39.36 a 4.14 4.14 0 0 1 5.86 5.86 L 44.49 56.27 a 2.13 2.13 0 0 0 -0.62 1.51 a 2.16 2.16 0 0 0 3.67 1.52 L 58.61 48.22 a 4.15 4.15 0 0 1 5.87 5.86 l -11.12 11 a 2.15 2.15 0 0 0 0 3 a 2.17 2.17 0 0 0 3 0 l 13.3 -13.3 a 1 1 0 1 1 1.41 1.42 L 57.81 69.57 a 4.13 4.13 0 0 1 -5.86 0 a 4.14 4.14 0 0 1 0 -5.86 l 11.12 -11 a 2.15 2.15 0 0 0 -3 -3 L 49 60.71 a 4.15 4.15 0 0 1 -5.87 -5.86 L 54.2 43.8 a 2.15 2.15 0 0 0 -3 -3 L 40.09 51.85 A 4.15 4.15 0 0 1 34.22 46 l 11.12 -11 a 2.15 2.15 0 0 0 -1.53 -3.66 a 2.09 2.09 0 0 0 -1.51 0.63 L 28.93 45.28 a 1 1 0 0 1 -1.42 0 a 1 1 0 0 1 0 -1.42 L 40.88 30.5 a 4.1 4.1 0 0 1 2.93 -1.22 m 0 -1 a 5.18 5.18 0 0 0 -3.64 1.51 L 26.81 43.16 a 2 2 0 0 0 1.41 3.41 A 2 2 0 0 0 29.64 46 L 43 32.62 a 1.14 1.14 0 0 1 0.81 -0.34 A 1.16 1.16 0 0 1 45 33.43 a 1.14 1.14 0 0 1 -0.33 0.8 L 33.52 45.28 a 5.14 5.14 0 1 0 7.27 7.27 L 51.87 41.48 a 1.13 1.13 0 0 1 0.81 -0.33 a 1.14 1.14 0 0 1 0.81 2 l -11.11 11 a 5.15 5.15 0 1 0 7.28 7.28 L 60.73 50.34 a 1.17 1.17 0 0 1 0.81 -0.32 A 1.14 1.14 0 0 1 62.36 52 L 51.24 63 a 5.15 5.15 0 0 0 3.64 8.79 a 5.11 5.11 0 0 0 3.64 -1.51 L 71.82 57 a 2 2 0 0 0 0 -2.83 a 2 2 0 0 0 -2.83 0 l -13.3 13.3 a 1.12 1.12 0 0 1 -0.81 0.33 a 1.15 1.15 0 0 1 -0.81 -0.33 a 1.13 1.13 0 0 1 0 -1.61 L 65.18 54.79 a 5.14 5.14 0 0 0 0 -7.27 a 5.14 5.14 0 0 0 -7.28 0 L 46.83 58.59 a 1.12 1.12 0 0 1 -0.81 0.32 a 1.11 1.11 0 0 1 -0.81 -0.32 a 1.15 1.15 0 0 1 0 -1.62 l 11.12 -11 A 5.15 5.15 0 0 0 49 38.65 L 38 49.73 a 1.15 1.15 0 0 1 -2 -0.82 a 1.14 1.14 0 0 1 0.33 -0.8 l 11.11 -11 a 5.14 5.14 0 0 0 0 -7.28 a 5.14 5.14 0 0 0 -3.64 -1.51 Z" fill="#f6c" transform="scale(0.6) translate(-50 -50)"/></g><g transform="translate(1061.3432835820904, -610.7462686567168)"><path d="M54.88 71.29 a 4.58 4.58 0 0 1 -3.28 -1.36 a 4.65 4.65 0 0 1 0 -6.57 l 11.11 -11 A 1.65 1.65 0 0 0 60.38 50 L 49.3 61.06 a 4.65 4.65 0 0 1 -7.93 -3.28 a 4.66 4.66 0 0 1 1.36 -3.29 l 11.12 -11 a 1.65 1.65 0 0 0 -1.17 -2.8 a 1.67 1.67 0 0 0 -1.17 0.48 L 40.44 52.2 a 4.65 4.65 0 0 1 -6.57 -6.57 L 45 34.59 a 1.63 1.63 0 0 0 0.48 -1.16 A 1.67 1.67 0 0 0 45 32.26 a 1.65 1.65 0 0 0 -1.17 -0.48 a 1.63 1.63 0 0 0 -1.16 0.48 L 29.28 45.63 a 1.5 1.5 0 1 1 -2.12 -2.12 L 40.53 30.14 a 4.65 4.65 0 0 1 7.93 3.29 a 4.58 4.58 0 0 1 -1.36 3.28 L 36 47.75 a 1.65 1.65 0 0 0 0 2.33 a 1.65 1.65 0 0 0 2.33 0 L 49.39 39 A 4.65 4.65 0 0 1 56 39 a 4.65 4.65 0 0 1 0 6.57 l -11.11 11 a 1.64 1.64 0 0 0 0 2.32 a 1.66 1.66 0 0 0 1.17 0.47 a 1.64 1.64 0 0 0 1.16 -0.47 L 58.26 47.87 a 4.65 4.65 0 0 1 6.57 0 a 4.65 4.65 0 0 1 0 6.57 l -11.12 11 a 1.65 1.65 0 0 0 2.34 2.33 l 13.29 -13.3 a 1.51 1.51 0 0 1 2.13 0 a 1.5 1.5 0 0 1 0 2.12 l -13.3 13.3 A 4.62 4.62 0 0 1 54.88 71.29 Z" fill="#f6c" transform="scale(0.6) translate(-50 -50)"/><path d="M 43.81 29.28 a 4.15 4.15 0 0 1 2.94 7.08 l -11.12 11 A 2.14 2.14 0 0 0 35 48.91 a 2.14 2.14 0 0 0 3.66 1.52 L 49.75 39.36 a 4.14 4.14 0 0 1 5.86 5.86 L 44.49 56.27 a 2.13 2.13 0 0 0 -0.62 1.51 a 2.16 2.16 0 0 0 3.67 1.52 L 58.61 48.22 a 4.15 4.15 0 0 1 5.87 5.86 l -11.12 11 a 2.15 2.15 0 0 0 0 3 a 2.17 2.17 0 0 0 3 0 l 13.3 -13.3 a 1 1 0 1 1 1.41 1.42 L 57.81 69.57 a 4.13 4.13 0 0 1 -5.86 0 a 4.14 4.14 0 0 1 0 -5.86 l 11.12 -11 a 2.15 2.15 0 0 0 -3 -3 L 49 60.71 a 4.15 4.15 0 0 1 -5.87 -5.86 L 54.2 43.8 a 2.15 2.15 0 0 0 -3 -3 L 40.09 51.85 A 4.15 4.15 0 0 1 34.22 46 l 11.12 -11 a 2.15 2.15 0 0 0 -1.53 -3.66 a 2.09 2.09 0 0 0 -1.51 0.63 L 28.93 45.28 a 1 1 0 0 1 -1.42 0 a 1 1 0 0 1 0 -1.42 L 40.88 30.5 a 4.1 4.1 0 0 1 2.93 -1.22 m 0 -1 a 5.18 5.18 0 0 0 -3.64 1.51 L 26.81 43.16 a 2 2 0 0 0 1.41 3.41 A 2 2 0 0 0 29.64 46 L 43 32.62 a 1.14 1.14 0 0 1 0.81 -0.34 A 1.16 1.16 0 0 1 45 33.43 a 1.14 1.14 0 0 1 -0.33 0.8 L 33.52 45.28 a 5.14 5.14 0 1 0 7.27 7.27 L 51.87 41.48 a 1.13 1.13 0 0 1 0.81 -0.33 a 1.14 1.14 0 0 1 0.81 2 l -11.11 11 a 5.15 5.15 0 1 0 7.28 7.28 L 60.73 50.34 a 1.17 1.17 0 0 1 0.81 -0.32 A 1.14 1.14 0 0 1 62.36 52 L 51.24 63 a 5.15 5.15 0 0 0 3.64 8.79 a 5.11 5.11 0 0 0 3.64 -1.51 L 71.82 57 a 2 2 0 0 0 0 -2.83 a 2 2 0 0 0 -2.83 0 l -13.3 13.3 a 1.12 1.12 0 0 1 -0.81 0.33 a 1.15 1.15 0 0 1 -0.81 -0.33 a 1.13 1.13 0 0 1 0 -1.61 L 65.18 54.79 a 5.14 5.14 0 0 0 0 -7.27 a 5.14 5.14 0 0 0 -7.28 0 L 46.83 58.59 a 1.12 1.12 0 0 1 -0.81 0.32 a 1.11 1.11 0 0 1 -0.81 -0.32 a 1.15 1.15 0 0 1 0 -1.62 l 11.12 -11 A 5.15 5.15 0 0 0 49 38.65 L 38 49.73 a 1.15 1.15 0 0 1 -2 -0.82 a 1.14 1.14 0 0 1 0.33 -0.8 l 11.11 -11 a 5.14 5.14 0 0 0 0 -7.28 a 5.14 5.14 0 0 0 -3.64 -1.51 Z" fill="#f6c" transform="scale(0.6) translate(-50 -50)"/></g><g transform="translate(1444.6268656716427, -613.1343283582092)"><path d="M54.88 71.29 a 4.58 4.58 0 0 1 -3.28 -1.36 a 4.65 4.65 0 0 1 0 -6.57 l 11.11 -11 A 1.65 1.65 0 0 0 60.38 50 L 49.3 61.06 a 4.65 4.65 0 0 1 -7.93 -3.28 a 4.66 4.66 0 0 1 1.36 -3.29 l 11.12 -11 a 1.65 1.65 0 0 0 -1.17 -2.8 a 1.67 1.67 0 0 0 -1.17 0.48 L 40.44 52.2 a 4.65 4.65 0 0 1 -6.57 -6.57 L 45 34.59 a 1.63 1.63 0 0 0 0.48 -1.16 A 1.67 1.67 0 0 0 45 32.26 a 1.65 1.65 0 0 0 -1.17 -0.48 a 1.63 1.63 0 0 0 -1.16 0.48 L 29.28 45.63 a 1.5 1.5 0 1 1 -2.12 -2.12 L 40.53 30.14 a 4.65 4.65 0 0 1 7.93 3.29 a 4.58 4.58 0 0 1 -1.36 3.28 L 36 47.75 a 1.65 1.65 0 0 0 0 2.33 a 1.65 1.65 0 0 0 2.33 0 L 49.39 39 A 4.65 4.65 0 0 1 56 39 a 4.65 4.65 0 0 1 0 6.57 l -11.11 11 a 1.64 1.64 0 0 0 0 2.32 a 1.66 1.66 0 0 0 1.17 0.47 a 1.64 1.64 0 0 0 1.16 -0.47 L 58.26 47.87 a 4.65 4.65 0 0 1 6.57 0 a 4.65 4.65 0 0 1 0 6.57 l -11.12 11 a 1.65 1.65 0 0 0 2.34 2.33 l 13.29 -13.3 a 1.51 1.51 0 0 1 2.13 0 a 1.5 1.5 0 0 1 0 2.12 l -13.3 13.3 A 4.62 4.62 0 0 1 54.88 71.29 Z" fill="#f6c" transform="scale(0.6) translate(-50 -50)"/><path d="M 43.81 29.28 a 4.15 4.15 0 0 1 2.94 7.08 l -11.12 11 A 2.14 2.14 0 0 0 35 48.91 a 2.14 2.14 0 0 0 3.66 1.52 L 49.75 39.36 a 4.14 4.14 0 0 1 5.86 5.86 L 44.49 56.27 a 2.13 2.13 0 0 0 -0.62 1.51 a 2.16 2.16 0 0 0 3.67 1.52 L 58.61 48.22 a 4.15 4.15 0 0 1 5.87 5.86 l -11.12 11 a 2.15 2.15 0 0 0 0 3 a 2.17 2.17 0 0 0 3 0 l 13.3 -13.3 a 1 1 0 1 1 1.41 1.42 L 57.81 69.57 a 4.13 4.13 0 0 1 -5.86 0 a 4.14 4.14 0 0 1 0 -5.86 l 11.12 -11 a 2.15 2.15 0 0 0 -3 -3 L 49 60.71 a 4.15 4.15 0 0 1 -5.87 -5.86 L 54.2 43.8 a 2.15 2.15 0 0 0 -3 -3 L 40.09 51.85 A 4.15 4.15 0 0 1 34.22 46 l 11.12 -11 a 2.15 2.15 0 0 0 -1.53 -3.66 a 2.09 2.09 0 0 0 -1.51 0.63 L 28.93 45.28 a 1 1 0 0 1 -1.42 0 a 1 1 0 0 1 0 -1.42 L 40.88 30.5 a 4.1 4.1 0 0 1 2.93 -1.22 m 0 -1 a 5.18 5.18 0 0 0 -3.64 1.51 L 26.81 43.16 a 2 2 0 0 0 1.41 3.41 A 2 2 0 0 0 29.64 46 L 43 32.62 a 1.14 1.14 0 0 1 0.81 -0.34 A 1.16 1.16 0 0 1 45 33.43 a 1.14 1.14 0 0 1 -0.33 0.8 L 33.52 45.28 a 5.14 5.14 0 1 0 7.27 7.27 L 51.87 41.48 a 1.13 1.13 0 0 1 0.81 -0.33 a 1.14 1.14 0 0 1 0.81 2 l -11.11 11 a 5.15 5.15 0 1 0 7.28 7.28 L 60.73 50.34 a 1.17 1.17 0 0 1 0.81 -0.32 A 1.14 1.14 0 0 1 62.36 52 L 51.24 63 a 5.15 5.15 0 0 0 3.64 8.79 a 5.11 5.11 0 0 0 3.64 -1.51 L 71.82 57 a 2 2 0 0 0 0 -2.83 a 2 2 0 0 0 -2.83 0 l -13.3 13.3 a 1.12 1.12 0 0 1 -0.81 0.33 a 1.15 1.15 0 0 1 -0.81 -0.33 a 1.13 1.13 0 0 1 0 -1.61 L 65.18 54.79 a 5.14 5.14 0 0 0 0 -7.27 a 5.14 5.14 0 0 0 -7.28 0 L 46.83 58.59 a 1.12 1.12 0 0 1 -0.81 0.32 a 1.11 1.11 0 0 1 -0.81 -0.32 a 1.15 1.15 0 0 1 0 -1.62 l 11.12 -11 A 5.15 5.15 0 0 0 49 38.65 L 38 49.73 a 1.15 1.15 0 0 1 -2 -0.82 a 1.14 1.14 0 0 1 0.33 -0.8 l 11.11 -11 a 5.14 5.14 0 0 0 0 -7.28 a 5.14 5.14 0 0 0 -3.64 -1.51 Z" fill="#f6c" transform="scale(0.6) translate(-50 -50)"/></g><g transform="translate(1058.9552238805977, -535.5223880597017)"><path d="M54.88 71.29 a 4.58 4.58 0 0 1 -3.28 -1.36 a 4.65 4.65 0 0 1 0 -6.57 l 11.11 -11 A 1.65 1.65 0 0 0 60.38 50 L 49.3 61.06 a 4.65 4.65 0 0 1 -7.93 -3.28 a 4.66 4.66 0 0 1 1.36 -3.29 l 11.12 -11 a 1.65 1.65 0 0 0 -1.17 -2.8 a 1.67 1.67 0 0 0 -1.17 0.48 L 40.44 52.2 a 4.65 4.65 0 0 1 -6.57 -6.57 L 45 34.59 a 1.63 1.63 0 0 0 0.48 -1.16 A 1.67 1.67 0 0 0 45 32.26 a 1.65 1.65 0 0 0 -1.17 -0.48 a 1.63 1.63 0 0 0 -1.16 0.48 L 29.28 45.63 a 1.5 1.5 0 1 1 -2.12 -2.12 L 40.53 30.14 a 4.65 4.65 0 0 1 7.93 3.29 a 4.58 4.58 0 0 1 -1.36 3.28 L 36 47.75 a 1.65 1.65 0 0 0 0 2.33 a 1.65 1.65 0 0 0 2.33 0 L 49.39 39 A 4.65 4.65 0 0 1 56 39 a 4.65 4.65 0 0 1 0 6.57 l -11.11 11 a 1.64 1.64 0 0 0 0 2.32 a 1.66 1.66 0 0 0 1.17 0.47 a 1.64 1.64 0 0 0 1.16 -0.47 L 58.26 47.87 a 4.65 4.65 0 0 1 6.57 0 a 4.65 4.65 0 0 1 0 6.57 l -11.12 11 a 1.65 1.65 0 0 0 2.34 2.33 l 13.29 -13.3 a 1.51 1.51 0 0 1 2.13 0 a 1.5 1.5 0 0 1 0 2.12 l -13.3 13.3 A 4.62 4.62 0 0 1 54.88 71.29 Z" fill="#ff9900" transform="scale(0.6) translate(-50 -50)"/><path d="M 43.81 29.28 a 4.15 4.15 0 0 1 2.94 7.08 l -11.12 11 A 2.14 2.14 0 0 0 35 48.91 a 2.14 2.14 0 0 0 3.66 1.52 L 49.75 39.36 a 4.14 4.14 0 0 1 5.86 5.86 L 44.49 56.27 a 2.13 2.13 0 0 0 -0.62 1.51 a 2.16 2.16 0 0 0 3.67 1.52 L 58.61 48.22 a 4.15 4.15 0 0 1 5.87 5.86 l -11.12 11 a 2.15 2.15 0 0 0 0 3 a 2.17 2.17 0 0 0 3 0 l 13.3 -13.3 a 1 1 0 1 1 1.41 1.42 L 57.81 69.57 a 4.13 4.13 0 0 1 -5.86 0 a 4.14 4.14 0 0 1 0 -5.86 l 11.12 -11 a 2.15 2.15 0 0 0 -3 -3 L 49 60.71 a 4.15 4.15 0 0 1 -5.87 -5.86 L 54.2 43.8 a 2.15 2.15 0 0 0 -3 -3 L 40.09 51.85 A 4.15 4.15 0 0 1 34.22 46 l 11.12 -11 a 2.15 2.15 0 0 0 -1.53 -3.66 a 2.09 2.09 0 0 0 -1.51 0.63 L 28.93 45.28 a 1 1 0 0 1 -1.42 0 a 1 1 0 0 1 0 -1.42 L 40.88 30.5 a 4.1 4.1 0 0 1 2.93 -1.22 m 0 -1 a 5.18 5.18 0 0 0 -3.64 1.51 L 26.81 43.16 a 2 2 0 0 0 1.41 3.41 A 2 2 0 0 0 29.64 46 L 43 32.62 a 1.14 1.14 0 0 1 0.81 -0.34 A 1.16 1.16 0 0 1 45 33.43 a 1.14 1.14 0 0 1 -0.33 0.8 L 33.52 45.28 a 5.14 5.14 0 1 0 7.27 7.27 L 51.87 41.48 a 1.13 1.13 0 0 1 0.81 -0.33 a 1.14 1.14 0 0 1 0.81 2 l -11.11 11 a 5.15 5.15 0 1 0 7.28 7.28 L 60.73 50.34 a 1.17 1.17 0 0 1 0.81 -0.32 A 1.14 1.14 0 0 1 62.36 52 L 51.24 63 a 5.15 5.15 0 0 0 3.64 8.79 a 5.11 5.11 0 0 0 3.64 -1.51 L 71.82 57 a 2 2 0 0 0 0 -2.83 a 2 2 0 0 0 -2.83 0 l -13.3 13.3 a 1.12 1.12 0 0 1 -0.81 0.33 a 1.15 1.15 0 0 1 -0.81 -0.33 a 1.13 1.13 0 0 1 0 -1.61 L 65.18 54.79 a 5.14 5.14 0 0 0 0 -7.27 a 5.14 5.14 0 0 0 -7.28 0 L 46.83 58.59 a 1.12 1.12 0 0 1 -0.81 0.32 a 1.11 1.11 0 0 1 -0.81 -0.32 a 1.15 1.15 0 0 1 0 -1.62 l 11.12 -11 A 5.15 5.15 0 0 0 49 38.65 L 38 49.73 a 1.15 1.15 0 0 1 -2 -0.82 a 1.14 1.14 0 0 1 0.33 -0.8 l 11.11 -11 a 5.14 5.14 0 0 0 0 -7.28 a 5.14 5.14 0 0 0 -3.64 -1.51 Z" fill="#ff9900" transform="scale(0.6) translate(-50 -50)"/></g><g transform="translate(1449.4029850746278, -535.5223880597017)"><path d="M54.88 71.29 a 4.58 4.58 0 0 1 -3.28 -1.36 a 4.65 4.65 0 0 1 0 -6.57 l 11.11 -11 A 1.65 1.65 0 0 0 60.38 50 L 49.3 61.06 a 4.65 4.65 0 0 1 -7.93 -3.28 a 4.66 4.66 0 0 1 1.36 -3.29 l 11.12 -11 a 1.65 1.65 0 0 0 -1.17 -2.8 a 1.67 1.67 0 0 0 -1.17 0.48 L 40.44 52.2 a 4.65 4.65 0 0 1 -6.57 -6.57 L 45 34.59 a 1.63 1.63 0 0 0 0.48 -1.16 A 1.67 1.67 0 0 0 45 32.26 a 1.65 1.65 0 0 0 -1.17 -0.48 a 1.63 1.63 0 0 0 -1.16 0.48 L 29.28 45.63 a 1.5 1.5 0 1 1 -2.12 -2.12 L 40.53 30.14 a 4.65 4.65 0 0 1 7.93 3.29 a 4.58 4.58 0 0 1 -1.36 3.28 L 36 47.75 a 1.65 1.65 0 0 0 0 2.33 a 1.65 1.65 0 0 0 2.33 0 L 49.39 39 A 4.65 4.65 0 0 1 56 39 a 4.65 4.65 0 0 1 0 6.57 l -11.11 11 a 1.64 1.64 0 0 0 0 2.32 a 1.66 1.66 0 0 0 1.17 0.47 a 1.64 1.64 0 0 0 1.16 -0.47 L 58.26 47.87 a 4.65 4.65 0 0 1 6.57 0 a 4.65 4.65 0 0 1 0 6.57 l -11.12 11 a 1.65 1.65 0 0 0 2.34 2.33 l 13.29 -13.3 a 1.51 1.51 0 0 1 2.13 0 a 1.5 1.5 0 0 1 0 2.12 l -13.3 13.3 A 4.62 4.62 0 0 1 54.88 71.29 Z" fill="#ff9900" transform="scale(0.6) translate(-50 -50)"/><path d="M 43.81 29.28 a 4.15 4.15 0 0 1 2.94 7.08 l -11.12 11 A 2.14 2.14 0 0 0 35 48.91 a 2.14 2.14 0 0 0 3.66 1.52 L 49.75 39.36 a 4.14 4.14 0 0 1 5.86 5.86 L 44.49 56.27 a 2.13 2.13 0 0 0 -0.62 1.51 a 2.16 2.16 0 0 0 3.67 1.52 L 58.61 48.22 a 4.15 4.15 0 0 1 5.87 5.86 l -11.12 11 a 2.15 2.15 0 0 0 0 3 a 2.17 2.17 0 0 0 3 0 l 13.3 -13.3 a 1 1 0 1 1 1.41 1.42 L 57.81 69.57 a 4.13 4.13 0 0 1 -5.86 0 a 4.14 4.14 0 0 1 0 -5.86 l 11.12 -11 a 2.15 2.15 0 0 0 -3 -3 L 49 60.71 a 4.15 4.15 0 0 1 -5.87 -5.86 L 54.2 43.8 a 2.15 2.15 0 0 0 -3 -3 L 40.09 51.85 A 4.15 4.15 0 0 1 34.22 46 l 11.12 -11 a 2.15 2.15 0 0 0 -1.53 -3.66 a 2.09 2.09 0 0 0 -1.51 0.63 L 28.93 45.28 a 1 1 0 0 1 -1.42 0 a 1 1 0 0 1 0 -1.42 L 40.88 30.5 a 4.1 4.1 0 0 1 2.93 -1.22 m 0 -1 a 5.18 5.18 0 0 0 -3.64 1.51 L 26.81 43.16 a 2 2 0 0 0 1.41 3.41 A 2 2 0 0 0 29.64 46 L 43 32.62 a 1.14 1.14 0 0 1 0.81 -0.34 A 1.16 1.16 0 0 1 45 33.43 a 1.14 1.14 0 0 1 -0.33 0.8 L 33.52 45.28 a 5.14 5.14 0 1 0 7.27 7.27 L 51.87 41.48 a 1.13 1.13 0 0 1 0.81 -0.33 a 1.14 1.14 0 0 1 0.81 2 l -11.11 11 a 5.15 5.15 0 1 0 7.28 7.28 L 60.73 50.34 a 1.17 1.17 0 0 1 0.81 -0.32 A 1.14 1.14 0 0 1 62.36 52 L 51.24 63 a 5.15 5.15 0 0 0 3.64 8.79 a 5.11 5.11 0 0 0 3.64 -1.51 L 71.82 57 a 2 2 0 0 0 0 -2.83 a 2 2 0 0 0 -2.83 0 l -13.3 13.3 a 1.12 1.12 0 0 1 -0.81 0.33 a 1.15 1.15 0 0 1 -0.81 -0.33 a 1.13 1.13 0 0 1 0 -1.61 L 65.18 54.79 a 5.14 5.14 0 0 0 0 -7.27 a 5.14 5.14 0 0 0 -7.28 0 L 46.83 58.59 a 1.12 1.12 0 0 1 -0.81 0.32 a 1.11 1.11 0 0 1 -0.81 -0.32 a 1.15 1.15 0 0 1 0 -1.62 l 11.12 -11 A 5.15 5.15 0 0 0 49 38.65 L 38 49.73 a 1.15 1.15 0 0 1 -2 -0.82 a 1.14 1.14 0 0 1 0.33 -0.8 l 11.11 -11 a 5.14 5.14 0 0 0 0 -7.28 a 5.14 5.14 0 0 0 -3.64 -1.51 Z" fill="#ff9900" transform="scale(0.6) translate(-50 -50)"/></g><g transform="translate(1127.0149253731352, -429.2537313432838)"><path d="M54.88 71.29 a 4.58 4.58 0 0 1 -3.28 -1.36 a 4.65 4.65 0 0 1 0 -6.57 l 11.11 -11 A 1.65 1.65 0 0 0 60.38 50 L 49.3 61.06 a 4.65 4.65 0 0 1 -7.93 -3.28 a 4.66 4.66 0 0 1 1.36 -3.29 l 11.12 -11 a 1.65 1.65 0 0 0 -1.17 -2.8 a 1.67 1.67 0 0 0 -1.17 0.48 L 40.44 52.2 a 4.65 4.65 0 0 1 -6.57 -6.57 L 45 34.59 a 1.63 1.63 0 0 0 0.48 -1.16 A 1.67 1.67 0 0 0 45 32.26 a 1.65 1.65 0 0 0 -1.17 -0.48 a 1.63 1.63 0 0 0 -1.16 0.48 L 29.28 45.63 a 1.5 1.5 0 1 1 -2.12 -2.12 L 40.53 30.14 a 4.65 4.65 0 0 1 7.93 3.29 a 4.58 4.58 0 0 1 -1.36 3.28 L 36 47.75 a 1.65 1.65 0 0 0 0 2.33 a 1.65 1.65 0 0 0 2.33 0 L 49.39 39 A 4.65 4.65 0 0 1 56 39 a 4.65 4.65 0 0 1 0 6.57 l -11.11 11 a 1.64 1.64 0 0 0 0 2.32 a 1.66 1.66 0 0 0 1.17 0.47 a 1.64 1.64 0 0 0 1.16 -0.47 L 58.26 47.87 a 4.65 4.65 0 0 1 6.57 0 a 4.65 4.65 0 0 1 0 6.57 l -11.12 11 a 1.65 1.65 0 0 0 2.34 2.33 l 13.29 -13.3 a 1.51 1.51 0 0 1 2.13 0 a 1.5 1.5 0 0 1 0 2.12 l -13.3 13.3 A 4.62 4.62 0 0 1 54.88 71.29 Z" fill="#f6c" transform="scale(0.6) translate(-50 -50)"/><path d="M 43.81 29.28 a 4.15 4.15 0 0 1 2.94 7.08 l -11.12 11 A 2.14 2.14 0 0 0 35 48.91 a 2.14 2.14 0 0 0 3.66 1.52 L 49.75 39.36 a 4.14 4.14 0 0 1 5.86 5.86 L 44.49 56.27 a 2.13 2.13 0 0 0 -0.62 1.51 a 2.16 2.16 0 0 0 3.67 1.52 L 58.61 48.22 a 4.15 4.15 0 0 1 5.87 5.86 l -11.12 11 a 2.15 2.15 0 0 0 0 3 a 2.17 2.17 0 0 0 3 0 l 13.3 -13.3 a 1 1 0 1 1 1.41 1.42 L 57.81 69.57 a 4.13 4.13 0 0 1 -5.86 0 a 4.14 4.14 0 0 1 0 -5.86 l 11.12 -11 a 2.15 2.15 0 0 0 -3 -3 L 49 60.71 a 4.15 4.15 0 0 1 -5.87 -5.86 L 54.2 43.8 a 2.15 2.15 0 0 0 -3 -3 L 40.09 51.85 A 4.15 4.15 0 0 1 34.22 46 l 11.12 -11 a 2.15 2.15 0 0 0 -1.53 -3.66 a 2.09 2.09 0 0 0 -1.51 0.63 L 28.93 45.28 a 1 1 0 0 1 -1.42 0 a 1 1 0 0 1 0 -1.42 L 40.88 30.5 a 4.1 4.1 0 0 1 2.93 -1.22 m 0 -1 a 5.18 5.18 0 0 0 -3.64 1.51 L 26.81 43.16 a 2 2 0 0 0 1.41 3.41 A 2 2 0 0 0 29.64 46 L 43 32.62 a 1.14 1.14 0 0 1 0.81 -0.34 A 1.16 1.16 0 0 1 45 33.43 a 1.14 1.14 0 0 1 -0.33 0.8 L 33.52 45.28 a 5.14 5.14 0 1 0 7.27 7.27 L 51.87 41.48 a 1.13 1.13 0 0 1 0.81 -0.33 a 1.14 1.14 0 0 1 0.81 2 l -11.11 11 a 5.15 5.15 0 1 0 7.28 7.28 L 60.73 50.34 a 1.17 1.17 0 0 1 0.81 -0.32 A 1.14 1.14 0 0 1 62.36 52 L 51.24 63 a 5.15 5.15 0 0 0 3.64 8.79 a 5.11 5.11 0 0 0 3.64 -1.51 L 71.82 57 a 2 2 0 0 0 0 -2.83 a 2 2 0 0 0 -2.83 0 l -13.3 13.3 a 1.12 1.12 0 0 1 -0.81 0.33 a 1.15 1.15 0 0 1 -0.81 -0.33 a 1.13 1.13 0 0 1 0 -1.61 L 65.18 54.79 a 5.14 5.14 0 0 0 0 -7.27 a 5.14 5.14 0 0 0 -7.28 0 L 46.83 58.59 a 1.12 1.12 0 0 1 -0.81 0.32 a 1.11 1.11 0 0 1 -0.81 -0.32 a 1.15 1.15 0 0 1 0 -1.62 l 11.12 -11 A 5.15 5.15 0 0 0 49 38.65 L 38 49.73 a 1.15 1.15 0 0 1 -2 -0.82 a 1.14 1.14 0 0 1 0.33 -0.8 l 11.11 -11 a 5.14 5.14 0 0 0 0 -7.28 a 5.14 5.14 0 0 0 -3.64 -1.51 Z" fill="#f6c" transform="scale(0.6) translate(-50 -50)"/></g><g transform="translate(1380.1492537313443, -429.2537313432838)"><path d="M54.88 71.29 a 4.58 4.58 0 0 1 -3.28 -1.36 a 4.65 4.65 0 0 1 0 -6.57 l 11.11 -11 A 1.65 1.65 0 0 0 60.38 50 L 49.3 61.06 a 4.65 4.65 0 0 1 -7.93 -3.28 a 4.66 4.66 0 0 1 1.36 -3.29 l 11.12 -11 a 1.65 1.65 0 0 0 -1.17 -2.8 a 1.67 1.67 0 0 0 -1.17 0.48 L 40.44 52.2 a 4.65 4.65 0 0 1 -6.57 -6.57 L 45 34.59 a 1.63 1.63 0 0 0 0.48 -1.16 A 1.67 1.67 0 0 0 45 32.26 a 1.65 1.65 0 0 0 -1.17 -0.48 a 1.63 1.63 0 0 0 -1.16 0.48 L 29.28 45.63 a 1.5 1.5 0 1 1 -2.12 -2.12 L 40.53 30.14 a 4.65 4.65 0 0 1 7.93 3.29 a 4.58 4.58 0 0 1 -1.36 3.28 L 36 47.75 a 1.65 1.65 0 0 0 0 2.33 a 1.65 1.65 0 0 0 2.33 0 L 49.39 39 A 4.65 4.65 0 0 1 56 39 a 4.65 4.65 0 0 1 0 6.57 l -11.11 11 a 1.64 1.64 0 0 0 0 2.32 a 1.66 1.66 0 0 0 1.17 0.47 a 1.64 1.64 0 0 0 1.16 -0.47 L 58.26 47.87 a 4.65 4.65 0 0 1 6.57 0 a 4.65 4.65 0 0 1 0 6.57 l -11.12 11 a 1.65 1.65 0 0 0 2.34 2.33 l 13.29 -13.3 a 1.51 1.51 0 0 1 2.13 0 a 1.5 1.5 0 0 1 0 2.12 l -13.3 13.3 A 4.62 4.62 0 0 1 54.88 71.29 Z" fill="#f6c" transform="scale(0.6) translate(-50 -50)"/><path d="M 43.81 29.28 a 4.15 4.15 0 0 1 2.94 7.08 l -11.12 11 A 2.14 2.14 0 0 0 35 48.91 a 2.14 2.14 0 0 0 3.66 1.52 L 49.75 39.36 a 4.14 4.14 0 0 1 5.86 5.86 L 44.49 56.27 a 2.13 2.13 0 0 0 -0.62 1.51 a 2.16 2.16 0 0 0 3.67 1.52 L 58.61 48.22 a 4.15 4.15 0 0 1 5.87 5.86 l -11.12 11 a 2.15 2.15 0 0 0 0 3 a 2.17 2.17 0 0 0 3 0 l 13.3 -13.3 a 1 1 0 1 1 1.41 1.42 L 57.81 69.57 a 4.13 4.13 0 0 1 -5.86 0 a 4.14 4.14 0 0 1 0 -5.86 l 11.12 -11 a 2.15 2.15 0 0 0 -3 -3 L 49 60.71 a 4.15 4.15 0 0 1 -5.87 -5.86 L 54.2 43.8 a 2.15 2.15 0 0 0 -3 -3 L 40.09 51.85 A 4.15 4.15 0 0 1 34.22 46 l 11.12 -11 a 2.15 2.15 0 0 0 -1.53 -3.66 a 2.09 2.09 0 0 0 -1.51 0.63 L 28.93 45.28 a 1 1 0 0 1 -1.42 0 a 1 1 0 0 1 0 -1.42 L 40.88 30.5 a 4.1 4.1 0 0 1 2.93 -1.22 m 0 -1 a 5.18 5.18 0 0 0 -3.64 1.51 L 26.81 43.16 a 2 2 0 0 0 1.41 3.41 A 2 2 0 0 0 29.64 46 L 43 32.62 a 1.14 1.14 0 0 1 0.81 -0.34 A 1.16 1.16 0 0 1 45 33.43 a 1.14 1.14 0 0 1 -0.33 0.8 L 33.52 45.28 a 5.14 5.14 0 1 0 7.27 7.27 L 51.87 41.48 a 1.13 1.13 0 0 1 0.81 -0.33 a 1.14 1.14 0 0 1 0.81 2 l -11.11 11 a 5.15 5.15 0 1 0 7.28 7.28 L 60.73 50.34 a 1.17 1.17 0 0 1 0.81 -0.32 A 1.14 1.14 0 0 1 62.36 52 L 51.24 63 a 5.15 5.15 0 0 0 3.64 8.79 a 5.11 5.11 0 0 0 3.64 -1.51 L 71.82 57 a 2 2 0 0 0 0 -2.83 a 2 2 0 0 0 -2.83 0 l -13.3 13.3 a 1.12 1.12 0 0 1 -0.81 0.33 a 1.15 1.15 0 0 1 -0.81 -0.33 a 1.13 1.13 0 0 1 0 -1.61 L 65.18 54.79 a 5.14 5.14 0 0 0 0 -7.27 a 5.14 5.14 0 0 0 -7.28 0 L 46.83 58.59 a 1.12 1.12 0 0 1 -0.81 0.32 a 1.11 1.11 0 0 1 -0.81 -0.32 a 1.15 1.15 0 0 1 0 -1.62 l 11.12 -11 A 5.15 5.15 0 0 0 49 38.65 L 38 49.73 a 1.15 1.15 0 0 1 -2 -0.82 a 1.14 1.14 0 0 1 0.33 -0.8 l 11.11 -11 a 5.14 5.14 0 0 0 0 -7.28 a 5.14 5.14 0 0 0 -3.64 -1.51 Z" fill="#f6c" transform="scale(0.6) translate(-50 -50)"/></g><g transform="translate(1063.7313432835829, -373.13432835820913)"><path d="M54.88 71.29 a 4.58 4.58 0 0 1 -3.28 -1.36 a 4.65 4.65 0 0 1 0 -6.57 l 11.11 -11 A 1.65 1.65 0 0 0 60.38 50 L 49.3 61.06 a 4.65 4.65 0 0 1 -7.93 -3.28 a 4.66 4.66 0 0 1 1.36 -3.29 l 11.12 -11 a 1.65 1.65 0 0 0 -1.17 -2.8 a 1.67 1.67 0 0 0 -1.17 0.48 L 40.44 52.2 a 4.65 4.65 0 0 1 -6.57 -6.57 L 45 34.59 a 1.63 1.63 0 0 0 0.48 -1.16 A 1.67 1.67 0 0 0 45 32.26 a 1.65 1.65 0 0 0 -1.17 -0.48 a 1.63 1.63 0 0 0 -1.16 0.48 L 29.28 45.63 a 1.5 1.5 0 1 1 -2.12 -2.12 L 40.53 30.14 a 4.65 4.65 0 0 1 7.93 3.29 a 4.58 4.58 0 0 1 -1.36 3.28 L 36 47.75 a 1.65 1.65 0 0 0 0 2.33 a 1.65 1.65 0 0 0 2.33 0 L 49.39 39 A 4.65 4.65 0 0 1 56 39 a 4.65 4.65 0 0 1 0 6.57 l -11.11 11 a 1.64 1.64 0 0 0 0 2.32 a 1.66 1.66 0 0 0 1.17 0.47 a 1.64 1.64 0 0 0 1.16 -0.47 L 58.26 47.87 a 4.65 4.65 0 0 1 6.57 0 a 4.65 4.65 0 0 1 0 6.57 l -11.12 11 a 1.65 1.65 0 0 0 2.34 2.33 l 13.29 -13.3 a 1.51 1.51 0 0 1 2.13 0 a 1.5 1.5 0 0 1 0 2.12 l -13.3 13.3 A 4.62 4.62 0 0 1 54.88 71.29 Z" fill="#ff9900" transform="scale(0.6) translate(-50 -50)"/><path d="M 43.81 29.28 a 4.15 4.15 0 0 1 2.94 7.08 l -11.12 11 A 2.14 2.14 0 0 0 35 48.91 a 2.14 2.14 0 0 0 3.66 1.52 L 49.75 39.36 a 4.14 4.14 0 0 1 5.86 5.86 L 44.49 56.27 a 2.13 2.13 0 0 0 -0.62 1.51 a 2.16 2.16 0 0 0 3.67 1.52 L 58.61 48.22 a 4.15 4.15 0 0 1 5.87 5.86 l -11.12 11 a 2.15 2.15 0 0 0 0 3 a 2.17 2.17 0 0 0 3 0 l 13.3 -13.3 a 1 1 0 1 1 1.41 1.42 L 57.81 69.57 a 4.13 4.13 0 0 1 -5.86 0 a 4.14 4.14 0 0 1 0 -5.86 l 11.12 -11 a 2.15 2.15 0 0 0 -3 -3 L 49 60.71 a 4.15 4.15 0 0 1 -5.87 -5.86 L 54.2 43.8 a 2.15 2.15 0 0 0 -3 -3 L 40.09 51.85 A 4.15 4.15 0 0 1 34.22 46 l 11.12 -11 a 2.15 2.15 0 0 0 -1.53 -3.66 a 2.09 2.09 0 0 0 -1.51 0.63 L 28.93 45.28 a 1 1 0 0 1 -1.42 0 a 1 1 0 0 1 0 -1.42 L 40.88 30.5 a 4.1 4.1 0 0 1 2.93 -1.22 m 0 -1 a 5.18 5.18 0 0 0 -3.64 1.51 L 26.81 43.16 a 2 2 0 0 0 1.41 3.41 A 2 2 0 0 0 29.64 46 L 43 32.62 a 1.14 1.14 0 0 1 0.81 -0.34 A 1.16 1.16 0 0 1 45 33.43 a 1.14 1.14 0 0 1 -0.33 0.8 L 33.52 45.28 a 5.14 5.14 0 1 0 7.27 7.27 L 51.87 41.48 a 1.13 1.13 0 0 1 0.81 -0.33 a 1.14 1.14 0 0 1 0.81 2 l -11.11 11 a 5.15 5.15 0 1 0 7.28 7.28 L 60.73 50.34 a 1.17 1.17 0 0 1 0.81 -0.32 A 1.14 1.14 0 0 1 62.36 52 L 51.24 63 a 5.15 5.15 0 0 0 3.64 8.79 a 5.11 5.11 0 0 0 3.64 -1.51 L 71.82 57 a 2 2 0 0 0 0 -2.83 a 2 2 0 0 0 -2.83 0 l -13.3 13.3 a 1.12 1.12 0 0 1 -0.81 0.33 a 1.15 1.15 0 0 1 -0.81 -0.33 a 1.13 1.13 0 0 1 0 -1.61 L 65.18 54.79 a 5.14 5.14 0 0 0 0 -7.27 a 5.14 5.14 0 0 0 -7.28 0 L 46.83 58.59 a 1.12 1.12 0 0 1 -0.81 0.32 a 1.11 1.11 0 0 1 -0.81 -0.32 a 1.15 1.15 0 0 1 0 -1.62 l 11.12 -11 A 5.15 5.15 0 0 0 49 38.65 L 38 49.73 a 1.15 1.15 0 0 1 -2 -0.82 a 1.14 1.14 0 0 1 0.33 -0.8 l 11.11 -11 a 5.14 5.14 0 0 0 0 -7.28 a 5.14 5.14 0 0 0 -3.64 -1.51 Z" fill="#ff9900" transform="scale(0.6) translate(-50 -50)"/></g><g transform="translate(1441.0447761194039, -374.3283582089554)"><path d="M54.88 71.29 a 4.58 4.58 0 0 1 -3.28 -1.36 a 4.65 4.65 0 0 1 0 -6.57 l 11.11 -11 A 1.65 1.65 0 0 0 60.38 50 L 49.3 61.06 a 4.65 4.65 0 0 1 -7.93 -3.28 a 4.66 4.66 0 0 1 1.36 -3.29 l 11.12 -11 a 1.65 1.65 0 0 0 -1.17 -2.8 a 1.67 1.67 0 0 0 -1.17 0.48 L 40.44 52.2 a 4.65 4.65 0 0 1 -6.57 -6.57 L 45 34.59 a 1.63 1.63 0 0 0 0.48 -1.16 A 1.67 1.67 0 0 0 45 32.26 a 1.65 1.65 0 0 0 -1.17 -0.48 a 1.63 1.63 0 0 0 -1.16 0.48 L 29.28 45.63 a 1.5 1.5 0 1 1 -2.12 -2.12 L 40.53 30.14 a 4.65 4.65 0 0 1 7.93 3.29 a 4.58 4.58 0 0 1 -1.36 3.28 L 36 47.75 a 1.65 1.65 0 0 0 0 2.33 a 1.65 1.65 0 0 0 2.33 0 L 49.39 39 A 4.65 4.65 0 0 1 56 39 a 4.65 4.65 0 0 1 0 6.57 l -11.11 11 a 1.64 1.64 0 0 0 0 2.32 a 1.66 1.66 0 0 0 1.17 0.47 a 1.64 1.64 0 0 0 1.16 -0.47 L 58.26 47.87 a 4.65 4.65 0 0 1 6.57 0 a 4.65 4.65 0 0 1 0 6.57 l -11.12 11 a 1.65 1.65 0 0 0 2.34 2.33 l 13.29 -13.3 a 1.51 1.51 0 0 1 2.13 0 a 1.5 1.5 0 0 1 0 2.12 l -13.3 13.3 A 4.62 4.62 0 0 1 54.88 71.29 Z" fill="#ff9900" transform="scale(0.6) translate(-50 -50)"/><path d="M 43.81 29.28 a 4.15 4.15 0 0 1 2.94 7.08 l -11.12 11 A 2.14 2.14 0 0 0 35 48.91 a 2.14 2.14 0 0 0 3.66 1.52 L 49.75 39.36 a 4.14 4.14 0 0 1 5.86 5.86 L 44.49 56.27 a 2.13 2.13 0 0 0 -0.62 1.51 a 2.16 2.16 0 0 0 3.67 1.52 L 58.61 48.22 a 4.15 4.15 0 0 1 5.87 5.86 l -11.12 11 a 2.15 2.15 0 0 0 0 3 a 2.17 2.17 0 0 0 3 0 l 13.3 -13.3 a 1 1 0 1 1 1.41 1.42 L 57.81 69.57 a 4.13 4.13 0 0 1 -5.86 0 a 4.14 4.14 0 0 1 0 -5.86 l 11.12 -11 a 2.15 2.15 0 0 0 -3 -3 L 49 60.71 a 4.15 4.15 0 0 1 -5.87 -5.86 L 54.2 43.8 a 2.15 2.15 0 0 0 -3 -3 L 40.09 51.85 A 4.15 4.15 0 0 1 34.22 46 l 11.12 -11 a 2.15 2.15 0 0 0 -1.53 -3.66 a 2.09 2.09 0 0 0 -1.51 0.63 L 28.93 45.28 a 1 1 0 0 1 -1.42 0 a 1 1 0 0 1 0 -1.42 L 40.88 30.5 a 4.1 4.1 0 0 1 2.93 -1.22 m 0 -1 a 5.18 5.18 0 0 0 -3.64 1.51 L 26.81 43.16 a 2 2 0 0 0 1.41 3.41 A 2 2 0 0 0 29.64 46 L 43 32.62 a 1.14 1.14 0 0 1 0.81 -0.34 A 1.16 1.16 0 0 1 45 33.43 a 1.14 1.14 0 0 1 -0.33 0.8 L 33.52 45.28 a 5.14 5.14 0 1 0 7.27 7.27 L 51.87 41.48 a 1.13 1.13 0 0 1 0.81 -0.33 a 1.14 1.14 0 0 1 0.81 2 l -11.11 11 a 5.15 5.15 0 1 0 7.28 7.28 L 60.73 50.34 a 1.17 1.17 0 0 1 0.81 -0.32 A 1.14 1.14 0 0 1 62.36 52 L 51.24 63 a 5.15 5.15 0 0 0 3.64 8.79 a 5.11 5.11 0 0 0 3.64 -1.51 L 71.82 57 a 2 2 0 0 0 0 -2.83 a 2 2 0 0 0 -2.83 0 l -13.3 13.3 a 1.12 1.12 0 0 1 -0.81 0.33 a 1.15 1.15 0 0 1 -0.81 -0.33 a 1.13 1.13 0 0 1 0 -1.61 L 65.18 54.79 a 5.14 5.14 0 0 0 0 -7.27 a 5.14 5.14 0 0 0 -7.28 0 L 46.83 58.59 a 1.12 1.12 0 0 1 -0.81 0.32 a 1.11 1.11 0 0 1 -0.81 -0.32 a 1.15 1.15 0 0 1 0 -1.62 l 11.12 -11 A 5.15 5.15 0 0 0 49 38.65 L 38 49.73 a 1.15 1.15 0 0 1 -2 -0.82 a 1.14 1.14 0 0 1 0.33 -0.8 l 11.11 -11 a 5.14 5.14 0 0 0 0 -7.28 a 5.14 5.14 0 0 0 -3.64 -1.51 Z" fill="#ff9900" transform="scale(0.6) translate(-50 -50)"/></g><g transform="translate(1005.2238805970158, -219.1044776119404)"><path d="M54.88 71.29 a 4.58 4.58 0 0 1 -3.28 -1.36 a 4.65 4.65 0 0 1 0 -6.57 l 11.11 -11 A 1.65 1.65 0 0 0 60.38 50 L 49.3 61.06 a 4.65 4.65 0 0 1 -7.93 -3.28 a 4.66 4.66 0 0 1 1.36 -3.29 l 11.12 -11 a 1.65 1.65 0 0 0 -1.17 -2.8 a 1.67 1.67 0 0 0 -1.17 0.48 L 40.44 52.2 a 4.65 4.65 0 0 1 -6.57 -6.57 L 45 34.59 a 1.63 1.63 0 0 0 0.48 -1.16 A 1.67 1.67 0 0 0 45 32.26 a 1.65 1.65 0 0 0 -1.17 -0.48 a 1.63 1.63 0 0 0 -1.16 0.48 L 29.28 45.63 a 1.5 1.5 0 1 1 -2.12 -2.12 L 40.53 30.14 a 4.65 4.65 0 0 1 7.93 3.29 a 4.58 4.58 0 0 1 -1.36 3.28 L 36 47.75 a 1.65 1.65 0 0 0 0 2.33 a 1.65 1.65 0 0 0 2.33 0 L 49.39 39 A 4.65 4.65 0 0 1 56 39 a 4.65 4.65 0 0 1 0 6.57 l -11.11 11 a 1.64 1.64 0 0 0 0 2.32 a 1.66 1.66 0 0 0 1.17 0.47 a 1.64 1.64 0 0 0 1.16 -0.47 L 58.26 47.87 a 4.65 4.65 0 0 1 6.57 0 a 4.65 4.65 0 0 1 0 6.57 l -11.12 11 a 1.65 1.65 0 0 0 2.34 2.33 l 13.29 -13.3 a 1.51 1.51 0 0 1 2.13 0 a 1.5 1.5 0 0 1 0 2.12 l -13.3 13.3 A 4.62 4.62 0 0 1 54.88 71.29 Z" fill="#f6c" transform="scale(0.6) translate(-50 -50)"/><path d="M 43.81 29.28 a 4.15 4.15 0 0 1 2.94 7.08 l -11.12 11 A 2.14 2.14 0 0 0 35 48.91 a 2.14 2.14 0 0 0 3.66 1.52 L 49.75 39.36 a 4.14 4.14 0 0 1 5.86 5.86 L 44.49 56.27 a 2.13 2.13 0 0 0 -0.62 1.51 a 2.16 2.16 0 0 0 3.67 1.52 L 58.61 48.22 a 4.15 4.15 0 0 1 5.87 5.86 l -11.12 11 a 2.15 2.15 0 0 0 0 3 a 2.17 2.17 0 0 0 3 0 l 13.3 -13.3 a 1 1 0 1 1 1.41 1.42 L 57.81 69.57 a 4.13 4.13 0 0 1 -5.86 0 a 4.14 4.14 0 0 1 0 -5.86 l 11.12 -11 a 2.15 2.15 0 0 0 -3 -3 L 49 60.71 a 4.15 4.15 0 0 1 -5.87 -5.86 L 54.2 43.8 a 2.15 2.15 0 0 0 -3 -3 L 40.09 51.85 A 4.15 4.15 0 0 1 34.22 46 l 11.12 -11 a 2.15 2.15 0 0 0 -1.53 -3.66 a 2.09 2.09 0 0 0 -1.51 0.63 L 28.93 45.28 a 1 1 0 0 1 -1.42 0 a 1 1 0 0 1 0 -1.42 L 40.88 30.5 a 4.1 4.1 0 0 1 2.93 -1.22 m 0 -1 a 5.18 5.18 0 0 0 -3.64 1.51 L 26.81 43.16 a 2 2 0 0 0 1.41 3.41 A 2 2 0 0 0 29.64 46 L 43 32.62 a 1.14 1.14 0 0 1 0.81 -0.34 A 1.16 1.16 0 0 1 45 33.43 a 1.14 1.14 0 0 1 -0.33 0.8 L 33.52 45.28 a 5.14 5.14 0 1 0 7.27 7.27 L 51.87 41.48 a 1.13 1.13 0 0 1 0.81 -0.33 a 1.14 1.14 0 0 1 0.81 2 l -11.11 11 a 5.15 5.15 0 1 0 7.28 7.28 L 60.73 50.34 a 1.17 1.17 0 0 1 0.81 -0.32 A 1.14 1.14 0 0 1 62.36 52 L 51.24 63 a 5.15 5.15 0 0 0 3.64 8.79 a 5.11 5.11 0 0 0 3.64 -1.51 L 71.82 57 a 2 2 0 0 0 0 -2.83 a 2 2 0 0 0 -2.83 0 l -13.3 13.3 a 1.12 1.12 0 0 1 -0.81 0.33 a 1.15 1.15 0 0 1 -0.81 -0.33 a 1.13 1.13 0 0 1 0 -1.61 L 65.18 54.79 a 5.14 5.14 0 0 0 0 -7.27 a 5.14 5.14 0 0 0 -7.28 0 L 46.83 58.59 a 1.12 1.12 0 0 1 -0.81 0.32 a 1.11 1.11 0 0 1 -0.81 -0.32 a 1.15 1.15 0 0 1 0 -1.62 l 11.12 -11 A 5.15 5.15 0 0 0 49 38.65 L 38 49.73 a 1.15 1.15 0 0 1 -2 -0.82 a 1.14 1.14 0 0 1 0.33 -0.8 l 11.11 -11 a 5.14 5.14 0 0 0 0 -7.28 a 5.14 5.14 0 0 0 -3.64 -1.51 Z" fill="#f6c" transform="scale(0.6) translate(-50 -50)"/></g><g transform="translate(1441.0447761194039, -226.26865671641804)"><path d="M54.88 71.29 a 4.58 4.58 0 0 1 -3.28 -1.36 a 4.65 4.65 0 0 1 0 -6.57 l 11.11 -11 A 1.65 1.65 0 0 0 60.38 50 L 49.3 61.06 a 4.65 4.65 0 0 1 -7.93 -3.28 a 4.66 4.66 0 0 1 1.36 -3.29 l 11.12 -11 a 1.65 1.65 0 0 0 -1.17 -2.8 a 1.67 1.67 0 0 0 -1.17 0.48 L 40.44 52.2 a 4.65 4.65 0 0 1 -6.57 -6.57 L 45 34.59 a 1.63 1.63 0 0 0 0.48 -1.16 A 1.67 1.67 0 0 0 45 32.26 a 1.65 1.65 0 0 0 -1.17 -0.48 a 1.63 1.63 0 0 0 -1.16 0.48 L 29.28 45.63 a 1.5 1.5 0 1 1 -2.12 -2.12 L 40.53 30.14 a 4.65 4.65 0 0 1 7.93 3.29 a 4.58 4.58 0 0 1 -1.36 3.28 L 36 47.75 a 1.65 1.65 0 0 0 0 2.33 a 1.65 1.65 0 0 0 2.33 0 L 49.39 39 A 4.65 4.65 0 0 1 56 39 a 4.65 4.65 0 0 1 0 6.57 l -11.11 11 a 1.64 1.64 0 0 0 0 2.32 a 1.66 1.66 0 0 0 1.17 0.47 a 1.64 1.64 0 0 0 1.16 -0.47 L 58.26 47.87 a 4.65 4.65 0 0 1 6.57 0 a 4.65 4.65 0 0 1 0 6.57 l -11.12 11 a 1.65 1.65 0 0 0 2.34 2.33 l 13.29 -13.3 a 1.51 1.51 0 0 1 2.13 0 a 1.5 1.5 0 0 1 0 2.12 l -13.3 13.3 A 4.62 4.62 0 0 1 54.88 71.29 Z" fill="#f6c" transform="scale(0.6) translate(-50 -50)"/><path d="M 43.81 29.28 a 4.15 4.15 0 0 1 2.94 7.08 l -11.12 11 A 2.14 2.14 0 0 0 35 48.91 a 2.14 2.14 0 0 0 3.66 1.52 L 49.75 39.36 a 4.14 4.14 0 0 1 5.86 5.86 L 44.49 56.27 a 2.13 2.13 0 0 0 -0.62 1.51 a 2.16 2.16 0 0 0 3.67 1.52 L 58.61 48.22 a 4.15 4.15 0 0 1 5.87 5.86 l -11.12 11 a 2.15 2.15 0 0 0 0 3 a 2.17 2.17 0 0 0 3 0 l 13.3 -13.3 a 1 1 0 1 1 1.41 1.42 L 57.81 69.57 a 4.13 4.13 0 0 1 -5.86 0 a 4.14 4.14 0 0 1 0 -5.86 l 11.12 -11 a 2.15 2.15 0 0 0 -3 -3 L 49 60.71 a 4.15 4.15 0 0 1 -5.87 -5.86 L 54.2 43.8 a 2.15 2.15 0 0 0 -3 -3 L 40.09 51.85 A 4.15 4.15 0 0 1 34.22 46 l 11.12 -11 a 2.15 2.15 0 0 0 -1.53 -3.66 a 2.09 2.09 0 0 0 -1.51 0.63 L 28.93 45.28 a 1 1 0 0 1 -1.42 0 a 1 1 0 0 1 0 -1.42 L 40.88 30.5 a 4.1 4.1 0 0 1 2.93 -1.22 m 0 -1 a 5.18 5.18 0 0 0 -3.64 1.51 L 26.81 43.16 a 2 2 0 0 0 1.41 3.41 A 2 2 0 0 0 29.64 46 L 43 32.62 a 1.14 1.14 0 0 1 0.81 -0.34 A 1.16 1.16 0 0 1 45 33.43 a 1.14 1.14 0 0 1 -0.33 0.8 L 33.52 45.28 a 5.14 5.14 0 1 0 7.27 7.27 L 51.87 41.48 a 1.13 1.13 0 0 1 0.81 -0.33 a 1.14 1.14 0 0 1 0.81 2 l -11.11 11 a 5.15 5.15 0 1 0 7.28 7.28 L 60.73 50.34 a 1.17 1.17 0 0 1 0.81 -0.32 A 1.14 1.14 0 0 1 62.36 52 L 51.24 63 a 5.15 5.15 0 0 0 3.64 8.79 a 5.11 5.11 0 0 0 3.64 -1.51 L 71.82 57 a 2 2 0 0 0 0 -2.83 a 2 2 0 0 0 -2.83 0 l -13.3 13.3 a 1.12 1.12 0 0 1 -0.81 0.33 a 1.15 1.15 0 0 1 -0.81 -0.33 a 1.13 1.13 0 0 1 0 -1.61 L 65.18 54.79 a 5.14 5.14 0 0 0 0 -7.27 a 5.14 5.14 0 0 0 -7.28 0 L 46.83 58.59 a 1.12 1.12 0 0 1 -0.81 0.32 a 1.11 1.11 0 0 1 -0.81 -0.32 a 1.15 1.15 0 0 1 0 -1.62 l 11.12 -11 A 5.15 5.15 0 0 0 49 38.65 L 38 49.73 a 1.15 1.15 0 0 1 -2 -0.82 a 1.14 1.14 0 0 1 0.33 -0.8 l 11.11 -11 a 5.14 5.14 0 0 0 0 -7.28 a 5.14 5.14 0 0 0 -3.64 -1.51 Z" fill="#f6c" transform="scale(0.6) translate(-50 -50)"/></g><g transform="translate(946.7164179104485, -155.82089552238813)"><path d="M54.88 71.29 a 4.58 4.58 0 0 1 -3.28 -1.36 a 4.65 4.65 0 0 1 0 -6.57 l 11.11 -11 A 1.65 1.65 0 0 0 60.38 50 L 49.3 61.06 a 4.65 4.65 0 0 1 -7.93 -3.28 a 4.66 4.66 0 0 1 1.36 -3.29 l 11.12 -11 a 1.65 1.65 0 0 0 -1.17 -2.8 a 1.67 1.67 0 0 0 -1.17 0.48 L 40.44 52.2 a 4.65 4.65 0 0 1 -6.57 -6.57 L 45 34.59 a 1.63 1.63 0 0 0 0.48 -1.16 A 1.67 1.67 0 0 0 45 32.26 a 1.65 1.65 0 0 0 -1.17 -0.48 a 1.63 1.63 0 0 0 -1.16 0.48 L 29.28 45.63 a 1.5 1.5 0 1 1 -2.12 -2.12 L 40.53 30.14 a 4.65 4.65 0 0 1 7.93 3.29 a 4.58 4.58 0 0 1 -1.36 3.28 L 36 47.75 a 1.65 1.65 0 0 0 0 2.33 a 1.65 1.65 0 0 0 2.33 0 L 49.39 39 A 4.65 4.65 0 0 1 56 39 a 4.65 4.65 0 0 1 0 6.57 l -11.11 11 a 1.64 1.64 0 0 0 0 2.32 a 1.66 1.66 0 0 0 1.17 0.47 a 1.64 1.64 0 0 0 1.16 -0.47 L 58.26 47.87 a 4.65 4.65 0 0 1 6.57 0 a 4.65 4.65 0 0 1 0 6.57 l -11.12 11 a 1.65 1.65 0 0 0 2.34 2.33 l 13.29 -13.3 a 1.51 1.51 0 0 1 2.13 0 a 1.5 1.5 0 0 1 0 2.12 l -13.3 13.3 A 4.62 4.62 0 0 1 54.88 71.29 Z" fill="#ff9900" transform="scale(0.6) translate(-50 -50)"/><path d="M 43.81 29.28 a 4.15 4.15 0 0 1 2.94 7.08 l -11.12 11 A 2.14 2.14 0 0 0 35 48.91 a 2.14 2.14 0 0 0 3.66 1.52 L 49.75 39.36 a 4.14 4.14 0 0 1 5.86 5.86 L 44.49 56.27 a 2.13 2.13 0 0 0 -0.62 1.51 a 2.16 2.16 0 0 0 3.67 1.52 L 58.61 48.22 a 4.15 4.15 0 0 1 5.87 5.86 l -11.12 11 a 2.15 2.15 0 0 0 0 3 a 2.17 2.17 0 0 0 3 0 l 13.3 -13.3 a 1 1 0 1 1 1.41 1.42 L 57.81 69.57 a 4.13 4.13 0 0 1 -5.86 0 a 4.14 4.14 0 0 1 0 -5.86 l 11.12 -11 a 2.15 2.15 0 0 0 -3 -3 L 49 60.71 a 4.15 4.15 0 0 1 -5.87 -5.86 L 54.2 43.8 a 2.15 2.15 0 0 0 -3 -3 L 40.09 51.85 A 4.15 4.15 0 0 1 34.22 46 l 11.12 -11 a 2.15 2.15 0 0 0 -1.53 -3.66 a 2.09 2.09 0 0 0 -1.51 0.63 L 28.93 45.28 a 1 1 0 0 1 -1.42 0 a 1 1 0 0 1 0 -1.42 L 40.88 30.5 a 4.1 4.1 0 0 1 2.93 -1.22 m 0 -1 a 5.18 5.18 0 0 0 -3.64 1.51 L 26.81 43.16 a 2 2 0 0 0 1.41 3.41 A 2 2 0 0 0 29.64 46 L 43 32.62 a 1.14 1.14 0 0 1 0.81 -0.34 A 1.16 1.16 0 0 1 45 33.43 a 1.14 1.14 0 0 1 -0.33 0.8 L 33.52 45.28 a 5.14 5.14 0 1 0 7.27 7.27 L 51.87 41.48 a 1.13 1.13 0 0 1 0.81 -0.33 a 1.14 1.14 0 0 1 0.81 2 l -11.11 11 a 5.15 5.15 0 1 0 7.28 7.28 L 60.73 50.34 a 1.17 1.17 0 0 1 0.81 -0.32 A 1.14 1.14 0 0 1 62.36 52 L 51.24 63 a 5.15 5.15 0 0 0 3.64 8.79 a 5.11 5.11 0 0 0 3.64 -1.51 L 71.82 57 a 2 2 0 0 0 0 -2.83 a 2 2 0 0 0 -2.83 0 l -13.3 13.3 a 1.12 1.12 0 0 1 -0.81 0.33 a 1.15 1.15 0 0 1 -0.81 -0.33 a 1.13 1.13 0 0 1 0 -1.61 L 65.18 54.79 a 5.14 5.14 0 0 0 0 -7.27 a 5.14 5.14 0 0 0 -7.28 0 L 46.83 58.59 a 1.12 1.12 0 0 1 -0.81 0.32 a 1.11 1.11 0 0 1 -0.81 -0.32 a 1.15 1.15 0 0 1 0 -1.62 l 11.12 -11 A 5.15 5.15 0 0 0 49 38.65 L 38 49.73 a 1.15 1.15 0 0 1 -2 -0.82 a 1.14 1.14 0 0 1 0.33 -0.8 l 11.11 -11 a 5.14 5.14 0 0 0 0 -7.28 a 5.14 5.14 0 0 0 -3.64 -1.51 Z" fill="#ff9900" transform="scale(0.6) translate(-50 -50)"/></g><g transform="translate(1499.5522388059712, -168.9552238805971)"><path d="M54.88 71.29 a 4.58 4.58 0 0 1 -3.28 -1.36 a 4.65 4.65 0 0 1 0 -6.57 l 11.11 -11 A 1.65 1.65 0 0 0 60.38 50 L 49.3 61.06 a 4.65 4.65 0 0 1 -7.93 -3.28 a 4.66 4.66 0 0 1 1.36 -3.29 l 11.12 -11 a 1.65 1.65 0 0 0 -1.17 -2.8 a 1.67 1.67 0 0 0 -1.17 0.48 L 40.44 52.2 a 4.65 4.65 0 0 1 -6.57 -6.57 L 45 34.59 a 1.63 1.63 0 0 0 0.48 -1.16 A 1.67 1.67 0 0 0 45 32.26 a 1.65 1.65 0 0 0 -1.17 -0.48 a 1.63 1.63 0 0 0 -1.16 0.48 L 29.28 45.63 a 1.5 1.5 0 1 1 -2.12 -2.12 L 40.53 30.14 a 4.65 4.65 0 0 1 7.93 3.29 a 4.58 4.58 0 0 1 -1.36 3.28 L 36 47.75 a 1.65 1.65 0 0 0 0 2.33 a 1.65 1.65 0 0 0 2.33 0 L 49.39 39 A 4.65 4.65 0 0 1 56 39 a 4.65 4.65 0 0 1 0 6.57 l -11.11 11 a 1.64 1.64 0 0 0 0 2.32 a 1.66 1.66 0 0 0 1.17 0.47 a 1.64 1.64 0 0 0 1.16 -0.47 L 58.26 47.87 a 4.65 4.65 0 0 1 6.57 0 a 4.65 4.65 0 0 1 0 6.57 l -11.12 11 a 1.65 1.65 0 0 0 2.34 2.33 l 13.29 -13.3 a 1.51 1.51 0 0 1 2.13 0 a 1.5 1.5 0 0 1 0 2.12 l -13.3 13.3 A 4.62 4.62 0 0 1 54.88 71.29 Z" fill="#ff9900" transform="scale(0.6) translate(-50 -50)"/><path d="M 43.81 29.28 a 4.15 4.15 0 0 1 2.94 7.08 l -11.12 11 A 2.14 2.14 0 0 0 35 48.91 a 2.14 2.14 0 0 0 3.66 1.52 L 49.75 39.36 a 4.14 4.14 0 0 1 5.86 5.86 L 44.49 56.27 a 2.13 2.13 0 0 0 -0.62 1.51 a 2.16 2.16 0 0 0 3.67 1.52 L 58.61 48.22 a 4.15 4.15 0 0 1 5.87 5.86 l -11.12 11 a 2.15 2.15 0 0 0 0 3 a 2.17 2.17 0 0 0 3 0 l 13.3 -13.3 a 1 1 0 1 1 1.41 1.42 L 57.81 69.57 a 4.13 4.13 0 0 1 -5.86 0 a 4.14 4.14 0 0 1 0 -5.86 l 11.12 -11 a 2.15 2.15 0 0 0 -3 -3 L 49 60.71 a 4.15 4.15 0 0 1 -5.87 -5.86 L 54.2 43.8 a 2.15 2.15 0 0 0 -3 -3 L 40.09 51.85 A 4.15 4.15 0 0 1 34.22 46 l 11.12 -11 a 2.15 2.15 0 0 0 -1.53 -3.66 a 2.09 2.09 0 0 0 -1.51 0.63 L 28.93 45.28 a 1 1 0 0 1 -1.42 0 a 1 1 0 0 1 0 -1.42 L 40.88 30.5 a 4.1 4.1 0 0 1 2.93 -1.22 m 0 -1 a 5.18 5.18 0 0 0 -3.64 1.51 L 26.81 43.16 a 2 2 0 0 0 1.41 3.41 A 2 2 0 0 0 29.64 46 L 43 32.62 a 1.14 1.14 0 0 1 0.81 -0.34 A 1.16 1.16 0 0 1 45 33.43 a 1.14 1.14 0 0 1 -0.33 0.8 L 33.52 45.28 a 5.14 5.14 0 1 0 7.27 7.27 L 51.87 41.48 a 1.13 1.13 0 0 1 0.81 -0.33 a 1.14 1.14 0 0 1 0.81 2 l -11.11 11 a 5.15 5.15 0 1 0 7.28 7.28 L 60.73 50.34 a 1.17 1.17 0 0 1 0.81 -0.32 A 1.14 1.14 0 0 1 62.36 52 L 51.24 63 a 5.15 5.15 0 0 0 3.64 8.79 a 5.11 5.11 0 0 0 3.64 -1.51 L 71.82 57 a 2 2 0 0 0 0 -2.83 a 2 2 0 0 0 -2.83 0 l -13.3 13.3 a 1.12 1.12 0 0 1 -0.81 0.33 a 1.15 1.15 0 0 1 -0.81 -0.33 a 1.13 1.13 0 0 1 0 -1.61 L 65.18 54.79 a 5.14 5.14 0 0 0 0 -7.27 a 5.14 5.14 0 0 0 -7.28 0 L 46.83 58.59 a 1.12 1.12 0 0 1 -0.81 0.32 a 1.11 1.11 0 0 1 -0.81 -0.32 a 1.15 1.15 0 0 1 0 -1.62 l 11.12 -11 A 5.15 5.15 0 0 0 49 38.65 L 38 49.73 a 1.15 1.15 0 0 1 -2 -0.82 a 1.14 1.14 0 0 1 0.33 -0.8 l 11.11 -11 a 5.14 5.14 0 0 0 0 -7.28 a 5.14 5.14 0 0 0 -3.64 -1.51 Z" fill="#ff9900" transform="scale(0.6) translate(-50 -50)"/></g><g transform="translate(1063.7950248756222, 124.20298507462721)"><path d="M54.88 71.29 a 4.58 4.58 0 0 1 -3.28 -1.36 a 4.65 4.65 0 0 1 0 -6.57 l 11.11 -11 A 1.65 1.65 0 0 0 60.38 50 L 49.3 61.06 a 4.65 4.65 0 0 1 -7.93 -3.28 a 4.66 4.66 0 0 1 1.36 -3.29 l 11.12 -11 a 1.65 1.65 0 0 0 -1.17 -2.8 a 1.67 1.67 0 0 0 -1.17 0.48 L 40.44 52.2 a 4.65 4.65 0 0 1 -6.57 -6.57 L 45 34.59 a 1.63 1.63 0 0 0 0.48 -1.16 A 1.67 1.67 0 0 0 45 32.26 a 1.65 1.65 0 0 0 -1.17 -0.48 a 1.63 1.63 0 0 0 -1.16 0.48 L 29.28 45.63 a 1.5 1.5 0 1 1 -2.12 -2.12 L 40.53 30.14 a 4.65 4.65 0 0 1 7.93 3.29 a 4.58 4.58 0 0 1 -1.36 3.28 L 36 47.75 a 1.65 1.65 0 0 0 0 2.33 a 1.65 1.65 0 0 0 2.33 0 L 49.39 39 A 4.65 4.65 0 0 1 56 39 a 4.65 4.65 0 0 1 0 6.57 l -11.11 11 a 1.64 1.64 0 0 0 0 2.32 a 1.66 1.66 0 0 0 1.17 0.47 a 1.64 1.64 0 0 0 1.16 -0.47 L 58.26 47.87 a 4.65 4.65 0 0 1 6.57 0 a 4.65 4.65 0 0 1 0 6.57 l -11.12 11 a 1.65 1.65 0 0 0 2.34 2.33 l 13.29 -13.3 a 1.51 1.51 0 0 1 2.13 0 a 1.5 1.5 0 0 1 0 2.12 l -13.3 13.3 A 4.62 4.62 0 0 1 54.88 71.29 Z" fill="#33cc00" transform="scale(0.6) translate(-50 -50)"/><path d="M 43.81 29.28 a 4.15 4.15 0 0 1 2.94 7.08 l -11.12 11 A 2.14 2.14 0 0 0 35 48.91 a 2.14 2.14 0 0 0 3.66 1.52 L 49.75 39.36 a 4.14 4.14 0 0 1 5.86 5.86 L 44.49 56.27 a 2.13 2.13 0 0 0 -0.62 1.51 a 2.16 2.16 0 0 0 3.67 1.52 L 58.61 48.22 a 4.15 4.15 0 0 1 5.87 5.86 l -11.12 11 a 2.15 2.15 0 0 0 0 3 a 2.17 2.17 0 0 0 3 0 l 13.3 -13.3 a 1 1 0 1 1 1.41 1.42 L 57.81 69.57 a 4.13 4.13 0 0 1 -5.86 0 a 4.14 4.14 0 0 1 0 -5.86 l 11.12 -11 a 2.15 2.15 0 0 0 -3 -3 L 49 60.71 a 4.15 4.15 0 0 1 -5.87 -5.86 L 54.2 43.8 a 2.15 2.15 0 0 0 -3 -3 L 40.09 51.85 A 4.15 4.15 0 0 1 34.22 46 l 11.12 -11 a 2.15 2.15 0 0 0 -1.53 -3.66 a 2.09 2.09 0 0 0 -1.51 0.63 L 28.93 45.28 a 1 1 0 0 1 -1.42 0 a 1 1 0 0 1 0 -1.42 L 40.88 30.5 a 4.1 4.1 0 0 1 2.93 -1.22 m 0 -1 a 5.18 5.18 0 0 0 -3.64 1.51 L 26.81 43.16 a 2 2 0 0 0 1.41 3.41 A 2 2 0 0 0 29.64 46 L 43 32.62 a 1.14 1.14 0 0 1 0.81 -0.34 A 1.16 1.16 0 0 1 45 33.43 a 1.14 1.14 0 0 1 -0.33 0.8 L 33.52 45.28 a 5.14 5.14 0 1 0 7.27 7.27 L 51.87 41.48 a 1.13 1.13 0 0 1 0.81 -0.33 a 1.14 1.14 0 0 1 0.81 2 l -11.11 11 a 5.15 5.15 0 1 0 7.28 7.28 L 60.73 50.34 a 1.17 1.17 0 0 1 0.81 -0.32 A 1.14 1.14 0 0 1 62.36 52 L 51.24 63 a 5.15 5.15 0 0 0 3.64 8.79 a 5.11 5.11 0 0 0 3.64 -1.51 L 71.82 57 a 2 2 0 0 0 0 -2.83 a 2 2 0 0 0 -2.83 0 l -13.3 13.3 a 1.12 1.12 0 0 1 -0.81 0.33 a 1.15 1.15 0 0 1 -0.81 -0.33 a 1.13 1.13 0 0 1 0 -1.61 L 65.18 54.79 a 5.14 5.14 0 0 0 0 -7.27 a 5.14 5.14 0 0 0 -7.28 0 L 46.83 58.59 a 1.12 1.12 0 0 1 -0.81 0.32 a 1.11 1.11 0 0 1 -0.81 -0.32 a 1.15 1.15 0 0 1 0 -1.62 l 11.12 -11 A 5.15 5.15 0 0 0 49 38.65 L 38 49.73 a 1.15 1.15 0 0 1 -2 -0.82 a 1.14 1.14 0 0 1 0.33 -0.8 l 11.11 -11 a 5.14 5.14 0 0 0 0 -7.28 a 5.14 5.14 0 0 0 -3.64 -1.51 Z" fill="#33cc00" transform="scale(0.6) translate(-50 -50)"/></g><g transform="translate(1175.7313432835824, 193.0746268656719)"><path d="M54.88 71.29 a 4.58 4.58 0 0 1 -3.28 -1.36 a 4.65 4.65 0 0 1 0 -6.57 l 11.11 -11 A 1.65 1.65 0 0 0 60.38 50 L 49.3 61.06 a 4.65 4.65 0 0 1 -7.93 -3.28 a 4.66 4.66 0 0 1 1.36 -3.29 l 11.12 -11 a 1.65 1.65 0 0 0 -1.17 -2.8 a 1.67 1.67 0 0 0 -1.17 0.48 L 40.44 52.2 a 4.65 4.65 0 0 1 -6.57 -6.57 L 45 34.59 a 1.63 1.63 0 0 0 0.48 -1.16 A 1.67 1.67 0 0 0 45 32.26 a 1.65 1.65 0 0 0 -1.17 -0.48 a 1.63 1.63 0 0 0 -1.16 0.48 L 29.28 45.63 a 1.5 1.5 0 1 1 -2.12 -2.12 L 40.53 30.14 a 4.65 4.65 0 0 1 7.93 3.29 a 4.58 4.58 0 0 1 -1.36 3.28 L 36 47.75 a 1.65 1.65 0 0 0 0 2.33 a 1.65 1.65 0 0 0 2.33 0 L 49.39 39 A 4.65 4.65 0 0 1 56 39 a 4.65 4.65 0 0 1 0 6.57 l -11.11 11 a 1.64 1.64 0 0 0 0 2.32 a 1.66 1.66 0 0 0 1.17 0.47 a 1.64 1.64 0 0 0 1.16 -0.47 L 58.26 47.87 a 4.65 4.65 0 0 1 6.57 0 a 4.65 4.65 0 0 1 0 6.57 l -11.12 11 a 1.65 1.65 0 0 0 2.34 2.33 l 13.29 -13.3 a 1.51 1.51 0 0 1 2.13 0 a 1.5 1.5 0 0 1 0 2.12 l -13.3 13.3 A 4.62 4.62 0 0 1 54.88 71.29 Z" fill="#33cc00" transform="scale(0.6) translate(-50 -50)"/><path d="M 43.81 29.28 a 4.15 4.15 0 0 1 2.94 7.08 l -11.12 11 A 2.14 2.14 0 0 0 35 48.91 a 2.14 2.14 0 0 0 3.66 1.52 L 49.75 39.36 a 4.14 4.14 0 0 1 5.86 5.86 L 44.49 56.27 a 2.13 2.13 0 0 0 -0.62 1.51 a 2.16 2.16 0 0 0 3.67 1.52 L 58.61 48.22 a 4.15 4.15 0 0 1 5.87 5.86 l -11.12 11 a 2.15 2.15 0 0 0 0 3 a 2.17 2.17 0 0 0 3 0 l 13.3 -13.3 a 1 1 0 1 1 1.41 1.42 L 57.81 69.57 a 4.13 4.13 0 0 1 -5.86 0 a 4.14 4.14 0 0 1 0 -5.86 l 11.12 -11 a 2.15 2.15 0 0 0 -3 -3 L 49 60.71 a 4.15 4.15 0 0 1 -5.87 -5.86 L 54.2 43.8 a 2.15 2.15 0 0 0 -3 -3 L 40.09 51.85 A 4.15 4.15 0 0 1 34.22 46 l 11.12 -11 a 2.15 2.15 0 0 0 -1.53 -3.66 a 2.09 2.09 0 0 0 -1.51 0.63 L 28.93 45.28 a 1 1 0 0 1 -1.42 0 a 1 1 0 0 1 0 -1.42 L 40.88 30.5 a 4.1 4.1 0 0 1 2.93 -1.22 m 0 -1 a 5.18 5.18 0 0 0 -3.64 1.51 L 26.81 43.16 a 2 2 0 0 0 1.41 3.41 A 2 2 0 0 0 29.64 46 L 43 32.62 a 1.14 1.14 0 0 1 0.81 -0.34 A 1.16 1.16 0 0 1 45 33.43 a 1.14 1.14 0 0 1 -0.33 0.8 L 33.52 45.28 a 5.14 5.14 0 1 0 7.27 7.27 L 51.87 41.48 a 1.13 1.13 0 0 1 0.81 -0.33 a 1.14 1.14 0 0 1 0.81 2 l -11.11 11 a 5.15 5.15 0 1 0 7.28 7.28 L 60.73 50.34 a 1.17 1.17 0 0 1 0.81 -0.32 A 1.14 1.14 0 0 1 62.36 52 L 51.24 63 a 5.15 5.15 0 0 0 3.64 8.79 a 5.11 5.11 0 0 0 3.64 -1.51 L 71.82 57 a 2 2 0 0 0 0 -2.83 a 2 2 0 0 0 -2.83 0 l -13.3 13.3 a 1.12 1.12 0 0 1 -0.81 0.33 a 1.15 1.15 0 0 1 -0.81 -0.33 a 1.13 1.13 0 0 1 0 -1.61 L 65.18 54.79 a 5.14 5.14 0 0 0 0 -7.27 a 5.14 5.14 0 0 0 -7.28 0 L 46.83 58.59 a 1.12 1.12 0 0 1 -0.81 0.32 a 1.11 1.11 0 0 1 -0.81 -0.32 a 1.15 1.15 0 0 1 0 -1.62 l 11.12 -11 A 5.15 5.15 0 0 0 49 38.65 L 38 49.73 a 1.15 1.15 0 0 1 -2 -0.82 a 1.14 1.14 0 0 1 0.33 -0.8 l 11.11 -11 a 5.14 5.14 0 0 0 0 -7.28 a 5.14 5.14 0 0 0 -3.64 -1.51 Z" fill="#33cc00" transform="scale(0.6) translate(-50 -50)"/></g><g transform="translate(1885.2238805970162, -300.2985074626867)"><path d="M54.88 71.29 a 4.58 4.58 0 0 1 -3.28 -1.36 a 4.65 4.65 0 0 1 0 -6.57 l 11.11 -11 A 1.65 1.65 0 0 0 60.38 50 L 49.3 61.06 a 4.65 4.65 0 0 1 -7.93 -3.28 a 4.66 4.66 0 0 1 1.36 -3.29 l 11.12 -11 a 1.65 1.65 0 0 0 -1.17 -2.8 a 1.67 1.67 0 0 0 -1.17 0.48 L 40.44 52.2 a 4.65 4.65 0 0 1 -6.57 -6.57 L 45 34.59 a 1.63 1.63 0 0 0 0.48 -1.16 A 1.67 1.67 0 0 0 45 32.26 a 1.65 1.65 0 0 0 -1.17 -0.48 a 1.63 1.63 0 0 0 -1.16 0.48 L 29.28 45.63 a 1.5 1.5 0 1 1 -2.12 -2.12 L 40.53 30.14 a 4.65 4.65 0 0 1 7.93 3.29 a 4.58 4.58 0 0 1 -1.36 3.28 L 36 47.75 a 1.65 1.65 0 0 0 0 2.33 a 1.65 1.65 0 0 0 2.33 0 L 49.39 39 A 4.65 4.65 0 0 1 56 39 a 4.65 4.65 0 0 1 0 6.57 l -11.11 11 a 1.64 1.64 0 0 0 0 2.32 a 1.66 1.66 0 0 0 1.17 0.47 a 1.64 1.64 0 0 0 1.16 -0.47 L 58.26 47.87 a 4.65 4.65 0 0 1 6.57 0 a 4.65 4.65 0 0 1 0 6.57 l -11.12 11 a 1.65 1.65 0 0 0 2.34 2.33 l 13.29 -13.3 a 1.51 1.51 0 0 1 2.13 0 a 1.5 1.5 0 0 1 0 2.12 l -13.3 13.3 A 4.62 4.62 0 0 1 54.88 71.29 Z" fill="#9966ff" transform="scale(0.6) translate(-50 -50)"/><path d="M 43.81 29.28 a 4.15 4.15 0 0 1 2.94 7.08 l -11.12 11 A 2.14 2.14 0 0 0 35 48.91 a 2.14 2.14 0 0 0 3.66 1.52 L 49.75 39.36 a 4.14 4.14 0 0 1 5.86 5.86 L 44.49 56.27 a 2.13 2.13 0 0 0 -0.62 1.51 a 2.16 2.16 0 0 0 3.67 1.52 L 58.61 48.22 a 4.15 4.15 0 0 1 5.87 5.86 l -11.12 11 a 2.15 2.15 0 0 0 0 3 a 2.17 2.17 0 0 0 3 0 l 13.3 -13.3 a 1 1 0 1 1 1.41 1.42 L 57.81 69.57 a 4.13 4.13 0 0 1 -5.86 0 a 4.14 4.14 0 0 1 0 -5.86 l 11.12 -11 a 2.15 2.15 0 0 0 -3 -3 L 49 60.71 a 4.15 4.15 0 0 1 -5.87 -5.86 L 54.2 43.8 a 2.15 2.15 0 0 0 -3 -3 L 40.09 51.85 A 4.15 4.15 0 0 1 34.22 46 l 11.12 -11 a 2.15 2.15 0 0 0 -1.53 -3.66 a 2.09 2.09 0 0 0 -1.51 0.63 L 28.93 45.28 a 1 1 0 0 1 -1.42 0 a 1 1 0 0 1 0 -1.42 L 40.88 30.5 a 4.1 4.1 0 0 1 2.93 -1.22 m 0 -1 a 5.18 5.18 0 0 0 -3.64 1.51 L 26.81 43.16 a 2 2 0 0 0 1.41 3.41 A 2 2 0 0 0 29.64 46 L 43 32.62 a 1.14 1.14 0 0 1 0.81 -0.34 A 1.16 1.16 0 0 1 45 33.43 a 1.14 1.14 0 0 1 -0.33 0.8 L 33.52 45.28 a 5.14 5.14 0 1 0 7.27 7.27 L 51.87 41.48 a 1.13 1.13 0 0 1 0.81 -0.33 a 1.14 1.14 0 0 1 0.81 2 l -11.11 11 a 5.15 5.15 0 1 0 7.28 7.28 L 60.73 50.34 a 1.17 1.17 0 0 1 0.81 -0.32 A 1.14 1.14 0 0 1 62.36 52 L 51.24 63 a 5.15 5.15 0 0 0 3.64 8.79 a 5.11 5.11 0 0 0 3.64 -1.51 L 71.82 57 a 2 2 0 0 0 0 -2.83 a 2 2 0 0 0 -2.83 0 l -13.3 13.3 a 1.12 1.12 0 0 1 -0.81 0.33 a 1.15 1.15 0 0 1 -0.81 -0.33 a 1.13 1.13 0 0 1 0 -1.61 L 65.18 54.79 a 5.14 5.14 0 0 0 0 -7.27 a 5.14 5.14 0 0 0 -7.28 0 L 46.83 58.59 a 1.12 1.12 0 0 1 -0.81 0.32 a 1.11 1.11 0 0 1 -0.81 -0.32 a 1.15 1.15 0 0 1 0 -1.62 l 11.12 -11 A 5.15 5.15 0 0 0 49 38.65 L 38 49.73 a 1.15 1.15 0 0 1 -2 -0.82 a 1.14 1.14 0 0 1 0.33 -0.8 l 11.11 -11 a 5.14 5.14 0 0 0 0 -7.28 a 5.14 5.14 0 0 0 -3.64 -1.51 Z" fill="#9966ff" transform="scale(0.6) translate(-50 -50)"/></g><g transform="translate(648.2089552238812, -278.8059701492539)"><path d="M54.88 71.29 a 4.58 4.58 0 0 1 -3.28 -1.36 a 4.65 4.65 0 0 1 0 -6.57 l 11.11 -11 A 1.65 1.65 0 0 0 60.38 50 L 49.3 61.06 a 4.65 4.65 0 0 1 -7.93 -3.28 a 4.66 4.66 0 0 1 1.36 -3.29 l 11.12 -11 a 1.65 1.65 0 0 0 -1.17 -2.8 a 1.67 1.67 0 0 0 -1.17 0.48 L 40.44 52.2 a 4.65 4.65 0 0 1 -6.57 -6.57 L 45 34.59 a 1.63 1.63 0 0 0 0.48 -1.16 A 1.67 1.67 0 0 0 45 32.26 a 1.65 1.65 0 0 0 -1.17 -0.48 a 1.63 1.63 0 0 0 -1.16 0.48 L 29.28 45.63 a 1.5 1.5 0 1 1 -2.12 -2.12 L 40.53 30.14 a 4.65 4.65 0 0 1 7.93 3.29 a 4.58 4.58 0 0 1 -1.36 3.28 L 36 47.75 a 1.65 1.65 0 0 0 0 2.33 a 1.65 1.65 0 0 0 2.33 0 L 49.39 39 A 4.65 4.65 0 0 1 56 39 a 4.65 4.65 0 0 1 0 6.57 l -11.11 11 a 1.64 1.64 0 0 0 0 2.32 a 1.66 1.66 0 0 0 1.17 0.47 a 1.64 1.64 0 0 0 1.16 -0.47 L 58.26 47.87 a 4.65 4.65 0 0 1 6.57 0 a 4.65 4.65 0 0 1 0 6.57 l -11.12 11 a 1.65 1.65 0 0 0 2.34 2.33 l 13.29 -13.3 a 1.51 1.51 0 0 1 2.13 0 a 1.5 1.5 0 0 1 0 2.12 l -13.3 13.3 A 4.62 4.62 0 0 1 54.88 71.29 Z" fill="#9966ff" transform="scale(0.6) translate(-50 -50)"/><path d="M 43.81 29.28 a 4.15 4.15 0 0 1 2.94 7.08 l -11.12 11 A 2.14 2.14 0 0 0 35 48.91 a 2.14 2.14 0 0 0 3.66 1.52 L 49.75 39.36 a 4.14 4.14 0 0 1 5.86 5.86 L 44.49 56.27 a 2.13 2.13 0 0 0 -0.62 1.51 a 2.16 2.16 0 0 0 3.67 1.52 L 58.61 48.22 a 4.15 4.15 0 0 1 5.87 5.86 l -11.12 11 a 2.15 2.15 0 0 0 0 3 a 2.17 2.17 0 0 0 3 0 l 13.3 -13.3 a 1 1 0 1 1 1.41 1.42 L 57.81 69.57 a 4.13 4.13 0 0 1 -5.86 0 a 4.14 4.14 0 0 1 0 -5.86 l 11.12 -11 a 2.15 2.15 0 0 0 -3 -3 L 49 60.71 a 4.15 4.15 0 0 1 -5.87 -5.86 L 54.2 43.8 a 2.15 2.15 0 0 0 -3 -3 L 40.09 51.85 A 4.15 4.15 0 0 1 34.22 46 l 11.12 -11 a 2.15 2.15 0 0 0 -1.53 -3.66 a 2.09 2.09 0 0 0 -1.51 0.63 L 28.93 45.28 a 1 1 0 0 1 -1.42 0 a 1 1 0 0 1 0 -1.42 L 40.88 30.5 a 4.1 4.1 0 0 1 2.93 -1.22 m 0 -1 a 5.18 5.18 0 0 0 -3.64 1.51 L 26.81 43.16 a 2 2 0 0 0 1.41 3.41 A 2 2 0 0 0 29.64 46 L 43 32.62 a 1.14 1.14 0 0 1 0.81 -0.34 A 1.16 1.16 0 0 1 45 33.43 a 1.14 1.14 0 0 1 -0.33 0.8 L 33.52 45.28 a 5.14 5.14 0 1 0 7.27 7.27 L 51.87 41.48 a 1.13 1.13 0 0 1 0.81 -0.33 a 1.14 1.14 0 0 1 0.81 2 l -11.11 11 a 5.15 5.15 0 1 0 7.28 7.28 L 60.73 50.34 a 1.17 1.17 0 0 1 0.81 -0.32 A 1.14 1.14 0 0 1 62.36 52 L 51.24 63 a 5.15 5.15 0 0 0 3.64 8.79 a 5.11 5.11 0 0 0 3.64 -1.51 L 71.82 57 a 2 2 0 0 0 0 -2.83 a 2 2 0 0 0 -2.83 0 l -13.3 13.3 a 1.12 1.12 0 0 1 -0.81 0.33 a 1.15 1.15 0 0 1 -0.81 -0.33 a 1.13 1.13 0 0 1 0 -1.61 L 65.18 54.79 a 5.14 5.14 0 0 0 0 -7.27 a 5.14 5.14 0 0 0 -7.28 0 L 46.83 58.59 a 1.12 1.12 0 0 1 -0.81 0.32 a 1.11 1.11 0 0 1 -0.81 -0.32 a 1.15 1.15 0 0 1 0 -1.62 l 11.12 -11 A 5.15 5.15 0 0 0 49 38.65 L 38 49.73 a 1.15 1.15 0 0 1 -2 -0.82 a 1.14 1.14 0 0 1 0.33 -0.8 l 11.11 -11 a 5.14 5.14 0 0 0 0 -7.28 a 5.14 5.14 0 0 0 -3.64 -1.51 Z" fill="#9966ff" transform="scale(0.6) translate(-50 -50)"/></g><path d="M 1610.3573452083622 -734.609874746683 C 1390.0909657136492 -742.05163215857 1096.5968854135692 -737.9753254877354 876.622144458162 -724.4191080695967" fill="none" stroke="#aaa" stroke-width="2" marker-end="url(#Inhibitor)" stroke-linecap="round" onmouseover="BMA.SVGHelper.Highlight(this, window.ElementRegistry.LineWidth + 1)" onmouseout="BMA.SVGHelper.UnHighlight(this, window.ElementRegistry.LineWidth + 1)" data-id="18" data-ishovered="false"/><path d="M 876.7471324035789 -715.4199759995857 C 1097.0135118982919 -707.9782185876987 1390.5075921983719 -712.0545252585333 1610.4823331537789 -725.610742676672" fill="none" stroke="#aaa" stroke-width="2" marker-end="url(#Inhibitor)" stroke-linecap="round" onmouseover="BMA.SVGHelper.Highlight(this, window.ElementRegistry.LineWidth + 1)" onmouseout="BMA.SVGHelper.UnHighlight(this, window.ElementRegistry.LineWidth + 1)" data-id="19" data-ishovered="false"/><path d="M 1056.2109485065657 -590.899124361566 C 1045.380578167534 -580.659083377771 1044.9330350362932 -566.5614747436908 1055.092090678464 -555.6551027763655" fill="none" stroke="#aaa" stroke-width="2" marker-end="url(#Activator)" stroke-linecap="round" onmouseover="BMA.SVGHelper.Highlight(this, window.ElementRegistry.LineWidth + 1)" onmouseout="BMA.SVGHelper.UnHighlight(this, window.ElementRegistry.LineWidth + 1)" data-id="21" data-ishovered="false"/><path d="M 1064.0875589561224 -555.3695323548525 C 1074.9179292951542 -565.6095733386475 1075.365472426395 -579.7071819727277 1065.206416784224 -590.613553940053" fill="none" stroke="#aaa" stroke-width="2" marker-end="url(#Inhibitor)" stroke-linecap="round" onmouseover="BMA.SVGHelper.Highlight(this, window.ElementRegistry.LineWidth + 1)" onmouseout="BMA.SVGHelper.UnHighlight(this, window.ElementRegistry.LineWidth + 1)" data-id="22" data-ishovered="false"/><path d="M 1081.3709322373968 -606.3709641713571 C 1184.4216590654635 -596.5128209742551 1321.7354024482352 -597.3683583162039 1424.6552906943261 -608.5098075262289" fill="none" stroke="#aaa" stroke-width="2" marker-end="url(#Inhibitor)" stroke-linecap="round" onmouseover="BMA.SVGHelper.Highlight(this, window.ElementRegistry.LineWidth + 1)" onmouseout="BMA.SVGHelper.UnHighlight(this, window.ElementRegistry.LineWidth + 1)" data-id="23" data-ishovered="false"/><path d="M 1424.5992170163363 -617.509632843569 C 1321.5484901882696 -627.367776040671 1184.234746805498 -626.5122386987222 1081.314858559407 -615.3707894886971" fill="none" stroke="#aaa" stroke-width="2" marker-end="url(#Inhibitor)" stroke-linecap="round" onmouseover="BMA.SVGHelper.Highlight(this, window.ElementRegistry.LineWidth + 1)" onmouseout="BMA.SVGHelper.UnHighlight(this, window.ElementRegistry.LineWidth + 1)" data-id="24" data-ishovered="false"/><path d="M 1078.9552238805977 -531.0223880597017 C 1184.0895522388068 -520.5223880597017 1324.2686567164187 -520.5223880597017 1429.4029850746278 -531.0223880597017" fill="none" stroke="#aaa" stroke-width="2" marker-end="url(#Inhibitor)" stroke-linecap="round" onmouseover="BMA.SVGHelper.Highlight(this, window.ElementRegistry.LineWidth + 1)" onmouseout="BMA.SVGHelper.UnHighlight(this, window.ElementRegistry.LineWidth + 1)" data-id="25" data-ishovered="false"/><path d="M 1429.4029850746278 -540.0223880597017 C 1324.2686567164187 -550.5223880597017 1184.0895522388068 -550.5223880597017 1078.9552238805977 -540.0223880597017" fill="none" stroke="#aaa" stroke-width="2" marker-end="url(#Inhibitor)" stroke-linecap="round" onmouseover="BMA.SVGHelper.Highlight(this, window.ElementRegistry.LineWidth + 1)" onmouseout="BMA.SVGHelper.UnHighlight(this, window.ElementRegistry.LineWidth + 1)" data-id="26" data-ishovered="false"/><path d="M 1450.3468144646622 -593.4484911698844 C 1461.5227576927277 -582.787185343049 1462.4504491512287 -567.7121991424119 1452.6660431109142 -555.7610256682915" fill="none" stroke="#aaa" stroke-width="2" marker-end="url(#Activator)" stroke-linecap="round" onmouseover="BMA.SVGHelper.Highlight(this, window.ElementRegistry.LineWidth + 1)" onmouseout="BMA.SVGHelper.UnHighlight(this, window.ElementRegistry.LineWidth + 1)" data-id="27" data-ishovered="false"/><path d="M 1443.6830362816083 -555.2082252480266 C 1432.5070930535428 -565.8695310748619 1431.5794015950419 -580.944517275499 1441.3638076353564 -592.8956907496195" fill="none" stroke="#aaa" stroke-width="2" marker-end="url(#Inhibitor)" stroke-linecap="round" onmouseover="BMA.SVGHelper.Highlight(this, window.ElementRegistry.LineWidth + 1)" onmouseout="BMA.SVGHelper.UnHighlight(this, window.ElementRegistry.LineWidth + 1)" data-id="28" data-ishovered="false"/><path d="M 1081.8341555718257 -611.3579590197921 C 1188.4695512501085 -601.3825542405862 1327.9858274619796 -574.3378606979772 1430.6248461015034 -543.7462251632699" fill="none" stroke="#aaa" stroke-width="2" marker-end="url(#Inhibitor)" stroke-linecap="round" onmouseover="BMA.SVGHelper.Highlight(this, window.ElementRegistry.LineWidth + 1)" onmouseout="BMA.SVGHelper.UnHighlight(this, window.ElementRegistry.LineWidth + 1)" data-id="29" data-ishovered="false"/><path d="M 1428.9121130848926 -534.9106976966264 C 1322.2767174066098 -544.8861024758323 1182.7604411947386 -571.9307960184412 1080.1214225552148 -602.5224315531486" fill="none" stroke="#aaa" stroke-width="2" marker-end="url(#Inhibitor)" stroke-linecap="round" onmouseover="BMA.SVGHelper.Highlight(this, window.ElementRegistry.LineWidth + 1)" onmouseout="BMA.SVGHelper.UnHighlight(this, window.ElementRegistry.LineWidth + 1)" data-id="30" data-ishovered="false"/><path d="M 1424.1321603936158 -613.6002205848182 C 1318.1233507597276 -602.9776770835354 1179.5402381938973 -575.0894346167274 1077.67437897904 -543.8796144177983" fill="none" stroke="#aaa" stroke-width="2" marker-end="url(#Inhibitor)" stroke-linecap="round" onmouseover="BMA.SVGHelper.Highlight(this, window.ElementRegistry.LineWidth + 1)" onmouseout="BMA.SVGHelper.UnHighlight(this, window.ElementRegistry.LineWidth + 1)" data-id="31" data-ishovered="false"/><path d="M 1079.4499291586246 -535.0564958330928 C 1185.4587387925128 -545.6790393343756 1324.0418513583431 -573.5672818011835 1425.9077105732003 -604.7771020001127" fill="none" stroke="#aaa" stroke-width="2" marker-end="url(#Inhibitor)" stroke-linecap="round" onmouseover="BMA.SVGHelper.Highlight(this, window.ElementRegistry.LineWidth + 1)" onmouseout="BMA.SVGHelper.UnHighlight(this, window.ElementRegistry.LineWidth + 1)" data-id="32" data-ishovered="false"/><path d="M 1147.0149253731352 -424.7537313432838 C 1210.955223880598 -414.2537313432838 1296.2089552238815 -414.2537313432838 1360.1492537313443 -424.7537313432838" fill="none" stroke="#aaa" stroke-width="2" marker-end="url(#Inhibitor)" stroke-linecap="round" onmouseover="BMA.SVGHelper.Highlight(this, window.ElementRegistry.LineWidth + 1)" onmouseout="BMA.SVGHelper.UnHighlight(this, window.ElementRegistry.LineWidth + 1)" data-id="34" data-ishovered="false"/><path d="M 1360.1492537313443 -433.7537313432838 C 1296.2089552238815 -444.2537313432838 1210.955223880598 -444.2537313432838 1147.0149253731352 -433.7537313432838" fill="none" stroke="#aaa" stroke-width="2" marker-end="url(#Inhibitor)" stroke-linecap="round" onmouseover="BMA.SVGHelper.Highlight(this, window.ElementRegistry.LineWidth + 1)" onmouseout="BMA.SVGHelper.UnHighlight(this, window.ElementRegistry.LineWidth + 1)" data-id="35" data-ishovered="false"/><path d="M 1109.065479903528 -419.3508324074368 C 1092.0920419101024 -418.33282798749036 1078.749611636788 -406.50086151870204 1075.7094042202416 -389.7709162354659" fill="none" stroke="#aaa" stroke-width="2" marker-end="url(#Activator)" stroke-linecap="round" onmouseover="BMA.SVGHelper.Highlight(this, window.ElementRegistry.LineWidth + 1)" onmouseout="BMA.SVGHelper.UnHighlight(this, window.ElementRegistry.LineWidth + 1)" data-id="36" data-ishovered="false"/><path d="M 1398.0146076689664 -419.19991969379055 C 1414.4049997904756 -418.5565150942942 1426.882093168601 -407.30266616500455 1429.20734111428 -391.0652973705665" fill="none" stroke="#aaa" stroke-width="2" marker-end="url(#Activator)" stroke-linecap="round" onmouseover="BMA.SVGHelper.Highlight(this, window.ElementRegistry.LineWidth + 1)" onmouseout="BMA.SVGHelper.UnHighlight(this, window.ElementRegistry.LineWidth + 1)" data-id="38" data-ishovered="false"/><path d="M 1423.1794221817818 -384.38216985844866 C 1406.7890300602726 -385.025574457945 1394.3119366821472 -396.27942338723466 1391.986688736468 -412.5167921816727" fill="none" stroke="#aaa" stroke-width="2" marker-end="url(#Inhibitor)" stroke-linecap="round" onmouseover="BMA.SVGHelper.Highlight(this, window.ElementRegistry.LineWidth + 1)" onmouseout="BMA.SVGHelper.UnHighlight(this, window.ElementRegistry.LineWidth + 1)" data-id="39" data-ishovered="false"/><path d="M 1421.0306358278349 -378.7650448543471 C 1319.8033182092915 -388.9447578172076 1184.8778649601988 -388.51777853477375 1083.717002705103 -377.69759664826245" fill="none" stroke="#aaa" stroke-width="2" marker-end="url(#Inhibitor)" stroke-linecap="round" onmouseover="BMA.SVGHelper.Highlight(this, window.ElementRegistry.LineWidth + 1)" onmouseout="BMA.SVGHelper.UnHighlight(this, window.ElementRegistry.LineWidth + 1)" data-id="40" data-ishovered="false"/><path d="M 1083.7454835751519 -368.6976417128175 C 1184.9728011936952 -358.517928749957 1319.898254442788 -358.9449080323908 1421.0591166978838 -369.7650899189021" fill="none" stroke="#aaa" stroke-width="2" marker-end="url(#Inhibitor)" stroke-linecap="round" onmouseover="BMA.SVGHelper.Highlight(this, window.ElementRegistry.LineWidth + 1)" onmouseout="BMA.SVGHelper.UnHighlight(this, window.ElementRegistry.LineWidth + 1)" data-id="41" data-ishovered="false"/><path d="M 1147.4911552688309 -430.2406504172761 C 1231.6885936624217 -426.17349901463774 1341.5397921644983 -406.95998140590956 1422.1191515240223 -382.2068563954556" fill="none" stroke="#aaa" stroke-width="2" marker-end="url(#Inhibitor)" stroke-linecap="round" onmouseover="BMA.SVGHelper.Highlight(this, window.ElementRegistry.LineWidth + 1)" onmouseout="BMA.SVGHelper.UnHighlight(this, window.ElementRegistry.LineWidth + 1)" data-id="42" data-ishovered="false"/><path d="M 1420.5685462237082 -373.34143913496314 C 1336.3711078301174 -377.40859053760147 1226.5199093280407 -396.62210814632965 1145.9405499685167 -421.3752331567836" fill="none" stroke="#aaa" stroke-width="2" marker-end="url(#Inhibitor)" stroke-linecap="round" onmouseover="BMA.SVGHelper.Highlight(this, window.ElementRegistry.LineWidth + 1)" onmouseout="BMA.SVGHelper.UnHighlight(this, window.ElementRegistry.LineWidth + 1)" data-id="43" data-ishovered="false"/><path d="M 1084.2098637908052 -372.19613976561664 C 1169.153281859788 -376.59771066069993 1279.9663088801112 -396.25134186807804 1361.2424313416134 -421.3302177840618" fill="none" stroke="#aaa" stroke-width="2" marker-end="url(#Inhibitor)" stroke-linecap="round" onmouseover="BMA.SVGHelper.Highlight(this, window.ElementRegistry.LineWidth + 1)" onmouseout="BMA.SVGHelper.UnHighlight(this, window.ElementRegistry.LineWidth + 1)" data-id="44" data-ishovered="false"/><path d="M 1359.670733224122 -430.1919199358763 C 1274.727315155139 -425.790349040793 1163.9142881348157 -406.1367178334149 1082.6381656733138 -381.0578419174311" fill="none" stroke="#aaa" stroke-width="2" marker-end="url(#Inhibitor)" stroke-linecap="round" onmouseover="BMA.SVGHelper.Highlight(this, window.ElementRegistry.LineWidth + 1)" onmouseout="BMA.SVGHelper.UnHighlight(this, window.ElementRegistry.LineWidth + 1)" data-id="45" data-ishovered="false"/><path d="M 1025.2951415593411 -214.93380819537973 C 1144.2156106290017 -206.38724666435104 1302.546130156371 -208.9899401360338 1421.1214403777644 -221.44054187458667" fill="none" stroke="#aaa" stroke-width="2" marker-end="url(#Inhibitor)" stroke-linecap="round" onmouseover="BMA.SVGHelper.Highlight(this, window.ElementRegistry.LineWidth + 1)" onmouseout="BMA.SVGHelper.UnHighlight(this, window.ElementRegistry.LineWidth + 1)" data-id="49" data-ishovered="false"/><path d="M 1420.9735151570785 -230.43932613297872 C 1302.053046087418 -238.9858876640074 1143.7225265600487 -236.38319419232465 1025.1472163386552 -223.93259245377178" fill="none" stroke="#aaa" stroke-width="2" marker-end="url(#Inhibitor)" stroke-linecap="round" onmouseover="BMA.SVGHelper.Highlight(this, window.ElementRegistry.LineWidth + 1)" onmouseout="BMA.SVGHelper.UnHighlight(this, window.ElementRegistry.LineWidth + 1)" data-id="50" data-ishovered="false"/><path d="M 966.8176571128959 -151.79719293323075 C 1120.9211783016972 -144.9554367699355 1326.060020327479 -149.82914575974888 1479.6647621773507 -163.98146540776423" fill="none" stroke="#aaa" stroke-width="2" marker-end="url(#Inhibitor)" stroke-linecap="round" onmouseover="BMA.SVGHelper.Highlight(this, window.ElementRegistry.LineWidth + 1)" onmouseout="BMA.SVGHelper.UnHighlight(this, window.ElementRegistry.LineWidth + 1)" data-id="51" data-ishovered="false"/><path d="M 1479.4509996035238 -172.97892646975447 C 1325.3474784147224 -179.82068263304973 1120.2086363889405 -174.94697364323633 966.603894539069 -160.79465399522098" fill="none" stroke="#aaa" stroke-width="2" marker-end="url(#Inhibitor)" stroke-linecap="round" onmouseover="BMA.SVGHelper.Highlight(this, window.ElementRegistry.LineWidth + 1)" onmouseout="BMA.SVGHelper.UnHighlight(this, window.ElementRegistry.LineWidth + 1)" data-id="52" data-ishovered="false"/><path d="M 988.342550121664 -207.4738851342565 C 971.2267182996688 -204.42805606495526 958.6854181595317 -190.8629763215417 956.9892997713212 -173.56118577572258" fill="none" stroke="#aaa" stroke-width="2" marker-end="url(#Activator)" stroke-linecap="round" onmouseover="BMA.SVGHelper.Highlight(this, window.ElementRegistry.LineWidth + 1)" onmouseout="BMA.SVGHelper.UnHighlight(this, window.ElementRegistry.LineWidth + 1)" data-id="53" data-ishovered="false"/><path d="M 963.5977483858003 -167.45148800007203 C 980.7135802077954 -170.49731706937328 993.2548803479326 -184.06239681278683 994.9509987361431 -201.36418735860596" fill="none" stroke="#aaa" stroke-width="2" marker-end="url(#Inhibitor)" stroke-linecap="round" onmouseover="BMA.SVGHelper.Highlight(this, window.ElementRegistry.LineWidth + 1)" onmouseout="BMA.SVGHelper.UnHighlight(this, window.ElementRegistry.LineWidth + 1)" data-id="54" data-ishovered="false"/><path d="M 1458.4809570035802 -215.48767363627724 C 1474.8085810986217 -214.191766907767 1486.7818288712467 -202.46287113050172 1488.4140764351428 -186.16543419311398" fill="none" stroke="#aaa" stroke-width="2" marker-end="url(#Activator)" stroke-linecap="round" onmouseover="BMA.SVGHelper.Highlight(this, window.ElementRegistry.LineWidth + 1)" onmouseout="BMA.SVGHelper.UnHighlight(this, window.ElementRegistry.LineWidth + 1)" data-id="55" data-ishovered="false"/><path d="M 1482.116057921795 -179.7362069607379 C 1465.7884338267534 -181.03211368924812 1453.8151860541284 -192.7610094665134 1452.1829384902323 -209.05844640390114" fill="none" stroke="#aaa" stroke-width="2" marker-end="url(#Inhibitor)" stroke-linecap="round" onmouseover="BMA.SVGHelper.Highlight(this, window.ElementRegistry.LineWidth + 1)" onmouseout="BMA.SVGHelper.UnHighlight(this, window.ElementRegistry.LineWidth + 1)" data-id="56" data-ishovered="false"/><path d="M 1025.5759391902218 -221.56287363754552 C 1162.9955035366677 -218.1756528653668 1344.808552320144 -199.73085081486917 1480.1085611489125 -175.4508685113015" fill="none" stroke="#aaa" stroke-width="2" marker-end="url(#Inhibitor)" stroke-linecap="round" onmouseover="BMA.SVGHelper.Highlight(this, window.ElementRegistry.LineWidth + 1)" onmouseout="BMA.SVGHelper.UnHighlight(this, window.ElementRegistry.LineWidth + 1)" data-id="57" data-ishovered="false"/><path d="M 1479.2001802127652 -166.49682785499198 C 1341.7806158663193 -169.8840486271707 1159.9675670828433 -188.32885067766833 1024.6675582540745 -212.608832981236" fill="none" stroke="#aaa" stroke-width="2" marker-end="url(#Inhibitor)" stroke-linecap="round" onmouseover="BMA.SVGHelper.Highlight(this, window.ElementRegistry.LineWidth + 1)" onmouseout="BMA.SVGHelper.UnHighlight(this, window.ElementRegistry.LineWidth + 1)" data-id="58" data-ishovered="false"/><path d="M 967.1512527197026 -154.18763916819933 C 1105.0512019742046 -163.23395746722167 1286.9425890496657 -189.1556768813574 1421.879720408355 -218.99193770353872" fill="none" stroke="#aaa" stroke-width="2" marker-end="url(#Inhibitor)" stroke-linecap="round" onmouseover="BMA.SVGHelper.Highlight(this, window.ElementRegistry.LineWidth + 1)" onmouseout="BMA.SVGHelper.UnHighlight(this, window.ElementRegistry.LineWidth + 1)" data-id="59" data-ishovered="false"/><path d="M 1420.60994131015 -227.90191307060684 C 1282.7099920556477 -218.8555947715845 1100.8186049801866 -192.93387535744876 965.8814736214972 -163.09761453526744" fill="none" stroke="#aaa" stroke-width="2" marker-end="url(#Inhibitor)" stroke-linecap="round" onmouseover="BMA.SVGHelper.Highlight(this, window.ElementRegistry.LineWidth + 1)" onmouseout="BMA.SVGHelper.UnHighlight(this, window.ElementRegistry.LineWidth + 1)" data-id="60" data-ishovered="false"/><path d="M 1068.233904148109 -353.1349047249832 C 1078.7514719987946 -215.93505507000262 1078.7748959144772 -33.00012956570377 1068.292463937316 104.20240903576395" fill="none" stroke="#aaa" stroke-width="2" marker-end="url(#Activator)" stroke-linecap="round" onmouseover="BMA.SVGHelper.Highlight(this, window.ElementRegistry.LineWidth + 1)" onmouseout="BMA.SVGHelper.UnHighlight(this, window.ElementRegistry.LineWidth + 1)" data-id="82" data-ishovered="false"/><path d="M 1425.387884475274 -361.0953787997681 C 1311.081154938857 -227.4409756366354 1169.836057079441 -40.78715244412393 1072.2751398267337 105.5391791815106" fill="none" stroke="#aaa" stroke-width="2" marker-end="url(#Inhibitor)" stroke-linecap="round" onmouseover="BMA.SVGHelper.Highlight(this, window.ElementRegistry.LineWidth + 1)" onmouseout="BMA.SVGHelper.UnHighlight(this, window.ElementRegistry.LineWidth + 1)" data-id="100" data-ishovered="false"/><path d="M 1081.68078875319 -383.0372272940561 C 1098.6542267466157 -384.05523171400256 1111.9966570199301 -395.8871981827909 1115.0368644364764 -412.617143466027" fill="none" stroke="#aaa" stroke-width="2" marker-end="url(#Inhibitor)" stroke-linecap="round" onmouseover="BMA.SVGHelper.Highlight(this, window.ElementRegistry.LineWidth + 1)" onmouseout="BMA.SVGHelper.UnHighlight(this, window.ElementRegistry.LineWidth + 1)" data-id="106" data-ishovered="false"/><path d="M 961.4532537000016 -141.5704333926273 C 1032.3507043132993 -52.6954738182757 1115.176771596844 73.48688728835509 1168.518421908863 173.88546937394975" fill="none" stroke="#aaa" stroke-width="2" marker-end="url(#Activator)" stroke-linecap="round" onmouseover="BMA.SVGHelper.Highlight(this, window.ElementRegistry.LineWidth + 1)" onmouseout="BMA.SVGHelper.UnHighlight(this, window.ElementRegistry.LineWidth + 1)" data-id="114" data-ishovered="false"/><path d="M 1482.8645924129985 -157.0483998765604 C 1385.8923685038842 -64.38371347962291 1267.0308883852572 68.50272004533139 1185.7108921164313 175.16768393582532" fill="none" stroke="#aaa" stroke-width="2" marker-end="url(#Inhibitor)" stroke-linecap="round" onmouseover="BMA.SVGHelper.Highlight(this, window.ElementRegistry.LineWidth + 1)" onmouseout="BMA.SVGHelper.UnHighlight(this, window.ElementRegistry.LineWidth + 1)" data-id="115" data-ishovered="false"/><path d="M1463.0147619431484,-550.1756993060245L1616.806133579241,-715.7347484551698" fill="none" stroke="#aaa" stroke-width="2" marker-end="url(#Activator)" stroke-linecap="round" onmouseover="BMA.SVGHelper.Highlight(this, window.ElementRegistry.LineWidth + 1)" onmouseout="BMA.SVGHelper.UnHighlight(this, window.ElementRegistry.LineWidth + 1)" data-id="116" data-ishovered="false"/><path d="M1621.0264366284125,-712.7301940461966L1450.436249938753,-391.9862238642513" fill="none" stroke="#aaa" stroke-width="2" marker-end="url(#Inhibitor)" stroke-linecap="round" onmouseover="BMA.SVGHelper.Highlight(this, window.ElementRegistry.LineWidth + 1)" onmouseout="BMA.SVGHelper.UnHighlight(this, window.ElementRegistry.LineWidth + 1)" data-id="117" data-ishovered="false"/><path d="M866.9451444003524,-702.4731687037299L1053.4727660474098,-390.30295069925535" fill="none" stroke="#aaa" stroke-width="2" marker-end="url(#Inhibitor)" stroke-linecap="round" onmouseover="BMA.SVGHelper.Highlight(this, window.ElementRegistry.LineWidth + 1)" onmouseout="BMA.SVGHelper.UnHighlight(this, window.ElementRegistry.LineWidth + 1)" data-id="118" data-ishovered="false"/><path d="M1056.0801523740142,105.75086480935872L954.4312904120566,-137.36877525711964" fill="none" stroke="#aaa" stroke-width="2" marker-end="url(#Activator)" stroke-linecap="round" onmouseover="BMA.SVGHelper.Highlight(this, window.ElementRegistry.LineWidth + 1)" onmouseout="BMA.SVGHelper.UnHighlight(this, window.ElementRegistry.LineWidth + 1)" data-id="119" data-ishovered="false"/><path d="M1080.3892475552605,113.03912491523002L1482.958016126333,-157.7913637211999" fill="none" stroke="#aaa" stroke-width="2" marker-end="url(#Inhibitor)" stroke-linecap="round" onmouseover="BMA.SVGHelper.Highlight(this, window.ElementRegistry.LineWidth + 1)" onmouseout="BMA.SVGHelper.UnHighlight(this, window.ElementRegistry.LineWidth + 1)" data-id="121" data-ishovered="false"/><path d="M 1059.292464011096 104.20356144140128 C 1048.7748961604104 -32.99628821357932 1048.751472244728 -215.93121371787814 1059.2339042218891 -353.1337523193459" fill="none" stroke="#aaa" stroke-width="2" marker-end="url(#Inhibitor)" stroke-linecap="round" onmouseover="BMA.SVGHelper.Highlight(this, window.ElementRegistry.LineWidth + 1)" onmouseout="BMA.SVGHelper.UnHighlight(this, window.ElementRegistry.LineWidth + 1)" data-id="122" data-ishovered="false"/><path d="M 1079.451916519752 110.97000566543994 C 1193.758646056169 -22.6843974976928 1335.0037439155851 -209.33822069020428 1432.5646611682923 -355.6645523158388" fill="none" stroke="#aaa" stroke-width="2" marker-end="url(#Inhibitor)" stroke-linecap="round" onmouseover="BMA.SVGHelper.Highlight(this, window.ElementRegistry.LineWidth + 1)" onmouseout="BMA.SVGHelper.UnHighlight(this, window.ElementRegistry.LineWidth + 1)" data-id="123" data-ishovered="false"/><path d="M1066.0648121316076,104.33220084721015L1124.7451381171497,-409.3829471158667" fill="none" stroke="#aaa" stroke-width="2" marker-end="url(#Inhibitor)" stroke-linecap="round" onmouseover="BMA.SVGHelper.Highlight(this, window.ElementRegistry.LineWidth + 1)" onmouseout="BMA.SVGHelper.UnHighlight(this, window.ElementRegistry.LineWidth + 1)" data-id="124" data-ishovered="false"/><path d="M1073.7200089183716,106.83938257540004L1370.2242696885949,-411.8901288440566" fill="none" stroke="#aaa" stroke-width="2" marker-end="url(#Inhibitor)" stroke-linecap="round" onmouseover="BMA.SVGHelper.Highlight(this, window.ElementRegistry.LineWidth + 1)" onmouseout="BMA.SVGHelper.UnHighlight(this, window.ElementRegistry.LineWidth + 1)" data-id="125" data-ishovered="false"/><path d="M 1160.9945074940294 178.82416473591107 C 1090.0970568807315 89.94920516155946 1007.2709895971872 -36.23315594507133 953.929339285168 -136.63173803066599" fill="none" stroke="#aaa" stroke-width="2" marker-end="url(#Inhibitor)" stroke-linecap="round" onmouseover="BMA.SVGHelper.Highlight(this, window.ElementRegistry.LineWidth + 1)" onmouseout="BMA.SVGHelper.UnHighlight(this, window.ElementRegistry.LineWidth + 1)" data-id="126" data-ishovered="false"/><path d="M1168.0861989436303,174.59350763491918L1012.8690249369679,-200.6233583811877" fill="none" stroke="#aaa" stroke-width="2" marker-end="url(#Inhibitor)" stroke-linecap="round" onmouseover="BMA.SVGHelper.Highlight(this, window.ElementRegistry.LineWidth + 1)" onmouseout="BMA.SVGHelper.UnHighlight(this, window.ElementRegistry.LineWidth + 1)" data-id="127" data-ishovered="false"/><path d="M 1192.4189896765552 181.1678028616352 C 1289.3912135856694 88.50311646469771 1408.2526937042965 -44.38331706025659 1489.5726899731224 -151.04828095075052" fill="none" stroke="#aaa" stroke-width="2" marker-end="url(#Inhibitor)" stroke-linecap="round" onmouseover="BMA.SVGHelper.Highlight(this, window.ElementRegistry.LineWidth + 1)" onmouseout="BMA.SVGHelper.UnHighlight(this, window.ElementRegistry.LineWidth + 1)" data-id="128" data-ishovered="false"/><path d="M1186.4245983708859,176.17331639465044L1430.3515210321004,-209.3673462453966" fill="none" stroke="#aaa" stroke-width="2" marker-end="url(#Inhibitor)" stroke-linecap="round" onmouseover="BMA.SVGHelper.Highlight(this, window.ElementRegistry.LineWidth + 1)" onmouseout="BMA.SVGHelper.UnHighlight(this, window.ElementRegistry.LineWidth + 1)" data-id="129" data-ishovered="false"/><path d="M 1865.4864269769644 -305.8377244286757 C 1740.3131289478358 -361.4652768864523 1580.0648695773466 -447.9554333138121 1464.8657785507412 -522.0631154970755" fill="none" stroke="#aaa" stroke-width="2" marker-end="url(#Activator)" stroke-linecap="round" onmouseover="BMA.SVGHelper.Highlight(this, window.ElementRegistry.LineWidth + 1)" onmouseout="BMA.SVGHelper.UnHighlight(this, window.ElementRegistry.LineWidth + 1)" data-id="131" data-ishovered="false"/><path d="M 1864.7562066774992 -299.1477145515492 C 1741.613013053495 -309.026745727528 1579.7236740437645 -336.00830222914976 1460.0328591531727 -366.6016058056036" fill="none" stroke="#aaa" stroke-width="2" marker-end="url(#Activator)" stroke-linecap="round" onmouseover="BMA.SVGHelper.Highlight(this, window.ElementRegistry.LineWidth + 1)" onmouseout="BMA.SVGHelper.UnHighlight(this, window.ElementRegistry.LineWidth + 1)" data-id="132" data-ishovered="false"/><path d="M 1864.8409535234953 -298.1107497257516 C 1757.1138599174615 -272.5156957664223 1617.9909928654513 -225.13639119762635 1517.03378589347 -179.66248830376165" fill="none" stroke="#aaa" stroke-width="2" marker-end="url(#Activator)" stroke-linecap="round" onmouseover="BMA.SVGHelper.Highlight(this, window.ElementRegistry.LineWidth + 1)" onmouseout="BMA.SVGHelper.UnHighlight(this, window.ElementRegistry.LineWidth + 1)" data-id="133" data-ishovered="false"/><path d="M 1469.1404386946797 -529.9831710937127 C 1594.3137367238082 -474.3556186359362 1754.5619960942975 -387.8654622085763 1869.7610871209029 -313.7577800253129" fill="none" stroke="#aaa" stroke-width="2" marker-end="url(#Inhibitor)" stroke-linecap="round" onmouseover="BMA.SVGHelper.Highlight(this, window.ElementRegistry.LineWidth + 1)" onmouseout="BMA.SVGHelper.UnHighlight(this, window.ElementRegistry.LineWidth + 1)" data-id="134" data-ishovered="false"/><path d="M 1461.5124500389209 -375.4791511200929 C 1584.655643662925 -365.6001199441141 1746.5449826726556 -338.61856344249236 1866.2357975632474 -308.02525986603854" fill="none" stroke="#aaa" stroke-width="2" marker-end="url(#Inhibitor)" stroke-linecap="round" onmouseover="BMA.SVGHelper.Highlight(this, window.ElementRegistry.LineWidth + 1)" onmouseout="BMA.SVGHelper.UnHighlight(this, window.ElementRegistry.LineWidth + 1)" data-id="135" data-ishovered="false"/><path d="M 1519.9351658794922 -171.14298161753217 C 1627.662259485526 -196.73803557686145 1766.7851265375361 -244.11734014565747 1867.7423335095175 -289.59124303952217" fill="none" stroke="#aaa" stroke-width="2" marker-end="url(#Inhibitor)" stroke-linecap="round" onmouseover="BMA.SVGHelper.Highlight(this, window.ElementRegistry.LineWidth + 1)" onmouseout="BMA.SVGHelper.UnHighlight(this, window.ElementRegistry.LineWidth + 1)" data-id="136" data-ishovered="false"/><path d="M 667.5539165339972 -285.5899565812946 C 786.1668063529845 -347.34091248233733 936.8973409515896 -441.5474966064656 1044.3802530305102 -521.1064168916153" fill="none" stroke="#aaa" stroke-width="2" marker-end="url(#Activator)" stroke-linecap="round" onmouseover="BMA.SVGHelper.Highlight(this, window.ElementRegistry.LineWidth + 1)" onmouseout="BMA.SVGHelper.UnHighlight(this, window.ElementRegistry.LineWidth + 1)" data-id="138" data-ishovered="false"/><path d="M 668.7089176841883 -278.84520184557596 C 783.9878575491063 -294.2476902743847 934.5938066928843 -328.436971832886 1045.2237905436336 -364.31840574182934" fill="none" stroke="#aaa" stroke-width="2" marker-end="url(#Activator)" stroke-linecap="round" onmouseover="BMA.SVGHelper.Highlight(this, window.ElementRegistry.LineWidth + 1)" onmouseout="BMA.SVGHelper.UnHighlight(this, window.ElementRegistry.LineWidth + 1)" data-id="139" data-ishovered="false"/><path d="M 668.4151960892841 -275.34796059326385 C 750.8720430950757 -252.7319835481749 855.4814044007612 -209.63292669023247 929.9385993534977 -167.6003184484078" fill="none" stroke="#aaa" stroke-width="2" marker-end="url(#Activator)" stroke-linecap="round" onmouseover="BMA.SVGHelper.Highlight(this, window.ElementRegistry.LineWidth + 1)" onmouseout="BMA.SVGHelper.UnHighlight(this, window.ElementRegistry.LineWidth + 1)" data-id="140" data-ishovered="false"/><path d="M 1039.6102625704816 -528.738401627661 C 920.9973727514943 -466.9874457266183 770.2668381528891 -372.78086160248995 662.7839260739686 -293.22194131734034" fill="none" stroke="#aaa" stroke-width="2" marker-end="url(#Inhibitor)" stroke-linecap="round" onmouseover="BMA.SVGHelper.Highlight(this, window.ElementRegistry.LineWidth + 1)" onmouseout="BMA.SVGHelper.UnHighlight(this, window.ElementRegistry.LineWidth + 1)" data-id="141" data-ishovered="false"/><path d="M 1043.2313808232757 -373.09509666188706 C 927.9524409583578 -357.6926082330783 777.3464918145797 -323.503326674577 666.7165079638304 -287.6218927656337" fill="none" stroke="#aaa" stroke-width="2" marker-end="url(#Inhibitor)" stroke-linecap="round" onmouseover="BMA.SVGHelper.Highlight(this, window.ElementRegistry.LineWidth + 1)" onmouseout="BMA.SVGHelper.UnHighlight(this, window.ElementRegistry.LineWidth + 1)" data-id="142" data-ishovered="false"/><path d="M 926.5101770450456 -159.27890507837822 C 844.053330039254 -181.89488212346714 739.4439687335685 -224.99393898140957 664.986773780832 -267.0265472232342" fill="none" stroke="#aaa" stroke-width="2" marker-end="url(#Inhibitor)" stroke-linecap="round" onmouseover="BMA.SVGHelper.Highlight(this, window.ElementRegistry.LineWidth + 1)" onmouseout="BMA.SVGHelper.UnHighlight(this, window.ElementRegistry.LineWidth + 1)" data-id="143" data-ishovered="false"/><path d="M 668.2841106984313 -274.65408712192277 C 1027.5728040463982 -270.3949700488184 1506.3811886398546 -278.714034646002 1865.3050721820728 -295.45174861488175" fill="none" stroke="#aaa" stroke-width="2" marker-end="url(#Inhibitor)" stroke-linecap="round" onmouseover="BMA.SVGHelper.Highlight(this, window.ElementRegistry.LineWidth + 1)" onmouseout="BMA.SVGHelper.UnHighlight(this, window.ElementRegistry.LineWidth + 1)" data-id="144" data-ishovered="false"/><path d="M 1865.1487251224662 -304.4503904900178 C 1505.8600317744992 -308.7095075631222 1027.0516471810429 -300.3904429659386 668.1277636388247 -283.65272899705883" fill="none" stroke="#aaa" stroke-width="2" marker-end="url(#Inhibitor)" stroke-linecap="round" onmouseover="BMA.SVGHelper.Highlight(this, window.ElementRegistry.LineWidth + 1)" onmouseout="BMA.SVGHelper.UnHighlight(this, window.ElementRegistry.LineWidth + 1)" data-id="145" data-ishovered="false"/><g transform="translate(875, -420)"><text x="0" y="0" transform="translate(-345, -372)" font-size="54" font-family="OpenSans" src="local('Segoe UI'), local('Frutiger'), local('Frutiger Linotype'), local('Dejavu Sans'), local('Helvetica Neue'), local('HelveticaNeue'), local('Arial'), local('sans serif'), local('sans-serif')" fill="black">Posterior</text></g><g transform="translate(1625, -420)"><text x="0" y="0" transform="translate(-345, -372)" font-size="54" font-family="OpenSans" src="local('Segoe UI'), local('Frutiger'), local('Frutiger Linotype'), local('Dejavu Sans'), local('Helvetica Neue'), local('HelveticaNeue'), local('Arial'), local('sans serif'), local('sans-serif')" fill="black">Anterior</text></g><g transform="translate(1125, 140)"><text x="0" y="0" transform="translate(-115, -112)" font-size="18" font-family="OpenSans" src="local('Segoe UI'), local('Frutiger'), local('Frutiger Linotype'), local('Dejavu Sans'), local('Helvetica Neue'), local('HelveticaNeue'), local('Arial'), local('sans serif'), local('sans-serif')" fill="black">Posterior_effect</text></g><g transform="translate(856.6865671641793, -719.6417910447761)"><text x="0" y="0" transform="translate(-17.5, 33)" font-size="18" font-family="OpenSans" src="local('Segoe UI'), local('Frutiger'), local('Frutiger Linotype'), local('Dejavu Sans'), local('Helvetica Neue'), local('HelveticaNeue'), local('Arial'), local('sans serif'), local('sans-serif')" fill="black">PLK1_post</text></g><g transform="translate(1630.4179104477616, -730.3880597014926)"><text x="0" y="0" transform="translate(-17.5, 33)" font-size="18" font-family="OpenSans" src="local('Segoe UI'), local('Frutiger'), local('Frutiger Linotype'), local('Dejavu Sans'), local('Helvetica Neue'), local('HelveticaNeue'), local('Arial'), local('sans serif'), local('sans-serif')" fill="black">PLK1_ant</text></g><g transform="translate(1061.3432835820904, -610.7462686567168)"><text x="0" y="0" transform="translate(-17.5, 33)" font-size="18" font-family="OpenSans" src="local('Segoe UI'), local('Frutiger'), local('Frutiger Linotype'), local('Dejavu Sans'), local('Helvetica Neue'), local('HelveticaNeue'), local('Arial'), local('sans serif'), local('sans-serif')" fill="black">MEX5_post</text></g><g transform="translate(1444.6268656716427, -613.1343283582092)"><text x="0" y="0" transform="translate(-17.5, 33)" font-size="18" font-family="OpenSans" src="local('Segoe UI'), local('Frutiger'), local('Frutiger Linotype'), local('Dejavu Sans'), local('Helvetica Neue'), local('HelveticaNeue'), local('Arial'), local('sans serif'), local('sans-serif')" fill="black">MEX5_ant</text></g><g transform="translate(1058.9552238805977, -535.5223880597017)"><text x="0" y="0" transform="translate(-17.5, 33)" font-size="18" font-family="OpenSans" src="local('Segoe UI'), local('Frutiger'), local('Frutiger Linotype'), local('Dejavu Sans'), local('Helvetica Neue'), local('HelveticaNeue'), local('Arial'), local('sans serif'), local('sans-serif')" fill="black">MEX5_RNA_post</text></g><g transform="translate(1449.4029850746278, -535.5223880597017)"><text x="0" y="0" transform="translate(-17.5, 33)" font-size="18" font-family="OpenSans" src="local('Segoe UI'), local('Frutiger'), local('Frutiger Linotype'), local('Dejavu Sans'), local('Helvetica Neue'), local('HelveticaNeue'), local('Arial'), local('sans serif'), local('sans-serif')" fill="black">MEX5_RNA_ant</text></g><g transform="translate(1127.0149253731352, -429.2537313432838)"><text x="0" y="0" transform="translate(-17.5, 33)" font-size="18" font-family="OpenSans" src="local('Segoe UI'), local('Frutiger'), local('Frutiger Linotype'), local('Dejavu Sans'), local('Helvetica Neue'), local('HelveticaNeue'), local('Arial'), local('sans serif'), local('sans-serif')" fill="black">MEG3_post</text></g><g transform="translate(1380.1492537313443, -429.2537313432838)"><text x="0" y="0" transform="translate(-17.5, 33)" font-size="18" font-family="OpenSans" src="local('Segoe UI'), local('Frutiger'), local('Frutiger Linotype'), local('Dejavu Sans'), local('Helvetica Neue'), local('HelveticaNeue'), local('Arial'), local('sans serif'), local('sans-serif')" fill="black">MEG3_ant</text></g><g transform="translate(1063.7313432835829, -373.13432835820913)"><text x="0" y="0" transform="translate(-17.5, 33)" font-size="18" font-family="OpenSans" src="local('Segoe UI'), local('Frutiger'), local('Frutiger Linotype'), local('Dejavu Sans'), local('Helvetica Neue'), local('HelveticaNeue'), local('Arial'), local('sans serif'), local('sans-serif')" fill="black">MEG3_RNA_post</text></g><g transform="translate(1441.0447761194039, -374.3283582089554)"><text x="0" y="0" transform="translate(-17.5, 33)" font-size="18" font-family="OpenSans" src="local('Segoe UI'), local('Frutiger'), local('Frutiger Linotype'), local('Dejavu Sans'), local('Helvetica Neue'), local('HelveticaNeue'), local('Arial'), local('sans serif'), local('sans-serif')" fill="black">MEG3_RNA_ant</text></g><g transform="translate(1005.2238805970158, -219.1044776119404)"><text x="0" y="0" transform="translate(-17.5, 33)" font-size="18" font-family="OpenSans" src="local('Segoe UI'), local('Frutiger'), local('Frutiger Linotype'), local('Dejavu Sans'), local('Helvetica Neue'), local('HelveticaNeue'), local('Arial'), local('sans serif'), local('sans-serif')" fill="black">PGL3_post</text></g><g transform="translate(1441.0447761194039, -226.26865671641804)"><text x="0" y="0" transform="translate(-17.5, 33)" font-size="18" font-family="OpenSans" src="local('Segoe UI'), local('Frutiger'), local('Frutiger Linotype'), local('Dejavu Sans'), local('Helvetica Neue'), local('HelveticaNeue'), local('Arial'), local('sans serif'), local('sans-serif')" fill="black">PGL3_ant</text></g><g transform="translate(946.7164179104485, -155.82089552238813)"><text x="0" y="0" transform="translate(-17.5, 33)" font-size="18" font-family="OpenSans" src="local('Segoe UI'), local('Frutiger'), local('Frutiger Linotype'), local('Dejavu Sans'), local('Helvetica Neue'), local('HelveticaNeue'), local('Arial'), local('sans serif'), local('sans-serif')" fill="black">PGL3_RNA_post</text></g><g transform="translate(1499.5522388059712, -168.9552238805971)"><text x="0" y="0" transform="translate(-17.5, 33)" font-size="18" font-family="OpenSans" src="local('Segoe UI'), local('Frutiger'), local('Frutiger Linotype'), local('Dejavu Sans'), local('Helvetica Neue'), local('HelveticaNeue'), local('Arial'), local('sans serif'), local('sans-serif')" fill="black">PGL3_RNA_ant</text></g><g transform="translate(1063.7950248756222, 124.20298507462721)"><text x="0" y="0" transform="translate(-17.5, 33)" font-size="18" font-family="OpenSans" src="local('Segoe UI'), local('Frutiger'), local('Frutiger Linotype'), local('Dejavu Sans'), local('Helvetica Neue'), local('HelveticaNeue'), local('Arial'), local('sans serif'), local('sans-serif')" fill="black">MEG3_granule</text></g><g transform="translate(1175.7313432835824, 193.0746268656719)"><text x="0" y="0" transform="translate(-17.5, 33)" font-size="18" font-family="OpenSans" src="local('Segoe UI'), local('Frutiger'), local('Frutiger Linotype'), local('Dejavu Sans'), local('Helvetica Neue'), local('HelveticaNeue'), local('Arial'), local('sans serif'), local('sans-serif')" fill="black">PGL3_granule</text></g><g transform="translate(1885.2238805970162, -300.2985074626867)"><text x="0" y="0" transform="translate(-17.5, 33)" font-size="18" font-family="OpenSans" src="local('Segoe UI'), local('Frutiger'), local('Frutiger Linotype'), local('Dejavu Sans'), local('Helvetica Neue'), local('HelveticaNeue'), local('Arial'), local('sans serif'), local('sans-serif')" fill="black">RNA_ant</text></g><g transform="translate(648.2089552238812, -278.8059701492539)"><text x="0" y="0" transform="translate(-17.5, 33)" font-size="18" font-family="OpenSans" src="local('Segoe UI'), local('Frutiger'), local('Frutiger Linotype'), local('Dejavu Sans'), local('Helvetica Neue'), local('HelveticaNeue'), local('Arial'), local('sans serif'), local('sans-serif')" fill="black">RNA_post</text></g></svg>