<svg xmlns="http://www.w3.org/2000/svg" version="1.1" width="1704" height="938" viewBox="232.68656716417922 -840 2034.6268656716418 1120" preserveAspectRatio="none"><defs id="bmaDefs"><marker id="Activator" refX="3" refY="3" markerWidth="4" markerHeight="6" orient="auto" viewBox="0 0 4 6"><polyline points="1,1 3,3 1,5" fill="none" stroke="#aaa" stroke-width="1px" stroke-linecap="round" stroke-linejoin="round"/></marker><marker id="Inhibitor" refX="-0.5" refY="0" markerWidth="6" markerHeight="6" orient="auto" viewBox="-2 -4 4 8"><polyline points="0,1.5 0,-1.5" fill="none" stroke="#aaa" stroke-width="1px" stroke-linecap="round"/></marker><marker id="ActivatorSelected" refX="3" refY="3" markerWidth="4" markerHeight="6" orient="auto" viewBox="0 0 4 6"><polyline points="1,1 3,3 1,5" fill="none" stroke="#999999" stroke-width="1px" stroke-linecap="round" stroke-linejoin="round"/></marker><marker id="InhibitorSelected" refX="-0.5" refY="0" markerWidth="6" markerHeight="6" orient="auto" viewBox="-2 -4 4 8"><polyline points="0,1.5 0,-1.5" fill="none" stroke="#999999" stroke-width="1px" stroke-linecap="round"/></marker><marker id="ActivatorHighlighted" refX="3" refY="3" markerWidth="4" markerHeight="6" orient="auto" viewBox="0 0 4 6"><polyline points="1,1 3,3 1,5" fill="none" stroke="#33cc00" stroke-width="1px" stroke-linecap="round" stroke-linejoin="round"/></marker><marker id="InhibitorHighlighted" refX="-0.5" refY="0" markerWidth="6" markerHeight="6" orient="auto" viewBox="-2 -4 4 8"><polyline points="0,1.5 0,-1.5" fill="none" stroke="#33cc00" stroke-width="1px" stroke-linecap="round"/></marker></defs><g transform="translate(875, -420)"><rect x="-374.75" y="-419.72" width="749.5" height="839.44" stroke="none" fill="none"/><path d="M 640.36 249.05 c 113.22 0 205.33 106.84 205.33 238.16 S 753.58 725.37 640.36 725.37 S 435 618.53 435 487.21 s 92.11 -238.16 205.32 -238.16 m 0 -22.73 c -126 0 -228.06 116.8 -228.06 260.89 S 514.41 748.1 640.36 748.1 S 868.43 631.3 868.43 487.21 S 766.32 226.32 640.36 226.32 Z" stroke="#d0e9f0" stroke-width="2" fill="#d0e9f0" fill-rule="evenodd" transform="scale(1.56) translate(-640, -487)"/><ellipse cx="0" cy="0" rx="344" ry="396.5" stroke="none" fill="white"/></g><g transform="translate(1625, -420)"><rect x="-374.75" y="-419.72" width="749.5" height="839.44" stroke="none" fill="none"/><path d="M 640.36 249.05 c 113.22 0 205.33 106.84 205.33 238.16 S 753.58 725.37 640.36 725.37 S 435 618.53 435 487.21 s 92.11 -238.16 205.32 -238.16 m 0 -22.73 c -126 0 -228.06 116.8 -228.06 260.89 S 514.41 748.1 640.36 748.1 S 868.43 631.3 868.43 487.21 S 766.32 226.32 640.36 226.32 Z" stroke="#d0e9f0" stroke-width="2" fill="#d0e9f0" fill-rule="evenodd" transform="scale(1.56) translate(-640, -487)"/><ellipse cx="0" cy="0" rx="344" ry="396.5" stroke="none" fill="white"/></g><g transform="translate(1125, 140)"><rect x="-124.75" y="-139.72" width="249.5" height="279.44" stroke="none" fill="none"/><path d="M 640.36 249.05 c 113.22 0 205.33 106.84 205.33 238.16 S 753.58 725.37 640.36 725.37 S 435 618.53 435 487.21 s 92.11 -238.16 205.32 -238.16 m 0 -22.73 c -126 0 -228.06 116.8 -228.06 260.89 S 514.41 748.1 640.36 748.1 S 868.43 631.3 868.43 487.21 S 766.32 226.32 640.36 226.32 Z" stroke="#d0e9f0" stroke-width="2" fill="#d0e9f0" fill-rule="evenodd" transform="scale(0.52) translate(-640, -487)"/><ellipse cx="0" cy="0" rx="106" ry="123.5" stroke="none" fill="white"/></g><g transform="translate(906.0771219032335, -719.8872296052582)"><path d="M54.88 71.29 a 4.58 4.58 0 0 1 -3.28 -1.36 a 4.65 4.65 0 0 1 0 -6.57 l 11.11 -11 A 1.65 1.65 0 0 0 60.38 50 L 49.3 61.06 a 4.65 4.65 0 0 1 -7.93 -3.28 a 4.66 4.66 0 0 1 1.36 -3.29 l 11.12 -11 a 1.65 1.65 0 0 0 -1.17 -2.8 a 1.67 1.67 0 0 0 -1.17 0.48 L 40.44 52.2 a 4.65 4.65 0 0 1 -6.57 -6.57 L 45 34.59 a 1.63 1.63 0 0 0 0.48 -1.16 A 1.67 1.67 0 0 0 45 32.26 a 1.65 1.65 0 0 0 -1.17 -0.48 a 1.63 1.63 0 0 0 -1.16 0.48 L 29.28 45.63 a 1.5 1.5 0 1 1 -2.12 -2.12 L 40.53 30.14 a 4.65 4.65 0 0 1 7.93 3.29 a 4.58 4.58 0 0 1 -1.36 3.28 L 36 47.75 a 1.65 1.65 0 0 0 0 2.33 a 1.65 1.65 0 0 0 2.33 0 L 49.39 39 A 4.65 4.65 0 0 1 56 39 a 4.65 4.65 0 0 1 0 6.57 l -11.11 11 a 1.64 1.64 0 0 0 0 2.32 a 1.66 1.66 0 0 0 1.17 0.47 a 1.64 1.64 0 0 0 1.16 -0.47 L 58.26 47.87 a 4.65 4.65 0 0 1 6.57 0 a 4.65 4.65 0 0 1 0 6.57 l -11.12 11 a 1.65 1.65 0 0 0 2.34 2.33 l 13.29 -13.3 a 1.51 1.51 0 0 1 2.13 0 a 1.5 1.5 0 0 1 0 2.12 l -13.3 13.3 A 4.62 4.62 0 0 1 54.88 71.29 Z" fill="#f6c" transform="scale(0.6) translate(-50 -50)"/><path d="M 43.81 29.28 a 4.15 4.15 0 0 1 2.94 7.08 l -11.12 11 A 2.14 2.14 0 0 0 35 48.91 a 2.14 2.14 0 0 0 3.66 1.52 L 49.75 39.36 a 4.14 4.14 0 0 1 5.86 5.86 L 44.49 56.27 a 2.13 2.13 0 0 0 -0.62 1.51 a 2.16 2.16 0 0 0 3.67 1.52 L 58.61 48.22 a 4.15 4.15 0 0 1 5.87 5.86 l -11.12 11 a 2.15 2.15 0 0 0 0 3 a 2.17 2.17 0 0 0 3 0 l 13.3 -13.3 a 1 1 0 1 1 1.41 1.42 L 57.81 69.57 a 4.13 4.13 0 0 1 -5.86 0 a 4.14 4.14 0 0 1 0 -5.86 l 11.12 -11 a 2.15 2.15 0 0 0 -3 -3 L 49 60.71 a 4.15 4.15 0 0 1 -5.87 -5.86 L 54.2 43.8 a 2.15 2.15 0 0 0 -3 -3 L 40.09 51.85 A 4.15 4.15 0 0 1 34.22 46 l 11.12 -11 a 2.15 2.15 0 0 0 -1.53 -3.66 a 2.09 2.09 0 0 0 -1.51 0.63 L 28.93 45.28 a 1 1 0 0 1 -1.42 0 a 1 1 0 0 1 0 -1.42 L 40.88 30.5 a 4.1 4.1 0 0 1 2.93 -1.22 m 0 -1 a 5.18 5.18 0 0 0 -3.64 1.51 L 26.81 43.16 a 2 2 0 0 0 1.41 3.41 A 2 2 0 0 0 29.64 46 L 43 32.62 a 1.14 1.14 0 0 1 0.81 -0.34 A 1.16 1.16 0 0 1 45 33.43 a 1.14 1.14 0 0 1 -0.33 0.8 L 33.52 45.28 a 5.14 5.14 0 1 0 7.27 7.27 L 51.87 41.48 a 1.13 1.13 0 0 1 0.81 -0.33 a 1.14 1.14 0 0 1 0.81 2 l -11.11 11 a 5.15 5.15 0 1 0 7.28 7.28 L 60.73 50.34 a 1.17 1.17 0 0 1 0.81 -0.32 A 1.14 1.14 0 0 1 62.36 52 L 51.24 63 a 5.15 5.15 0 0 0 3.64 8.79 a 5.11 5.11 0 0 0 3.64 -1.51 L 71.82 57 a 2 2 0 0 0 0 -2.83 a 2 2 0 0 0 -2.83 0 l -13.3 13.3 a 1.12 1.12 0 0 1 -0.81 0.33 a 1.15 1.15 0 0 1 -0.81 -0.33 a 1.13 1.13 0 0 1 0 -1.61 L 65.18 54.79 a 5.14 5.14 0 0 0 0 -7.27 a 5.14 5.14 0 0 0 -7.28 0 L 46.83 58.59 a 1.12 1.12 0 0 1 -0.81 0.32 a 1.11 1.11 0 0 1 -0.81 -0.32 a 1.15 1.15 0 0 1 0 -1.62 l 11.12 -11 A 5.15 5.15 0 0 0 49 38.65 L 38 49.73 a 1.15 1.15 0 0 1 -2 -0.82 a 1.14 1.14 0 0 1 0.33 -0.8 l 11.11 -11 a 5.14 5.14 0 0 0 0 -7.28 a 5.14 5.14 0 0 0 -3.64 -1.51 Z" fill="#f6c" transform="scale(0.6) translate(-50 -50)"/></g><g transform="translate(1591.134431924556, -732.6206368547251)"><path d="M54.88 71.29 a 4.58 4.58 0 0 1 -3.28 -1.36 a 4.65 4.65 0 0 1 0 -6.57 l 11.11 -11 A 1.65 1.65 0 0 0 60.38 50 L 49.3 61.06 a 4.65 4.65 0 0 1 -7.93 -3.28 a 4.66 4.66 0 0 1 1.36 -3.29 l 11.12 -11 a 1.65 1.65 0 0 0 -1.17 -2.8 a 1.67 1.67 0 0 0 -1.17 0.48 L 40.44 52.2 a 4.65 4.65 0 0 1 -6.57 -6.57 L 45 34.59 a 1.63 1.63 0 0 0 0.48 -1.16 A 1.67 1.67 0 0 0 45 32.26 a 1.65 1.65 0 0 0 -1.17 -0.48 a 1.63 1.63 0 0 0 -1.16 0.48 L 29.28 45.63 a 1.5 1.5 0 1 1 -2.12 -2.12 L 40.53 30.14 a 4.65 4.65 0 0 1 7.93 3.29 a 4.58 4.58 0 0 1 -1.36 3.28 L 36 47.75 a 1.65 1.65 0 0 0 0 2.33 a 1.65 1.65 0 0 0 2.33 0 L 49.39 39 A 4.65 4.65 0 0 1 56 39 a 4.65 4.65 0 0 1 0 6.57 l -11.11 11 a 1.64 1.64 0 0 0 0 2.32 a 1.66 1.66 0 0 0 1.17 0.47 a 1.64 1.64 0 0 0 1.16 -0.47 L 58.26 47.87 a 4.65 4.65 0 0 1 6.57 0 a 4.65 4.65 0 0 1 0 6.57 l -11.12 11 a 1.65 1.65 0 0 0 2.34 2.33 l 13.29 -13.3 a 1.51 1.51 0 0 1 2.13 0 a 1.5 1.5 0 0 1 0 2.12 l -13.3 13.3 A 4.62 4.62 0 0 1 54.88 71.29 Z" fill="#f6c" transform="scale(0.6) translate(-50 -50)"/><path d="M 43.81 29.28 a 4.15 4.15 0 0 1 2.94 7.08 l -11.12 11 A 2.14 2.14 0 0 0 35 48.91 a 2.14 2.14 0 0 0 3.66 1.52 L 49.75 39.36 a 4.14 4.14 0 0 1 5.86 5.86 L 44.49 56.27 a 2.13 2.13 0 0 0 -0.62 1.51 a 2.16 2.16 0 0 0 3.67 1.52 L 58.61 48.22 a 4.15 4.15 0 0 1 5.87 5.86 l -11.12 11 a 2.15 2.15 0 0 0 0 3 a 2.17 2.17 0 0 0 3 0 l 13.3 -13.3 a 1 1 0 1 1 1.41 1.42 L 57.81 69.57 a 4.13 4.13 0 0 1 -5.86 0 a 4.14 4.14 0 0 1 0 -5.86 l 11.12 -11 a 2.15 2.15 0 0 0 -3 -3 L 49 60.71 a 4.15 4.15 0 0 1 -5.87 -5.86 L 54.2 43.8 a 2.15 2.15 0 0 0 -3 -3 L 40.09 51.85 A 4.15 4.15 0 0 1 34.22 46 l 11.12 -11 a 2.15 2.15 0 0 0 -1.53 -3.66 a 2.09 2.09 0 0 0 -1.51 0.63 L 28.93 45.28 a 1 1 0 0 1 -1.42 0 a 1 1 0 0 1 0 -1.42 L 40.88 30.5 a 4.1 4.1 0 0 1 2.93 -1.22 m 0 -1 a 5.18 5.18 0 0 0 -3.64 1.51 L 26.81 43.16 a 2 2 0 0 0 1.41 3.41 A 2 2 0 0 0 29.64 46 L 43 32.62 a 1.14 1.14 0 0 1 0.81 -0.34 A 1.16 1.16 0 0 1 45 33.43 a 1.14 1.14 0 0 1 -0.33 0.8 L 33.52 45.28 a 5.14 5.14 0 1 0 7.27 7.27 L 51.87 41.48 a 1.13 1.13 0 0 1 0.81 -0.33 a 1.14 1.14 0 0 1 0.81 2 l -11.11 11 a 5.15 5.15 0 1 0 7.28 7.28 L 60.73 50.34 a 1.17 1.17 0 0 1 0.81 -0.32 A 1.14 1.14 0 0 1 62.36 52 L 51.24 63 a 5.15 5.15 0 0 0 3.64 8.79 a 5.11 5.11 0 0 0 3.64 -1.51 L 71.82 57 a 2 2 0 0 0 0 -2.83 a 2 2 0 0 0 -2.83 0 l -13.3 13.3 a 1.12 1.12 0 0 1 -0.81 0.33 a 1.15 1.15 0 0 1 -0.81 -0.33 a 1.13 1.13 0 0 1 0 -1.61 L 65.18 54.79 a 5.14 5.14 0 0 0 0 -7.27 a 5.14 5.14 0 0 0 -7.28 0 L 46.83 58.59 a 1.12 1.12 0 0 1 -0.81 0.32 a 1.11 1.11 0 0 1 -0.81 -0.32 a 1.15 1.15 0 0 1 0 -1.62 l 11.12 -11 A 5.15 5.15 0 0 0 49 38.65 L 38 49.73 a 1.15 1.15 0 0 1 -2 -0.82 a 1.14 1.14 0 0 1 0.33 -0.8 l 11.11 -11 a 5.14 5.14 0 0 0 0 -7.28 a 5.14 5.14 0 0 0 -3.64 -1.51 Z" fill="#f6c" transform="scale(0.6) translate(-50 -50)"/></g><g transform="translate(900.9837590034467, -626.9333566841494)"><path d="M54.88 71.29 a 4.58 4.58 0 0 1 -3.28 -1.36 a 4.65 4.65 0 0 1 0 -6.57 l 11.11 -11 A 1.65 1.65 0 0 0 60.38 50 L 49.3 61.06 a 4.65 4.65 0 0 1 -7.93 -3.28 a 4.66 4.66 0 0 1 1.36 -3.29 l 11.12 -11 a 1.65 1.65 0 0 0 -1.17 -2.8 a 1.67 1.67 0 0 0 -1.17 0.48 L 40.44 52.2 a 4.65 4.65 0 0 1 -6.57 -6.57 L 45 34.59 a 1.63 1.63 0 0 0 0.48 -1.16 A 1.67 1.67 0 0 0 45 32.26 a 1.65 1.65 0 0 0 -1.17 -0.48 a 1.63 1.63 0 0 0 -1.16 0.48 L 29.28 45.63 a 1.5 1.5 0 1 1 -2.12 -2.12 L 40.53 30.14 a 4.65 4.65 0 0 1 7.93 3.29 a 4.58 4.58 0 0 1 -1.36 3.28 L 36 47.75 a 1.65 1.65 0 0 0 0 2.33 a 1.65 1.65 0 0 0 2.33 0 L 49.39 39 A 4.65 4.65 0 0 1 56 39 a 4.65 4.65 0 0 1 0 6.57 l -11.11 11 a 1.64 1.64 0 0 0 0 2.32 a 1.66 1.66 0 0 0 1.17 0.47 a 1.64 1.64 0 0 0 1.16 -0.47 L 58.26 47.87 a 4.65 4.65 0 0 1 6.57 0 a 4.65 4.65 0 0 1 0 6.57 l -11.12 11 a 1.65 1.65 0 0 0 2.34 2.33 l 13.29 -13.3 a 1.51 1.51 0 0 1 2.13 0 a 1.5 1.5 0 0 1 0 2.12 l -13.3 13.3 A 4.62 4.62 0 0 1 54.88 71.29 Z" fill="#ff9900" transform="scale(0.6) translate(-50 -50)"/><path d="M 43.81 29.28 a 4.15 4.15 0 0 1 2.94 7.08 l -11.12 11 A 2.14 2.14 0 0 0 35 48.91 a 2.14 2.14 0 0 0 3.66 1.52 L 49.75 39.36 a 4.14 4.14 0 0 1 5.86 5.86 L 44.49 56.27 a 2.13 2.13 0 0 0 -0.62 1.51 a 2.16 2.16 0 0 0 3.67 1.52 L 58.61 48.22 a 4.15 4.15 0 0 1 5.87 5.86 l -11.12 11 a 2.15 2.15 0 0 0 0 3 a 2.17 2.17 0 0 0 3 0 l 13.3 -13.3 a 1 1 0 1 1 1.41 1.42 L 57.81 69.57 a 4.13 4.13 0 0 1 -5.86 0 a 4.14 4.14 0 0 1 0 -5.86 l 11.12 -11 a 2.15 2.15 0 0 0 -3 -3 L 49 60.71 a 4.15 4.15 0 0 1 -5.87 -5.86 L 54.2 43.8 a 2.15 2.15 0 0 0 -3 -3 L 40.09 51.85 A 4.15 4.15 0 0 1 34.22 46 l 11.12 -11 a 2.15 2.15 0 0 0 -1.53 -3.66 a 2.09 2.09 0 0 0 -1.51 0.63 L 28.93 45.28 a 1 1 0 0 1 -1.42 0 a 1 1 0 0 1 0 -1.42 L 40.88 30.5 a 4.1 4.1 0 0 1 2.93 -1.22 m 0 -1 a 5.18 5.18 0 0 0 -3.64 1.51 L 26.81 43.16 a 2 2 0 0 0 1.41 3.41 A 2 2 0 0 0 29.64 46 L 43 32.62 a 1.14 1.14 0 0 1 0.81 -0.34 A 1.16 1.16 0 0 1 45 33.43 a 1.14 1.14 0 0 1 -0.33 0.8 L 33.52 45.28 a 5.14 5.14 0 1 0 7.27 7.27 L 51.87 41.48 a 1.13 1.13 0 0 1 0.81 -0.33 a 1.14 1.14 0 0 1 0.81 2 l -11.11 11 a 5.15 5.15 0 1 0 7.28 7.28 L 60.73 50.34 a 1.17 1.17 0 0 1 0.81 -0.32 A 1.14 1.14 0 0 1 62.36 52 L 51.24 63 a 5.15 5.15 0 0 0 3.64 8.79 a 5.11 5.11 0 0 0 3.64 -1.51 L 71.82 57 a 2 2 0 0 0 0 -2.83 a 2 2 0 0 0 -2.83 0 l -13.3 13.3 a 1.12 1.12 0 0 1 -0.81 0.33 a 1.15 1.15 0 0 1 -0.81 -0.33 a 1.13 1.13 0 0 1 0 -1.61 L 65.18 54.79 a 5.14 5.14 0 0 0 0 -7.27 a 5.14 5.14 0 0 0 -7.28 0 L 46.83 58.59 a 1.12 1.12 0 0 1 -0.81 0.32 a 1.11 1.11 0 0 1 -0.81 -0.32 a 1.15 1.15 0 0 1 0 -1.62 l 11.12 -11 A 5.15 5.15 0 0 0 49 38.65 L 38 49.73 a 1.15 1.15 0 0 1 -2 -0.82 a 1.14 1.14 0 0 1 0.33 -0.8 l 11.11 -11 a 5.14 5.14 0 0 0 0 -7.28 a 5.14 5.14 0 0 0 -3.64 -1.51 Z" fill="#ff9900" transform="scale(0.6) translate(-50 -50)"/></g><g transform="translate(1589.8610911996095, -626.9333566841494)"><path d="M54.88 71.29 a 4.58 4.58 0 0 1 -3.28 -1.36 a 4.65 4.65 0 0 1 0 -6.57 l 11.11 -11 A 1.65 1.65 0 0 0 60.38 50 L 49.3 61.06 a 4.65 4.65 0 0 1 -7.93 -3.28 a 4.66 4.66 0 0 1 1.36 -3.29 l 11.12 -11 a 1.65 1.65 0 0 0 -1.17 -2.8 a 1.67 1.67 0 0 0 -1.17 0.48 L 40.44 52.2 a 4.65 4.65 0 0 1 -6.57 -6.57 L 45 34.59 a 1.63 1.63 0 0 0 0.48 -1.16 A 1.67 1.67 0 0 0 45 32.26 a 1.65 1.65 0 0 0 -1.17 -0.48 a 1.63 1.63 0 0 0 -1.16 0.48 L 29.28 45.63 a 1.5 1.5 0 1 1 -2.12 -2.12 L 40.53 30.14 a 4.65 4.65 0 0 1 7.93 3.29 a 4.58 4.58 0 0 1 -1.36 3.28 L 36 47.75 a 1.65 1.65 0 0 0 0 2.33 a 1.65 1.65 0 0 0 2.33 0 L 49.39 39 A 4.65 4.65 0 0 1 56 39 a 4.65 4.65 0 0 1 0 6.57 l -11.11 11 a 1.64 1.64 0 0 0 0 2.32 a 1.66 1.66 0 0 0 1.17 0.47 a 1.64 1.64 0 0 0 1.16 -0.47 L 58.26 47.87 a 4.65 4.65 0 0 1 6.57 0 a 4.65 4.65 0 0 1 0 6.57 l -11.12 11 a 1.65 1.65 0 0 0 2.34 2.33 l 13.29 -13.3 a 1.51 1.51 0 0 1 2.13 0 a 1.5 1.5 0 0 1 0 2.12 l -13.3 13.3 A 4.62 4.62 0 0 1 54.88 71.29 Z" fill="#ff9900" transform="scale(0.6) translate(-50 -50)"/><path d="M 43.81 29.28 a 4.15 4.15 0 0 1 2.94 7.08 l -11.12 11 A 2.14 2.14 0 0 0 35 48.91 a 2.14 2.14 0 0 0 3.66 1.52 L 49.75 39.36 a 4.14 4.14 0 0 1 5.86 5.86 L 44.49 56.27 a 2.13 2.13 0 0 0 -0.62 1.51 a 2.16 2.16 0 0 0 3.67 1.52 L 58.61 48.22 a 4.15 4.15 0 0 1 5.87 5.86 l -11.12 11 a 2.15 2.15 0 0 0 0 3 a 2.17 2.17 0 0 0 3 0 l 13.3 -13.3 a 1 1 0 1 1 1.41 1.42 L 57.81 69.57 a 4.13 4.13 0 0 1 -5.86 0 a 4.14 4.14 0 0 1 0 -5.86 l 11.12 -11 a 2.15 2.15 0 0 0 -3 -3 L 49 60.71 a 4.15 4.15 0 0 1 -5.87 -5.86 L 54.2 43.8 a 2.15 2.15 0 0 0 -3 -3 L 40.09 51.85 A 4.15 4.15 0 0 1 34.22 46 l 11.12 -11 a 2.15 2.15 0 0 0 -1.53 -3.66 a 2.09 2.09 0 0 0 -1.51 0.63 L 28.93 45.28 a 1 1 0 0 1 -1.42 0 a 1 1 0 0 1 0 -1.42 L 40.88 30.5 a 4.1 4.1 0 0 1 2.93 -1.22 m 0 -1 a 5.18 5.18 0 0 0 -3.64 1.51 L 26.81 43.16 a 2 2 0 0 0 1.41 3.41 A 2 2 0 0 0 29.64 46 L 43 32.62 a 1.14 1.14 0 0 1 0.81 -0.34 A 1.16 1.16 0 0 1 45 33.43 a 1.14 1.14 0 0 1 -0.33 0.8 L 33.52 45.28 a 5.14 5.14 0 1 0 7.27 7.27 L 51.87 41.48 a 1.13 1.13 0 0 1 0.81 -0.33 a 1.14 1.14 0 0 1 0.81 2 l -11.11 11 a 5.15 5.15 0 1 0 7.28 7.28 L 60.73 50.34 a 1.17 1.17 0 0 1 0.81 -0.32 A 1.14 1.14 0 0 1 62.36 52 L 51.24 63 a 5.15 5.15 0 0 0 3.64 8.79 a 5.11 5.11 0 0 0 3.64 -1.51 L 71.82 57 a 2 2 0 0 0 0 -2.83 a 2 2 0 0 0 -2.83 0 l -13.3 13.3 a 1.12 1.12 0 0 1 -0.81 0.33 a 1.15 1.15 0 0 1 -0.81 -0.33 a 1.13 1.13 0 0 1 0 -1.61 L 65.18 54.79 a 5.14 5.14 0 0 0 0 -7.27 a 5.14 5.14 0 0 0 -7.28 0 L 46.83 58.59 a 1.12 1.12 0 0 1 -0.81 0.32 a 1.11 1.11 0 0 1 -0.81 -0.32 a 1.15 1.15 0 0 1 0 -1.62 l 11.12 -11 A 5.15 5.15 0 0 0 49 38.65 L 38 49.73 a 1.15 1.15 0 0 1 -2 -0.82 a 1.14 1.14 0 0 1 0.33 -0.8 l 11.11 -11 a 5.14 5.14 0 0 0 0 -7.28 a 5.14 5.14 0 0 0 -3.64 -1.51 Z" fill="#ff9900" transform="scale(0.6) translate(-50 -50)"/></g><g transform="translate(1080.5248012209308, -540.3461873877741)"><path d="M54.88 71.29 a 4.58 4.58 0 0 1 -3.28 -1.36 a 4.65 4.65 0 0 1 0 -6.57 l 11.11 -11 A 1.65 1.65 0 0 0 60.38 50 L 49.3 61.06 a 4.65 4.65 0 0 1 -7.93 -3.28 a 4.66 4.66 0 0 1 1.36 -3.29 l 11.12 -11 a 1.65 1.65 0 0 0 -1.17 -2.8 a 1.67 1.67 0 0 0 -1.17 0.48 L 40.44 52.2 a 4.65 4.65 0 0 1 -6.57 -6.57 L 45 34.59 a 1.63 1.63 0 0 0 0.48 -1.16 A 1.67 1.67 0 0 0 45 32.26 a 1.65 1.65 0 0 0 -1.17 -0.48 a 1.63 1.63 0 0 0 -1.16 0.48 L 29.28 45.63 a 1.5 1.5 0 1 1 -2.12 -2.12 L 40.53 30.14 a 4.65 4.65 0 0 1 7.93 3.29 a 4.58 4.58 0 0 1 -1.36 3.28 L 36 47.75 a 1.65 1.65 0 0 0 0 2.33 a 1.65 1.65 0 0 0 2.33 0 L 49.39 39 A 4.65 4.65 0 0 1 56 39 a 4.65 4.65 0 0 1 0 6.57 l -11.11 11 a 1.64 1.64 0 0 0 0 2.32 a 1.66 1.66 0 0 0 1.17 0.47 a 1.64 1.64 0 0 0 1.16 -0.47 L 58.26 47.87 a 4.65 4.65 0 0 1 6.57 0 a 4.65 4.65 0 0 1 0 6.57 l -11.12 11 a 1.65 1.65 0 0 0 2.34 2.33 l 13.29 -13.3 a 1.51 1.51 0 0 1 2.13 0 a 1.5 1.5 0 0 1 0 2.12 l -13.3 13.3 A 4.62 4.62 0 0 1 54.88 71.29 Z" fill="#f6c" transform="scale(0.6) translate(-50 -50)"/><path d="M 43.81 29.28 a 4.15 4.15 0 0 1 2.94 7.08 l -11.12 11 A 2.14 2.14 0 0 0 35 48.91 a 2.14 2.14 0 0 0 3.66 1.52 L 49.75 39.36 a 4.14 4.14 0 0 1 5.86 5.86 L 44.49 56.27 a 2.13 2.13 0 0 0 -0.62 1.51 a 2.16 2.16 0 0 0 3.67 1.52 L 58.61 48.22 a 4.15 4.15 0 0 1 5.87 5.86 l -11.12 11 a 2.15 2.15 0 0 0 0 3 a 2.17 2.17 0 0 0 3 0 l 13.3 -13.3 a 1 1 0 1 1 1.41 1.42 L 57.81 69.57 a 4.13 4.13 0 0 1 -5.86 0 a 4.14 4.14 0 0 1 0 -5.86 l 11.12 -11 a 2.15 2.15 0 0 0 -3 -3 L 49 60.71 a 4.15 4.15 0 0 1 -5.87 -5.86 L 54.2 43.8 a 2.15 2.15 0 0 0 -3 -3 L 40.09 51.85 A 4.15 4.15 0 0 1 34.22 46 l 11.12 -11 a 2.15 2.15 0 0 0 -1.53 -3.66 a 2.09 2.09 0 0 0 -1.51 0.63 L 28.93 45.28 a 1 1 0 0 1 -1.42 0 a 1 1 0 0 1 0 -1.42 L 40.88 30.5 a 4.1 4.1 0 0 1 2.93 -1.22 m 0 -1 a 5.18 5.18 0 0 0 -3.64 1.51 L 26.81 43.16 a 2 2 0 0 0 1.41 3.41 A 2 2 0 0 0 29.64 46 L 43 32.62 a 1.14 1.14 0 0 1 0.81 -0.34 A 1.16 1.16 0 0 1 45 33.43 a 1.14 1.14 0 0 1 -0.33 0.8 L 33.52 45.28 a 5.14 5.14 0 1 0 7.27 7.27 L 51.87 41.48 a 1.13 1.13 0 0 1 0.81 -0.33 a 1.14 1.14 0 0 1 0.81 2 l -11.11 11 a 5.15 5.15 0 1 0 7.28 7.28 L 60.73 50.34 a 1.17 1.17 0 0 1 0.81 -0.32 A 1.14 1.14 0 0 1 62.36 52 L 51.24 63 a 5.15 5.15 0 0 0 3.64 8.79 a 5.11 5.11 0 0 0 3.64 -1.51 L 71.82 57 a 2 2 0 0 0 0 -2.83 a 2 2 0 0 0 -2.83 0 l -13.3 13.3 a 1.12 1.12 0 0 1 -0.81 0.33 a 1.15 1.15 0 0 1 -0.81 -0.33 a 1.13 1.13 0 0 1 0 -1.61 L 65.18 54.79 a 5.14 5.14 0 0 0 0 -7.27 a 5.14 5.14 0 0 0 -7.28 0 L 46.83 58.59 a 1.12 1.12 0 0 1 -0.81 0.32 a 1.11 1.11 0 0 1 -0.81 -0.32 a 1.15 1.15 0 0 1 0 -1.62 l 11.12 -11 A 5.15 5.15 0 0 0 49 38.65 L 38 49.73 a 1.15 1.15 0 0 1 -2 -0.82 a 1.14 1.14 0 0 1 0.33 -0.8 l 11.11 -11 a 5.14 5.14 0 0 0 0 -7.28 a 5.14 5.14 0 0 0 -3.64 -1.51 Z" fill="#f6c" transform="scale(0.6) translate(-50 -50)"/></g><g transform="translate(1429.4201598563257, -537.7995059378807)"><path d="M54.88 71.29 a 4.58 4.58 0 0 1 -3.28 -1.36 a 4.65 4.65 0 0 1 0 -6.57 l 11.11 -11 A 1.65 1.65 0 0 0 60.38 50 L 49.3 61.06 a 4.65 4.65 0 0 1 -7.93 -3.28 a 4.66 4.66 0 0 1 1.36 -3.29 l 11.12 -11 a 1.65 1.65 0 0 0 -1.17 -2.8 a 1.67 1.67 0 0 0 -1.17 0.48 L 40.44 52.2 a 4.65 4.65 0 0 1 -6.57 -6.57 L 45 34.59 a 1.63 1.63 0 0 0 0.48 -1.16 A 1.67 1.67 0 0 0 45 32.26 a 1.65 1.65 0 0 0 -1.17 -0.48 a 1.63 1.63 0 0 0 -1.16 0.48 L 29.28 45.63 a 1.5 1.5 0 1 1 -2.12 -2.12 L 40.53 30.14 a 4.65 4.65 0 0 1 7.93 3.29 a 4.58 4.58 0 0 1 -1.36 3.28 L 36 47.75 a 1.65 1.65 0 0 0 0 2.33 a 1.65 1.65 0 0 0 2.33 0 L 49.39 39 A 4.65 4.65 0 0 1 56 39 a 4.65 4.65 0 0 1 0 6.57 l -11.11 11 a 1.64 1.64 0 0 0 0 2.32 a 1.66 1.66 0 0 0 1.17 0.47 a 1.64 1.64 0 0 0 1.16 -0.47 L 58.26 47.87 a 4.65 4.65 0 0 1 6.57 0 a 4.65 4.65 0 0 1 0 6.57 l -11.12 11 a 1.65 1.65 0 0 0 2.34 2.33 l 13.29 -13.3 a 1.51 1.51 0 0 1 2.13 0 a 1.5 1.5 0 0 1 0 2.12 l -13.3 13.3 A 4.62 4.62 0 0 1 54.88 71.29 Z" fill="#f6c" transform="scale(0.6) translate(-50 -50)"/><path d="M 43.81 29.28 a 4.15 4.15 0 0 1 2.94 7.08 l -11.12 11 A 2.14 2.14 0 0 0 35 48.91 a 2.14 2.14 0 0 0 3.66 1.52 L 49.75 39.36 a 4.14 4.14 0 0 1 5.86 5.86 L 44.49 56.27 a 2.13 2.13 0 0 0 -0.62 1.51 a 2.16 2.16 0 0 0 3.67 1.52 L 58.61 48.22 a 4.15 4.15 0 0 1 5.87 5.86 l -11.12 11 a 2.15 2.15 0 0 0 0 3 a 2.17 2.17 0 0 0 3 0 l 13.3 -13.3 a 1 1 0 1 1 1.41 1.42 L 57.81 69.57 a 4.13 4.13 0 0 1 -5.86 0 a 4.14 4.14 0 0 1 0 -5.86 l 11.12 -11 a 2.15 2.15 0 0 0 -3 -3 L 49 60.71 a 4.15 4.15 0 0 1 -5.87 -5.86 L 54.2 43.8 a 2.15 2.15 0 0 0 -3 -3 L 40.09 51.85 A 4.15 4.15 0 0 1 34.22 46 l 11.12 -11 a 2.15 2.15 0 0 0 -1.53 -3.66 a 2.09 2.09 0 0 0 -1.51 0.63 L 28.93 45.28 a 1 1 0 0 1 -1.42 0 a 1 1 0 0 1 0 -1.42 L 40.88 30.5 a 4.1 4.1 0 0 1 2.93 -1.22 m 0 -1 a 5.18 5.18 0 0 0 -3.64 1.51 L 26.81 43.16 a 2 2 0 0 0 1.41 3.41 A 2 2 0 0 0 29.64 46 L 43 32.62 a 1.14 1.14 0 0 1 0.81 -0.34 A 1.16 1.16 0 0 1 45 33.43 a 1.14 1.14 0 0 1 -0.33 0.8 L 33.52 45.28 a 5.14 5.14 0 1 0 7.27 7.27 L 51.87 41.48 a 1.13 1.13 0 0 1 0.81 -0.33 a 1.14 1.14 0 0 1 0.81 2 l -11.11 11 a 5.15 5.15 0 1 0 7.28 7.28 L 60.73 50.34 a 1.17 1.17 0 0 1 0.81 -0.32 A 1.14 1.14 0 0 1 62.36 52 L 51.24 63 a 5.15 5.15 0 0 0 3.64 8.79 a 5.11 5.11 0 0 0 3.64 -1.51 L 71.82 57 a 2 2 0 0 0 0 -2.83 a 2 2 0 0 0 -2.83 0 l -13.3 13.3 a 1.12 1.12 0 0 1 -0.81 0.33 a 1.15 1.15 0 0 1 -0.81 -0.33 a 1.13 1.13 0 0 1 0 -1.61 L 65.18 54.79 a 5.14 5.14 0 0 0 0 -7.27 a 5.14 5.14 0 0 0 -7.28 0 L 46.83 58.59 a 1.12 1.12 0 0 1 -0.81 0.32 a 1.11 1.11 0 0 1 -0.81 -0.32 a 1.15 1.15 0 0 1 0 -1.62 l 11.12 -11 A 5.15 5.15 0 0 0 49 38.65 L 38 49.73 a 1.15 1.15 0 0 1 -2 -0.82 a 1.14 1.14 0 0 1 0.33 -0.8 l 11.11 -11 a 5.14 5.14 0 0 0 0 -7.28 a 5.14 5.14 0 0 0 -3.64 -1.51 Z" fill="#f6c" transform="scale(0.6) translate(-50 -50)"/></g><g transform="translate(1088.164845570611, -456.3056995412921)"><path d="M54.88 71.29 a 4.58 4.58 0 0 1 -3.28 -1.36 a 4.65 4.65 0 0 1 0 -6.57 l 11.11 -11 A 1.65 1.65 0 0 0 60.38 50 L 49.3 61.06 a 4.65 4.65 0 0 1 -7.93 -3.28 a 4.66 4.66 0 0 1 1.36 -3.29 l 11.12 -11 a 1.65 1.65 0 0 0 -1.17 -2.8 a 1.67 1.67 0 0 0 -1.17 0.48 L 40.44 52.2 a 4.65 4.65 0 0 1 -6.57 -6.57 L 45 34.59 a 1.63 1.63 0 0 0 0.48 -1.16 A 1.67 1.67 0 0 0 45 32.26 a 1.65 1.65 0 0 0 -1.17 -0.48 a 1.63 1.63 0 0 0 -1.16 0.48 L 29.28 45.63 a 1.5 1.5 0 1 1 -2.12 -2.12 L 40.53 30.14 a 4.65 4.65 0 0 1 7.93 3.29 a 4.58 4.58 0 0 1 -1.36 3.28 L 36 47.75 a 1.65 1.65 0 0 0 0 2.33 a 1.65 1.65 0 0 0 2.33 0 L 49.39 39 A 4.65 4.65 0 0 1 56 39 a 4.65 4.65 0 0 1 0 6.57 l -11.11 11 a 1.64 1.64 0 0 0 0 2.32 a 1.66 1.66 0 0 0 1.17 0.47 a 1.64 1.64 0 0 0 1.16 -0.47 L 58.26 47.87 a 4.65 4.65 0 0 1 6.57 0 a 4.65 4.65 0 0 1 0 6.57 l -11.12 11 a 1.65 1.65 0 0 0 2.34 2.33 l 13.29 -13.3 a 1.51 1.51 0 0 1 2.13 0 a 1.5 1.5 0 0 1 0 2.12 l -13.3 13.3 A 4.62 4.62 0 0 1 54.88 71.29 Z" fill="#ff9900" transform="scale(0.6) translate(-50 -50)"/><path d="M 43.81 29.28 a 4.15 4.15 0 0 1 2.94 7.08 l -11.12 11 A 2.14 2.14 0 0 0 35 48.91 a 2.14 2.14 0 0 0 3.66 1.52 L 49.75 39.36 a 4.14 4.14 0 0 1 5.86 5.86 L 44.49 56.27 a 2.13 2.13 0 0 0 -0.62 1.51 a 2.16 2.16 0 0 0 3.67 1.52 L 58.61 48.22 a 4.15 4.15 0 0 1 5.87 5.86 l -11.12 11 a 2.15 2.15 0 0 0 0 3 a 2.17 2.17 0 0 0 3 0 l 13.3 -13.3 a 1 1 0 1 1 1.41 1.42 L 57.81 69.57 a 4.13 4.13 0 0 1 -5.86 0 a 4.14 4.14 0 0 1 0 -5.86 l 11.12 -11 a 2.15 2.15 0 0 0 -3 -3 L 49 60.71 a 4.15 4.15 0 0 1 -5.87 -5.86 L 54.2 43.8 a 2.15 2.15 0 0 0 -3 -3 L 40.09 51.85 A 4.15 4.15 0 0 1 34.22 46 l 11.12 -11 a 2.15 2.15 0 0 0 -1.53 -3.66 a 2.09 2.09 0 0 0 -1.51 0.63 L 28.93 45.28 a 1 1 0 0 1 -1.42 0 a 1 1 0 0 1 0 -1.42 L 40.88 30.5 a 4.1 4.1 0 0 1 2.93 -1.22 m 0 -1 a 5.18 5.18 0 0 0 -3.64 1.51 L 26.81 43.16 a 2 2 0 0 0 1.41 3.41 A 2 2 0 0 0 29.64 46 L 43 32.62 a 1.14 1.14 0 0 1 0.81 -0.34 A 1.16 1.16 0 0 1 45 33.43 a 1.14 1.14 0 0 1 -0.33 0.8 L 33.52 45.28 a 5.14 5.14 0 1 0 7.27 7.27 L 51.87 41.48 a 1.13 1.13 0 0 1 0.81 -0.33 a 1.14 1.14 0 0 1 0.81 2 l -11.11 11 a 5.15 5.15 0 1 0 7.28 7.28 L 60.73 50.34 a 1.17 1.17 0 0 1 0.81 -0.32 A 1.14 1.14 0 0 1 62.36 52 L 51.24 63 a 5.15 5.15 0 0 0 3.64 8.79 a 5.11 5.11 0 0 0 3.64 -1.51 L 71.82 57 a 2 2 0 0 0 0 -2.83 a 2 2 0 0 0 -2.83 0 l -13.3 13.3 a 1.12 1.12 0 0 1 -0.81 0.33 a 1.15 1.15 0 0 1 -0.81 -0.33 a 1.13 1.13 0 0 1 0 -1.61 L 65.18 54.79 a 5.14 5.14 0 0 0 0 -7.27 a 5.14 5.14 0 0 0 -7.28 0 L 46.83 58.59 a 1.12 1.12 0 0 1 -0.81 0.32 a 1.11 1.11 0 0 1 -0.81 -0.32 a 1.15 1.15 0 0 1 0 -1.62 l 11.12 -11 A 5.15 5.15 0 0 0 49 38.65 L 38 49.73 a 1.15 1.15 0 0 1 -2 -0.82 a 1.14 1.14 0 0 1 0.33 -0.8 l 11.11 -11 a 5.14 5.14 0 0 0 0 -7.28 a 5.14 5.14 0 0 0 -3.64 -1.51 Z" fill="#ff9900" transform="scale(0.6) translate(-50 -50)"/></g><g transform="translate(1428.146819131379, -465.219084615919)"><path d="M54.88 71.29 a 4.58 4.58 0 0 1 -3.28 -1.36 a 4.65 4.65 0 0 1 0 -6.57 l 11.11 -11 A 1.65 1.65 0 0 0 60.38 50 L 49.3 61.06 a 4.65 4.65 0 0 1 -7.93 -3.28 a 4.66 4.66 0 0 1 1.36 -3.29 l 11.12 -11 a 1.65 1.65 0 0 0 -1.17 -2.8 a 1.67 1.67 0 0 0 -1.17 0.48 L 40.44 52.2 a 4.65 4.65 0 0 1 -6.57 -6.57 L 45 34.59 a 1.63 1.63 0 0 0 0.48 -1.16 A 1.67 1.67 0 0 0 45 32.26 a 1.65 1.65 0 0 0 -1.17 -0.48 a 1.63 1.63 0 0 0 -1.16 0.48 L 29.28 45.63 a 1.5 1.5 0 1 1 -2.12 -2.12 L 40.53 30.14 a 4.65 4.65 0 0 1 7.93 3.29 a 4.58 4.58 0 0 1 -1.36 3.28 L 36 47.75 a 1.65 1.65 0 0 0 0 2.33 a 1.65 1.65 0 0 0 2.33 0 L 49.39 39 A 4.65 4.65 0 0 1 56 39 a 4.65 4.65 0 0 1 0 6.57 l -11.11 11 a 1.64 1.64 0 0 0 0 2.32 a 1.66 1.66 0 0 0 1.17 0.47 a 1.64 1.64 0 0 0 1.16 -0.47 L 58.26 47.87 a 4.65 4.65 0 0 1 6.57 0 a 4.65 4.65 0 0 1 0 6.57 l -11.12 11 a 1.65 1.65 0 0 0 2.34 2.33 l 13.29 -13.3 a 1.51 1.51 0 0 1 2.13 0 a 1.5 1.5 0 0 1 0 2.12 l -13.3 13.3 A 4.62 4.62 0 0 1 54.88 71.29 Z" fill="#ff9900" transform="scale(0.6) translate(-50 -50)"/><path d="M 43.81 29.28 a 4.15 4.15 0 0 1 2.94 7.08 l -11.12 11 A 2.14 2.14 0 0 0 35 48.91 a 2.14 2.14 0 0 0 3.66 1.52 L 49.75 39.36 a 4.14 4.14 0 0 1 5.86 5.86 L 44.49 56.27 a 2.13 2.13 0 0 0 -0.62 1.51 a 2.16 2.16 0 0 0 3.67 1.52 L 58.61 48.22 a 4.15 4.15 0 0 1 5.87 5.86 l -11.12 11 a 2.15 2.15 0 0 0 0 3 a 2.17 2.17 0 0 0 3 0 l 13.3 -13.3 a 1 1 0 1 1 1.41 1.42 L 57.81 69.57 a 4.13 4.13 0 0 1 -5.86 0 a 4.14 4.14 0 0 1 0 -5.86 l 11.12 -11 a 2.15 2.15 0 0 0 -3 -3 L 49 60.71 a 4.15 4.15 0 0 1 -5.87 -5.86 L 54.2 43.8 a 2.15 2.15 0 0 0 -3 -3 L 40.09 51.85 A 4.15 4.15 0 0 1 34.22 46 l 11.12 -11 a 2.15 2.15 0 0 0 -1.53 -3.66 a 2.09 2.09 0 0 0 -1.51 0.63 L 28.93 45.28 a 1 1 0 0 1 -1.42 0 a 1 1 0 0 1 0 -1.42 L 40.88 30.5 a 4.1 4.1 0 0 1 2.93 -1.22 m 0 -1 a 5.18 5.18 0 0 0 -3.64 1.51 L 26.81 43.16 a 2 2 0 0 0 1.41 3.41 A 2 2 0 0 0 29.64 46 L 43 32.62 a 1.14 1.14 0 0 1 0.81 -0.34 A 1.16 1.16 0 0 1 45 33.43 a 1.14 1.14 0 0 1 -0.33 0.8 L 33.52 45.28 a 5.14 5.14 0 1 0 7.27 7.27 L 51.87 41.48 a 1.13 1.13 0 0 1 0.81 -0.33 a 1.14 1.14 0 0 1 0.81 2 l -11.11 11 a 5.15 5.15 0 1 0 7.28 7.28 L 60.73 50.34 a 1.17 1.17 0 0 1 0.81 -0.32 A 1.14 1.14 0 0 1 62.36 52 L 51.24 63 a 5.15 5.15 0 0 0 3.64 8.79 a 5.11 5.11 0 0 0 3.64 -1.51 L 71.82 57 a 2 2 0 0 0 0 -2.83 a 2 2 0 0 0 -2.83 0 l -13.3 13.3 a 1.12 1.12 0 0 1 -0.81 0.33 a 1.15 1.15 0 0 1 -0.81 -0.33 a 1.13 1.13 0 0 1 0 -1.61 L 65.18 54.79 a 5.14 5.14 0 0 0 0 -7.27 a 5.14 5.14 0 0 0 -7.28 0 L 46.83 58.59 a 1.12 1.12 0 0 1 -0.81 0.32 a 1.11 1.11 0 0 1 -0.81 -0.32 a 1.15 1.15 0 0 1 0 -1.62 l 11.12 -11 A 5.15 5.15 0 0 0 49 38.65 L 38 49.73 a 1.15 1.15 0 0 1 -2 -0.82 a 1.14 1.14 0 0 1 0.33 -0.8 l 11.11 -11 a 5.14 5.14 0 0 0 0 -7.28 a 5.14 5.14 0 0 0 -3.64 -1.51 Z" fill="#ff9900" transform="scale(0.6) translate(-50 -50)"/></g><g transform="translate(1002.8510169991824, -275.49131659886126)"><path d="M54.88 71.29 a 4.58 4.58 0 0 1 -3.28 -1.36 a 4.65 4.65 0 0 1 0 -6.57 l 11.11 -11 A 1.65 1.65 0 0 0 60.38 50 L 49.3 61.06 a 4.65 4.65 0 0 1 -7.93 -3.28 a 4.66 4.66 0 0 1 1.36 -3.29 l 11.12 -11 a 1.65 1.65 0 0 0 -1.17 -2.8 a 1.67 1.67 0 0 0 -1.17 0.48 L 40.44 52.2 a 4.65 4.65 0 0 1 -6.57 -6.57 L 45 34.59 a 1.63 1.63 0 0 0 0.48 -1.16 A 1.67 1.67 0 0 0 45 32.26 a 1.65 1.65 0 0 0 -1.17 -0.48 a 1.63 1.63 0 0 0 -1.16 0.48 L 29.28 45.63 a 1.5 1.5 0 1 1 -2.12 -2.12 L 40.53 30.14 a 4.65 4.65 0 0 1 7.93 3.29 a 4.58 4.58 0 0 1 -1.36 3.28 L 36 47.75 a 1.65 1.65 0 0 0 0 2.33 a 1.65 1.65 0 0 0 2.33 0 L 49.39 39 A 4.65 4.65 0 0 1 56 39 a 4.65 4.65 0 0 1 0 6.57 l -11.11 11 a 1.64 1.64 0 0 0 0 2.32 a 1.66 1.66 0 0 0 1.17 0.47 a 1.64 1.64 0 0 0 1.16 -0.47 L 58.26 47.87 a 4.65 4.65 0 0 1 6.57 0 a 4.65 4.65 0 0 1 0 6.57 l -11.12 11 a 1.65 1.65 0 0 0 2.34 2.33 l 13.29 -13.3 a 1.51 1.51 0 0 1 2.13 0 a 1.5 1.5 0 0 1 0 2.12 l -13.3 13.3 A 4.62 4.62 0 0 1 54.88 71.29 Z" fill="#f6c" transform="scale(0.6) translate(-50 -50)"/><path d="M 43.81 29.28 a 4.15 4.15 0 0 1 2.94 7.08 l -11.12 11 A 2.14 2.14 0 0 0 35 48.91 a 2.14 2.14 0 0 0 3.66 1.52 L 49.75 39.36 a 4.14 4.14 0 0 1 5.86 5.86 L 44.49 56.27 a 2.13 2.13 0 0 0 -0.62 1.51 a 2.16 2.16 0 0 0 3.67 1.52 L 58.61 48.22 a 4.15 4.15 0 0 1 5.87 5.86 l -11.12 11 a 2.15 2.15 0 0 0 0 3 a 2.17 2.17 0 0 0 3 0 l 13.3 -13.3 a 1 1 0 1 1 1.41 1.42 L 57.81 69.57 a 4.13 4.13 0 0 1 -5.86 0 a 4.14 4.14 0 0 1 0 -5.86 l 11.12 -11 a 2.15 2.15 0 0 0 -3 -3 L 49 60.71 a 4.15 4.15 0 0 1 -5.87 -5.86 L 54.2 43.8 a 2.15 2.15 0 0 0 -3 -3 L 40.09 51.85 A 4.15 4.15 0 0 1 34.22 46 l 11.12 -11 a 2.15 2.15 0 0 0 -1.53 -3.66 a 2.09 2.09 0 0 0 -1.51 0.63 L 28.93 45.28 a 1 1 0 0 1 -1.42 0 a 1 1 0 0 1 0 -1.42 L 40.88 30.5 a 4.1 4.1 0 0 1 2.93 -1.22 m 0 -1 a 5.18 5.18 0 0 0 -3.64 1.51 L 26.81 43.16 a 2 2 0 0 0 1.41 3.41 A 2 2 0 0 0 29.64 46 L 43 32.62 a 1.14 1.14 0 0 1 0.81 -0.34 A 1.16 1.16 0 0 1 45 33.43 a 1.14 1.14 0 0 1 -0.33 0.8 L 33.52 45.28 a 5.14 5.14 0 1 0 7.27 7.27 L 51.87 41.48 a 1.13 1.13 0 0 1 0.81 -0.33 a 1.14 1.14 0 0 1 0.81 2 l -11.11 11 a 5.15 5.15 0 1 0 7.28 7.28 L 60.73 50.34 a 1.17 1.17 0 0 1 0.81 -0.32 A 1.14 1.14 0 0 1 62.36 52 L 51.24 63 a 5.15 5.15 0 0 0 3.64 8.79 a 5.11 5.11 0 0 0 3.64 -1.51 L 71.82 57 a 2 2 0 0 0 0 -2.83 a 2 2 0 0 0 -2.83 0 l -13.3 13.3 a 1.12 1.12 0 0 1 -0.81 0.33 a 1.15 1.15 0 0 1 -0.81 -0.33 a 1.13 1.13 0 0 1 0 -1.61 L 65.18 54.79 a 5.14 5.14 0 0 0 0 -7.27 a 5.14 5.14 0 0 0 -7.28 0 L 46.83 58.59 a 1.12 1.12 0 0 1 -0.81 0.32 a 1.11 1.11 0 0 1 -0.81 -0.32 a 1.15 1.15 0 0 1 0 -1.62 l 11.12 -11 A 5.15 5.15 0 0 0 49 38.65 L 38 49.73 a 1.15 1.15 0 0 1 -2 -0.82 a 1.14 1.14 0 0 1 0.33 -0.8 l 11.11 -11 a 5.14 5.14 0 0 0 0 -7.28 a 5.14 5.14 0 0 0 -3.64 -1.51 Z" fill="#f6c" transform="scale(0.6) translate(-50 -50)"/></g><g transform="translate(1516.007329152701, -284.40470167348815)"><path d="M54.88 71.29 a 4.58 4.58 0 0 1 -3.28 -1.36 a 4.65 4.65 0 0 1 0 -6.57 l 11.11 -11 A 1.65 1.65 0 0 0 60.38 50 L 49.3 61.06 a 4.65 4.65 0 0 1 -7.93 -3.28 a 4.66 4.66 0 0 1 1.36 -3.29 l 11.12 -11 a 1.65 1.65 0 0 0 -1.17 -2.8 a 1.67 1.67 0 0 0 -1.17 0.48 L 40.44 52.2 a 4.65 4.65 0 0 1 -6.57 -6.57 L 45 34.59 a 1.63 1.63 0 0 0 0.48 -1.16 A 1.67 1.67 0 0 0 45 32.26 a 1.65 1.65 0 0 0 -1.17 -0.48 a 1.63 1.63 0 0 0 -1.16 0.48 L 29.28 45.63 a 1.5 1.5 0 1 1 -2.12 -2.12 L 40.53 30.14 a 4.65 4.65 0 0 1 7.93 3.29 a 4.58 4.58 0 0 1 -1.36 3.28 L 36 47.75 a 1.65 1.65 0 0 0 0 2.33 a 1.65 1.65 0 0 0 2.33 0 L 49.39 39 A 4.65 4.65 0 0 1 56 39 a 4.65 4.65 0 0 1 0 6.57 l -11.11 11 a 1.64 1.64 0 0 0 0 2.32 a 1.66 1.66 0 0 0 1.17 0.47 a 1.64 1.64 0 0 0 1.16 -0.47 L 58.26 47.87 a 4.65 4.65 0 0 1 6.57 0 a 4.65 4.65 0 0 1 0 6.57 l -11.12 11 a 1.65 1.65 0 0 0 2.34 2.33 l 13.29 -13.3 a 1.51 1.51 0 0 1 2.13 0 a 1.5 1.5 0 0 1 0 2.12 l -13.3 13.3 A 4.62 4.62 0 0 1 54.88 71.29 Z" fill="#f6c" transform="scale(0.6) translate(-50 -50)"/><path d="M 43.81 29.28 a 4.15 4.15 0 0 1 2.94 7.08 l -11.12 11 A 2.14 2.14 0 0 0 35 48.91 a 2.14 2.14 0 0 0 3.66 1.52 L 49.75 39.36 a 4.14 4.14 0 0 1 5.86 5.86 L 44.49 56.27 a 2.13 2.13 0 0 0 -0.62 1.51 a 2.16 2.16 0 0 0 3.67 1.52 L 58.61 48.22 a 4.15 4.15 0 0 1 5.87 5.86 l -11.12 11 a 2.15 2.15 0 0 0 0 3 a 2.17 2.17 0 0 0 3 0 l 13.3 -13.3 a 1 1 0 1 1 1.41 1.42 L 57.81 69.57 a 4.13 4.13 0 0 1 -5.86 0 a 4.14 4.14 0 0 1 0 -5.86 l 11.12 -11 a 2.15 2.15 0 0 0 -3 -3 L 49 60.71 a 4.15 4.15 0 0 1 -5.87 -5.86 L 54.2 43.8 a 2.15 2.15 0 0 0 -3 -3 L 40.09 51.85 A 4.15 4.15 0 0 1 34.22 46 l 11.12 -11 a 2.15 2.15 0 0 0 -1.53 -3.66 a 2.09 2.09 0 0 0 -1.51 0.63 L 28.93 45.28 a 1 1 0 0 1 -1.42 0 a 1 1 0 0 1 0 -1.42 L 40.88 30.5 a 4.1 4.1 0 0 1 2.93 -1.22 m 0 -1 a 5.18 5.18 0 0 0 -3.64 1.51 L 26.81 43.16 a 2 2 0 0 0 1.41 3.41 A 2 2 0 0 0 29.64 46 L 43 32.62 a 1.14 1.14 0 0 1 0.81 -0.34 A 1.16 1.16 0 0 1 45 33.43 a 1.14 1.14 0 0 1 -0.33 0.8 L 33.52 45.28 a 5.14 5.14 0 1 0 7.27 7.27 L 51.87 41.48 a 1.13 1.13 0 0 1 0.81 -0.33 a 1.14 1.14 0 0 1 0.81 2 l -11.11 11 a 5.15 5.15 0 1 0 7.28 7.28 L 60.73 50.34 a 1.17 1.17 0 0 1 0.81 -0.32 A 1.14 1.14 0 0 1 62.36 52 L 51.24 63 a 5.15 5.15 0 0 0 3.64 8.79 a 5.11 5.11 0 0 0 3.64 -1.51 L 71.82 57 a 2 2 0 0 0 0 -2.83 a 2 2 0 0 0 -2.83 0 l -13.3 13.3 a 1.12 1.12 0 0 1 -0.81 0.33 a 1.15 1.15 0 0 1 -0.81 -0.33 a 1.13 1.13 0 0 1 0 -1.61 L 65.18 54.79 a 5.14 5.14 0 0 0 0 -7.27 a 5.14 5.14 0 0 0 -7.28 0 L 46.83 58.59 a 1.12 1.12 0 0 1 -0.81 0.32 a 1.11 1.11 0 0 1 -0.81 -0.32 a 1.15 1.15 0 0 1 0 -1.62 l 11.12 -11 A 5.15 5.15 0 0 0 49 38.65 L 38 49.73 a 1.15 1.15 0 0 1 -2 -0.82 a 1.14 1.14 0 0 1 0.33 -0.8 l 11.11 -11 a 5.14 5.14 0 0 0 0 -7.28 a 5.14 5.14 0 0 0 -3.64 -1.51 Z" fill="#f6c" transform="scale(0.6) translate(-50 -50)"/></g><g transform="translate(1005.3976984490758, -205.45757672679298)"><path d="M54.88 71.29 a 4.58 4.58 0 0 1 -3.28 -1.36 a 4.65 4.65 0 0 1 0 -6.57 l 11.11 -11 A 1.65 1.65 0 0 0 60.38 50 L 49.3 61.06 a 4.65 4.65 0 0 1 -7.93 -3.28 a 4.66 4.66 0 0 1 1.36 -3.29 l 11.12 -11 a 1.65 1.65 0 0 0 -1.17 -2.8 a 1.67 1.67 0 0 0 -1.17 0.48 L 40.44 52.2 a 4.65 4.65 0 0 1 -6.57 -6.57 L 45 34.59 a 1.63 1.63 0 0 0 0.48 -1.16 A 1.67 1.67 0 0 0 45 32.26 a 1.65 1.65 0 0 0 -1.17 -0.48 a 1.63 1.63 0 0 0 -1.16 0.48 L 29.28 45.63 a 1.5 1.5 0 1 1 -2.12 -2.12 L 40.53 30.14 a 4.65 4.65 0 0 1 7.93 3.29 a 4.58 4.58 0 0 1 -1.36 3.28 L 36 47.75 a 1.65 1.65 0 0 0 0 2.33 a 1.65 1.65 0 0 0 2.33 0 L 49.39 39 A 4.65 4.65 0 0 1 56 39 a 4.65 4.65 0 0 1 0 6.57 l -11.11 11 a 1.64 1.64 0 0 0 0 2.32 a 1.66 1.66 0 0 0 1.17 0.47 a 1.64 1.64 0 0 0 1.16 -0.47 L 58.26 47.87 a 4.65 4.65 0 0 1 6.57 0 a 4.65 4.65 0 0 1 0 6.57 l -11.12 11 a 1.65 1.65 0 0 0 2.34 2.33 l 13.29 -13.3 a 1.51 1.51 0 0 1 2.13 0 a 1.5 1.5 0 0 1 0 2.12 l -13.3 13.3 A 4.62 4.62 0 0 1 54.88 71.29 Z" fill="#ff9900" transform="scale(0.6) translate(-50 -50)"/><path d="M 43.81 29.28 a 4.15 4.15 0 0 1 2.94 7.08 l -11.12 11 A 2.14 2.14 0 0 0 35 48.91 a 2.14 2.14 0 0 0 3.66 1.52 L 49.75 39.36 a 4.14 4.14 0 0 1 5.86 5.86 L 44.49 56.27 a 2.13 2.13 0 0 0 -0.62 1.51 a 2.16 2.16 0 0 0 3.67 1.52 L 58.61 48.22 a 4.15 4.15 0 0 1 5.87 5.86 l -11.12 11 a 2.15 2.15 0 0 0 0 3 a 2.17 2.17 0 0 0 3 0 l 13.3 -13.3 a 1 1 0 1 1 1.41 1.42 L 57.81 69.57 a 4.13 4.13 0 0 1 -5.86 0 a 4.14 4.14 0 0 1 0 -5.86 l 11.12 -11 a 2.15 2.15 0 0 0 -3 -3 L 49 60.71 a 4.15 4.15 0 0 1 -5.87 -5.86 L 54.2 43.8 a 2.15 2.15 0 0 0 -3 -3 L 40.09 51.85 A 4.15 4.15 0 0 1 34.22 46 l 11.12 -11 a 2.15 2.15 0 0 0 -1.53 -3.66 a 2.09 2.09 0 0 0 -1.51 0.63 L 28.93 45.28 a 1 1 0 0 1 -1.42 0 a 1 1 0 0 1 0 -1.42 L 40.88 30.5 a 4.1 4.1 0 0 1 2.93 -1.22 m 0 -1 a 5.18 5.18 0 0 0 -3.64 1.51 L 26.81 43.16 a 2 2 0 0 0 1.41 3.41 A 2 2 0 0 0 29.64 46 L 43 32.62 a 1.14 1.14 0 0 1 0.81 -0.34 A 1.16 1.16 0 0 1 45 33.43 a 1.14 1.14 0 0 1 -0.33 0.8 L 33.52 45.28 a 5.14 5.14 0 1 0 7.27 7.27 L 51.87 41.48 a 1.13 1.13 0 0 1 0.81 -0.33 a 1.14 1.14 0 0 1 0.81 2 l -11.11 11 a 5.15 5.15 0 1 0 7.28 7.28 L 60.73 50.34 a 1.17 1.17 0 0 1 0.81 -0.32 A 1.14 1.14 0 0 1 62.36 52 L 51.24 63 a 5.15 5.15 0 0 0 3.64 8.79 a 5.11 5.11 0 0 0 3.64 -1.51 L 71.82 57 a 2 2 0 0 0 0 -2.83 a 2 2 0 0 0 -2.83 0 l -13.3 13.3 a 1.12 1.12 0 0 1 -0.81 0.33 a 1.15 1.15 0 0 1 -0.81 -0.33 a 1.13 1.13 0 0 1 0 -1.61 L 65.18 54.79 a 5.14 5.14 0 0 0 0 -7.27 a 5.14 5.14 0 0 0 -7.28 0 L 46.83 58.59 a 1.12 1.12 0 0 1 -0.81 0.32 a 1.11 1.11 0 0 1 -0.81 -0.32 a 1.15 1.15 0 0 1 0 -1.62 l 11.12 -11 A 5.15 5.15 0 0 0 49 38.65 L 38 49.73 a 1.15 1.15 0 0 1 -2 -0.82 a 1.14 1.14 0 0 1 0.33 -0.8 l 11.11 -11 a 5.14 5.14 0 0 0 0 -7.28 a 5.14 5.14 0 0 0 -3.64 -1.51 Z" fill="#ff9900" transform="scale(0.6) translate(-50 -50)"/></g><g transform="translate(1519.8273513275412, -208.00425817668636)"><path d="M54.88 71.29 a 4.58 4.58 0 0 1 -3.28 -1.36 a 4.65 4.65 0 0 1 0 -6.57 l 11.11 -11 A 1.65 1.65 0 0 0 60.38 50 L 49.3 61.06 a 4.65 4.65 0 0 1 -7.93 -3.28 a 4.66 4.66 0 0 1 1.36 -3.29 l 11.12 -11 a 1.65 1.65 0 0 0 -1.17 -2.8 a 1.67 1.67 0 0 0 -1.17 0.48 L 40.44 52.2 a 4.65 4.65 0 0 1 -6.57 -6.57 L 45 34.59 a 1.63 1.63 0 0 0 0.48 -1.16 A 1.67 1.67 0 0 0 45 32.26 a 1.65 1.65 0 0 0 -1.17 -0.48 a 1.63 1.63 0 0 0 -1.16 0.48 L 29.28 45.63 a 1.5 1.5 0 1 1 -2.12 -2.12 L 40.53 30.14 a 4.65 4.65 0 0 1 7.93 3.29 a 4.58 4.58 0 0 1 -1.36 3.28 L 36 47.75 a 1.65 1.65 0 0 0 0 2.33 a 1.65 1.65 0 0 0 2.33 0 L 49.39 39 A 4.65 4.65 0 0 1 56 39 a 4.65 4.65 0 0 1 0 6.57 l -11.11 11 a 1.64 1.64 0 0 0 0 2.32 a 1.66 1.66 0 0 0 1.17 0.47 a 1.64 1.64 0 0 0 1.16 -0.47 L 58.26 47.87 a 4.65 4.65 0 0 1 6.57 0 a 4.65 4.65 0 0 1 0 6.57 l -11.12 11 a 1.65 1.65 0 0 0 2.34 2.33 l 13.29 -13.3 a 1.51 1.51 0 0 1 2.13 0 a 1.5 1.5 0 0 1 0 2.12 l -13.3 13.3 A 4.62 4.62 0 0 1 54.88 71.29 Z" fill="#ff9900" transform="scale(0.6) translate(-50 -50)"/><path d="M 43.81 29.28 a 4.15 4.15 0 0 1 2.94 7.08 l -11.12 11 A 2.14 2.14 0 0 0 35 48.91 a 2.14 2.14 0 0 0 3.66 1.52 L 49.75 39.36 a 4.14 4.14 0 0 1 5.86 5.86 L 44.49 56.27 a 2.13 2.13 0 0 0 -0.62 1.51 a 2.16 2.16 0 0 0 3.67 1.52 L 58.61 48.22 a 4.15 4.15 0 0 1 5.87 5.86 l -11.12 11 a 2.15 2.15 0 0 0 0 3 a 2.17 2.17 0 0 0 3 0 l 13.3 -13.3 a 1 1 0 1 1 1.41 1.42 L 57.81 69.57 a 4.13 4.13 0 0 1 -5.86 0 a 4.14 4.14 0 0 1 0 -5.86 l 11.12 -11 a 2.15 2.15 0 0 0 -3 -3 L 49 60.71 a 4.15 4.15 0 0 1 -5.87 -5.86 L 54.2 43.8 a 2.15 2.15 0 0 0 -3 -3 L 40.09 51.85 A 4.15 4.15 0 0 1 34.22 46 l 11.12 -11 a 2.15 2.15 0 0 0 -1.53 -3.66 a 2.09 2.09 0 0 0 -1.51 0.63 L 28.93 45.28 a 1 1 0 0 1 -1.42 0 a 1 1 0 0 1 0 -1.42 L 40.88 30.5 a 4.1 4.1 0 0 1 2.93 -1.22 m 0 -1 a 5.18 5.18 0 0 0 -3.64 1.51 L 26.81 43.16 a 2 2 0 0 0 1.41 3.41 A 2 2 0 0 0 29.64 46 L 43 32.62 a 1.14 1.14 0 0 1 0.81 -0.34 A 1.16 1.16 0 0 1 45 33.43 a 1.14 1.14 0 0 1 -0.33 0.8 L 33.52 45.28 a 5.14 5.14 0 1 0 7.27 7.27 L 51.87 41.48 a 1.13 1.13 0 0 1 0.81 -0.33 a 1.14 1.14 0 0 1 0.81 2 l -11.11 11 a 5.15 5.15 0 1 0 7.28 7.28 L 60.73 50.34 a 1.17 1.17 0 0 1 0.81 -0.32 A 1.14 1.14 0 0 1 62.36 52 L 51.24 63 a 5.15 5.15 0 0 0 3.64 8.79 a 5.11 5.11 0 0 0 3.64 -1.51 L 71.82 57 a 2 2 0 0 0 0 -2.83 a 2 2 0 0 0 -2.83 0 l -13.3 13.3 a 1.12 1.12 0 0 1 -0.81 0.33 a 1.15 1.15 0 0 1 -0.81 -0.33 a 1.13 1.13 0 0 1 0 -1.61 L 65.18 54.79 a 5.14 5.14 0 0 0 0 -7.27 a 5.14 5.14 0 0 0 -7.28 0 L 46.83 58.59 a 1.12 1.12 0 0 1 -0.81 0.32 a 1.11 1.11 0 0 1 -0.81 -0.32 a 1.15 1.15 0 0 1 0 -1.62 l 11.12 -11 A 5.15 5.15 0 0 0 49 38.65 L 38 49.73 a 1.15 1.15 0 0 1 -2 -0.82 a 1.14 1.14 0 0 1 0.33 -0.8 l 11.11 -11 a 5.14 5.14 0 0 0 0 -7.28 a 5.14 5.14 0 0 0 -3.64 -1.51 Z" fill="#ff9900" transform="scale(0.6) translate(-50 -50)"/></g><g transform="translate(596.6553257411863, -388.8186411191172)"><path d="M54.88 71.29 a 4.58 4.58 0 0 1 -3.28 -1.36 a 4.65 4.65 0 0 1 0 -6.57 l 11.11 -11 A 1.65 1.65 0 0 0 60.38 50 L 49.3 61.06 a 4.65 4.65 0 0 1 -7.93 -3.28 a 4.66 4.66 0 0 1 1.36 -3.29 l 11.12 -11 a 1.65 1.65 0 0 0 -1.17 -2.8 a 1.67 1.67 0 0 0 -1.17 0.48 L 40.44 52.2 a 4.65 4.65 0 0 1 -6.57 -6.57 L 45 34.59 a 1.63 1.63 0 0 0 0.48 -1.16 A 1.67 1.67 0 0 0 45 32.26 a 1.65 1.65 0 0 0 -1.17 -0.48 a 1.63 1.63 0 0 0 -1.16 0.48 L 29.28 45.63 a 1.5 1.5 0 1 1 -2.12 -2.12 L 40.53 30.14 a 4.65 4.65 0 0 1 7.93 3.29 a 4.58 4.58 0 0 1 -1.36 3.28 L 36 47.75 a 1.65 1.65 0 0 0 0 2.33 a 1.65 1.65 0 0 0 2.33 0 L 49.39 39 A 4.65 4.65 0 0 1 56 39 a 4.65 4.65 0 0 1 0 6.57 l -11.11 11 a 1.64 1.64 0 0 0 0 2.32 a 1.66 1.66 0 0 0 1.17 0.47 a 1.64 1.64 0 0 0 1.16 -0.47 L 58.26 47.87 a 4.65 4.65 0 0 1 6.57 0 a 4.65 4.65 0 0 1 0 6.57 l -11.12 11 a 1.65 1.65 0 0 0 2.34 2.33 l 13.29 -13.3 a 1.51 1.51 0 0 1 2.13 0 a 1.5 1.5 0 0 1 0 2.12 l -13.3 13.3 A 4.62 4.62 0 0 1 54.88 71.29 Z" fill="#9966ff" transform="scale(0.6) translate(-50 -50)"/><path d="M 43.81 29.28 a 4.15 4.15 0 0 1 2.94 7.08 l -11.12 11 A 2.14 2.14 0 0 0 35 48.91 a 2.14 2.14 0 0 0 3.66 1.52 L 49.75 39.36 a 4.14 4.14 0 0 1 5.86 5.86 L 44.49 56.27 a 2.13 2.13 0 0 0 -0.62 1.51 a 2.16 2.16 0 0 0 3.67 1.52 L 58.61 48.22 a 4.15 4.15 0 0 1 5.87 5.86 l -11.12 11 a 2.15 2.15 0 0 0 0 3 a 2.17 2.17 0 0 0 3 0 l 13.3 -13.3 a 1 1 0 1 1 1.41 1.42 L 57.81 69.57 a 4.13 4.13 0 0 1 -5.86 0 a 4.14 4.14 0 0 1 0 -5.86 l 11.12 -11 a 2.15 2.15 0 0 0 -3 -3 L 49 60.71 a 4.15 4.15 0 0 1 -5.87 -5.86 L 54.2 43.8 a 2.15 2.15 0 0 0 -3 -3 L 40.09 51.85 A 4.15 4.15 0 0 1 34.22 46 l 11.12 -11 a 2.15 2.15 0 0 0 -1.53 -3.66 a 2.09 2.09 0 0 0 -1.51 0.63 L 28.93 45.28 a 1 1 0 0 1 -1.42 0 a 1 1 0 0 1 0 -1.42 L 40.88 30.5 a 4.1 4.1 0 0 1 2.93 -1.22 m 0 -1 a 5.18 5.18 0 0 0 -3.64 1.51 L 26.81 43.16 a 2 2 0 0 0 1.41 3.41 A 2 2 0 0 0 29.64 46 L 43 32.62 a 1.14 1.14 0 0 1 0.81 -0.34 A 1.16 1.16 0 0 1 45 33.43 a 1.14 1.14 0 0 1 -0.33 0.8 L 33.52 45.28 a 5.14 5.14 0 1 0 7.27 7.27 L 51.87 41.48 a 1.13 1.13 0 0 1 0.81 -0.33 a 1.14 1.14 0 0 1 0.81 2 l -11.11 11 a 5.15 5.15 0 1 0 7.28 7.28 L 60.73 50.34 a 1.17 1.17 0 0 1 0.81 -0.32 A 1.14 1.14 0 0 1 62.36 52 L 51.24 63 a 5.15 5.15 0 0 0 3.64 8.79 a 5.11 5.11 0 0 0 3.64 -1.51 L 71.82 57 a 2 2 0 0 0 0 -2.83 a 2 2 0 0 0 -2.83 0 l -13.3 13.3 a 1.12 1.12 0 0 1 -0.81 0.33 a 1.15 1.15 0 0 1 -0.81 -0.33 a 1.13 1.13 0 0 1 0 -1.61 L 65.18 54.79 a 5.14 5.14 0 0 0 0 -7.27 a 5.14 5.14 0 0 0 -7.28 0 L 46.83 58.59 a 1.12 1.12 0 0 1 -0.81 0.32 a 1.11 1.11 0 0 1 -0.81 -0.32 a 1.15 1.15 0 0 1 0 -1.62 l 11.12 -11 A 5.15 5.15 0 0 0 49 38.65 L 38 49.73 a 1.15 1.15 0 0 1 -2 -0.82 a 1.14 1.14 0 0 1 0.33 -0.8 l 11.11 -11 a 5.14 5.14 0 0 0 0 -7.28 a 5.14 5.14 0 0 0 -3.64 -1.51 Z" fill="#9966ff" transform="scale(0.6) translate(-50 -50)"/></g><g transform="translate(1903.1029095364968, -400.27870764363746)"><path d="M54.88 71.29 a 4.58 4.58 0 0 1 -3.28 -1.36 a 4.65 4.65 0 0 1 0 -6.57 l 11.11 -11 A 1.65 1.65 0 0 0 60.38 50 L 49.3 61.06 a 4.65 4.65 0 0 1 -7.93 -3.28 a 4.66 4.66 0 0 1 1.36 -3.29 l 11.12 -11 a 1.65 1.65 0 0 0 -1.17 -2.8 a 1.67 1.67 0 0 0 -1.17 0.48 L 40.44 52.2 a 4.65 4.65 0 0 1 -6.57 -6.57 L 45 34.59 a 1.63 1.63 0 0 0 0.48 -1.16 A 1.67 1.67 0 0 0 45 32.26 a 1.65 1.65 0 0 0 -1.17 -0.48 a 1.63 1.63 0 0 0 -1.16 0.48 L 29.28 45.63 a 1.5 1.5 0 1 1 -2.12 -2.12 L 40.53 30.14 a 4.65 4.65 0 0 1 7.93 3.29 a 4.58 4.58 0 0 1 -1.36 3.28 L 36 47.75 a 1.65 1.65 0 0 0 0 2.33 a 1.65 1.65 0 0 0 2.33 0 L 49.39 39 A 4.65 4.65 0 0 1 56 39 a 4.65 4.65 0 0 1 0 6.57 l -11.11 11 a 1.64 1.64 0 0 0 0 2.32 a 1.66 1.66 0 0 0 1.17 0.47 a 1.64 1.64 0 0 0 1.16 -0.47 L 58.26 47.87 a 4.65 4.65 0 0 1 6.57 0 a 4.65 4.65 0 0 1 0 6.57 l -11.12 11 a 1.65 1.65 0 0 0 2.34 2.33 l 13.29 -13.3 a 1.51 1.51 0 0 1 2.13 0 a 1.5 1.5 0 0 1 0 2.12 l -13.3 13.3 A 4.62 4.62 0 0 1 54.88 71.29 Z" fill="#9966ff" transform="scale(0.6) translate(-50 -50)"/><path d="M 43.81 29.28 a 4.15 4.15 0 0 1 2.94 7.08 l -11.12 11 A 2.14 2.14 0 0 0 35 48.91 a 2.14 2.14 0 0 0 3.66 1.52 L 49.75 39.36 a 4.14 4.14 0 0 1 5.86 5.86 L 44.49 56.27 a 2.13 2.13 0 0 0 -0.62 1.51 a 2.16 2.16 0 0 0 3.67 1.52 L 58.61 48.22 a 4.15 4.15 0 0 1 5.87 5.86 l -11.12 11 a 2.15 2.15 0 0 0 0 3 a 2.17 2.17 0 0 0 3 0 l 13.3 -13.3 a 1 1 0 1 1 1.41 1.42 L 57.81 69.57 a 4.13 4.13 0 0 1 -5.86 0 a 4.14 4.14 0 0 1 0 -5.86 l 11.12 -11 a 2.15 2.15 0 0 0 -3 -3 L 49 60.71 a 4.15 4.15 0 0 1 -5.87 -5.86 L 54.2 43.8 a 2.15 2.15 0 0 0 -3 -3 L 40.09 51.85 A 4.15 4.15 0 0 1 34.22 46 l 11.12 -11 a 2.15 2.15 0 0 0 -1.53 -3.66 a 2.09 2.09 0 0 0 -1.51 0.63 L 28.93 45.28 a 1 1 0 0 1 -1.42 0 a 1 1 0 0 1 0 -1.42 L 40.88 30.5 a 4.1 4.1 0 0 1 2.93 -1.22 m 0 -1 a 5.18 5.18 0 0 0 -3.64 1.51 L 26.81 43.16 a 2 2 0 0 0 1.41 3.41 A 2 2 0 0 0 29.64 46 L 43 32.62 a 1.14 1.14 0 0 1 0.81 -0.34 A 1.16 1.16 0 0 1 45 33.43 a 1.14 1.14 0 0 1 -0.33 0.8 L 33.52 45.28 a 5.14 5.14 0 1 0 7.27 7.27 L 51.87 41.48 a 1.13 1.13 0 0 1 0.81 -0.33 a 1.14 1.14 0 0 1 0.81 2 l -11.11 11 a 5.15 5.15 0 1 0 7.28 7.28 L 60.73 50.34 a 1.17 1.17 0 0 1 0.81 -0.32 A 1.14 1.14 0 0 1 62.36 52 L 51.24 63 a 5.15 5.15 0 0 0 3.64 8.79 a 5.11 5.11 0 0 0 3.64 -1.51 L 71.82 57 a 2 2 0 0 0 0 -2.83 a 2 2 0 0 0 -2.83 0 l -13.3 13.3 a 1.12 1.12 0 0 1 -0.81 0.33 a 1.15 1.15 0 0 1 -0.81 -0.33 a 1.13 1.13 0 0 1 0 -1.61 L 65.18 54.79 a 5.14 5.14 0 0 0 0 -7.27 a 5.14 5.14 0 0 0 -7.28 0 L 46.83 58.59 a 1.12 1.12 0 0 1 -0.81 0.32 a 1.11 1.11 0 0 1 -0.81 -0.32 a 1.15 1.15 0 0 1 0 -1.62 l 11.12 -11 A 5.15 5.15 0 0 0 49 38.65 L 38 49.73 a 1.15 1.15 0 0 1 -2 -0.82 a 1.14 1.14 0 0 1 0.33 -0.8 l 11.11 -11 a 5.14 5.14 0 0 0 0 -7.28 a 5.14 5.14 0 0 0 -3.64 -1.51 Z" fill="#9966ff" transform="scale(0.6) translate(-50 -50)"/></g><g transform="translate(1062.6980310716772, 111.60426378493437)"><path d="M54.88 71.29 a 4.58 4.58 0 0 1 -3.28 -1.36 a 4.65 4.65 0 0 1 0 -6.57 l 11.11 -11 A 1.65 1.65 0 0 0 60.38 50 L 49.3 61.06 a 4.65 4.65 0 0 1 -7.93 -3.28 a 4.66 4.66 0 0 1 1.36 -3.29 l 11.12 -11 a 1.65 1.65 0 0 0 -1.17 -2.8 a 1.67 1.67 0 0 0 -1.17 0.48 L 40.44 52.2 a 4.65 4.65 0 0 1 -6.57 -6.57 L 45 34.59 a 1.63 1.63 0 0 0 0.48 -1.16 A 1.67 1.67 0 0 0 45 32.26 a 1.65 1.65 0 0 0 -1.17 -0.48 a 1.63 1.63 0 0 0 -1.16 0.48 L 29.28 45.63 a 1.5 1.5 0 1 1 -2.12 -2.12 L 40.53 30.14 a 4.65 4.65 0 0 1 7.93 3.29 a 4.58 4.58 0 0 1 -1.36 3.28 L 36 47.75 a 1.65 1.65 0 0 0 0 2.33 a 1.65 1.65 0 0 0 2.33 0 L 49.39 39 A 4.65 4.65 0 0 1 56 39 a 4.65 4.65 0 0 1 0 6.57 l -11.11 11 a 1.64 1.64 0 0 0 0 2.32 a 1.66 1.66 0 0 0 1.17 0.47 a 1.64 1.64 0 0 0 1.16 -0.47 L 58.26 47.87 a 4.65 4.65 0 0 1 6.57 0 a 4.65 4.65 0 0 1 0 6.57 l -11.12 11 a 1.65 1.65 0 0 0 2.34 2.33 l 13.29 -13.3 a 1.51 1.51 0 0 1 2.13 0 a 1.5 1.5 0 0 1 0 2.12 l -13.3 13.3 A 4.62 4.62 0 0 1 54.88 71.29 Z" fill="#33cc00" transform="scale(0.6) translate(-50 -50)"/><path d="M 43.81 29.28 a 4.15 4.15 0 0 1 2.94 7.08 l -11.12 11 A 2.14 2.14 0 0 0 35 48.91 a 2.14 2.14 0 0 0 3.66 1.52 L 49.75 39.36 a 4.14 4.14 0 0 1 5.86 5.86 L 44.49 56.27 a 2.13 2.13 0 0 0 -0.62 1.51 a 2.16 2.16 0 0 0 3.67 1.52 L 58.61 48.22 a 4.15 4.15 0 0 1 5.87 5.86 l -11.12 11 a 2.15 2.15 0 0 0 0 3 a 2.17 2.17 0 0 0 3 0 l 13.3 -13.3 a 1 1 0 1 1 1.41 1.42 L 57.81 69.57 a 4.13 4.13 0 0 1 -5.86 0 a 4.14 4.14 0 0 1 0 -5.86 l 11.12 -11 a 2.15 2.15 0 0 0 -3 -3 L 49 60.71 a 4.15 4.15 0 0 1 -5.87 -5.86 L 54.2 43.8 a 2.15 2.15 0 0 0 -3 -3 L 40.09 51.85 A 4.15 4.15 0 0 1 34.22 46 l 11.12 -11 a 2.15 2.15 0 0 0 -1.53 -3.66 a 2.09 2.09 0 0 0 -1.51 0.63 L 28.93 45.28 a 1 1 0 0 1 -1.42 0 a 1 1 0 0 1 0 -1.42 L 40.88 30.5 a 4.1 4.1 0 0 1 2.93 -1.22 m 0 -1 a 5.18 5.18 0 0 0 -3.64 1.51 L 26.81 43.16 a 2 2 0 0 0 1.41 3.41 A 2 2 0 0 0 29.64 46 L 43 32.62 a 1.14 1.14 0 0 1 0.81 -0.34 A 1.16 1.16 0 0 1 45 33.43 a 1.14 1.14 0 0 1 -0.33 0.8 L 33.52 45.28 a 5.14 5.14 0 1 0 7.27 7.27 L 51.87 41.48 a 1.13 1.13 0 0 1 0.81 -0.33 a 1.14 1.14 0 0 1 0.81 2 l -11.11 11 a 5.15 5.15 0 1 0 7.28 7.28 L 60.73 50.34 a 1.17 1.17 0 0 1 0.81 -0.32 A 1.14 1.14 0 0 1 62.36 52 L 51.24 63 a 5.15 5.15 0 0 0 3.64 8.79 a 5.11 5.11 0 0 0 3.64 -1.51 L 71.82 57 a 2 2 0 0 0 0 -2.83 a 2 2 0 0 0 -2.83 0 l -13.3 13.3 a 1.12 1.12 0 0 1 -0.81 0.33 a 1.15 1.15 0 0 1 -0.81 -0.33 a 1.13 1.13 0 0 1 0 -1.61 L 65.18 54.79 a 5.14 5.14 0 0 0 0 -7.27 a 5.14 5.14 0 0 0 -7.28 0 L 46.83 58.59 a 1.12 1.12 0 0 1 -0.81 0.32 a 1.11 1.11 0 0 1 -0.81 -0.32 a 1.15 1.15 0 0 1 0 -1.62 l 11.12 -11 A 5.15 5.15 0 0 0 49 38.65 L 38 49.73 a 1.15 1.15 0 0 1 -2 -0.82 a 1.14 1.14 0 0 1 0.33 -0.8 l 11.11 -11 a 5.14 5.14 0 0 0 0 -7.28 a 5.14 5.14 0 0 0 -3.64 -1.51 Z" fill="#33cc00" transform="scale(0.6) translate(-50 -50)"/></g><g transform="translate(1144.1918374682657, 188.00470728173613)"><path d="M54.88 71.29 a 4.58 4.58 0 0 1 -3.28 -1.36 a 4.65 4.65 0 0 1 0 -6.57 l 11.11 -11 A 1.65 1.65 0 0 0 60.38 50 L 49.3 61.06 a 4.65 4.65 0 0 1 -7.93 -3.28 a 4.66 4.66 0 0 1 1.36 -3.29 l 11.12 -11 a 1.65 1.65 0 0 0 -1.17 -2.8 a 1.67 1.67 0 0 0 -1.17 0.48 L 40.44 52.2 a 4.65 4.65 0 0 1 -6.57 -6.57 L 45 34.59 a 1.63 1.63 0 0 0 0.48 -1.16 A 1.67 1.67 0 0 0 45 32.26 a 1.65 1.65 0 0 0 -1.17 -0.48 a 1.63 1.63 0 0 0 -1.16 0.48 L 29.28 45.63 a 1.5 1.5 0 1 1 -2.12 -2.12 L 40.53 30.14 a 4.65 4.65 0 0 1 7.93 3.29 a 4.58 4.58 0 0 1 -1.36 3.28 L 36 47.75 a 1.65 1.65 0 0 0 0 2.33 a 1.65 1.65 0 0 0 2.33 0 L 49.39 39 A 4.65 4.65 0 0 1 56 39 a 4.65 4.65 0 0 1 0 6.57 l -11.11 11 a 1.64 1.64 0 0 0 0 2.32 a 1.66 1.66 0 0 0 1.17 0.47 a 1.64 1.64 0 0 0 1.16 -0.47 L 58.26 47.87 a 4.65 4.65 0 0 1 6.57 0 a 4.65 4.65 0 0 1 0 6.57 l -11.12 11 a 1.65 1.65 0 0 0 2.34 2.33 l 13.29 -13.3 a 1.51 1.51 0 0 1 2.13 0 a 1.5 1.5 0 0 1 0 2.12 l -13.3 13.3 A 4.62 4.62 0 0 1 54.88 71.29 Z" fill="#33cc00" transform="scale(0.6) translate(-50 -50)"/><path d="M 43.81 29.28 a 4.15 4.15 0 0 1 2.94 7.08 l -11.12 11 A 2.14 2.14 0 0 0 35 48.91 a 2.14 2.14 0 0 0 3.66 1.52 L 49.75 39.36 a 4.14 4.14 0 0 1 5.86 5.86 L 44.49 56.27 a 2.13 2.13 0 0 0 -0.62 1.51 a 2.16 2.16 0 0 0 3.67 1.52 L 58.61 48.22 a 4.15 4.15 0 0 1 5.87 5.86 l -11.12 11 a 2.15 2.15 0 0 0 0 3 a 2.17 2.17 0 0 0 3 0 l 13.3 -13.3 a 1 1 0 1 1 1.41 1.42 L 57.81 69.57 a 4.13 4.13 0 0 1 -5.86 0 a 4.14 4.14 0 0 1 0 -5.86 l 11.12 -11 a 2.15 2.15 0 0 0 -3 -3 L 49 60.71 a 4.15 4.15 0 0 1 -5.87 -5.86 L 54.2 43.8 a 2.15 2.15 0 0 0 -3 -3 L 40.09 51.85 A 4.15 4.15 0 0 1 34.22 46 l 11.12 -11 a 2.15 2.15 0 0 0 -1.53 -3.66 a 2.09 2.09 0 0 0 -1.51 0.63 L 28.93 45.28 a 1 1 0 0 1 -1.42 0 a 1 1 0 0 1 0 -1.42 L 40.88 30.5 a 4.1 4.1 0 0 1 2.93 -1.22 m 0 -1 a 5.18 5.18 0 0 0 -3.64 1.51 L 26.81 43.16 a 2 2 0 0 0 1.41 3.41 A 2 2 0 0 0 29.64 46 L 43 32.62 a 1.14 1.14 0 0 1 0.81 -0.34 A 1.16 1.16 0 0 1 45 33.43 a 1.14 1.14 0 0 1 -0.33 0.8 L 33.52 45.28 a 5.14 5.14 0 1 0 7.27 7.27 L 51.87 41.48 a 1.13 1.13 0 0 1 0.81 -0.33 a 1.14 1.14 0 0 1 0.81 2 l -11.11 11 a 5.15 5.15 0 1 0 7.28 7.28 L 60.73 50.34 a 1.17 1.17 0 0 1 0.81 -0.32 A 1.14 1.14 0 0 1 62.36 52 L 51.24 63 a 5.15 5.15 0 0 0 3.64 8.79 a 5.11 5.11 0 0 0 3.64 -1.51 L 71.82 57 a 2 2 0 0 0 0 -2.83 a 2 2 0 0 0 -2.83 0 l -13.3 13.3 a 1.12 1.12 0 0 1 -0.81 0.33 a 1.15 1.15 0 0 1 -0.81 -0.33 a 1.13 1.13 0 0 1 0 -1.61 L 65.18 54.79 a 5.14 5.14 0 0 0 0 -7.27 a 5.14 5.14 0 0 0 -7.28 0 L 46.83 58.59 a 1.12 1.12 0 0 1 -0.81 0.32 a 1.11 1.11 0 0 1 -0.81 -0.32 a 1.15 1.15 0 0 1 0 -1.62 l 11.12 -11 A 5.15 5.15 0 0 0 49 38.65 L 38 49.73 a 1.15 1.15 0 0 1 -2 -0.82 a 1.14 1.14 0 0 1 0.33 -0.8 l 11.11 -11 a 5.14 5.14 0 0 0 0 -7.28 a 5.14 5.14 0 0 0 -3.64 -1.51 Z" fill="#33cc00" transform="scale(0.6) translate(-50 -50)"/></g><path d="M 900.4896132837773 -700.1633925691361 C 889.133881174969 -684.833737210945 887.9719351622887 -663.6282224795268 897.5847482520762 -647.1496057405908" fill="none" stroke="#aaa" stroke-width="2" marker-end="url(#Activator)" stroke-linecap="round" onmouseover="BMA.SVGHelper.Highlight(this, window.ElementRegistry.LineWidth + 1)" onmouseout="BMA.SVGHelper.UnHighlight(this, window.ElementRegistry.LineWidth + 1)" data-id="21" data-ishovered="false"/><path d="M 906.571267622903 -646.6571937202715 C 917.9269997317112 -661.9868490784627 919.0889457443916 -683.1923638098808 909.476132654604 -699.6709805488168" fill="none" stroke="#aaa" stroke-width="2" marker-end="url(#Inhibitor)" stroke-linecap="round" onmouseover="BMA.SVGHelper.Highlight(this, window.ElementRegistry.LineWidth + 1)" onmouseout="BMA.SVGHelper.UnHighlight(this, window.ElementRegistry.LineWidth + 1)" data-id="22" data-ishovered="false"/><path d="M 926.1572965759512 -715.7596897673956 C 1119.8716955660195 -708.8585154881024 1377.8973827783657 -713.6545319790382 1571.221514606817 -727.749730994735" fill="none" stroke="#aaa" stroke-width="2" marker-end="url(#Inhibitor)" stroke-linecap="round" onmouseover="BMA.SVGHelper.Highlight(this, window.ElementRegistry.LineWidth + 1)" onmouseout="BMA.SVGHelper.UnHighlight(this, window.ElementRegistry.LineWidth + 1)" data-id="23" data-ishovered="false"/><path d="M 1571.0542572518384 -736.7481766925878 C 1377.3398582617701 -743.649350971881 1119.314171049424 -738.8533344809451 925.9900392209727 -724.7581354652483" fill="none" stroke="#aaa" stroke-width="2" marker-end="url(#Inhibitor)" stroke-linecap="round" onmouseover="BMA.SVGHelper.Highlight(this, window.ElementRegistry.LineWidth + 1)" onmouseout="BMA.SVGHelper.UnHighlight(this, window.ElementRegistry.LineWidth + 1)" data-id="24" data-ishovered="false"/><path d="M 920.9837590034467 -622.4333566841494 C 1115.6469586622957 -611.9333566841494 1375.1978915407608 -611.9333566841494 1569.8610911996095 -622.4333566841494" fill="none" stroke="#aaa" stroke-width="2" marker-end="url(#Inhibitor)" stroke-linecap="round" onmouseover="BMA.SVGHelper.Highlight(this, window.ElementRegistry.LineWidth + 1)" onmouseout="BMA.SVGHelper.UnHighlight(this, window.ElementRegistry.LineWidth + 1)" data-id="25" data-ishovered="false"/><path d="M 1569.8610911996095 -631.4333566841494 C 1375.1978915407608 -641.9333566841494 1115.6469586622957 -641.9333566841494 920.9837590034467 -631.4333566841494" fill="none" stroke="#aaa" stroke-width="2" marker-end="url(#Inhibitor)" stroke-linecap="round" onmouseover="BMA.SVGHelper.Highlight(this, window.ElementRegistry.LineWidth + 1)" onmouseout="BMA.SVGHelper.UnHighlight(this, window.ElementRegistry.LineWidth + 1)" data-id="26" data-ishovered="false"/><path d="M 1586.393812128343 -712.6763012190678 C 1575.6571397333612 -693.0957431523644 1575.3405605380187 -666.8196699389532 1585.6023641399872 -646.9861181855397" fill="none" stroke="#aaa" stroke-width="2" marker-end="url(#Activator)" stroke-linecap="round" onmouseover="BMA.SVGHelper.Highlight(this, window.ElementRegistry.LineWidth + 1)" onmouseout="BMA.SVGHelper.UnHighlight(this, window.ElementRegistry.LineWidth + 1)" data-id="27" data-ishovered="false"/><path d="M 1594.6017109958227 -646.8776923198068 C 1605.3383833908044 -666.4582503865101 1605.654962586147 -692.7343235999214 1595.3931589841784 -712.5678753533349" fill="none" stroke="#aaa" stroke-width="2" marker-end="url(#Inhibitor)" stroke-linecap="round" onmouseover="BMA.SVGHelper.Highlight(this, window.ElementRegistry.LineWidth + 1)" onmouseout="BMA.SVGHelper.UnHighlight(this, window.ElementRegistry.LineWidth + 1)" data-id="28" data-ishovered="false"/><path d="M 926.501003066136 -721.6521880307283 C 1121.1599246855696 -705.7867492727702 1378.819332799688 -670.7604237749478 1570.6495233514313 -634.0863742861724" fill="none" stroke="#aaa" stroke-width="2" marker-end="url(#Inhibitor)" stroke-linecap="round" onmouseover="BMA.SVGHelper.Highlight(this, window.ElementRegistry.LineWidth + 1)" onmouseout="BMA.SVGHelper.UnHighlight(this, window.ElementRegistry.LineWidth + 1)" data-id="29" data-ishovered="false"/><path d="M 1569.437210036707 -625.1683982586793 C 1374.7782884172732 -641.0338370166374 1117.118880303155 -676.0601625144599 925.2886897514115 -712.7342120032353" fill="none" stroke="#aaa" stroke-width="2" marker-end="url(#Inhibitor)" stroke-linecap="round" onmouseover="BMA.SVGHelper.Highlight(this, window.ElementRegistry.LineWidth + 1)" onmouseout="BMA.SVGHelper.UnHighlight(this, window.ElementRegistry.LineWidth + 1)" data-id="30" data-ishovered="false"/><path d="M 1570.6837206882133 -734.0413443994803 C 1373.9108362006264 -714.5306306330023 1113.6661971067858 -674.6776692957535 920.0721229536123 -634.4089410563587" fill="none" stroke="#aaa" stroke-width="2" marker-end="url(#Inhibitor)" stroke-linecap="round" onmouseover="BMA.SVGHelper.Highlight(this, window.ElementRegistry.LineWidth + 1)" onmouseout="BMA.SVGHelper.UnHighlight(this, window.ElementRegistry.LineWidth + 1)" data-id="31" data-ishovered="false"/><path d="M 921.4344702397896 -625.5126491393943 C 1118.2073547273765 -645.0233629058723 1378.451993821217 -684.8763242431211 1572.0460679743906 -725.1450524825159" fill="none" stroke="#aaa" stroke-width="2" marker-end="url(#Inhibitor)" stroke-linecap="round" onmouseover="BMA.SVGHelper.Highlight(this, window.ElementRegistry.LineWidth + 1)" onmouseout="BMA.SVGHelper.UnHighlight(this, window.ElementRegistry.LineWidth + 1)" data-id="32" data-ishovered="false"/><path d="M 1100.557114289122 -544.700086001429 C 1193.3026818371497 -554.5233907686512 1316.861251509025 -553.6215033987834 1409.4535384688102 -542.4453675767596" fill="none" stroke="#aaa" stroke-width="2" marker-end="url(#Inhibitor)" stroke-linecap="round" onmouseover="BMA.SVGHelper.Highlight(this, window.ElementRegistry.LineWidth + 1)" onmouseout="BMA.SVGHelper.UnHighlight(this, window.ElementRegistry.LineWidth + 1)" data-id="34" data-ishovered="false"/><path d="M 1409.3878467881345 -533.4456073242258 C 1316.6422792401067 -523.6223025570035 1193.0837095682316 -524.5241899268714 1100.4914226084463 -535.7003257488951" fill="none" stroke="#aaa" stroke-width="2" marker-end="url(#Inhibitor)" stroke-linecap="round" onmouseover="BMA.SVGHelper.Highlight(this, window.ElementRegistry.LineWidth + 1)" onmouseout="BMA.SVGHelper.UnHighlight(this, window.ElementRegistry.LineWidth + 1)" data-id="35" data-ishovered="false"/><path d="M 1086.817035570886 -520.8357341156113 C 1098.4794985911906 -508.5249315727257 1100.0869443943825 -490.8430277376161 1090.8356500788655 -476.6309745278375" fill="none" stroke="#aaa" stroke-width="2" marker-end="url(#Activator)" stroke-linecap="round" onmouseover="BMA.SVGHelper.Highlight(this, window.ElementRegistry.LineWidth + 1)" onmouseout="BMA.SVGHelper.UnHighlight(this, window.ElementRegistry.LineWidth + 1)" data-id="36" data-ishovered="false"/><path d="M 1424.5700290095579 -517.8815183194181 C 1413.9001362256024 -508.28972781100424 1413.671458501802 -495.2550975543798 1423.9983347000566 -485.2949426778569" fill="none" stroke="#aaa" stroke-width="2" marker-end="url(#Activator)" stroke-linecap="round" onmouseover="BMA.SVGHelper.Highlight(this, window.ElementRegistry.LineWidth + 1)" onmouseout="BMA.SVGHelper.UnHighlight(this, window.ElementRegistry.LineWidth + 1)" data-id="38" data-ishovered="false"/><path d="M 1432.9969499781469 -485.1370722343816 C 1443.6668427621023 -494.72886274279546 1443.8955204859028 -507.7634929994199 1433.568644287648 -517.7236478759428" fill="none" stroke="#aaa" stroke-width="2" marker-end="url(#Inhibitor)" stroke-linecap="round" onmouseover="BMA.SVGHelper.Highlight(this, window.ElementRegistry.LineWidth + 1)" onmouseout="BMA.SVGHelper.UnHighlight(this, window.ElementRegistry.LineWidth + 1)" data-id="39" data-ishovered="false"/><path d="M 1408.0357520173259 -469.1933744309739 C 1317.7618516740408 -477.33025089254346 1197.763566338207 -474.1842284305553 1108.0400386777417 -461.3283182760035" fill="none" stroke="#aaa" stroke-width="2" marker-end="url(#Inhibitor)" stroke-linecap="round" onmouseover="BMA.SVGHelper.Highlight(this, window.ElementRegistry.LineWidth + 1)" onmouseout="BMA.SVGHelper.UnHighlight(this, window.ElementRegistry.LineWidth + 1)" data-id="40" data-ishovered="false"/><path d="M 1108.2759126846643 -452.33140972623715 C 1198.5498130279493 -444.1945332646676 1318.548098363783 -447.34055572665574 1408.2716260242485 -460.1964658812076" fill="none" stroke="#aaa" stroke-width="2" marker-end="url(#Inhibitor)" stroke-linecap="round" onmouseover="BMA.SVGHelper.Highlight(this, window.ElementRegistry.LineWidth + 1)" onmouseout="BMA.SVGHelper.UnHighlight(this, window.ElementRegistry.LineWidth + 1)" data-id="41" data-ishovered="false"/><path d="M 1101.0240657641898 -540.5198341138849 C 1195.7994849947747 -530.7796460139464 1319.2093457743667 -504.1086504608478 1409.5487177131697 -473.8423452311384" fill="none" stroke="#aaa" stroke-width="2" marker-end="url(#Inhibitor)" stroke-linecap="round" onmouseover="BMA.SVGHelper.Highlight(this, window.ElementRegistry.LineWidth + 1)" onmouseout="BMA.SVGHelper.UnHighlight(this, window.ElementRegistry.LineWidth + 1)" data-id="42" data-ishovered="false"/><path d="M 1407.64755458812 -465.04543788980806 C 1312.8721353575352 -474.78562598974656 1189.4622745779432 -501.4566215428452 1099.1229026391402 -531.7229267725546" fill="none" stroke="#aaa" stroke-width="2" marker-end="url(#Inhibitor)" stroke-linecap="round" onmouseover="BMA.SVGHelper.Highlight(this, window.ElementRegistry.LineWidth + 1)" onmouseout="BMA.SVGHelper.UnHighlight(this, window.ElementRegistry.LineWidth + 1)" data-id="43" data-ishovered="false"/><path d="M 1108.6630862620368 -456.5742671424191 C 1201.8067619360327 -468.02228545008427 1322.7464839525787 -496.9034130958265 1411.0123913034022 -528.7770862567751" fill="none" stroke="#aaa" stroke-width="2" marker-end="url(#Inhibitor)" stroke-linecap="round" onmouseover="BMA.SVGHelper.Highlight(this, window.ElementRegistry.LineWidth + 1)" onmouseout="BMA.SVGHelper.UnHighlight(this, window.ElementRegistry.LineWidth + 1)" data-id="44" data-ishovered="false"/><path d="M 1408.9219191649 -537.5309383367536 C 1315.778243490904 -526.0829200290885 1194.838521474358 -497.2017923833462 1106.5726141235345 -465.32811922239773" fill="none" stroke="#aaa" stroke-width="2" marker-end="url(#Inhibitor)" stroke-linecap="round" onmouseover="BMA.SVGHelper.Highlight(this, window.ElementRegistry.LineWidth + 1)" onmouseout="BMA.SVGHelper.UnHighlight(this, window.ElementRegistry.LineWidth + 1)" data-id="45" data-ishovered="false"/><path d="M 1022.9261525906239 -271.33933743402446 C 1165.0572106988634 -263.3065312737992 1354.3221486735854 -266.5940115860152 1496.0884975274291 -279.5580382145645" fill="none" stroke="#aaa" stroke-width="2" marker-end="url(#Inhibitor)" stroke-linecap="round" onmouseover="BMA.SVGHelper.Highlight(this, window.ElementRegistry.LineWidth + 1)" onmouseout="BMA.SVGHelper.UnHighlight(this, window.ElementRegistry.LineWidth + 1)" data-id="49" data-ishovered="false"/><path d="M 1495.9321935612595 -288.55668083832495 C 1353.8011354530202 -296.5894869985502 1164.5361974782982 -293.3020066863342 1022.7698486244543 -280.33798005778493" fill="none" stroke="#aaa" stroke-width="2" marker-end="url(#Inhibitor)" stroke-linecap="round" onmouseover="BMA.SVGHelper.Highlight(this, window.ElementRegistry.LineWidth + 1)" onmouseout="BMA.SVGHelper.UnHighlight(this, window.ElementRegistry.LineWidth + 1)" data-id="50" data-ishovered="false"/><path d="M 1025.4197303343174 -201.05664055520697 C 1167.8007528006433 -191.26136843900179 1357.5728100076358 -192.20083406873934 1499.8498733517984 -203.4053046295509" fill="none" stroke="#aaa" stroke-width="2" marker-end="url(#Inhibitor)" stroke-linecap="round" onmouseover="BMA.SVGHelper.Highlight(this, window.ElementRegistry.LineWidth + 1)" onmouseout="BMA.SVGHelper.UnHighlight(this, window.ElementRegistry.LineWidth + 1)" data-id="51" data-ishovered="false"/><path d="M 1499.8053194422998 -212.40519434827237 C 1357.424296975974 -222.20046646447756 1167.6522397689814 -221.26100083474 1025.3751764248188 -210.05653027392844" fill="none" stroke="#aaa" stroke-width="2" marker-end="url(#Inhibitor)" stroke-linecap="round" onmouseover="BMA.SVGHelper.Highlight(this, window.ElementRegistry.LineWidth + 1)" onmouseout="BMA.SVGHelper.UnHighlight(this, window.ElementRegistry.LineWidth + 1)" data-id="52" data-ishovered="false"/><path d="M 1008.0748371020843 -255.66805492141475 C 1018.8958308482041 -247.03157292527646 1019.3330695384471 -235.0075089435921 1009.167933827692 -225.60789496720378" fill="none" stroke="#aaa" stroke-width="2" marker-end="url(#Activator)" stroke-linecap="round" onmouseover="BMA.SVGHelper.Highlight(this, window.ElementRegistry.LineWidth + 1)" onmouseout="BMA.SVGHelper.UnHighlight(this, window.ElementRegistry.LineWidth + 1)" data-id="53" data-ishovered="false"/><path d="M 1000.173878346174 -225.2808384042395 C 989.3528846000542 -233.91732040037778 988.9156459098111 -245.94138438206215 999.0807816205663 -255.34099835845046" fill="none" stroke="#aaa" stroke-width="2" marker-end="url(#Inhibitor)" stroke-linecap="round" onmouseover="BMA.SVGHelper.Highlight(this, window.ElementRegistry.LineWidth + 1)" onmouseout="BMA.SVGHelper.UnHighlight(this, window.ElementRegistry.LineWidth + 1)" data-id="54" data-ishovered="false"/><path d="M 1521.5004670165292 -264.6543741721788 C 1532.5341218238718 -254.24361416758325 1533.2631288227058 -239.66347419090803 1523.3229845136136 -228.20402423049077" fill="none" stroke="#aaa" stroke-width="2" marker-end="url(#Activator)" stroke-linecap="round" onmouseover="BMA.SVGHelper.Highlight(this, window.ElementRegistry.LineWidth + 1)" onmouseout="BMA.SVGHelper.UnHighlight(this, window.ElementRegistry.LineWidth + 1)" data-id="55" data-ishovered="false"/><path d="M 1514.334213463713 -227.75458567799572 C 1503.3005586563704 -238.16534568259127 1502.5715516575365 -252.74548565926648 1512.5116959666286 -264.20493561968374" fill="none" stroke="#aaa" stroke-width="2" marker-end="url(#Inhibitor)" stroke-linecap="round" onmouseover="BMA.SVGHelper.Highlight(this, window.ElementRegistry.LineWidth + 1)" onmouseout="BMA.SVGHelper.UnHighlight(this, window.ElementRegistry.LineWidth + 1)" data-id="56" data-ishovered="false"/><path d="M 1023.2652489128415 -277.3645852329196 C 1167.8182655212856 -269.0834521107673 1358.7434106648288 -244.15972626690584 1500.5781117716995 -215.05527062326573" fill="none" stroke="#aaa" stroke-width="2" marker-end="url(#Inhibitor)" stroke-linecap="round" onmouseover="BMA.SVGHelper.Highlight(this, window.ElementRegistry.LineWidth + 1)" onmouseout="BMA.SVGHelper.UnHighlight(this, window.ElementRegistry.LineWidth + 1)" data-id="57" data-ishovered="false"/><path d="M 1499.4131194138824 -206.13098954262804 C 1354.8601028054381 -214.41212266478024 1163.934957661895 -239.33584850864182 1022.1002565550242 -268.4403041522819" fill="none" stroke="#aaa" stroke-width="2" marker-end="url(#Inhibitor)" stroke-linecap="round" onmouseover="BMA.SVGHelper.Highlight(this, window.ElementRegistry.LineWidth + 1)" onmouseout="BMA.SVGHelper.UnHighlight(this, window.ElementRegistry.LineWidth + 1)" data-id="58" data-ishovered="false"/><path d="M 1025.8504381587725 -204.0663763934849 C 1168.7786159670347 -215.5402356642518 1357.2103489597255 -244.67431906960553 1496.9297706404993 -276.9015849068691" fill="none" stroke="#aaa" stroke-width="2" marker-end="url(#Inhibitor)" stroke-linecap="round" onmouseover="BMA.SVGHelper.Highlight(this, window.ElementRegistry.LineWidth + 1)" onmouseout="BMA.SVGHelper.UnHighlight(this, window.ElementRegistry.LineWidth + 1)" data-id="59" data-ishovered="false"/><path d="M 1495.5545894430045 -285.7959020067962 C 1352.6264116347422 -274.3220427360293 1164.1946786420515 -245.18795933067562 1024.4752569612776 -212.96069349341204" fill="none" stroke="#aaa" stroke-width="2" marker-end="url(#Inhibitor)" stroke-linecap="round" onmouseover="BMA.SVGHelper.Highlight(this, window.ElementRegistry.LineWidth + 1)" onmouseout="BMA.SVGHelper.UnHighlight(this, window.ElementRegistry.LineWidth + 1)" data-id="60" data-ishovered="false"/><path d="M 617.0815540842096 -387.0810578322884 C 754.0742613100376 -395.292421988276 934.8267924627019 -420.11077471131017 1068.9628819658703 -449.1269396398739" fill="none" stroke="#aaa" stroke-width="2" marker-end="url(#Activator)" stroke-linecap="round" onmouseover="BMA.SVGHelper.Highlight(this, window.ElementRegistry.LineWidth + 1)" onmouseout="BMA.SVGHelper.UnHighlight(this, window.ElementRegistry.LineWidth + 1)" data-id="64" data-ishovered="false"/><path d="M 1882.6776676815484 -398.5295663780827 C 1750.6577975181278 -405.9828469396763 1576.527867161443 -429.7914969348262 1447.352841789836 -458.05119136595755" fill="none" stroke="#aaa" stroke-width="2" marker-end="url(#Activator)" stroke-linecap="round" onmouseover="BMA.SVGHelper.Highlight(this, window.ElementRegistry.LineWidth + 1)" onmouseout="BMA.SVGHelper.UnHighlight(this, window.ElementRegistry.LineWidth + 1)" data-id="65" data-ishovered="false"/><path d="M 1883.208455080804 -395.33293349691667 C 1774.2435668485766 -352.41665206095576 1635.2346634632877 -282.6812885686679 1535.6861966175818 -220.99452476619712" fill="none" stroke="#aaa" stroke-width="2" marker-end="url(#Activator)" stroke-linecap="round" onmouseover="BMA.SVGHelper.Highlight(this, window.ElementRegistry.LineWidth + 1)" onmouseout="BMA.SVGHelper.UnHighlight(this, window.ElementRegistry.LineWidth + 1)" data-id="66" data-ishovered="false"/><path d="M 616.7451697507223 -384.73842449833495 C 732.7167447517828 -344.22190904065747 881.6153012439684 -277.42629491332184 988.9915609811865 -217.74938917999594" fill="none" stroke="#aaa" stroke-width="2" marker-end="url(#Activator)" stroke-linecap="round" onmouseover="BMA.SVGHelper.Highlight(this, window.ElementRegistry.LineWidth + 1)" onmouseout="BMA.SVGHelper.UnHighlight(this, window.ElementRegistry.LineWidth + 1)" data-id="67" data-ishovered="false"/><path d="M 615.1798037260818 -397.5989438124827 C 703.4977430550512 -453.36919302771844 812.6279238287375 -538.7555687795149 888.0052556602978 -611.064883191974" fill="none" stroke="#aaa" stroke-width="2" marker-end="url(#Activator)" stroke-linecap="round" onmouseover="BMA.SVGHelper.Highlight(this, window.ElementRegistry.LineWidth + 1)" onmouseout="BMA.SVGHelper.UnHighlight(this, window.ElementRegistry.LineWidth + 1)" data-id="68" data-ishovered="false"/><path d="M 1884.2617994444379 -408.3572329112166 C 1793.85592449567 -460.8124287902246 1681.5217228246706 -542.0948999180212 1603.426295266939 -611.5634107307079" fill="none" stroke="#aaa" stroke-width="2" marker-end="url(#Activator)" stroke-linecap="round" onmouseover="BMA.SVGHelper.Highlight(this, window.ElementRegistry.LineWidth + 1)" onmouseout="BMA.SVGHelper.UnHighlight(this, window.ElementRegistry.LineWidth + 1)" data-id="69" data-ishovered="false"/><path d="M 616.6940284836732 -384.494246086486 C 996.7208669959035 -377.32741088268347 1503.3005160525279 -381.7710920147591 1883.1431511252345 -395.6034489166751" fill="none" stroke="#aaa" stroke-width="2" marker-end="url(#Inhibitor)" stroke-linecap="round" onmouseover="BMA.SVGHelper.Highlight(this, window.ElementRegistry.LineWidth + 1)" onmouseout="BMA.SVGHelper.UnHighlight(this, window.ElementRegistry.LineWidth + 1)" data-id="75" data-ishovered="false"/><path d="M 1883.0642067940098 -404.6031026762687 C 1503.0373682817797 -411.7699378800712 996.4577192251551 -407.32625674799556 616.6150841524487 -393.49389984607956" fill="none" stroke="#aaa" stroke-width="2" marker-end="url(#Inhibitor)" stroke-linecap="round" onmouseover="BMA.SVGHelper.Highlight(this, window.ElementRegistry.LineWidth + 1)" onmouseout="BMA.SVGHelper.UnHighlight(this, window.ElementRegistry.LineWidth + 1)" data-id="76" data-ishovered="false"/><path d="M 1082.7734026853682 -436.52736938894697 C 1065.1814760178095 -278.61271247571585 1055.7115186948781 -67.43266417434589 1059.0985093780398 91.42275136447803" fill="none" stroke="#aaa" stroke-width="2" marker-end="url(#Activator)" stroke-linecap="round" onmouseover="BMA.SVGHelper.Highlight(this, window.ElementRegistry.LineWidth + 1)" onmouseout="BMA.SVGHelper.UnHighlight(this, window.ElementRegistry.LineWidth + 1)" data-id="82" data-ishovered="false"/><path d="M 1608.7022012916684 -618.8548314165702 C 1699.1080762404363 -566.3996355375623 1811.4422779114357 -485.11716440976573 1889.5377054691673 -415.648653597079" fill="none" stroke="#aaa" stroke-width="2" marker-end="url(#Inhibitor)" stroke-linecap="round" onmouseover="BMA.SVGHelper.Highlight(this, window.ElementRegistry.LineWidth + 1)" onmouseout="BMA.SVGHelper.UnHighlight(this, window.ElementRegistry.LineWidth + 1)" data-id="83" data-ishovered="false"/><path d="M 1448.5720609863274 -466.96822588147376 C 1580.591931149748 -459.5149453198801 1754.7218615064328 -435.70629532473015 1883.8968868780398 -407.4466008935989" fill="none" stroke="#aaa" stroke-width="2" marker-end="url(#Inhibitor)" stroke-linecap="round" onmouseover="BMA.SVGHelper.Highlight(this, window.ElementRegistry.LineWidth + 1)" onmouseout="BMA.SVGHelper.UnHighlight(this, window.ElementRegistry.LineWidth + 1)" data-id="85" data-ishovered="false"/><path d="M 1539.721805783234 -212.95003232340719 C 1648.6866940154614 -255.8663137593681 1787.6955974007503 -325.6016772516559 1887.2440642464562 -387.2884410541267" fill="none" stroke="#aaa" stroke-width="2" marker-end="url(#Inhibitor)" stroke-linecap="round" onmouseover="BMA.SVGHelper.Highlight(this, window.ElementRegistry.LineWidth + 1)" onmouseout="BMA.SVGHelper.UnHighlight(this, window.ElementRegistry.LineWidth + 1)" data-id="86" data-ishovered="false"/><path d="M 882.4592810185512 -618.1530539907839 C 794.1413416895819 -562.3828047755482 685.0111609158955 -476.9964290237517 609.6338290843352 -404.68711461129266" fill="none" stroke="#aaa" stroke-width="2" marker-end="url(#Inhibitor)" stroke-linecap="round" onmouseover="BMA.SVGHelper.Highlight(this, window.ElementRegistry.LineWidth + 1)" onmouseout="BMA.SVGHelper.UnHighlight(this, window.ElementRegistry.LineWidth + 1)" data-id="88" data-ishovered="false"/><path d="M 1067.7386172275876 -458.0432828281209 C 930.7459100017597 -449.8319186721333 749.9933788490955 -425.01356594909913 615.8572893459271 -395.9974010205354" fill="none" stroke="#aaa" stroke-width="2" marker-end="url(#Inhibitor)" stroke-linecap="round" onmouseover="BMA.SVGHelper.Highlight(this, window.ElementRegistry.LineWidth + 1)" onmouseout="BMA.SVGHelper.UnHighlight(this, window.ElementRegistry.LineWidth + 1)" data-id="89" data-ishovered="false"/><path d="M 985.3078544395398 -209.53779334757525 C 869.3362794384793 -250.05430880525276 720.4377229462938 -316.84992293258836 613.0614632090757 -376.52682866591425" fill="none" stroke="#aaa" stroke-width="2" marker-end="url(#Inhibitor)" stroke-linecap="round" onmouseover="BMA.SVGHelper.Highlight(this, window.ElementRegistry.LineWidth + 1)" onmouseout="BMA.SVGHelper.UnHighlight(this, window.ElementRegistry.LineWidth + 1)" data-id="90" data-ishovered="false"/><path d="M1408.2307142692034,-463.38912092261035L616.5714306033618,-390.64860481242584" fill="none" stroke="#aaa" stroke-width="2" marker-end="url(#Inhibitor)" stroke-linecap="round" onmouseover="BMA.SVGHelper.Highlight(this, window.ElementRegistry.LineWidth + 1)" onmouseout="BMA.SVGHelper.UnHighlight(this, window.ElementRegistry.LineWidth + 1)" data-id="92" data-ishovered="false"/><path d="M1500.200274928719,-211.84845796790395L616.2824021400085,-384.9744413278996" fill="none" stroke="#aaa" stroke-width="2" marker-end="url(#Inhibitor)" stroke-linecap="round" onmouseover="BMA.SVGHelper.Highlight(this, window.ElementRegistry.LineWidth + 1)" onmouseout="BMA.SVGHelper.UnHighlight(this, window.ElementRegistry.LineWidth + 1)" data-id="93" data-ishovered="false"/><path d="M1570.4122140618354,-622.2706130626574L616.1042028789605,-393.48138474060926" fill="none" stroke="#aaa" stroke-width="2" marker-end="url(#Inhibitor)" stroke-linecap="round" onmouseover="BMA.SVGHelper.Highlight(this, window.ElementRegistry.LineWidth + 1)" onmouseout="BMA.SVGHelper.UnHighlight(this, window.ElementRegistry.LineWidth + 1)" data-id="94" data-ishovered="false"/><path d="M920.4910317310613,-622.5212924585899L1883.595636808882,-404.6907718691971" fill="none" stroke="#aaa" stroke-width="2" marker-end="url(#Inhibitor)" stroke-linecap="round" onmouseover="BMA.SVGHelper.Highlight(this, window.ElementRegistry.LineWidth + 1)" onmouseout="BMA.SVGHelper.UnHighlight(this, window.ElementRegistry.LineWidth + 1)" data-id="95" data-ishovered="false"/><path d="M1108.117746841319,-454.9339375789309L1883.1500082657888,-401.65046960599864" fill="none" stroke="#aaa" stroke-width="2" marker-end="url(#Inhibitor)" stroke-linecap="round" onmouseover="BMA.SVGHelper.Highlight(this, window.ElementRegistry.LineWidth + 1)" onmouseout="BMA.SVGHelper.UnHighlight(this, window.ElementRegistry.LineWidth + 1)" data-id="96" data-ishovered="false"/><path d="M1024.9427257768964,-209.6992635085753L1883.5578822086761,-396.0370208618551" fill="none" stroke="#aaa" stroke-width="2" marker-end="url(#Inhibitor)" stroke-linecap="round" onmouseover="BMA.SVGHelper.Highlight(this, window.ElementRegistry.LineWidth + 1)" onmouseout="BMA.SVGHelper.UnHighlight(this, window.ElementRegistry.LineWidth + 1)" data-id="97" data-ishovered="false"/><path d="M 1413.6418093322575 -450.7327223835507 C 1301.559679777965 -293.44197939156857 1163.943127207239 -76.22839641408174 1069.6004279054432 92.3012350601664" fill="none" stroke="#aaa" stroke-width="2" marker-end="url(#Inhibitor)" stroke-linecap="round" onmouseover="BMA.SVGHelper.Highlight(this, window.ElementRegistry.LineWidth + 1)" onmouseout="BMA.SVGHelper.UnHighlight(this, window.ElementRegistry.LineWidth + 1)" data-id="100" data-ishovered="false"/><path d="M 1081.872611220656 -475.81615281345483 C 1070.2101482003513 -488.12695535634055 1068.6027023971594 -505.8088591914501 1077.8539967126765 -520.0209124012288" fill="none" stroke="#aaa" stroke-width="2" marker-end="url(#Inhibitor)" stroke-linecap="round" onmouseover="BMA.SVGHelper.Highlight(this, window.ElementRegistry.LineWidth + 1)" onmouseout="BMA.SVGHelper.UnHighlight(this, window.ElementRegistry.LineWidth + 1)" data-id="106" data-ishovered="false"/><path d="M 1016.294617904442 -188.09361558933173 C 1063.8429238940012 -84.86442531946143 1114.038011925663 57.43174166937807 1141.7823379835966 167.64680188276697" fill="none" stroke="#aaa" stroke-width="2" marker-end="url(#Activator)" stroke-linecap="round" onmouseover="BMA.SVGHelper.Highlight(this, window.ElementRegistry.LineWidth + 1)" onmouseout="BMA.SVGHelper.UnHighlight(this, window.ElementRegistry.LineWidth + 1)" data-id="114" data-ishovered="false"/><path d="M 1502.7985465719066 -196.59067816888546 C 1390.748265988399 -93.72034308695939 1251.5052199003496 53.074868212645214 1154.6909313517829 170.39735008012605" fill="none" stroke="#aaa" stroke-width="2" marker-end="url(#Inhibitor)" stroke-linecap="round" onmouseover="BMA.SVGHelper.Highlight(this, window.ElementRegistry.LineWidth + 1)" onmouseout="BMA.SVGHelper.UnHighlight(this, window.ElementRegistry.LineWidth + 1)" data-id="115" data-ishovered="false"/><path d="M 1068.08947395692 91.82593363258927 C 1085.681400624479 -66.0887232806418 1095.1513579474104 -277.2687715820118 1091.7643672642484 -436.12418712083576" fill="none" stroke="#aaa" stroke-width="2" marker-end="url(#Inhibitor)" stroke-linecap="round" onmouseover="BMA.SVGHelper.Highlight(this, window.ElementRegistry.LineWidth + 1)" onmouseout="BMA.SVGHelper.UnHighlight(this, window.ElementRegistry.LineWidth + 1)" data-id="116" data-ishovered="false"/><path d="M1063.2447017423183,91.6117364014878L1079.9781305502897,-520.3536600043275" fill="none" stroke="#aaa" stroke-width="2" marker-end="url(#Inhibitor)" stroke-linecap="round" onmouseover="BMA.SVGHelper.Highlight(this, window.ElementRegistry.LineWidth + 1)" onmouseout="BMA.SVGHelper.UnHighlight(this, window.ElementRegistry.LineWidth + 1)" data-id="118" data-ishovered="false"/><path d="M 1077.2030408707988 97.11790155256612 C 1189.2851704250913 -60.17284143941603 1326.9017229958172 -277.38642441690286 1421.244422297613 -445.916055891151" fill="none" stroke="#aaa" stroke-width="2" marker-end="url(#Inhibitor)" stroke-linecap="round" onmouseover="BMA.SVGHelper.Highlight(this, window.ElementRegistry.LineWidth + 1)" onmouseout="BMA.SVGHelper.UnHighlight(this, window.ElementRegistry.LineWidth + 1)" data-id="119" data-ishovered="false"/><path d="M1072.5324242998768,94.18919244333084L1419.585766628126,-520.3844345962772" fill="none" stroke="#aaa" stroke-width="2" marker-end="url(#Inhibitor)" stroke-linecap="round" onmouseover="BMA.SVGHelper.Highlight(this, window.ElementRegistry.LineWidth + 1)" onmouseout="BMA.SVGHelper.UnHighlight(this, window.ElementRegistry.LineWidth + 1)" data-id="120" data-ishovered="false"/><path d="M 1133.2949180128996 170.64074614427489 C 1085.7466120233405 67.41155587440458 1035.5515239916786 -74.88461111443492 1007.8071979337451 -185.0996713278238" fill="none" stroke="#aaa" stroke-width="2" marker-end="url(#Inhibitor)" stroke-linecap="round" onmouseover="BMA.SVGHelper.Highlight(this, window.ElementRegistry.LineWidth + 1)" onmouseout="BMA.SVGHelper.UnHighlight(this, window.ElementRegistry.LineWidth + 1)" data-id="121" data-ishovered="false"/><path d="M1138.3581494287455,168.87441497195795L1008.6847050387028,-256.3610242890831" fill="none" stroke="#aaa" stroke-width="2" marker-end="url(#Inhibitor)" stroke-linecap="round" onmouseover="BMA.SVGHelper.Highlight(this, window.ElementRegistry.LineWidth + 1)" onmouseout="BMA.SVGHelper.UnHighlight(this, window.ElementRegistry.LineWidth + 1)" data-id="122" data-ishovered="false"/><path d="M 1161.2206422239003 176.59112727393523 C 1273.270922807408 73.72079219200916 1412.5139688954573 -73.07441910759545 1509.328257444024 -190.39690097507628" fill="none" stroke="#aaa" stroke-width="2" marker-end="url(#Inhibitor)" stroke-linecap="round" onmouseover="BMA.SVGHelper.Highlight(this, window.ElementRegistry.LineWidth + 1)" onmouseout="BMA.SVGHelper.UnHighlight(this, window.ElementRegistry.LineWidth + 1)" data-id="123" data-ishovered="false"/><path d="M1156.5613601694565,172.28863563056564L1503.6378064515102,-268.6886300223176" fill="none" stroke="#aaa" stroke-width="2" marker-end="url(#Inhibitor)" stroke-linecap="round" onmouseover="BMA.SVGHelper.Highlight(this, window.ElementRegistry.LineWidth + 1)" onmouseout="BMA.SVGHelper.UnHighlight(this, window.ElementRegistry.LineWidth + 1)" data-id="124" data-ishovered="false"/><g transform="translate(875, -420)"><text x="0" y="0" transform="translate(-345, -373)" font-size="51" font-family="OpenSans" src="local('Segoe UI'), local('Frutiger'), local('Frutiger Linotype'), local('Dejavu Sans'), local('Helvetica Neue'), local('HelveticaNeue'), local('Arial'), local('sans serif'), local('sans-serif')" fill="black">Posterior</text></g><g transform="translate(1625, -420)"><text x="0" y="0" transform="translate(-345, -373)" font-size="51" font-family="OpenSans" src="local('Segoe UI'), local('Frutiger'), local('Frutiger Linotype'), local('Dejavu Sans'), local('Helvetica Neue'), local('HelveticaNeue'), local('Arial'), local('sans serif'), local('sans-serif')" fill="black">Anterior</text></g><g transform="translate(1125, 140)"><text x="0" y="0" transform="translate(-115, -113)" font-size="17" font-family="OpenSans" src="local('Segoe UI'), local('Frutiger'), local('Frutiger Linotype'), local('Dejavu Sans'), local('Helvetica Neue'), local('HelveticaNeue'), local('Arial'), local('sans serif'), local('sans-serif')" fill="black">Posterior_effect</text></g><g transform="translate(906.0771219032335, -719.8872296052582)"><text x="0" y="0" transform="translate(-17.5, 32)" font-size="17" font-family="OpenSans" src="local('Segoe UI'), local('Frutiger'), local('Frutiger Linotype'), local('Dejavu Sans'), local('Helvetica Neue'), local('HelveticaNeue'), local('Arial'), local('sans serif'), local('sans-serif')" fill="black">MEX5_post</text></g><g transform="translate(1591.134431924556, -732.6206368547251)"><text x="0" y="0" transform="translate(-17.5, 32)" font-size="17" font-family="OpenSans" src="local('Segoe UI'), local('Frutiger'), local('Frutiger Linotype'), local('Dejavu Sans'), local('Helvetica Neue'), local('HelveticaNeue'), local('Arial'), local('sans serif'), local('sans-serif')" fill="black">MEX5_ant</text></g><g transform="translate(900.9837590034467, -626.9333566841494)"><text x="0" y="0" transform="translate(-17.5, 32)" font-size="17" font-family="OpenSans" src="local('Segoe UI'), local('Frutiger'), local('Frutiger Linotype'), local('Dejavu Sans'), local('Helvetica Neue'), local('HelveticaNeue'), local('Arial'), local('sans serif'), local('sans-serif')" fill="black">MEX5_RNA_post</text></g><g transform="translate(1589.8610911996095, -626.9333566841494)"><text x="0" y="0" transform="translate(-17.5, 32)" font-size="17" font-family="OpenSans" src="local('Segoe UI'), local('Frutiger'), local('Frutiger Linotype'), local('Dejavu Sans'), local('Helvetica Neue'), local('HelveticaNeue'), local('Arial'), local('sans serif'), local('sans-serif')" fill="black">MEX5_RNA_ant</text></g><g transform="translate(1080.5248012209308, -540.3461873877741)"><text x="0" y="0" transform="translate(-17.5, 32)" font-size="17" font-family="OpenSans" src="local('Segoe UI'), local('Frutiger'), local('Frutiger Linotype'), local('Dejavu Sans'), local('Helvetica Neue'), local('HelveticaNeue'), local('Arial'), local('sans serif'), local('sans-serif')" fill="black">MEG3_post</text></g><g transform="translate(1429.4201598563257, -537.7995059378807)"><text x="0" y="0" transform="translate(-17.5, 32)" font-size="17" font-family="OpenSans" src="local('Segoe UI'), local('Frutiger'), local('Frutiger Linotype'), local('Dejavu Sans'), local('Helvetica Neue'), local('HelveticaNeue'), local('Arial'), local('sans serif'), local('sans-serif')" fill="black">MEG3_ant</text></g><g transform="translate(1088.164845570611, -456.3056995412921)"><text x="0" y="0" transform="translate(-17.5, 32)" font-size="17" font-family="OpenSans" src="local('Segoe UI'), local('Frutiger'), local('Frutiger Linotype'), local('Dejavu Sans'), local('Helvetica Neue'), local('HelveticaNeue'), local('Arial'), local('sans serif'), local('sans-serif')" fill="black">MEG3_RNA_post</text></g><g transform="translate(1428.146819131379, -465.219084615919)"><text x="0" y="0" transform="translate(-17.5, 32)" font-size="17" font-family="OpenSans" src="local('Segoe UI'), local('Frutiger'), local('Frutiger Linotype'), local('Dejavu Sans'), local('Helvetica Neue'), local('HelveticaNeue'), local('Arial'), local('sans serif'), local('sans-serif')" fill="black">MEG3_RNA_ant</text></g><g transform="translate(1002.8510169991824, -275.49131659886126)"><text x="0" y="0" transform="translate(-17.5, 32)" font-size="17" font-family="OpenSans" src="local('Segoe UI'), local('Frutiger'), local('Frutiger Linotype'), local('Dejavu Sans'), local('Helvetica Neue'), local('HelveticaNeue'), local('Arial'), local('sans serif'), local('sans-serif')" fill="black">PGL3_post</text></g><g transform="translate(1516.007329152701, -284.40470167348815)"><text x="0" y="0" transform="translate(-17.5, 32)" font-size="17" font-family="OpenSans" src="local('Segoe UI'), local('Frutiger'), local('Frutiger Linotype'), local('Dejavu Sans'), local('Helvetica Neue'), local('HelveticaNeue'), local('Arial'), local('sans serif'), local('sans-serif')" fill="black">PGL3_ant</text></g><g transform="translate(1005.3976984490758, -205.45757672679298)"><text x="0" y="0" transform="translate(-17.5, 32)" font-size="17" font-family="OpenSans" src="local('Segoe UI'), local('Frutiger'), local('Frutiger Linotype'), local('Dejavu Sans'), local('Helvetica Neue'), local('HelveticaNeue'), local('Arial'), local('sans serif'), local('sans-serif')" fill="black">PGL3_RNA_post</text></g><g transform="translate(1519.8273513275412, -208.00425817668636)"><text x="0" y="0" transform="translate(-17.5, 32)" font-size="17" font-family="OpenSans" src="local('Segoe UI'), local('Frutiger'), local('Frutiger Linotype'), local('Dejavu Sans'), local('Helvetica Neue'), local('HelveticaNeue'), local('Arial'), local('sans serif'), local('sans-serif')" fill="black">PGL3_RNA_ant</text></g><g transform="translate(596.6553257411863, -388.8186411191172)"><text x="0" y="0" transform="translate(-17.5, 32)" font-size="17" font-family="OpenSans" src="local('Segoe UI'), local('Frutiger'), local('Frutiger Linotype'), local('Dejavu Sans'), local('Helvetica Neue'), local('HelveticaNeue'), local('Arial'), local('sans serif'), local('sans-serif')" fill="black">RNA_post</text></g><g transform="translate(1903.1029095364968, -400.27870764363746)"><text x="0" y="0" transform="translate(-17.5, 32)" font-size="17" font-family="OpenSans" src="local('Segoe UI'), local('Frutiger'), local('Frutiger Linotype'), local('Dejavu Sans'), local('Helvetica Neue'), local('HelveticaNeue'), local('Arial'), local('sans serif'), local('sans-serif')" fill="black">RNA_ant</text></g><g transform="translate(1062.6980310716772, 111.60426378493437)"><text x="0" y="0" transform="translate(-17.5, 32)" font-size="17" font-family="OpenSans" src="local('Segoe UI'), local('Frutiger'), local('Frutiger Linotype'), local('Dejavu Sans'), local('Helvetica Neue'), local('HelveticaNeue'), local('Arial'), local('sans serif'), local('sans-serif')" fill="black">MEG3_granule</text></g><g transform="translate(1144.1918374682657, 188.00470728173613)"><text x="0" y="0" transform="translate(-17.5, 32)" font-size="17" font-family="OpenSans" src="local('Segoe UI'), local('Frutiger'), local('Frutiger Linotype'), local('Dejavu Sans'), local('Helvetica Neue'), local('HelveticaNeue'), local('Arial'), local('sans serif'), local('sans-serif')" fill="black">PGL3_granule</text></g></svg>